<?xml version="1.0" encoding="UTF-8" standalone="no"?>
<svg
   xmlns:dc="http://purl.org/dc/elements/1.1/"
   xmlns:cc="http://creativecommons.org/ns#"
   xmlns:rdf="http://www.w3.org/1999/02/22-rdf-syntax-ns#"
   xmlns:svg="http://www.w3.org/2000/svg"
   xmlns="http://www.w3.org/2000/svg"
   xmlns:xlink="http://www.w3.org/1999/xlink"
   xmlns:sodipodi="http://sodipodi.sourceforge.net/DTD/sodipodi-0.dtd"
   xmlns:inkscape="http://www.inkscape.org/namespaces/inkscape"
   version="1.1"
   width="224.7778"
   height="224.21974"
   id="svg3039"
   inkscape:version="1.0.2 (e86c870879, 2021-01-15)"
   sodipodi:docname="chromium.svg"
   viewBox="0 0 1.5ex 1.5ex">
  <sodipodi:namedview
     pagecolor="#ffffff"
     bordercolor="#666666"
     borderopacity="1"
     objecttolerance="10"
     gridtolerance="10"
     guidetolerance="10"
     inkscape:pageopacity="0"
     inkscape:pageshadow="2"
     inkscape:window-width="1920"
     inkscape:window-height="1080"
     id="namedview6"
     showgrid="false"
     inkscape:zoom="1.4142136"
     inkscape:cx="373.41882"
     inkscape:cy="139.68714"
     inkscape:window-x="0"
     inkscape:window-y="0"
     inkscape:window-maximized="1"
     inkscape:current-layer="svg3039"
     inkscape:document-rotation="0"
     fit-margin-top="0"
     fit-margin-left="0"
     fit-margin-right="0"
     fit-margin-bottom="0" />
  <metadata
     id="metadata3045">
    <rdf:RDF>
      <cc:Work
         rdf:about="">
        <dc:format>image/svg+xml</dc:format>
        <dc:type
           rdf:resource="http://purl.org/dc/dcmitype/StillImage" />
        <dc:title></dc:title>
      </cc:Work>
    </rdf:RDF>
  </metadata>
  <defs
     id="defs3043">
    <linearGradient
       id="linearGradient3803">
      <stop
         style="stop-color:#d7def0;stop-opacity:1;"
         offset="0"
         id="stop3805" />
      <stop
         id="stop3811"
         offset="0.5"
         style="stop-color:#ffffff;stop-opacity:1" />
      <stop
         style="stop-color:#d5def0;stop-opacity:1"
         offset="1"
         id="stop3807" />
    </linearGradient>
    <linearGradient
       id="linearGradient3750">
      <stop
         id="stop3752"
         offset="0"
         style="stop-color:#d0e2f1;stop-opacity:1" />
      <stop
         style="stop-color:#cadef0;stop-opacity:1"
         offset="0.85580856"
         id="stop3756" />
      <stop
         id="stop3754"
         offset="1"
         style="stop-color:#95bee3;stop-opacity:1" />
    </linearGradient>
    <linearGradient
       id="linearGradient3708">
      <stop
         style="stop-color:#658db6;stop-opacity:1"
         offset="0"
         id="stop3710" />
      <stop
         id="stop3716"
         offset="0.76777935"
         style="stop-color:#527fab;stop-opacity:1;" />
      <stop
         style="stop-color:#4071a0;stop-opacity:1"
         offset="1"
         id="stop3712" />
    </linearGradient>
    <linearGradient
       id="linearGradient3698">
      <stop
         style="stop-color:#96d0e1;stop-opacity:1"
         offset="0"
         id="stop3700" />
      <stop
         id="stop3706"
         offset="0.67819428"
         style="stop-color:#89b7e1;stop-opacity:1" />
      <stop
         style="stop-color:#699dd3;stop-opacity:1"
         offset="1"
         id="stop3702" />
    </linearGradient>
    <linearGradient
       inkscape:collect="always"
       xlink:href="#linearGradient3776"
       id="linearGradient3774"
       x1="162.07127"
       y1="85.239708"
       x2="220.76114"
       y2="78.875748"
       gradientUnits="userSpaceOnUse"
       gradientTransform="translate(-13.09641,-12.736305)" />
    <linearGradient
       id="linearGradient3776"
       inkscape:collect="always">
      <stop
         id="stop3778"
         offset="0"
         style="stop-color:#b2cde9;stop-opacity:1" />
      <stop
         id="stop3780"
         offset="1"
         style="stop-color:#c4dbee;stop-opacity:1" />
    </linearGradient>
    <radialGradient
       inkscape:collect="always"
       xlink:href="#linearGradient3708"
       id="radialGradient3714"
       cx="-123.5"
       cy="-11.570732"
       fx="-123.5"
       fy="-11.570732"
       r="95.627121"
       gradientTransform="matrix(-0.00756512,0.55751399,-1.0314585,-0.01398286,96.75155,83.057065)"
       gradientUnits="userSpaceOnUse" />
    <linearGradient
       inkscape:collect="always"
       xlink:href="#linearGradient3647"
       id="linearGradient3653"
       x1="-397.81323"
       y1="149.18764"
       x2="-397.55933"
       y2="51.355946"
       gradientUnits="userSpaceOnUse"
       gradientTransform="matrix(0.77294737,0,0,0.77619098,419.41835,33.120775)" />
    <linearGradient
       inkscape:collect="always"
       id="linearGradient3647">
      <stop
         style="stop-color:#3b79bc;stop-opacity:1;"
         offset="0"
         id="stop3649" />
      <stop
         style="stop-color:#94b8e0;stop-opacity:1"
         offset="1"
         id="stop3651" />
    </linearGradient>
    <linearGradient
       inkscape:collect="always"
       xlink:href="#linearGradient3803"
       id="linearGradient3809"
       x1="-382.04123"
       y1="37.280548"
       x2="-381.39438"
       y2="165.56691"
       gradientUnits="userSpaceOnUse"
       gradientTransform="matrix(0.77294737,0,0,0.77619098,419.41835,33.120775)" />
    <radialGradient
       inkscape:collect="always"
       xlink:href="#linearGradient3750"
       id="radialGradient3748"
       cx="-94.87291"
       cy="165.27281"
       fx="-94.87291"
       fy="165.27281"
       r="60.481358"
       gradientTransform="matrix(0.81293878,1.6998003,-2.1519091,1.0291615,547.90673,98.324215)"
       gradientUnits="userSpaceOnUse" />
    <radialGradient
       inkscape:collect="always"
       xlink:href="#linearGradient3698"
       id="radialGradient3704"
       cx="-383.2746"
       cy="217.91029"
       fx="-383.2746"
       fy="217.91029"
       r="59.401997"
       gradientTransform="matrix(-1.2861568,-0.08596317,0.11453678,-1.7136762,-441.50794,449.34606)"
       gradientUnits="userSpaceOnUse" />
  </defs>
  <path
     style="fill:url(#linearGradient3774);fill-opacity:1;fill-rule:nonzero;stroke:none"
     d="m 215.68446,67.965485 c 0,15.67392 -19.79135,34.931525 -45.84395,34.931525 -26.0526,0 -59.92241,-16.081235 -59.92241,-31.755155 0,-15.67393 21.11981,-28.38015 47.17241,-28.38015 19.90254,0 46.36122,18.29322 56.45971,20.3521 0.79179,1.71057 1.36862,2.92508 2.13424,4.85168 z"
     id="path3655"
     sodipodi:nodetypes="cssscc" />
  <path
     style="fill:#2e5c91;fill-opacity:1;fill-rule:nonzero;stroke:none"
     d="m 22.3339,45.816585 c 12.38148,-9.61099 35.31451,-1.24532 51.289551,19.33468 15.975027,20.58 17.694937,51.065075 5.31349,60.676065 -12.38147,9.61099 -34.175711,-5.29155 -50.150741,-25.871565 -12.20392,-15.72181 -4.05062,-41.19089 -8.61646,-50.43055 0.61589,-1.12206 1.3817,-2.45661 2.16416,-3.70863 z"
     id="path3655-4-8"
     sodipodi:nodetypes="cssscc" />
  <path
     style="fill:url(#radialGradient3714);fill-opacity:1;fill-rule:nonzero;stroke:none"
     d="m 213.55535,63.106825 c -7.0081,-0.0326 -61.07025,0.28958 -107.66568,0.0654 -17.371002,5.1081 -31.704629,13.25883 -39.181779,29.15495 C 61.3715,87.784805 25.96213,50.111565 22.30111,45.886485 53.69094,4.2376853 96.82913,0.32716527 105.21637,0.32716527 c 8.38724,0 70.64407,-8.63184997 108.33898,62.77965973 z"
     id="path3596"
     sodipodi:nodetypes="ccccsc" />
  <path
     style="fill:#699dd3;fill-opacity:1;fill-rule:nonzero;stroke:none"
     d="m 100.63642,223.81322 c -12.498352,-9.45851 -14.575202,-36.93927 1.14635,-57.71356 15.72155,-20.77428 41.03582,-34.94753 53.53417,-25.48904 12.49834,9.4585 7.44792,38.96701 -8.27364,59.74129 -12.01027,15.87024 -35.4911,16.88498 -43.22681,23.69505 -1.23894,-0.0455 -1.95523,-0.0605 -3.18007,-0.23374 z"
     id="path3655-4"
     sodipodi:nodetypes="cssscc" />
  <path
     style="fill:url(#radialGradient3748);fill-opacity:1;fill-rule:nonzero;stroke:none"
     d="m 103.81508,224.0461 c 3.58354,-6.02268 28.85859,-52.8991 52.69131,-92.9389 4.41104,-17.56095 5.34663,-33.641855 -4.5584,-48.149935 6.62173,-2.29412 58.23852,-13.97635 63.73684,-14.98769 19.9656,48.180085 1.44992,87.338285 -2.80522,94.565975 -4.25515,7.22768 -28.40179,65.25666 -109.06453,61.51055 z"
     id="path3596-1"
     sodipodi:nodetypes="ccccsc" />
  <path
     style="fill:url(#radialGradient3704);fill-opacity:1;fill-rule:nonzero;stroke:none"
     d="m 20.20873,49.487585 c 3.46858,6.08961 30.72312,52.780205 53.778521,93.272585 13.094367,12.50527 27.684999,19.48512 45.191739,18.03328 -1.2738,6.89113 -16.62898,57.75037 -18.4638,63.03126 -51.75624,-6.42158 -76.66978,-41.85476 -80.85476,-49.1233 -4.18497,-7.26855 -42.72975,-56.91452 0.3483,-125.213825 z"
     id="path3596-1-7"
     sodipodi:nodetypes="ccccsc" />
  <path
     style="fill:url(#linearGradient3653);fill-opacity:1;stroke:url(#linearGradient3809);stroke-width:7.79997;stroke-miterlimit:4;stroke-opacity:1"
     d="m 157.82151,111.84496 c 0,25.34288 -20.45861,45.88735 -45.6956,45.88735 -25.23698,0 -45.695598,-20.54447 -45.695598,-45.88735 0,-25.342895 20.458618,-45.887365 45.695598,-45.887365 25.23699,0 45.6956,20.54447 45.6956,45.887365 z"
     id="path3645" />
  <path
     style="fill:#ffffff;fill-opacity:1;fill-rule:nonzero;stroke:none"
     d="m 147.05807,88.740885 c 18.52979,17.098365 16.03302,29.557945 10.0625,44.000005 -3.10892,-22.25001 -2.34478,-32.42697 -10.0625,-44.000005 z"
     id="rect3782"
     sodipodi:nodetypes="ccc" />
  <path
     style="fill:#ffffff;fill-opacity:1;fill-rule:nonzero;stroke:none"
     d="M 84.932798,153.48431 C 62.2872,139.01096 55.12291,107.76448 76.119444,90.493985 65.271883,110.26913 69.894015,122.89262 84.932798,153.48431 Z"
     id="rect3782-4"
     sodipodi:nodetypes="ccc" />
</svg>
