<?xml version="1.0" encoding="UTF-8" standalone="no"?>
<!-- Created with Inkscape (http://www.inkscape.org/) -->

<svg
   xmlns:dc="http://purl.org/dc/elements/1.1/"
   xmlns:cc="http://creativecommons.org/ns#"
   xmlns:rdf="http://www.w3.org/1999/02/22-rdf-syntax-ns#"
   xmlns:svg="http://www.w3.org/2000/svg"
   xmlns="http://www.w3.org/2000/svg"
   xmlns:inkscape="http://www.inkscape.org/namespaces/inkscape"
   version="1.1"
   viewBox="40 34 790 314"
   id="svg2"
   xml:space="preserve"><metadata
     id="metadata8"><rdf:RDF><cc:Work
         rdf:about=""><dc:format>image/svg+xml</dc:format><dc:type
           rdf:resource="http://purl.org/dc/dcmitype/StillImage" /></cc:Work></rdf:RDF></metadata><defs
     id="defs6" /><g
     transform="matrix(1.25,0,0,-1.25,0,348.2625)"
     id="g10"><g
       transform="scale(0.1,0.1)"
       id="g12"><path
         d="m 302.57,324.707 63.164,0 0,-89.414 91.055,89.414 73.336,0 -117.961,-115.992 130.102,-128.9533 -79.078,0 -97.454,96.4683 0,-96.4683 -63.164,0 0,244.9453"
         inkscape:connector-curvature="0"
         id="path14"
         style="fill:#000000;fill-opacity:1;fill-rule:nonzero;stroke:none" /><path
         d="m 745.211,191.652 0,-111.8903 -59.063,0 0,85.6403 c 0,15.86 -0.382,26.797 -1.148,32.813 -0.656,6.015 -1.859,10.445 -3.609,13.289 -2.297,3.828 -5.414,6.781 -9.352,8.859 -3.937,2.184 -8.422,3.278 -13.453,3.282 -12.25,-0.004 -21.875,-4.758 -28.875,-14.274 -7,-9.406 -10.5,-22.476 -10.5,-39.211 l 0,-90.3983 -58.734,0 0,183.7503 58.734,0 0,-26.907 c 8.859,10.715 18.266,18.59 28.219,23.625 9.953,5.137 20.945,7.711 32.976,7.711 21.219,0 37.297,-6.511 48.235,-19.523 11.047,-13.016 16.57,-31.941 16.57,-56.766"
         inkscape:connector-curvature="0"
         id="path16"
         style="fill:#000000;fill-opacity:1;fill-rule:nonzero;stroke:none" /><path
         d="m 887.453,225.941 c -13.015,0 -22.969,-4.703 -29.859,-14.109 -6.782,-9.297 -10.172,-22.75 -10.172,-40.359 0,-17.61 3.39,-31.118 10.172,-40.524 6.89,-9.297 16.844,-13.945 29.859,-13.945 12.797,0 22.586,4.648 29.367,13.945 6.782,9.406 10.172,22.914 10.172,40.524 0,17.609 -3.39,31.062 -10.172,40.359 -6.781,9.406 -16.57,14.109 -29.367,14.109 m 0,42 c 31.609,0 56.274,-8.535 73.992,-25.593 17.828,-17.063 26.743,-40.688 26.743,-70.875 0,-30.188 -8.915,-53.813 -26.743,-70.875 -17.718,-17.0628 -42.383,-25.5941 -73.992,-25.5941 -31.719,0 -56.547,8.5313 -74.484,25.5941 -17.828,17.062 -26.742,40.687 -26.742,70.875 0,30.187 8.914,53.812 26.742,70.875 17.937,17.058 42.765,25.593 74.484,25.593"
         inkscape:connector-curvature="0"
         id="path18"
         style="fill:#000000;fill-opacity:1;fill-rule:nonzero;stroke:none" /><path
         d="m 1014.6,263.512 57.1,0 30.84,-126.657 31.01,126.657 49.05,0 30.85,-125.344 31,125.344 57.1,0 -48.4,-183.7503 -64.15,0 -31.01,126.3283 -30.84,-126.3283 -64.15,0 -48.4,183.7503"
         inkscape:connector-curvature="0"
         id="path20"
         style="fill:#000000;fill-opacity:1;fill-rule:nonzero;stroke:none" /><path
         d="m 1341.41,79.7617 58.7344,0 0,255.281 -58.7344,0 0,-255.281 z"
         inkscape:connector-curvature="0"
         id="path22"
         style="fill:#000000;fill-opacity:1;fill-rule:nonzero;stroke:none" /><path
         d="m 1640.34,172.129 0,-16.734 -137.32,0 c 1.42,-13.782 6.39,-24.118 14.93,-31.008 8.53,-6.891 20.45,-10.336 35.76,-10.336 12.36,0 24.99,1.804 37.9,5.414 13.01,3.719 26.36,9.297 40.03,16.734 l 0,-45.281 c -13.89,-5.25 -27.78,-9.1875 -41.67,-11.8125 -13.89,-2.7344 -27.78,-4.1016 -41.67,-4.1016 -33.25,0 -59.12,8.4219 -77.6,25.2661 -18.38,16.953 -27.57,40.687 -27.57,71.203 0,29.968 9.03,53.539 27.07,70.711 18.16,17.168 43.1,25.757 74.82,25.757 28.87,0 51.95,-8.699 69.23,-26.086 17.39,-17.39 26.09,-40.632 26.09,-69.726 m -60.38,19.523 c 0,11.157 -3.28,20.121 -9.84,26.907 -6.46,6.89 -14.93,10.332 -25.43,10.336 -11.38,-0.004 -20.62,-3.227 -27.73,-9.68 -7.11,-6.348 -11.54,-15.531 -13.29,-27.563 l 76.29,0"
         inkscape:connector-curvature="0"
         id="path24"
         style="fill:#000000;fill-opacity:1;fill-rule:nonzero;stroke:none" /><path
         d="m 1809.65,236.605 0,98.438 59.06,0 0,-255.2813 -59.06,0 0,26.5783 c -8.1,-10.8283 -17.01,-18.758 -26.74,-23.7892 -9.74,-5.0313 -21,-7.5469 -33.8,-7.5469 -22.64,0 -41.23,8.9688 -55.78,26.9061 -14.55,18.047 -21.82,41.235 -21.82,69.563 0,28.328 7.27,51.457 21.82,69.398 14.55,18.047 33.14,27.07 55.78,27.07 12.69,0 23.9,-2.574 33.63,-7.711 9.85,-5.035 18.81,-12.91 26.91,-23.625 M 1770.93,117.66 c 12.58,0 22.15,4.594 28.71,13.781 6.67,9.188 10.01,22.532 10.01,40.032 0,17.5 -3.34,30.843 -10.01,40.031 -6.56,9.187 -16.13,13.781 -28.71,13.781 -12.47,0 -22.04,-4.594 -28.71,-13.781 -6.56,-9.188 -9.84,-22.531 -9.84,-40.031 0,-17.5 3.28,-30.844 9.84,-40.032 6.67,-9.187 16.24,-13.781 28.71,-13.781"
         inkscape:connector-curvature="0"
         id="path26"
         style="fill:#000000;fill-opacity:1;fill-rule:nonzero;stroke:none" /><path
         d="m 2050.49,110.934 c -8.09,-10.719 -17.01,-18.5942 -26.74,-23.6254 -9.73,-5.0313 -21,-7.5469 -33.8,-7.5469 -22.42,0 -40.96,8.8047 -55.61,26.4143 -14.66,17.719 -21.99,40.25 -21.99,67.594 0,27.453 7.33,49.929 21.99,67.429 14.65,17.61 33.19,26.41 55.61,26.414 12.8,-0.004 24.07,-2.519 33.8,-7.547 9.73,-5.031 18.65,-12.961 26.74,-23.789 l 0,27.235 59.06,0 0,-165.2112 c 0,-29.5313 -9.35,-52.0625 -28.05,-67.5938 -18.59,-15.6406 -45.61,-23.46091 -81.05,-23.46091 -11.48,0 -22.58,0.875 -33.3,2.625 -10.72,1.75001 -21.49,4.42971 -32.32,8.03911 l 0,45.7734 c 10.28,-5.9063 20.34,-10.2813 30.19,-13.125 9.84,-2.9531 19.74,-4.4297 29.69,-4.4297 19.25,0 33.36,4.2109 42.33,12.6328 8.97,8.4219 13.45,21.6016 13.45,39.5391 l 0,12.6332 m -38.72,114.351 c -12.14,0 -21.6,-4.488 -28.38,-13.453 -6.78,-8.969 -10.17,-21.656 -10.17,-38.062 0,-16.844 3.28,-29.641 9.84,-38.391 6.56,-8.641 16.14,-12.961 28.71,-12.961 12.25,0 21.77,4.484 28.55,13.453 6.78,8.969 10.17,21.602 10.17,37.899 0,16.406 -3.39,29.093 -10.17,38.062 -6.78,8.965 -16.3,13.453 -28.55,13.453"
         inkscape:connector-curvature="0"
         id="path28"
         style="fill:#000000;fill-opacity:1;fill-rule:nonzero;stroke:none" /><path
         d="m 2349.74,172.129 0,-16.734 -137.32,0 c 1.42,-13.782 6.4,-24.118 14.93,-31.008 8.53,-6.891 20.45,-10.336 35.77,-10.336 12.36,0 24.99,1.804 37.9,5.414 13.01,3.719 26.36,9.297 40.03,16.734 l 0,-45.281 c -13.89,-5.25 -27.78,-9.1875 -41.67,-11.8125 -13.9,-2.7344 -27.79,-4.1016 -41.68,-4.1016 -33.25,0 -59.11,8.4219 -77.6,25.2661 -18.37,16.953 -27.56,40.687 -27.56,71.203 0,29.968 9.02,53.539 27.07,70.711 18.16,17.168 43.09,25.757 74.81,25.757 28.88,0 51.96,-8.699 69.24,-26.086 17.39,-17.39 26.08,-40.632 26.08,-69.726 m -60.37,19.523 c 0,11.157 -3.28,20.121 -9.85,26.907 -6.45,6.89 -14.93,10.332 -25.43,10.336 -11.37,-0.004 -20.61,-3.227 -27.72,-9.68 -7.11,-6.348 -11.54,-15.531 -13.29,-27.563 l 76.29,0"
         inkscape:connector-curvature="0"
         id="path30"
         style="fill:#000000;fill-opacity:1;fill-rule:nonzero;stroke:none" /><path
         d="m 2384.03,152.605 103.031,0 0,47.7422 -103.031,0 0,-47.7422 z"
         inkscape:connector-curvature="0"
         id="path32"
         style="fill:#000000;fill-opacity:1;fill-rule:nonzero;stroke:none" /><path
         d="m 2634.55,229.879 c 9.96,0 17.5,2.187 22.65,6.562 5.14,4.371 7.71,10.825 7.71,19.36 0,8.418 -2.57,14.816 -7.71,19.195 -5.15,4.481 -12.69,6.723 -22.65,6.727 l -34.94,0 0,-51.844 34.94,0 m 2.14,-107.133 c 12.69,0 22.2,2.68 28.54,8.039 6.46,5.36 9.68,13.453 9.68,24.281 0,10.61 -3.17,18.539 -9.51,23.789 -6.35,5.36 -15.92,8.04 -28.71,8.04 l -37.08,0 0,-64.149 37.08,0 m 58.73,88.102 c 13.56,-3.938 24.06,-11.211 31.5,-21.821 7.44,-10.609 11.16,-23.625 11.16,-39.047 0,-23.625 -7.99,-41.234 -23.96,-52.8277 -15.96,-11.5937 -40.24,-17.3906 -72.84,-17.3906 l -104.83,0 0,244.9453 94.82,0 c 34.02,-0.004 58.63,-5.145 73.83,-15.422 15.31,-10.285 22.97,-26.746 22.97,-49.383 0,-11.925 -2.79,-22.093 -8.37,-30.515 -5.58,-8.317 -13.67,-14.496 -24.28,-18.539"
         inkscape:connector-curvature="0"
         id="path34"
         style="fill:#000000;fill-opacity:1;fill-rule:nonzero;stroke:none" /><path
         d="m 2872.12,162.449 c -12.25,0 -21.5,-2.078 -27.73,-6.234 -6.12,-4.156 -9.19,-10.281 -9.19,-18.375 0,-7.438 2.46,-13.289 7.39,-17.555 5.03,-4.156 11.97,-6.234 20.83,-6.234 11.05,0 20.35,3.937 27.89,11.812 7.55,7.985 11.32,17.938 11.32,29.86 l 0,6.726 -30.51,0 m 89.74,22.149 0,-104.8363 -59.23,0 0,27.2343 c -7.87,-11.1562 -16.73,-19.3046 -26.58,-24.4452 -9.84,-5.0313 -21.82,-7.5469 -35.93,-7.5469 -19.03,0 -34.5,5.5234 -46.42,16.5703 -11.82,11.1558 -17.72,25.5938 -17.72,43.3128 0,21.547 7.38,37.351 22.14,47.414 14.88,10.062 38.18,15.094 69.9,15.094 l 34.61,0 0,4.593 c 0,9.297 -3.66,16.078 -10.99,20.344 -7.33,4.371 -18.76,6.559 -34.29,6.563 -12.58,-0.004 -24.28,-1.262 -35.11,-3.774 -10.83,-2.516 -20.89,-6.289 -30.19,-11.32 l 0,44.789 c 12.58,3.058 25.22,5.355 37.9,6.89 12.69,1.637 25.38,2.461 38.07,2.461 33.14,0 57.03,-6.566 71.69,-19.687 14.77,-13.016 22.15,-34.234 22.15,-63.656"
         inkscape:connector-curvature="0"
         id="path36"
         style="fill:#000000;fill-opacity:1;fill-rule:nonzero;stroke:none" /><path
         d="m 3159.72,257.77 0,-44.625 c -12.58,5.246 -24.72,9.187 -36.42,11.812 -11.71,2.625 -22.75,3.934 -33.14,3.938 -11.16,-0.004 -19.47,-1.422 -24.94,-4.266 -5.36,-2.738 -8.04,-7 -8.04,-12.797 0,-4.703 2.02,-8.312 6.07,-10.828 4.16,-2.516 11.54,-4.375 22.15,-5.578 l 10.33,-1.477 c 30.08,-3.828 50.32,-10.117 60.71,-18.867 10.39,-8.75 15.58,-22.477 15.58,-41.18 0,-19.578 -7.22,-34.2887 -21.65,-44.1325 -14.44,-9.8437 -35.99,-14.7656 -64.64,-14.7656 -12.14,0 -24.72,0.9844 -37.74,2.9531 -12.9,1.8594 -26.19,4.7032 -39.87,8.5313 l 0,44.6247 c 11.71,-5.687 23.68,-9.953 35.93,-12.797 12.36,-2.843 24.89,-4.265 37.57,-4.265 11.49,0 20.13,1.586 25.93,4.758 5.79,3.171 8.69,7.875 8.69,14.109 0,5.25 -2.02,9.133 -6.07,11.648 -3.94,2.625 -11.87,4.649 -23.79,6.071 l -10.33,1.312 c -26.14,3.281 -44.46,9.352 -54.96,18.211 -10.5,8.86 -15.75,22.313 -15.75,40.36 0,19.468 6.67,33.906 20.01,43.312 13.35,9.406 33.8,14.109 61.36,14.109 10.83,0 22.2,-0.824 34.13,-2.461 11.92,-1.644 24.88,-4.214 38.88,-7.71"
         inkscape:connector-curvature="0"
         id="path38"
         style="fill:#000000;fill-opacity:1;fill-rule:nonzero;stroke:none" /><path
         d="m 3399.09,172.129 0,-16.734 -137.32,0 c 1.42,-13.782 6.39,-24.118 14.93,-31.008 8.53,-6.891 20.45,-10.336 35.76,-10.336 12.36,0 24.99,1.804 37.9,5.414 13.02,3.719 26.36,9.297 40.03,16.734 l 0,-45.281 c -13.89,-5.25 -27.78,-9.1875 -41.67,-11.8125 -13.89,-2.7344 -27.78,-4.1016 -41.67,-4.1016 -33.25,0 -59.12,8.4219 -77.6,25.2661 -18.38,16.953 -27.57,40.687 -27.57,71.203 0,29.968 9.03,53.539 27.07,70.711 18.16,17.168 43.1,25.757 74.82,25.757 28.87,0 51.95,-8.699 69.23,-26.086 17.39,-17.39 26.09,-40.632 26.09,-69.726 m -60.38,19.523 c 0,11.157 -3.28,20.121 -9.84,26.907 -6.46,6.89 -14.93,10.332 -25.43,10.336 -11.38,-0.004 -20.62,-3.227 -27.73,-9.68 -7.11,-6.348 -11.54,-15.531 -13.29,-27.563 l 76.29,0"
         inkscape:connector-curvature="0"
         id="path40"
         style="fill:#000000;fill-opacity:1;fill-rule:nonzero;stroke:none" /><path
         d="m 3568.4,236.605 0,98.438 59.06,0 0,-255.2813 -59.06,0 0,26.5783 c -8.1,-10.8283 -17.01,-18.758 -26.74,-23.7892 -9.74,-5.0313 -21,-7.5469 -33.8,-7.5469 -22.64,0 -41.24,8.9688 -55.78,26.9061 -14.55,18.047 -21.82,41.235 -21.82,69.563 0,28.328 7.27,51.457 21.82,69.398 14.54,18.047 33.14,27.07 55.78,27.07 12.69,0 23.9,-2.574 33.63,-7.711 9.85,-5.035 18.81,-12.91 26.91,-23.625 M 3529.68,117.66 c 12.58,0 22.15,4.594 28.71,13.781 6.67,9.188 10.01,22.532 10.01,40.032 0,17.5 -3.34,30.843 -10.01,40.031 -6.56,9.187 -16.13,13.781 -28.71,13.781 -12.47,0 -22.04,-4.594 -28.71,-13.781 -6.56,-9.188 -9.85,-22.531 -9.85,-40.031 0,-17.5 3.29,-30.844 9.85,-40.032 6.67,-9.187 16.24,-13.781 28.71,-13.781"
         inkscape:connector-curvature="0"
         id="path42"
         style="fill:#000000;fill-opacity:1;fill-rule:nonzero;stroke:none" /><path
         d="m 3974.12,316.996 0,-51.844 c -13.45,6.016 -26.57,10.551 -39.37,13.618 -12.8,3.058 -24.88,4.589 -36.26,4.593 -15.09,-0.004 -26.25,-2.082 -33.47,-6.234 -7.22,-4.16 -10.82,-10.613 -10.82,-19.359 0,-6.567 2.4,-11.708 7.21,-15.422 4.93,-3.61 13.79,-6.731 26.58,-9.352 l 26.91,-5.414 c 27.23,-5.469 46.59,-13.785 58.08,-24.937 11.48,-11.157 17.22,-27.016 17.22,-47.579 0,-27.015 -8.04,-47.14 -24.11,-60.3746 -15.97,-13.125 -40.42,-19.6875 -73.34,-19.6875 -15.53,0 -31.12,1.4766 -46.76,4.4297 -15.64,2.9531 -31.28,7.3281 -46.92,13.125 l 0,53.3204 c 15.64,-8.313 30.73,-14.602 45.28,-18.867 14.66,-4.157 28.77,-6.235 42.33,-6.235 13.78,0 24.34,2.297 31.66,6.891 7.33,4.594 11,11.156 11,19.687 0,7.657 -2.52,13.563 -7.55,17.719 -4.92,4.156 -14.82,7.875 -29.7,11.156 l -24.44,5.415 c -24.5,5.25 -42.44,13.617 -53.81,25.101 -11.27,11.481 -16.9,26.957 -16.9,46.43 0,24.386 7.87,43.144 23.62,56.273 15.75,13.121 38.39,19.684 67.92,19.688 13.46,-0.004 27.29,-1.043 41.51,-3.117 14.22,-1.973 28.93,-4.981 44.13,-9.024"
         inkscape:connector-curvature="0"
         id="path44"
         style="fill:#000000;fill-opacity:1;fill-rule:nonzero;stroke:none" /><path
         d="m 4019.73,263.512 58.74,0 49.38,-124.688 42,124.688 58.74,0 -77.28,-201.1409 C 4143.55,41.918 4134.47,27.6445 4124.08,19.5508 4113.8,11.3477 4100.18,7.24609 4083.23,7.24609 l -33.96,0 0,38.55471 18.37,0 c 9.95,0 17.17,1.5859 21.66,4.7578 4.59,3.1719 8.15,8.8594 10.66,17.0625 l 1.64,5.0859 -81.87,190.805"
         inkscape:connector-curvature="0"
         id="path46"
         style="fill:#000000;fill-opacity:1;fill-rule:nonzero;stroke:none" /><path
         d="m 4406.59,257.77 0,-44.625 c -12.57,5.246 -24.71,9.187 -36.42,11.812 -11.7,2.625 -22.75,3.934 -33.14,3.938 -11.15,-0.004 -19.47,-1.422 -24.94,-4.266 -5.36,-2.738 -8.04,-7 -8.04,-12.797 0,-4.703 2.03,-8.312 6.07,-10.828 4.16,-2.516 11.54,-4.375 22.15,-5.578 l 10.34,-1.477 c 30.08,-3.828 50.31,-10.117 60.7,-18.867 10.39,-8.75 15.59,-22.477 15.59,-41.18 0,-19.578 -7.22,-34.2887 -21.66,-44.1325 -14.44,-9.8437 -35.98,-14.7656 -64.64,-14.7656 -12.14,0 -24.72,0.9844 -37.73,2.9531 -12.91,1.8594 -26.2,4.7032 -39.87,8.5313 l 0,44.6247 c 11.7,-5.687 23.68,-9.953 35.93,-12.797 12.36,-2.843 24.88,-4.265 37.57,-4.265 11.48,0 20.12,1.586 25.92,4.758 5.8,3.171 8.7,7.875 8.7,14.109 0,5.25 -2.03,9.133 -6.07,11.648 -3.94,2.625 -11.87,4.649 -23.79,6.071 l -10.34,1.312 c -26.14,3.281 -44.46,9.352 -54.96,18.211 -10.5,8.86 -15.75,22.313 -15.75,40.36 0,19.468 6.67,33.906 20.02,43.312 13.34,9.406 33.79,14.109 61.36,14.109 10.82,0 22.2,-0.824 34.12,-2.461 11.92,-1.644 24.88,-4.214 38.88,-7.71"
         inkscape:connector-curvature="0"
         id="path48"
         style="fill:#000000;fill-opacity:1;fill-rule:nonzero;stroke:none" /><path
         d="m 4526.69,315.684 0,-52.172 60.54,0 0,-42 -60.54,0 0,-77.93 c 0,-8.531 1.69,-14.328 5.08,-17.391 3.39,-2.953 10.12,-4.429 20.18,-4.429 l 30.19,0 0,-42.0003 -50.37,0 c -23.18,0 -39.65,4.8125 -49.38,14.4375 -9.62,9.7348 -14.44,26.1958 -14.44,49.3828 l 0,77.93 -29.2,0 0,42 29.2,0 0,52.172 58.74,0"
         inkscape:connector-curvature="0"
         id="path50"
         style="fill:#000000;fill-opacity:1;fill-rule:nonzero;stroke:none" /><path
         d="m 4806.74,172.129 0,-16.734 -137.32,0 c 1.42,-13.782 6.4,-24.118 14.93,-31.008 8.53,-6.891 20.45,-10.336 35.77,-10.336 12.36,0 24.99,1.804 37.9,5.414 13.01,3.719 26.36,9.297 40.03,16.734 l 0,-45.281 c -13.89,-5.25 -27.78,-9.1875 -41.67,-11.8125 -13.9,-2.7344 -27.79,-4.1016 -41.68,-4.1016 -33.25,0 -59.11,8.4219 -77.6,25.2661 -18.37,16.953 -27.56,40.687 -27.56,71.203 0,29.968 9.02,53.539 27.07,70.711 18.16,17.168 43.09,25.757 74.81,25.757 28.88,0 51.96,-8.699 69.24,-26.086 17.39,-17.39 26.08,-40.632 26.08,-69.726 m -60.37,19.523 c 0,11.157 -3.28,20.121 -9.85,26.907 -6.45,6.89 -14.93,10.332 -25.43,10.336 -11.37,-0.004 -20.61,-3.227 -27.72,-9.68 -7.11,-6.348 -11.54,-15.531 -13.29,-27.563 l 76.29,0"
         inkscape:connector-curvature="0"
         id="path52"
         style="fill:#000000;fill-opacity:1;fill-rule:nonzero;stroke:none" /><path
         d="m 5021.34,232.996 c 7.43,11.371 16.24,20.016 26.41,25.922 10.28,6.012 21.55,9.023 33.8,9.023 21.11,0 37.18,-6.511 48.23,-19.523 11.05,-13.016 16.57,-31.941 16.57,-56.766 l 0,-111.8903 -59.06,0 0,95.8123 c 0.11,1.422 0.16,2.899 0.16,4.43 0.11,1.531 0.17,3.719 0.17,6.562 0,13.016 -1.92,22.422 -5.74,28.219 -3.83,5.906 -10.01,8.856 -18.54,8.86 -11.16,-0.004 -19.8,-4.598 -25.93,-13.782 -6.01,-9.187 -9.13,-22.476 -9.35,-39.867 l 0,-90.2343 -59.06,0 0,95.8123 c 0,20.344 -1.75,33.414 -5.25,39.211 -3.5,5.906 -9.73,8.856 -18.7,8.86 -11.27,-0.004 -19.96,-4.649 -26.09,-13.946 -6.12,-9.187 -9.19,-22.367 -9.19,-39.539 l 0,-90.3983 -59.06,0 0,183.7503 59.06,0 0,-26.907 c 7.22,10.387 15.48,18.207 24.78,23.461 9.4,5.246 19.74,7.875 31,7.875 12.69,0 23.9,-3.066 33.64,-9.187 9.73,-6.125 17.11,-14.715 22.15,-25.758"
         inkscape:connector-curvature="0"
         id="path54"
         style="fill:#000000;fill-opacity:1;fill-rule:nonzero;stroke:none" /><path
         d="m 5345.03,257.77 0,-44.625 c -12.58,5.246 -24.72,9.187 -36.42,11.812 -11.7,2.625 -22.75,3.934 -33.14,3.938 -11.16,-0.004 -19.47,-1.422 -24.94,-4.266 -5.36,-2.738 -8.04,-7 -8.04,-12.797 0,-4.703 2.03,-8.312 6.07,-10.828 4.16,-2.516 11.54,-4.375 22.15,-5.578 l 10.34,-1.477 c 30.07,-3.828 50.31,-10.117 60.7,-18.867 10.39,-8.75 15.59,-22.477 15.59,-41.18 0,-19.578 -7.22,-34.2887 -21.66,-44.1325 -14.44,-9.8437 -35.98,-14.7656 -64.64,-14.7656 -12.14,0 -24.72,0.9844 -37.74,2.9531 -12.9,1.8594 -26.19,4.7032 -39.86,8.5313 l 0,44.6247 c 11.7,-5.687 23.68,-9.953 35.93,-12.797 12.36,-2.843 24.88,-4.265 37.57,-4.265 11.48,0 20.12,1.586 25.92,4.758 5.8,3.171 8.69,7.875 8.69,14.109 0,5.25 -2.02,9.133 -6.07,11.648 -3.93,2.625 -11.86,4.649 -23.78,6.071 l -10.34,1.312 c -26.14,3.281 -44.46,9.352 -54.96,18.211 -10.5,8.86 -15.75,22.313 -15.75,40.36 0,19.468 6.67,33.906 20.01,43.312 13.35,9.406 33.8,14.109 61.36,14.109 10.83,0 22.21,-0.824 34.13,-2.461 11.92,-1.644 24.88,-4.214 38.88,-7.71"
         inkscape:connector-curvature="0"
         id="path56"
         style="fill:#000000;fill-opacity:1;fill-rule:nonzero;stroke:none" /><path
         d="m 5740.59,97.9727 c -15.75,-7.6563 -32.11,-13.3985 -49.06,-17.2266 -16.95,-3.8281 -34.45,-5.7422 -52.5,-5.7422 -40.8,0 -73.12,11.375 -96.96,34.1251 -23.84,22.859 -35.77,53.812 -35.77,92.859 0,39.485 12.15,70.543 36.43,93.188 24.28,22.636 57.53,33.957 99.75,33.961 16.29,-0.004 31.88,-1.535 46.75,-4.594 14.99,-3.066 29.1,-7.605 42.33,-13.617 l 0,-50.696 c -13.67,7.762 -27.29,13.559 -40.85,17.391 -13.45,3.824 -26.96,5.738 -40.52,5.742 -25.16,-0.004 -44.57,-7.058 -58.24,-21.164 -13.57,-14.004 -20.35,-34.07 -20.35,-60.211 0,-25.922 6.56,-45.937 19.69,-60.047 13.12,-14.109 31.77,-21.164 55.94,-21.164 6.57,0 12.64,0.383 18.22,1.149 5.68,0.875 10.77,2.187 15.25,3.937 l 0,47.578 -38.55,0 0,42.329 98.44,0 0,-117.7973"
         inkscape:connector-curvature="0"
         id="path58"
         style="fill:#000000;fill-opacity:1;fill-rule:nonzero;stroke:none" /><path
         d="m 5929.91,213.473 c -5.14,2.406 -10.28,4.156 -15.42,5.25 -5.03,1.203 -10.11,1.8 -15.26,1.804 -15.09,-0.004 -26.74,-4.867 -34.94,-14.601 -8.09,-9.625 -12.14,-23.461 -12.14,-41.508 l 0,-84.6563 -58.74,0 0,183.7503 58.74,0 0,-30.188 c 7.55,12.031 16.19,20.781 25.92,26.25 9.84,5.574 21.6,8.367 35.27,8.367 1.97,0 4.11,-0.113 6.4,-0.328 2.3,-0.113 5.64,-0.441 10.01,-0.984 l 0.16,-53.156"
         inkscape:connector-curvature="0"
         id="path60"
         style="fill:#000000;fill-opacity:1;fill-rule:nonzero;stroke:none" /><path
         d="m 6046.89,225.941 c -13.01,0 -22.97,-4.703 -29.86,-14.109 -6.78,-9.297 -10.17,-22.75 -10.17,-40.359 0,-17.61 3.39,-31.118 10.17,-40.524 6.89,-9.297 16.85,-13.945 29.86,-13.945 12.8,0 22.59,4.648 29.37,13.945 6.78,9.406 10.17,22.914 10.17,40.524 0,17.609 -3.39,31.062 -10.17,40.359 -6.78,9.406 -16.57,14.109 -29.37,14.109 m 0,42 c 31.61,0 56.27,-8.535 73.99,-25.593 17.83,-17.063 26.74,-40.688 26.74,-70.875 0,-30.188 -8.91,-53.813 -26.74,-70.875 -17.72,-17.0628 -42.38,-25.5941 -73.99,-25.5941 -31.72,0 -56.55,8.5313 -74.48,25.5941 -17.83,17.062 -26.75,40.687 -26.75,70.875 0,30.187 8.92,53.812 26.75,70.875 17.93,17.058 42.76,25.593 74.48,25.593"
         inkscape:connector-curvature="0"
         id="path62"
         style="fill:#000000;fill-opacity:1;fill-rule:nonzero;stroke:none" /><path
         d="m 6188.48,151.293 0,112.219 59.06,0 0,-18.375 c 0,-9.957 -0.06,-22.477 -0.16,-37.571 -0.11,-14.984 -0.17,-24.992 -0.17,-30.023 0,-14.766 0.38,-25.43 1.15,-31.992 0.76,-6.453 2.08,-11.156 3.94,-14.11 2.4,-3.828 5.52,-6.781 9.35,-8.859 3.94,-2.078 8.42,-3.117 13.45,-3.117 12.25,0 21.88,4.703 28.88,14.109 7,9.406 10.5,22.477 10.5,39.211 l 0,90.727 58.73,0 0,-183.7503 -58.73,0 0,26.5783 c -8.86,-10.7189 -18.27,-18.6486 -28.22,-23.7892 -9.85,-5.0313 -20.73,-7.5469 -32.65,-7.5469 -21.22,0 -37.41,6.5078 -48.56,19.5234 -11.05,13.0157 -16.57,31.9377 -16.57,56.7657"
         inkscape:connector-curvature="0"
         id="path64"
         style="fill:#000000;fill-opacity:1;fill-rule:nonzero;stroke:none" /><path
         d="m 6488.71,106.34 0,-96.46891 -58.73,0 0,253.64091 58.73,0 0,-26.907 c 8.09,10.715 17.06,18.59 26.91,23.625 9.84,5.137 21.16,7.711 33.96,7.711 22.64,0 41.23,-9.023 55.78,-27.07 14.55,-17.941 21.82,-41.07 21.82,-69.398 0,-28.328 -7.27,-51.516 -21.82,-69.563 -14.55,-17.9373 -33.14,-26.9061 -55.78,-26.9061 -12.8,0 -24.12,2.5156 -33.96,7.5469 -9.85,5.1406 -18.82,13.0703 -26.91,23.7892 m 39.05,118.945 c -12.58,0 -22.26,-4.648 -29.04,-13.945 -6.67,-9.188 -10.01,-22.477 -10.01,-39.867 0,-17.391 3.34,-30.735 10.01,-40.032 6.78,-9.187 16.46,-13.781 29.04,-13.781 12.58,0 22.15,4.594 28.71,13.781 6.67,9.188 10.01,22.532 10.01,40.032 0,17.5 -3.34,30.843 -10.01,40.031 -6.56,9.187 -16.13,13.781 -28.71,13.781"
         inkscape:connector-curvature="0"
         id="path66"
         style="fill:#000000;fill-opacity:1;fill-rule:nonzero;stroke:none" /><path
         d="m 738.547,1859.12 583.693,638.67 470.12,0 -756.18,-828.51 834,-921.096 -506.92,0 -624.713,689.066"
         inkscape:connector-curvature="0"
         id="path68"
         style="fill:#000000;fill-opacity:1;fill-rule:nonzero;stroke:none" /><path
         d="m 2664.2,1825.13 c 71.09,0 125,15.62 161.71,46.88 36.72,31.24 55.08,77.34 55.08,138.28 0,60.15 -18.36,105.85 -55.08,137.11 -36.71,32.03 -90.62,48.04 -161.71,48.05 l -249.61,0 0,-370.32 249.61,0 m 15.23,-765.23 c 90.62,0 158.59,19.14 203.91,57.42 46.09,38.28 69.14,96.09 69.14,173.44 0,75.78 -22.66,132.42 -67.97,169.92 -45.31,38.28 -113.67,57.42 -205.08,57.42 l -264.84,0 0,-458.2 264.84,0 m 419.53,629.3 c 96.87,-28.13 171.87,-80.09 225,-155.86 53.12,-75.79 79.68,-168.75 79.69,-278.91 -0.01,-168.75 -57.04,-294.532 -171.1,-377.344 -114.06,-82.813 -287.5,-124.219 -520.31,-124.219 l -748.83,0 0,1749.613 677.35,0 c 242.97,-0.01 418.74,-36.73 527.34,-110.16 109.37,-73.44 164.06,-191.02 164.06,-352.73 0,-85.16 -19.92,-157.82 -59.76,-217.97 -39.85,-59.38 -97.66,-103.52 -173.44,-132.42"
         inkscape:connector-curvature="0"
         id="path70"
         style="fill:#000000;fill-opacity:1;fill-rule:nonzero;stroke:none" /><path
         d="m 4833.93,2431.27 0,-360.43 c -100.59,41.82 -198.72,73.38 -294.4,94.67 -95.68,21.29 -186.04,31.94 -271.09,31.94 -112.85,0 -196.26,-14.45 -250.24,-43.34 -53.97,-28.9 -80.96,-73.76 -80.96,-134.59 0,-45.63 17.99,-81.36 53.97,-107.22 36.81,-25.09 103.04,-46.76 198.72,-65.01 l 201.18,-37.64 c 203.62,-38.02 348.36,-95.81 434.23,-173.36 85.86,-77.56 128.8,-187.82 128.8,-330.77 0,-187.81 -60.11,-327.723 -180.32,-419.731 -119.39,-91.246 -302.16,-136.867 -548.31,-136.867 -116.13,0 -232.66,10.266 -349.6,30.793 -116.94,20.531 -233.88,50.945 -350.82,91.246 l 0,370.689 c 116.94,-57.79 229.79,-101.51 338.55,-131.17 109.59,-28.89 215.07,-43.34 316.48,-43.34 103.04,0 181.95,15.97 236.74,47.9 54.8,31.94 82.19,77.56 82.19,136.87 0,53.23 -18.81,94.29 -56.43,123.18 -36.8,28.9 -110.8,54.75 -222.02,77.56 l -182.77,37.64 c -183.18,36.5 -317.29,94.67 -402.34,174.51 -84.23,79.84 -126.35,187.43 -126.35,322.78 0,169.57 58.88,299.97 176.64,391.22 117.76,91.24 287.04,136.87 507.83,136.87 100.59,0 204.03,-7.23 310.35,-21.67 106.31,-13.69 216.29,-34.6 329.97,-62.73"
         inkscape:connector-curvature="0"
         id="path72"
         style="fill:#000000;fill-opacity:1;fill-rule:nonzero;stroke:none" /><path
         d="m 6637.11,903.867 c -108.7,-53.226 -221.55,-93.148 -338.55,-119.762 -117,-26.613 -237.78,-39.917 -362.33,-39.917 -281.55,0 -504.61,79.078 -669.16,237.238 -164.56,158.914 -246.84,374.104 -246.84,645.564 0,274.5 83.79,490.44 251.37,647.85 167.57,157.39 397.04,236.09 688.41,236.09 112.47,0 220.04,-10.64 322.7,-31.93 103.41,-21.29 200.78,-52.85 292.12,-94.67 l 0,-352.44 c -94.36,53.99 -188.33,94.29 -281.93,120.9 -92.85,26.62 -186.07,39.92 -279.67,39.92 -173.62,0 -307.6,-49.04 -401.95,-147.13 -93.6,-97.33 -140.4,-236.86 -140.4,-418.59 0,-180.21 45.28,-319.36 135.87,-417.45 90.58,-98.09 219.28,-147.13 386.1,-147.13 45.29,0 87.18,2.66 125.68,7.98 39.25,6.08 74.35,15.21 105.3,27.38 l 0,330.76 -266.08,0 0,294.27 679.36,0 0,-818.933"
         inkscape:connector-curvature="0"
         id="path74"
         style="fill:#000000;fill-opacity:1;fill-rule:nonzero;stroke:none" /><path
         d="m 318.133,2501.41 474.691,0 0,-674.59 -67.25,-492.1 -340.191,0 -67.25,492.1 0,674.59 m 0,-1338.58 474.691,0 0,-419.111 -474.691,0 0,419.111"
         inkscape:connector-curvature="0"
         id="path76"
         style="fill:#800000;fill-opacity:1;fill-rule:nonzero;stroke:none" /><path
         d="m 321.578,481.766 6307.57,0 0,213.535 -6307.57,0 0,-213.535 z"
         inkscape:connector-curvature="0"
         id="path78"
         style="fill:#800000;fill-opacity:1;fill-rule:nonzero;stroke:none" /></g></g></svg>
