<?xml version="1.0" encoding="UTF-8" standalone="no"?>
<!-- Created with Inkscape (http://www.inkscape.org/) -->
<svg
   xmlns:dc="http://purl.org/dc/elements/1.1/"
   xmlns:cc="http://creativecommons.org/ns#"
   xmlns:rdf="http://www.w3.org/1999/02/22-rdf-syntax-ns#"
   xmlns:svg="http://www.w3.org/2000/svg"
   xmlns="http://www.w3.org/2000/svg"
   xmlns:xlink="http://www.w3.org/1999/xlink"
   xmlns:sodipodi="http://sodipodi.sourceforge.net/DTD/sodipodi-0.dtd"
   xmlns:inkscape="http://www.inkscape.org/namespaces/inkscape"
   viewBox="140 235 793 312"
   id="svg2"
   sodipodi:version="0.32"
   inkscape:version="0.46"
   version="1.0"
   sodipodi:docbase="/home/stf/work/web"
   sodipodi:docname="logo_KBSG_nf.svg"
   inkscape:output_extension="org.inkscape.output.svg.inkscape">
  <sodipodi:namedview
     id="base"
     pagecolor="#ffffff"
     bordercolor="#666666"
     borderopacity="1.0"
     inkscape:pageopacity="0.0"
     inkscape:pageshadow="2"
     inkscape:zoom="0.7"
     inkscape:cx="453.97713"
     inkscape:cy="301.38591"
     inkscape:document-units="px"
     inkscape:current-layer="layer10"
     width="1052.3622px"
     height="744.09449px"
     inkscape:window-width="1270"
     inkscape:window-height="953"
     inkscape:window-x="14"
     inkscape:window-y="94"
     showguides="true"
     inkscape:guide-bbox="true"
     showgrid="true" />
  <defs
     id="defs4">
    <inkscape:perspective
       sodipodi:type="inkscape:persp3d"
       inkscape:vp_x="0 : 372.04724 : 1"
       inkscape:vp_y="0 : 1000 : 0"
       inkscape:vp_z="1052.3622 : 372.04724 : 1"
       inkscape:persp3d-origin="526.18109 : 248.03149 : 1"
       id="perspective106" />
    <marker
       inkscape:stockid="Arrow2Mstart"
       orient="auto"
       refY="0"
       refX="0"
       id="Arrow2Mstart"
       style="overflow:visible">
      <path
         id="path4296"
         style="font-size:12px;fill-rule:evenodd;stroke-width:0.625;stroke-linejoin:round"
         d="M 8.7185878,4.0337352 L -2.2072895,0.016013256 L 8.7185884,-4.0017078 C 6.97309,-1.6296469 6.9831476,1.6157441 8.7185878,4.0337352 z "
         transform="scale(0.6,0.6)" />
    </marker>
    <linearGradient
       inkscape:collect="always"
       id="linearGradient6741">
      <stop
         style="stop-color:#800000;stop-opacity:1;"
         offset="0"
         id="stop6743" />
      <stop
         style="stop-color:#800000;stop-opacity:0;"
         offset="1"
         id="stop6745" />
    </linearGradient>
    <linearGradient
       id="linearGradient5456">
      <stop
         id="stop5458"
         offset="0"
         style="stop-color:#800000;stop-opacity:1;" />
      <stop
         id="stop5460"
         offset="1"
         style="stop-color:#800000;stop-opacity:0;" />
    </linearGradient>
    <marker
       inkscape:stockid="StopS"
       orient="auto"
       refY="0"
       refX="0"
       id="StopS"
       style="overflow:visible">
      <path
         id="path3351"
         d="M 0,5.65 L 0,-5.65"
         style="fill:none;fill-opacity:0.75;fill-rule:evenodd;stroke:#000000;stroke-width:1pt"
         transform="scale(0.2,0.2)" />
    </marker>
    <marker
       inkscape:stockid="Torso"
       orient="auto"
       refY="0"
       refX="0"
       id="Torso"
       style="overflow:visible">
      <g
         id="g3388"
         transform="scale(0.7,0.7)">
        <path
           id="path3390"
           d="M -4.7792281,-3.239542 C -2.4288541,-2.8736027 0.52103922,-1.3019943 0.25792722,0.38794346 C -0.0051877922,2.0778819 -2.2126741,2.6176539 -4.5630471,2.2517169 C -6.9134221,1.8857769 -8.521035,0.75201414 -8.257922,-0.93792336 C -7.994809,-2.6278615 -7.1296041,-3.6054813 -4.7792281,-3.239542 z "
           style="fill:none;fill-opacity:0.75;fill-rule:evenodd;stroke:#000000;stroke-width:1.25;marker-start:none;marker-mid:none;marker-end:none" />
        <path
           id="path3392"
           d="M 4.4598789,0.088665736 C -2.5564571,-4.378332 5.2248769,-3.9061806 -0.84829578,-8.7197331"
           style="fill:none;fill-opacity:0.75;fill-rule:evenodd;stroke:#000000;stroke-width:1pt;marker-end:none" />
        <path
           id="path3394"
           d="M 4.9298719,0.057520736 C -1.3872731,1.7494689 1.8027579,5.4782079 -4.9448731,7.5462725"
           style="fill:none;fill-opacity:0.75;fill-rule:evenodd;stroke:#000000;stroke-width:1pt;marker-start:none;marker-end:none" />
        <rect
           id="rect3396"
           transform="matrix(0.527536,-0.849533,0.887668,0.460484,0,0)"
           y="-1.7408575"
           x="-10.391706"
           height="2.7608147"
           width="2.6366582"
           style="fill-rule:evenodd;stroke-width:1pt;marker-end:none" />
        <rect
           id="rect3398"
           transform="matrix(0.671205,-0.741272,0.790802,0.612072,0,0)"
           y="-7.9629307"
           x="4.9587269"
           height="2.8614161"
           width="2.7327356"
           style="fill-rule:evenodd;stroke-width:1pt;marker-end:none" />
        <path
           id="path3400"
           transform="matrix(0,-1.109517,1.109517,0,25.96648,19.71619)"
           d="M 16.779951 -28.685045 A 0.60731727 0.60731727 0 1 1  15.565317,-28.685045 A 0.60731727 0.60731727 0 1 1  16.779951 -28.685045 z"
           sodipodi:ry="0.60731727"
           sodipodi:rx="0.60731727"
           sodipodi:cy="-28.685045"
           sodipodi:cx="16.172634"
           style="fill:#ff0000;fill-opacity:0.75;fill-rule:evenodd;stroke:#000000;stroke-width:1pt;marker-start:none;marker-end:none"
           sodipodi:type="arc" />
        <path
           id="path3402"
           transform="matrix(0,-1.109517,1.109517,0,26.8245,16.99126)"
           d="M 16.779951 -28.685045 A 0.60731727 0.60731727 0 1 1  15.565317,-28.685045 A 0.60731727 0.60731727 0 1 1  16.779951 -28.685045 z"
           sodipodi:ry="0.60731727"
           sodipodi:rx="0.60731727"
           sodipodi:cy="-28.685045"
           sodipodi:cx="16.172634"
           style="fill:#ff0000;fill-opacity:0.75;fill-rule:evenodd;stroke:#000000;stroke-width:1pt;marker-start:none;marker-end:none"
           sodipodi:type="arc" />
      </g>
    </marker>
    <marker
       inkscape:stockid="RazorWire"
       id="RazorWire"
       refX="0"
       refY="0"
       orient="auto">
       style=&quot;overflow:visible&quot;&gt;
      <path
   id="path3408"
   transform="scale(0.8,0.8)"
   style="fill:#808080;fill-opacity:1;fill-rule:evenodd;stroke:#000000;stroke-width:0.1pt"
   d="M 0.022727273,-0.74009011 L 0.022727273,0.69740989 L -7.7585227,3.0099099 L 10.678977,3.0099099 L 3.4914773,0.69740989 L 3.4914773,-0.74009011 L 10.741477,-2.8963401 L -7.7272727,-2.8963401 L 0.022727273,-0.74009011 z " />
</marker>
    <marker
       style="overflow:visible"
       inkscape:stockid="InfiniteLineEnd"
       id="InfiniteLineEnd"
       refX="0"
       refY="0"
       orient="auto">
      <g
         id="g3411">
        <circle
           id="circle3413"
           r="0.80000001"
           cy="0"
           cx="3"
           sodipodi:cx="3"
           sodipodi:cy="0"
           sodipodi:rx="0.80000001"
           sodipodi:ry="0.80000001" />
        <circle
           id="circle3415"
           r="0.80000001"
           cy="0"
           cx="6.5"
           sodipodi:cx="6.5"
           sodipodi:cy="0"
           sodipodi:rx="0.80000001"
           sodipodi:ry="0.80000001" />
        <circle
           id="circle3417"
           r="0.80000001"
           cy="0"
           cx="10"
           sodipodi:cx="10"
           sodipodi:cy="0"
           sodipodi:rx="0.80000001"
           sodipodi:ry="0.80000001" />
      </g>
    </marker>
    <marker
       style="overflow:visible"
       inkscape:stockid="InfiniteLineStart"
       id="InfiniteLineStart"
       refX="0"
       refY="0"
       orient="auto">
      <g
         id="g3420"
         transform="translate(-13,0)">
        <circle
           id="circle3422"
           r="0.80000001"
           cy="0"
           cx="3"
           sodipodi:cx="3"
           sodipodi:cy="0"
           sodipodi:rx="0.80000001"
           sodipodi:ry="0.80000001" />
        <circle
           id="circle3424"
           r="0.80000001"
           cy="0"
           cx="6.5"
           sodipodi:cx="6.5"
           sodipodi:cy="0"
           sodipodi:rx="0.80000001"
           sodipodi:ry="0.80000001" />
        <circle
           id="circle3426"
           r="0.80000001"
           cy="0"
           cx="10"
           sodipodi:cx="10"
           sodipodi:cy="0"
           sodipodi:rx="0.80000001"
           sodipodi:ry="0.80000001" />
      </g>
    </marker>
    <marker
       inkscape:stockid="Arrow2Send"
       orient="auto"
       refY="0"
       refX="0"
       id="Arrow2Send"
       style="overflow:visible">
      <path
         id="path3271"
         style="font-size:12px;fill-rule:evenodd;stroke-width:0.625;stroke-linejoin:round"
         d="M 8.7185878,4.0337352 L -2.2072895,0.016013256 L 8.7185884,-4.0017078 C 6.97309,-1.6296469 6.9831476,1.6157441 8.7185878,4.0337352 z "
         transform="matrix(-0.3,0,0,-0.3,0.69,0)" />
    </marker>
    <marker
       inkscape:stockid="Arrow1Mend"
       orient="auto"
       refY="0"
       refX="0"
       id="Arrow1Mend"
       style="overflow:visible">
      <path
         id="path3247"
         d="M 0,0 L 5,-5 L -12.5,0 L 5,5 L 0,0 z "
         style="fill-rule:evenodd;stroke:#000000;stroke-width:1pt;marker-start:none"
         transform="matrix(-0.4,0,0,-0.4,-4,0)" />
    </marker>
    <marker
       inkscape:stockid="Arrow1Lstart"
       orient="auto"
       refY="0"
       refX="0"
       id="Arrow1Lstart"
       style="overflow:visible">
      <path
         id="path3238"
         d="M 0,0 L 5,-5 L -12.5,0 L 5,5 L 0,0 z "
         style="fill-rule:evenodd;stroke:#000000;stroke-width:1pt;marker-start:none"
         transform="matrix(0.8,0,0,0.8,10,0)" />
    </marker>
    <linearGradient
       inkscape:collect="always"
       xlink:href="#linearGradient6741"
       id="linearGradient6747"
       x1="-4.7079687"
       y1="724.56152"
       x2="938.43176"
       y2="326.09348"
       gradientUnits="userSpaceOnUse"
       gradientTransform="matrix(0.9948652,0,0,-1.5517516,2.8186442,1124.9903)" />
  </defs>
  <metadata
     id="metadata7">
    <rdf:RDF>
      <cc:Work
         rdf:about="">
        <dc:format>image/svg+xml</dc:format>
        <dc:type
           rdf:resource="http://purl.org/dc/dcmitype/StillImage" />
      </cc:Work>
    </rdf:RDF>
  </metadata>
  <g
     inkscape:label="BackgroundFX"
     id="layer1"
     inkscape:groupmode="layer"
     style="display:none">
    <path
       style="font-size:300px;font-style:normal;font-variant:normal;font-weight:bold;font-stretch:normal;text-align:center;line-height:100%;writing-mode:lr-tb;text-anchor:middle;opacity:1;fill:#808080;fill-opacity:1;stroke:#000000;stroke-width:23.55257034;stroke-linejoin:bevel;stroke-miterlimit:4;stroke-dasharray:none;stroke-opacity:1;display:inline;font-family:Sans"
       d="M 113.13342,231.03028 L 962.49543,231.03028 L 962.49543,453.98455 L 113.13342,453.98455 L 113.13342,231.03028"
       id="path2243"
       sodipodi:nodetypes="ccccc" />
  </g>
  <g
     inkscape:groupmode="layer"
     id="layer6"
     inkscape:label="TextBG"
     style="display:none">
    <rect
       style="opacity:1;fill:none;fill-opacity:1;fill-rule:evenodd;stroke:#8b0000;stroke-width:23;stroke-linecap:round;stroke-linejoin:round;stroke-miterlimit:0;stroke-dasharray:none;stroke-dashoffset:0;stroke-opacity:1;display:inline"
       id="rect2253"
       width="843.58478"
       height="316.37042"
       x="113.49337"
       y="210.44501"
       inkscape:export-filename="/home/stf/work/web/logo_KBSG.png"
       inkscape:export-xdpi="300"
       inkscape:export-ydpi="300" />
  </g>
  <g
     inkscape:groupmode="layer"
     id="layer15"
     inkscape:label="TextSub"
     style="display:inline">
    <path
       transform="translate(-149.34124,354.83771)"
       style="font-size:42px;font-style:normal;font-variant:normal;font-weight:bold;font-stretch:normal;text-align:center;line-height:100%;writing-mode:lr-tb;text-anchor:middle;display:inline;font-family:Sans"
       d="M 288.51953,152.68511 L 296.41504,152.68511 L 296.41504,163.86187 L 307.79688,152.68511 L 316.96387,152.68511 L 302.21875,167.18413 L 318.48145,183.30327 L 308.59668,183.30327 L 296.41504,171.24468 L 296.41504,183.30327 L 288.51953,183.30327 L 288.51953,152.68511 M 343.84961,169.31694 L 343.84961,183.30327 L 336.4668,183.30327 L 336.4668,181.0269 L 336.4668,172.59819 C 336.46678,170.61578 336.41893,169.2486 336.32324,168.49663 C 336.24119,167.74469 336.0908,167.19098 335.87207,166.8355 C 335.58494,166.357 335.19529,165.98786 334.70312,165.72808 C 334.21092,165.45466 333.65037,165.31794 333.02148,165.31792 C 331.49022,165.31794 330.2871,165.91266 329.41211,167.1021 C 328.5371,168.2779 328.0996,169.91168 328.09961,172.00347 L 328.09961,183.30327 L 320.75781,183.30327 L 320.75781,160.33452 L 328.09961,160.33452 L 328.09961,163.6978 C 329.20702,162.35798 330.3828,161.37361 331.62695,160.74468 C 332.87108,160.10212 334.2451,159.78083 335.74902,159.78081 C 338.40135,159.78083 340.41111,160.59431 341.77832,162.22124 C 343.15915,163.84821 343.84958,166.21345 343.84961,169.31694 M 361.62988,165.03081 C 360.00292,165.03083 358.75878,165.61872 357.89746,166.79448 C 357.04979,167.95661 356.62597,169.63825 356.62598,171.8394 C 356.62597,174.04059 357.04979,175.72906 357.89746,176.90483 C 358.75878,178.06695 360.00292,178.648 361.62988,178.648 C 363.22948,178.648 364.45311,178.06695 365.30078,176.90483 C 366.14842,175.72906 366.57225,174.04059 366.57227,171.8394 C 366.57225,169.63825 366.14842,167.95661 365.30078,166.79448 C 364.45311,165.61872 363.22948,165.03083 361.62988,165.03081 M 361.62988,159.78081 C 365.58104,159.78083 368.66404,160.84724 370.87891,162.98003 C 373.1074,165.11286 374.22165,168.06598 374.22168,171.8394 C 374.22165,175.61285 373.1074,178.56597 370.87891,180.69878 C 368.66404,182.83159 365.58104,183.898 361.62988,183.898 C 357.66503,183.898 354.56152,182.83159 352.31934,180.69878 C 350.09082,178.56597 348.97656,175.61285 348.97656,171.8394 C 348.97656,168.06598 350.09082,165.11286 352.31934,162.98003 C 354.56152,160.84724 357.66503,159.78083 361.62988,159.78081 M 377.52344,160.33452 L 384.66016,160.33452 L 388.51562,176.16655 L 392.3916,160.33452 L 398.52344,160.33452 L 402.37891,176.00249 L 406.25488,160.33452 L 413.3916,160.33452 L 407.3418,183.30327 L 399.32324,183.30327 L 395.44727,167.51226 L 391.5918,183.30327 L 383.57324,183.30327 L 377.52344,160.33452 M 418.375,151.39312 L 425.7168,151.39312 L 425.7168,183.30327 L 418.375,183.30327 L 418.375,151.39312 M 455.74023,171.75737 L 455.74023,173.84917 L 438.5752,173.84917 C 438.75292,175.57183 439.37499,176.86383 440.44141,177.72515 C 441.5078,178.58648 442.99803,179.01714 444.91211,179.01714 C 446.45701,179.01714 448.03611,178.79156 449.64941,178.34038 C 451.27635,177.87554 452.94431,177.17828 454.65332,176.24858 L 454.65332,181.90874 C 452.91697,182.56499 451.18064,183.05718 449.44434,183.3853 C 447.70799,183.7271 445.97166,183.898 444.23535,183.898 C 440.07909,183.898 436.8457,182.84526 434.53516,180.7398 C 432.23828,178.62066 431.08984,175.65387 431.08984,171.8394 C 431.08984,168.09333 432.21777,165.14704 434.47363,163.00054 C 436.74316,160.85408 439.86034,159.78083 443.8252,159.78081 C 447.43455,159.78083 450.31931,160.86775 452.47949,163.04155 C 454.65329,165.2154 455.74021,168.12067 455.74023,171.75737 M 448.19336,169.31694 C 448.19334,167.92243 447.78318,166.80134 446.96289,165.95366 C 446.15623,165.09235 445.09666,164.66169 443.78418,164.66167 C 442.36229,164.66169 441.20702,165.06501 440.31836,165.87163 C 439.42968,166.66462 438.87597,167.81305 438.65723,169.31694 L 448.19336,169.31694 M 476.9043,163.6978 L 476.9043,151.39312 L 484.28711,151.39312 L 484.28711,183.30327 L 476.9043,183.30327 L 476.9043,179.98101 C 475.89256,181.33452 474.7783,182.32573 473.56152,182.95464 C 472.34471,183.58354 470.93651,183.898 469.33691,183.898 C 466.50683,183.898 464.18261,182.77691 462.36426,180.53472 C 460.5459,178.27886 459.63672,175.38043 459.63672,171.8394 C 459.63672,168.2984 460.5459,165.40681 462.36426,163.1646 C 464.18261,160.90876 466.50683,159.78083 469.33691,159.78081 C 470.92284,159.78083 472.3242,160.10212 473.54102,160.74468 C 474.77147,161.37361 475.89256,162.35798 476.9043,163.6978 M 472.06445,178.56597 C 473.6367,178.56597 474.83299,177.99175 475.65332,176.84331 C 476.48729,175.69488 476.90428,174.02691 476.9043,171.8394 C 476.90428,169.65192 476.48729,167.98395 475.65332,166.8355 C 474.83299,165.68708 473.6367,165.11286 472.06445,165.11284 C 470.50585,165.11286 469.30956,165.68708 468.47559,166.8355 C 467.65526,167.98395 467.24511,169.65192 467.24512,171.8394 C 467.24511,174.02691 467.65526,175.69488 468.47559,176.84331 C 469.30956,177.99175 470.50585,178.56597 472.06445,178.56597 M 507.00977,179.40679 C 505.99803,180.74663 504.88377,181.73101 503.66699,182.35991 C 502.45018,182.98882 501.04198,183.30327 499.44238,183.30327 C 496.63964,183.30327 494.32226,182.20269 492.49023,180.00151 C 490.6582,177.78668 489.74219,174.97027 489.74219,171.5523 C 489.74219,168.12067 490.6582,165.3111 492.49023,163.12358 C 494.32226,160.92243 496.63964,159.82185 499.44238,159.82183 C 501.04198,159.82185 502.45018,160.1363 503.66699,160.76519 C 504.88377,161.39411 505.99803,162.38532 507.00977,163.73882 L 507.00977,160.33452 L 514.39258,160.33452 L 514.39258,180.98589 C 514.39255,184.67729 513.22361,187.4937 510.88574,189.43511 C 508.5615,191.39018 505.18455,192.36772 500.75488,192.36772 C 499.31932,192.36772 497.93163,192.25834 496.5918,192.0396 C 495.25195,191.82084 493.90527,191.48588 492.55176,191.03472 L 492.55176,185.31304 C 493.83691,186.05132 495.09472,186.59819 496.3252,186.95366 C 497.55565,187.3228 498.79296,187.50737 500.03711,187.50737 C 502.44334,187.50737 504.20701,186.981 505.32812,185.92827 C 506.4492,184.87554 507.00975,183.22808 507.00977,180.98589 L 507.00977,179.40679 M 502.16992,165.11284 C 500.65233,165.11286 499.46971,165.67341 498.62207,166.79448 C 497.7744,167.91559 497.35058,169.50153 497.35059,171.5523 C 497.35058,173.65777 497.76073,175.25738 498.58105,176.35112 C 499.40136,177.43121 500.59764,177.97125 502.16992,177.97124 C 503.70116,177.97125 504.89061,177.4107 505.73828,176.2896 C 506.58592,175.16851 507.00975,173.58941 507.00977,171.5523 C 507.00975,169.50153 506.58592,167.91559 505.73828,166.79448 C 504.89061,165.67341 503.70116,165.11286 502.16992,165.11284 M 544.41602,171.75737 L 544.41602,173.84917 L 527.25098,173.84917 C 527.4287,175.57183 528.05077,176.86383 529.11719,177.72515 C 530.18358,178.58648 531.67381,179.01714 533.58789,179.01714 C 535.1328,179.01714 536.7119,178.79156 538.3252,178.34038 C 539.95213,177.87554 541.62009,177.17828 543.3291,176.24858 L 543.3291,181.90874 C 541.59275,182.56499 539.85642,183.05718 538.12012,183.3853 C 536.38377,183.7271 534.64744,183.898 532.91113,183.898 C 528.75487,183.898 525.52148,182.84526 523.21094,180.7398 C 520.91406,178.62066 519.76562,175.65387 519.76562,171.8394 C 519.76562,168.09333 520.89355,165.14704 523.14941,163.00054 C 525.41894,160.85408 528.53612,159.78083 532.50098,159.78081 C 536.11033,159.78083 538.9951,160.86775 541.15527,163.04155 C 543.32908,165.2154 544.41599,168.12067 544.41602,171.75737 M 536.86914,169.31694 C 536.86912,167.92243 536.45897,166.80134 535.63867,165.95366 C 534.83201,165.09235 533.77245,164.66169 532.45996,164.66167 C 531.03807,164.66169 529.8828,165.06501 528.99414,165.87163 C 528.10546,166.66462 527.55175,167.81305 527.33301,169.31694 L 536.86914,169.31694 M 548.70215,168.23003 L 561.58105,168.23003 L 561.58105,174.1978 L 548.70215,174.1978 L 548.70215,168.23003 M 580.01758,164.53862 C 581.2617,164.53864 582.20506,164.2652 582.84766,163.71831 C 583.49021,163.17146 583.8115,162.36482 583.81152,161.29839 C 583.8115,160.24568 583.49021,159.44587 582.84766,158.89897 C 582.20506,158.33845 581.2617,158.05818 580.01758,158.05815 L 575.64941,158.05815 L 575.64941,164.53862 L 580.01758,164.53862 M 580.28418,177.93022 C 581.8701,177.93023 583.05955,177.59527 583.85254,176.92534 C 584.65916,176.25543 585.06248,175.24371 585.0625,173.89019 C 585.06248,172.56402 584.66599,171.57281 583.87305,170.91655 C 583.08006,170.24664 581.88377,169.91168 580.28418,169.91167 L 575.64941,169.91167 L 575.64941,177.93022 L 580.28418,177.93022 M 587.62598,166.91753 C 589.32126,167.40973 590.63376,168.31891 591.56348,169.64507 C 592.49314,170.97125 592.95798,172.5982 592.95801,174.52593 C 592.95798,177.47906 591.95993,179.68023 589.96387,181.12944 C 587.96775,182.57866 584.9326,183.30327 580.8584,183.30327 L 567.75391,183.30327 L 567.75391,152.68511 L 579.60742,152.68511 C 583.85936,152.68514 586.93552,153.32772 588.83594,154.61284 C 590.74997,155.89803 591.707,157.95564 591.70703,160.78569 C 591.707,162.27595 591.35837,163.54743 590.66113,164.60015 C 589.96384,165.63923 588.95212,166.41169 587.62598,166.91753 M 609.71289,172.96733 C 608.18163,172.96734 607.02636,173.22711 606.24707,173.74663 C 605.48144,174.26617 605.09862,175.0318 605.09863,176.04351 C 605.09862,176.9732 605.40624,177.70464 606.02148,178.23784 C 606.65038,178.75738 607.51854,179.01714 608.62598,179.01714 C 610.00682,179.01714 611.16893,178.52496 612.1123,177.54058 C 613.05565,176.54254 613.52733,175.2984 613.52734,173.80815 L 613.52734,172.96733 L 609.71289,172.96733 M 620.93066,170.19878 L 620.93066,183.30327 L 613.52734,183.30327 L 613.52734,179.89897 C 612.54295,181.29351 611.43553,182.31206 610.20508,182.95464 C 608.9746,183.58354 607.47753,183.898 605.71387,183.898 C 603.33495,183.898 601.40039,183.20757 599.91016,181.82671 C 598.43359,180.43218 597.69531,178.6275 597.69531,176.41265 C 597.69531,173.7193 598.61816,171.74371 600.46387,170.48589 C 602.32324,169.22809 605.23534,168.59918 609.2002,168.59917 L 613.52734,168.59917 L 613.52734,168.02495 C 613.52733,166.86286 613.06932,166.0152 612.15332,165.48198 C 611.23729,164.93513 609.80858,164.66169 607.86719,164.66167 C 606.29491,164.66169 604.83202,164.81892 603.47852,165.13335 C 602.12499,165.44782 600.86718,165.9195 599.70508,166.54839 L 599.70508,160.94976 C 601.27734,160.56697 602.85644,160.27986 604.44238,160.08843 C 606.02831,159.88337 607.61425,159.78083 609.2002,159.78081 C 613.34276,159.78083 616.33006,160.60115 618.16211,162.24175 C 620.00779,163.86872 620.93064,166.52106 620.93066,170.19878 M 645.66309,161.0523 L 645.66309,166.63042 C 644.0908,165.97419 642.57322,165.482 641.11035,165.15386 C 639.64745,164.82575 638.26659,164.66169 636.96777,164.66167 C 635.57323,164.66169 634.53417,164.83942 633.85059,165.19487 C 633.18066,165.53669 632.84569,166.06989 632.8457,166.79448 C 632.84569,167.38239 633.09862,167.83356 633.60449,168.148 C 634.12401,168.46247 635.04686,168.69489 636.37305,168.84526 L 637.66504,169.02983 C 641.42479,169.50836 643.95408,170.2945 645.25293,171.38823 C 646.55174,172.48199 647.20115,174.19781 647.20117,176.53569 C 647.20115,178.98296 646.29881,180.82183 644.49414,182.0523 C 642.68943,183.28276 639.99608,183.898 636.41406,183.898 C 634.89647,183.898 633.32421,183.77495 631.69727,183.52886 C 630.08398,183.29644 628.42285,182.94097 626.71387,182.46245 L 626.71387,176.88433 C 628.17675,177.59527 629.67382,178.12847 631.20508,178.48394 C 632.74999,178.83941 634.31542,179.01714 635.90137,179.01714 C 637.3369,179.01714 638.41698,178.8189 639.1416,178.42241 C 639.8662,178.02593 640.2285,177.43804 640.22852,176.65874 C 640.2285,176.0025 639.97557,175.51715 639.46973,175.20269 C 638.97752,174.87457 637.98631,174.62164 636.49609,174.4439 L 635.2041,174.27983 C 631.93652,173.86969 629.64648,173.1109 628.33398,172.00347 C 627.02148,170.89606 626.36523,169.21442 626.36523,166.95855 C 626.36523,164.52497 627.19922,162.72028 628.86719,161.54448 C 630.53515,160.36872 633.09179,159.78083 636.53711,159.78081 C 637.89061,159.78083 639.31248,159.88337 640.80273,160.08843 C 642.29295,160.29353 643.91307,160.61482 645.66309,161.0523 M 675.58398,171.75737 L 675.58398,173.84917 L 658.41895,173.84917 C 658.59667,175.57183 659.21874,176.86383 660.28516,177.72515 C 661.35155,178.58648 662.84178,179.01714 664.75586,179.01714 C 666.30076,179.01714 667.87986,178.79156 669.49316,178.34038 C 671.1201,177.87554 672.78806,177.17828 674.49707,176.24858 L 674.49707,181.90874 C 672.76072,182.56499 671.02439,183.05718 669.28809,183.3853 C 667.55174,183.7271 665.81541,183.898 664.0791,183.898 C 659.92284,183.898 656.68945,182.84526 654.37891,180.7398 C 652.08203,178.62066 650.93359,175.65387 650.93359,171.8394 C 650.93359,168.09333 652.06152,165.14704 654.31738,163.00054 C 656.58691,160.85408 659.70409,159.78083 663.66895,159.78081 C 667.2783,159.78083 670.16306,160.86775 672.32324,163.04155 C 674.49704,165.2154 675.58396,168.12067 675.58398,171.75737 M 668.03711,169.31694 C 668.03709,167.92243 667.62693,166.80134 666.80664,165.95366 C 665.99998,165.09235 664.94041,164.66169 663.62793,164.66167 C 662.20604,164.66169 661.05077,165.06501 660.16211,165.87163 C 659.27343,166.66462 658.71972,167.81305 658.50098,169.31694 L 668.03711,169.31694 M 696.74805,163.6978 L 696.74805,151.39312 L 704.13086,151.39312 L 704.13086,183.30327 L 696.74805,183.30327 L 696.74805,179.98101 C 695.73631,181.33452 694.62205,182.32573 693.40527,182.95464 C 692.18846,183.58354 690.78026,183.898 689.18066,183.898 C 686.35058,183.898 684.02636,182.77691 682.20801,180.53472 C 680.38965,178.27886 679.48047,175.38043 679.48047,171.8394 C 679.48047,168.2984 680.38965,165.40681 682.20801,163.1646 C 684.02636,160.90876 686.35058,159.78083 689.18066,159.78081 C 690.76659,159.78083 692.16795,160.10212 693.38477,160.74468 C 694.61522,161.37361 695.73631,162.35798 696.74805,163.6978 M 691.9082,178.56597 C 693.48045,178.56597 694.67674,177.99175 695.49707,176.84331 C 696.33104,175.69488 696.74803,174.02691 696.74805,171.8394 C 696.74803,169.65192 696.33104,167.98395 695.49707,166.8355 C 694.67674,165.68708 693.48045,165.11286 691.9082,165.11284 C 690.3496,165.11286 689.15331,165.68708 688.31934,166.8355 C 687.49901,167.98395 687.08886,169.65192 687.08887,171.8394 C 687.08886,174.02691 687.49901,175.69488 688.31934,176.84331 C 689.15331,177.99175 690.3496,178.56597 691.9082,178.56597 M 747.46387,153.64897 L 747.46387,160.12944 C 745.7822,159.37751 744.14158,158.81013 742.54199,158.4273 C 740.94236,158.04451 739.43162,157.8531 738.00977,157.85308 C 736.12303,157.8531 734.7285,158.11287 733.82617,158.63237 C 732.92382,159.15193 732.47265,159.95857 732.47266,161.0523 C 732.47265,161.87263 732.77343,162.51521 733.375,162.98003 C 733.99022,163.43122 735.09764,163.82087 736.69727,164.14897 L 740.06055,164.82573 C 743.46482,165.50934 745.88474,166.54841 747.32031,167.94292 C 748.75583,169.33747 749.47361,171.31989 749.47363,173.89019 C 749.47361,177.26715 748.46872,179.78277 746.45898,181.43706 C 744.46287,183.07769 741.40721,183.898 737.29199,183.898 C 735.35057,183.898 733.40233,183.71343 731.44727,183.34429 C 729.49218,182.97515 727.5371,182.42827 725.58203,181.70366 L 725.58203,175.03862 C 727.5371,176.07769 729.42382,176.86383 731.24219,177.39702 C 733.07421,177.91656 734.83788,178.17632 736.5332,178.17632 C 738.25584,178.17632 739.57518,177.88921 740.49121,177.31499 C 741.40721,176.74078 741.86521,175.92047 741.86523,174.85405 C 741.86521,173.89703 741.55076,173.15875 740.92188,172.63921 C 740.30662,172.11969 739.06932,171.65485 737.20996,171.24468 L 734.1543,170.56792 C 731.09179,169.91168 728.8496,168.86579 727.42773,167.43022 C 726.01953,165.9947 725.31543,164.06013 725.31543,161.62651 C 725.31543,158.57771 726.2998,156.23299 728.26855,154.59233 C 730.2373,152.95174 733.06737,152.13143 736.75879,152.1314 C 738.44041,152.13143 740.1699,152.26131 741.94727,152.52105 C 743.72459,152.76717 745.56345,153.14315 747.46387,153.64897 M 753.16504,160.33452 L 760.50684,160.33452 L 766.67969,175.92046 L 771.92969,160.33452 L 779.27148,160.33452 L 769.6123,185.4771 C 768.64159,188.03374 767.50682,189.81791 766.20801,190.82964 C 764.92284,191.85502 763.22069,192.36772 761.10156,192.36772 L 756.85645,192.36772 L 756.85645,187.54839 L 759.15332,187.54839 C 760.39745,187.54838 761.2998,187.35014 761.86035,186.95366 C 762.43456,186.55717 762.8789,185.84624 763.19336,184.82085 L 763.39844,184.18511 L 753.16504,160.33452 M 801.52246,161.0523 L 801.52246,166.63042 C 799.95018,165.97419 798.4326,165.482 796.96973,165.15386 C 795.50682,164.82575 794.12596,164.66169 792.82715,164.66167 C 791.43261,164.66169 790.39354,164.83942 789.70996,165.19487 C 789.04003,165.53669 788.70507,166.06989 788.70508,166.79448 C 788.70507,167.38239 788.958,167.83356 789.46387,168.148 C 789.98339,168.46247 790.90624,168.69489 792.23242,168.84526 L 793.52441,169.02983 C 797.28416,169.50836 799.81346,170.2945 801.1123,171.38823 C 802.41111,172.48199 803.06052,174.19781 803.06055,176.53569 C 803.06052,178.98296 802.15818,180.82183 800.35352,182.0523 C 798.54881,183.28276 795.85545,183.898 792.27344,183.898 C 790.75585,183.898 789.18358,183.77495 787.55664,183.52886 C 785.94335,183.29644 784.28222,182.94097 782.57324,182.46245 L 782.57324,176.88433 C 784.03613,177.59527 785.5332,178.12847 787.06445,178.48394 C 788.60937,178.83941 790.17479,179.01714 791.76074,179.01714 C 793.19628,179.01714 794.27635,178.8189 795.00098,178.42241 C 795.72557,178.02593 796.08787,177.43804 796.08789,176.65874 C 796.08787,176.0025 795.83495,175.51715 795.3291,175.20269 C 794.8369,174.87457 793.84569,174.62164 792.35547,174.4439 L 791.06348,174.27983 C 787.79589,173.86969 785.50585,173.1109 784.19336,172.00347 C 782.88086,170.89606 782.22461,169.21442 782.22461,166.95855 C 782.22461,164.52497 783.05859,162.72028 784.72656,161.54448 C 786.39452,160.36872 788.95116,159.78083 792.39648,159.78081 C 793.74999,159.78083 795.17186,159.88337 796.66211,160.08843 C 798.15233,160.29353 799.77244,160.61482 801.52246,161.0523 M 816.53418,153.81304 L 816.53418,160.33452 L 824.10156,160.33452 L 824.10156,165.58452 L 816.53418,165.58452 L 816.53418,175.32573 C 816.53417,176.39215 816.74608,177.11675 817.16992,177.49956 C 817.59374,177.86871 818.43456,178.05328 819.69238,178.05327 L 823.46582,178.05327 L 823.46582,183.30327 L 817.16992,183.30327 C 814.27148,183.30327 812.21386,182.70171 810.99707,181.49858 C 809.79394,180.28179 809.19238,178.22418 809.19238,175.32573 L 809.19238,165.58452 L 805.54199,165.58452 L 805.54199,160.33452 L 809.19238,160.33452 L 809.19238,153.81304 L 816.53418,153.81304 M 851.54102,171.75737 L 851.54102,173.84917 L 834.37598,173.84917 C 834.5537,175.57183 835.17577,176.86383 836.24219,177.72515 C 837.30858,178.58648 838.79881,179.01714 840.71289,179.01714 C 842.2578,179.01714 843.8369,178.79156 845.4502,178.34038 C 847.07713,177.87554 848.74509,177.17828 850.4541,176.24858 L 850.4541,181.90874 C 848.71775,182.56499 846.98142,183.05718 845.24512,183.3853 C 843.50877,183.7271 841.77244,183.898 840.03613,183.898 C 835.87987,183.898 832.64648,182.84526 830.33594,180.7398 C 828.03906,178.62066 826.89062,175.65387 826.89062,171.8394 C 826.89062,168.09333 828.01855,165.14704 830.27441,163.00054 C 832.54394,160.85408 835.66112,159.78083 839.62598,159.78081 C 843.23533,159.78083 846.1201,160.86775 848.28027,163.04155 C 850.45408,165.2154 851.54099,168.12067 851.54102,171.75737 M 843.99414,169.31694 C 843.99412,167.92243 843.58397,166.80134 842.76367,165.95366 C 841.95701,165.09235 840.89745,164.66169 839.58496,164.66167 C 838.16307,164.66169 837.0078,165.06501 836.11914,165.87163 C 835.23046,166.66462 834.67675,167.81305 834.45801,169.31694 L 843.99414,169.31694 M 878.36523,164.14897 C 879.2949,162.72712 880.39548,161.64704 881.66699,160.90874 C 882.95212,160.15681 884.36032,159.78083 885.8916,159.78081 C 888.53024,159.78083 890.54,160.59431 891.9209,162.22124 C 893.30172,163.84821 893.99215,166.21345 893.99219,169.31694 L 893.99219,183.30327 L 886.60938,183.30327 L 886.60938,171.32671 C 886.62301,171.14899 886.62985,170.96442 886.62988,170.773 C 886.64352,170.5816 886.65036,170.30817 886.65039,169.95269 C 886.65036,168.32575 886.4111,167.14997 885.93262,166.42534 C 885.45407,165.68708 884.68161,165.31794 883.61523,165.31792 C 882.22067,165.31794 881.1406,165.89216 880.375,167.04058 C 879.62302,168.18903 879.23337,169.85016 879.20605,172.02397 L 879.20605,183.30327 L 871.82324,183.30327 L 871.82324,171.32671 C 871.82322,168.78376 871.60447,167.14997 871.16699,166.42534 C 870.72948,165.68708 869.95018,165.31794 868.8291,165.31792 C 867.42088,165.31794 866.33397,165.89899 865.56836,167.06108 C 864.80272,168.20954 864.41991,169.857 864.41992,172.00347 L 864.41992,183.30327 L 857.03711,183.30327 L 857.03711,160.33452 L 864.41992,160.33452 L 864.41992,163.6978 C 865.32225,162.399 866.35448,161.42146 867.5166,160.76519 C 868.69237,160.10896 869.98436,159.78083 871.39258,159.78081 C 872.9785,159.78083 874.37986,160.16365 875.59668,160.92925 C 876.81345,161.69489 877.7363,162.76814 878.36523,164.14897 M 918.82715,161.0523 L 918.82715,166.63042 C 917.25486,165.97419 915.73729,165.482 914.27441,165.15386 C 912.81151,164.82575 911.43065,164.66169 910.13184,164.66167 C 908.73729,164.66169 907.69823,164.83942 907.01465,165.19487 C 906.34472,165.53669 906.00976,166.06989 906.00977,166.79448 C 906.00976,167.38239 906.26269,167.83356 906.76855,168.148 C 907.28808,168.46247 908.21093,168.69489 909.53711,168.84526 L 910.8291,169.02983 C 914.58885,169.50836 917.11814,170.2945 918.41699,171.38823 C 919.7158,172.48199 920.36521,174.19781 920.36523,176.53569 C 920.36521,178.98296 919.46287,180.82183 917.6582,182.0523 C 915.8535,183.28276 913.16014,183.898 909.57812,183.898 C 908.06054,183.898 906.48827,183.77495 904.86133,183.52886 C 903.24804,183.29644 901.58691,182.94097 899.87793,182.46245 L 899.87793,176.88433 C 901.34082,177.59527 902.83789,178.12847 904.36914,178.48394 C 905.91405,178.83941 907.47948,179.01714 909.06543,179.01714 C 910.50096,179.01714 911.58104,178.8189 912.30566,178.42241 C 913.03026,178.02593 913.39256,177.43804 913.39258,176.65874 C 913.39256,176.0025 913.13963,175.51715 912.63379,175.20269 C 912.14159,174.87457 911.15038,174.62164 909.66016,174.4439 L 908.36816,174.27983 C 905.10058,173.86969 902.81054,173.1109 901.49805,172.00347 C 900.18554,170.89606 899.52929,169.21442 899.5293,166.95855 C 899.52929,164.52497 900.36328,162.72028 902.03125,161.54448 C 903.69921,160.36872 906.25585,159.78083 909.70117,159.78081 C 911.05467,159.78083 912.47655,159.88337 913.9668,160.08843 C 915.45701,160.29353 917.07713,160.61482 918.82715,161.0523 M 968.27148,181.0269 C 966.3027,181.98394 964.25876,182.70171 962.13965,183.18022 C 960.02048,183.65874 957.83299,183.898 955.57715,183.898 C 950.47753,183.898 946.43749,182.47612 943.45703,179.63237 C 940.47656,176.77496 938.98633,172.90582 938.98633,168.02495 C 938.98633,163.08942 940.5039,159.20662 943.53906,156.37651 C 946.57421,153.54647 950.73045,152.13143 956.00781,152.1314 C 958.0449,152.13143 959.99314,152.32283 961.85254,152.70562 C 963.72556,153.08846 965.48923,153.65584 967.14355,154.40776 L 967.14355,160.74468 C 965.43454,159.774 963.7324,159.04939 962.03711,158.57085 C 960.35545,158.09236 958.66697,157.8531 956.97168,157.85308 C 953.82713,157.8531 951.40038,158.73494 949.69141,160.49858 C 947.99608,162.24861 947.14843,164.75739 947.14844,168.02495 C 947.14843,171.2652 947.96874,173.76715 949.60938,175.53081 C 951.24999,177.29449 953.58104,178.17632 956.60254,178.17632 C 957.42283,178.17632 958.18162,178.12847 958.87891,178.03276 C 959.58982,177.92339 960.22556,177.75933 960.78613,177.54058 L 960.78613,171.59331 L 955.9668,171.59331 L 955.9668,166.3023 L 968.27148,166.3023 L 968.27148,181.0269 M 991.9375,166.5894 C 991.2949,166.28864 990.65232,166.06989 990.00977,165.93315 C 989.38084,165.78278 988.7451,165.70759 988.10254,165.70757 C 986.21581,165.70759 984.75975,166.31598 983.73438,167.53276 C 982.72264,168.7359 982.21679,170.46539 982.2168,172.72124 L 982.2168,183.30327 L 974.875,183.30327 L 974.875,160.33452 L 982.2168,160.33452 L 982.2168,164.10796 C 983.16014,162.60407 984.24022,161.51032 985.45703,160.82671 C 986.68748,160.12947 988.15721,159.78083 989.86621,159.78081 C 990.11229,159.78083 990.37889,159.79451 990.66602,159.82183 C 990.95311,159.83552 991.3701,159.87654 991.91699,159.94487 L 991.9375,166.5894 M 1006.5596,165.03081 C 1004.9326,165.03083 1003.6885,165.61872 1002.8271,166.79448 C 1001.9795,167.95661 1001.5557,169.63825 1001.5557,171.8394 C 1001.5557,174.04059 1001.9795,175.72906 1002.8271,176.90483 C 1003.6885,178.06695 1004.9326,178.648 1006.5596,178.648 C 1008.1592,178.648 1009.3828,178.06695 1010.2305,176.90483 C 1011.0781,175.72906 1011.5019,174.04059 1011.502,171.8394 C 1011.5019,169.63825 1011.0781,167.95661 1010.2305,166.79448 C 1009.3828,165.61872 1008.1592,165.03083 1006.5596,165.03081 M 1006.5596,159.78081 C 1010.5107,159.78083 1013.5937,160.84724 1015.8086,162.98003 C 1018.0371,165.11286 1019.1513,168.06598 1019.1514,171.8394 C 1019.1513,175.61285 1018.0371,178.56597 1015.8086,180.69878 C 1013.5937,182.83159 1010.5107,183.898 1006.5596,183.898 C 1002.5947,183.898 999.4912,182.83159 997.24902,180.69878 C 995.0205,178.56597 993.90625,175.61285 993.90625,171.8394 C 993.90625,168.06598 995.0205,165.11286 997.24902,162.98003 C 999.4912,160.84724 1002.5947,159.78083 1006.5596,159.78081 M 1024.2578,174.36187 L 1024.2578,160.33452 L 1031.6406,160.33452 L 1031.6406,162.6314 C 1031.6406,163.87556 1031.6338,165.44098 1031.6201,167.32769 C 1031.6064,169.20075 1031.5996,170.45172 1031.5996,171.08062 C 1031.5996,172.92633 1031.6475,174.25934 1031.7432,175.07964 C 1031.8389,175.88629 1032.0029,176.47418 1032.2354,176.84331 C 1032.5361,177.32183 1032.9258,177.69097 1033.4043,177.95073 C 1033.8965,178.2105 1034.457,178.34039 1035.0859,178.34038 C 1036.6172,178.34039 1037.8203,177.7525 1038.6953,176.57671 C 1039.5703,175.40094 1040.0078,173.76715 1040.0078,171.67534 L 1040.0078,160.33452 L 1047.3496,160.33452 L 1047.3496,183.30327 L 1040.0078,183.30327 L 1040.0078,179.98101 C 1038.9004,181.32085 1037.7246,182.31206 1036.4805,182.95464 C 1035.25,183.58354 1033.8896,183.898 1032.3994,183.898 C 1029.7471,183.898 1027.7236,183.08452 1026.3291,181.45757 C 1024.9482,179.83062 1024.2578,177.46539 1024.2578,174.36187 M 1061.7871,179.98101 L 1061.7871,192.0396 L 1054.4453,192.0396 L 1054.4453,160.33452 L 1061.7871,160.33452 L 1061.7871,163.6978 C 1062.7988,162.35798 1063.9199,161.37361 1065.1504,160.74468 C 1066.3808,160.10212 1067.7959,159.78083 1069.3955,159.78081 C 1072.2256,159.78083 1074.5498,160.90876 1076.3682,163.1646 C 1078.1865,165.40681 1079.0957,168.2984 1079.0957,171.8394 C 1079.0957,175.38043 1078.1865,178.27886 1076.3682,180.53472 C 1074.5498,182.77691 1072.2256,183.898 1069.3955,183.898 C 1067.7959,183.898 1066.3808,183.58354 1065.1504,182.95464 C 1063.9199,182.31206 1062.7988,181.32085 1061.7871,179.98101 M 1066.668,165.11284 C 1065.0957,165.11286 1063.8857,165.69391 1063.0381,166.85601 C 1062.2041,168.00446 1061.7871,169.66559 1061.7871,171.8394 C 1061.7871,174.01324 1062.2041,175.68121 1063.0381,176.84331 C 1063.8857,177.99175 1065.0957,178.56597 1066.668,178.56597 C 1068.2402,178.56597 1069.4365,177.99175 1070.2568,176.84331 C 1071.0908,175.69488 1071.5078,174.02691 1071.5078,171.8394 C 1071.5078,169.65192 1071.0908,167.98395 1070.2568,166.8355 C 1069.4365,165.68708 1068.2402,165.11286 1066.668,165.11284"
       id="flowRoot2316" />
  </g>
  <g
     inkscape:groupmode="layer"
     id="layer3"
     inkscape:label="Text_&lt;"
     style="display:inline">
    <path
       style="font-size:300px;font-style:normal;font-variant:normal;font-weight:bold;font-stretch:normal;text-align:center;line-height:100%;writing-mode:lr-tb;text-anchor:middle;display:inline;font-family:Sans"
       d="M 193.67536,315.72074 L 266.63762,235.88676 L 325.40181,235.88676 L 230.87954,339.45121 L 335.13011,454.58793 L 271.76469,454.58793 L 193.67536,368.45512"
       id="flowRoot2236"
       sodipodi:nodetypes="ccccccc"
       inkscape:export-filename="/home/stf/work/web/logo_KBSG.png"
       inkscape:export-xdpi="300"
       inkscape:export-ydpi="300" />
  </g>
  <g
     inkscape:groupmode="layer"
     id="layer13"
     inkscape:label="Text_K"
     style="display:none">
    <flowRoot
       style="font-size:300px;font-style:normal;font-variant:normal;font-weight:bold;font-stretch:normal;text-align:center;line-height:100%;writing-mode:lr-tb;text-anchor:middle;display:inline;font-family:Sans"
       id="flowRoot2293"
       xml:space="preserve"
       transform="translate(-457.05552,64.83771)"
       inkscape:export-filename="/home/stf/work/web/logo_KBSG.png"
       inkscape:export-xdpi="300"
       inkscape:export-ydpi="300"><flowRegion
         id="flowRegion2295"><rect
           style="font-size:300px;font-style:normal;font-variant:normal;font-weight:bold;font-stretch:normal;text-align:center;line-height:100%;writing-mode:lr-tb;text-anchor:middle;font-family:Sans"
           id="rect2297"
           width="1020.0001"
           y="149.80876"
           x="172.85715"
           height="374.28574" /></flowRegion><flowPara
         id="flowPara2299">K</flowPara></flowRoot>  </g>
  <g
     inkscape:groupmode="layer"
     id="layer10"
     inkscape:label="Text_B"
     style="display:inline">
    <path
       transform="translate(-249.34124,64.97042)"
       style="font-size:300px;font-style:normal;font-variant:normal;font-weight:bold;font-stretch:normal;text-align:center;line-height:100%;writing-mode:lr-tb;text-anchor:middle;display:inline;font-family:Sans"
       d="M 683.72266,254.9991 C 692.60925,254.99923 699.34753,253.04611 703.9375,249.13972 C 708.5272,245.23361 710.82212,239.4719 710.82227,231.85456 C 710.82212,224.3352 708.5272,218.62231 703.9375,214.71589 C 699.34753,210.71216 692.60925,208.71021 683.72266,208.71003 L 652.52148,208.71003 L 652.52148,254.9991 L 683.72266,254.9991 M 685.62695,350.65339 C 696.95495,350.65343 705.45104,348.26086 711.11523,343.47566 C 716.8768,338.69055 719.75766,331.464 719.75781,321.79597 C 719.75766,312.32339 716.92563,305.24332 711.26172,300.55574 C 705.59752,295.77067 697.05261,293.3781 685.62695,293.378 L 652.52148,293.378 L 652.52148,350.65339 L 685.62695,350.65339 M 738.06836,271.99128 C 750.17755,275.50702 759.55254,282.00116 766.19336,291.4737 C 772.83378,300.94645 776.15409,312.56753 776.1543,326.33699 C 776.15409,347.43078 769.02519,363.15342 754.76758,373.50495 C 740.50959,383.85652 718.82993,389.0323 689.72852,389.0323 L 596.125,389.0323 L 596.125,170.33113 L 680.79297,170.33113 C 711.16392,170.33135 733.13655,174.92118 746.71094,184.10066 C 760.38262,193.28054 767.21855,207.97779 767.21875,228.19245 C 767.21855,238.83714 764.72832,247.91916 759.74805,255.43855 C 754.76739,262.86055 747.54084,268.37812 738.06836,271.99128"
       id="flowRoot2237" />
  </g>
  <g
     inkscape:groupmode="layer"
     id="layer11"
     inkscape:label="Text_S"
     style="display:inline">
    <path
       transform="matrix(1.0467426,0,0,0.9732887,-83.83614,71.720558)"
       style="font-size:300px;font-style:normal;font-variant:normal;font-weight:bold;font-stretch:normal;text-align:center;line-height:100%;writing-mode:lr-tb;text-anchor:middle;display:inline;font-family:Sans"
       d="M 754.18164,177.21589 L 754.18164,223.50495 C 742.16975,218.13403 730.45102,214.0813 719.02539,211.34675 C 707.59948,208.61256 696.80847,207.24537 686.65234,207.24519 C 673.17568,207.24537 663.21475,209.10084 656.76953,212.8116 C 650.32414,216.52271 647.10149,222.28442 647.10156,230.09675 C 647.10149,235.95628 649.24993,240.54612 653.54688,243.86628 C 657.94132,247.08908 665.85147,249.87228 677.27734,252.21589 L 701.30078,257.04988 C 725.61704,261.93282 742.90218,269.35468 753.15625,279.3155 C 763.40997,289.27654 768.53692,303.43668 768.53711,321.79597 C 768.53692,345.91711 761.35919,363.88584 747.00391,375.70222 C 732.74594,387.42097 710.91979,393.28034 681.52539,393.28035 C 667.65811,393.28034 653.74211,391.96198 639.77734,389.32527 C 625.81245,386.68855 611.84762,382.7823 597.88281,377.60652 L 597.88281,329.9991 C 611.84762,337.42102 625.32417,343.03625 638.3125,346.8448 C 651.39836,350.55577 663.996,352.41124 676.10547,352.4112 C 688.41004,352.41124 697.83386,350.36046 704.37695,346.25886 C 710.91979,342.15735 714.19127,336.29798 714.19141,328.68074 C 714.19127,321.84487 711.94517,316.57143 707.45312,312.86042 C 703.05847,309.14957 694.22058,305.82926 680.93945,302.89949 L 659.11328,298.0655 C 637.23822,293.3781 621.22261,285.9074 611.06641,275.65339 C 601.00779,265.39961 595.97849,251.58126 595.97852,234.19831 C 595.97849,212.42115 603.00974,195.67312 617.07227,183.95417 C 631.13471,172.23564 651.34953,166.37627 677.7168,166.37605 C 689.7284,166.37627 702.0819,167.304 714.77734,169.15925 C 727.4725,170.91728 740.60726,173.60283 754.18164,177.21589"
       id="flowRoot2256" />
  </g>
  <g
     inkscape:groupmode="layer"
     id="layer12"
     inkscape:label="Text_G"
     style="display:inline">
    <path
       transform="matrix(0.9661962,0,0,0.9732887,173.57658,72.312304)"
       style="font-size:300px;font-style:normal;font-variant:normal;font-weight:bold;font-stretch:normal;text-align:center;line-height:100%;writing-mode:lr-tb;text-anchor:middle;display:inline;font-family:Sans"
       d="M 783.91797,372.77253 C 769.85526,379.60848 755.25566,384.73543 740.11914,388.15339 C 724.98226,391.57136 709.35727,393.28034 693.24414,393.28035 C 656.81826,393.28034 627.96087,383.1241 606.67188,362.8116 C 585.38279,342.40149 574.73827,314.76479 574.73828,279.90144 C 574.73827,244.64768 585.5781,216.91333 607.25781,196.69831 C 628.93743,176.48368 658.6249,166.37627 696.32031,166.37605 C 710.87094,166.37627 724.78694,167.74346 738.06836,170.47761 C 751.44707,173.2122 764.04472,177.26493 775.86133,182.63581 L 775.86133,227.89949 C 763.65409,220.96606 751.4959,215.79028 739.38672,212.37214 C 727.37483,208.95435 715.3143,207.24537 703.20508,207.24519 C 680.74402,207.24537 663.41005,213.54419 651.20312,226.14167 C 639.09367,238.64182 633.03899,256.56173 633.03906,279.90144 C 633.03899,303.04606 638.89836,320.91713 650.61719,333.51472 C 662.33583,346.11242 678.98621,352.41124 700.56836,352.4112 C 706.42759,352.41124 711.8475,352.06944 716.82812,351.38581 C 721.90609,350.6046 726.4471,349.43273 730.45117,347.87019 L 730.45117,305.38972 L 696.02734,305.38972 L 696.02734,267.59675 L 783.91797,267.59675 L 783.91797,372.77253"
       id="flowRoot2272" />
  </g>
  <g
     inkscape:groupmode="layer"
     id="layer8"
     inkscape:label="TextOverlay"
     style="display:none">
    <path
       style="font-size:300px;font-style:normal;font-variant:normal;font-weight:bold;font-stretch:normal;text-align:center;line-height:100%;writing-mode:lr-tb;text-anchor:middle;fill:#ffffff;display:inline;font-family:Sans"
       d="M 135.96885,234.3276 L 193.62515,234.3276 L 193.62515,456.05921 L 135.96885,456.05921 L 135.96885,234.3276"
       id="path2223"
       sodipodi:nodetypes="ccccc"
       inkscape:export-filename="/home/stf/work/web/logo_KBSG.png"
       inkscape:export-xdpi="300"
       inkscape:export-ydpi="300" />
  </g>
  <g
     inkscape:groupmode="layer"
     id="layer9"
     inkscape:label="Text_!"
     style="display:inline">
    <path
       transform="matrix(1.1251912,0,0,1.0046189,-597.37311,64.31695)"
       style="font-size:300px;font-style:normal;font-variant:normal;font-weight:bold;font-stretch:normal;text-align:center;line-height:100%;writing-mode:lr-tb;text-anchor:middle;fill:#800000;display:inline;font-family:Sans"
       d="M 656.33008,170.33113 L 709.06445,170.33113 L 709.06445,254.26667 L 701.59375,315.49714 L 663.80078,315.49714 L 656.33008,254.26667 L 656.33008,170.33113 M 656.33008,336.88386 L 709.06445,336.88386 L 709.06445,389.0323 L 656.33008,389.0323 L 656.33008,336.88386"
       id="flowRoot2213" />
  </g>
  <g
     inkscape:groupmode="layer"
     id="layer2"
     inkscape:label="Text_¬"
     style="display:none">
    <path
       style="font-size:144px;font-style:normal;font-variant:normal;font-weight:normal;font-stretch:normal;text-align:start;line-height:100%;writing-mode:lr-tb;text-anchor:start;fill:#800000;display:inline;font-family:Nimbus Sans L"
       d="M 249.97874,323.82367 L 249.97874,351.37486 L 309.3457,351.37916 L 309.41966,376.21741 L 335.09499,376.34063 L 334.91642,324.563 L 250.33588,324.563"
       id="flowRoot2232"
       sodipodi:nodetypes="ccccccc" />
  </g>
  <g
     inkscape:groupmode="layer"
     id="layer4"
     inkscape:label="Text_: links"
     style="display:none">
    <flowRoot
       xml:space="preserve"
       id="flowRoot2265"
       style="font-size:175px;font-style:normal;font-variant:normal;font-weight:bold;font-stretch:normal;text-align:start;line-height:100%;writing-mode:lr-tb;text-anchor:start;fill:#800000;font-family:Nimbus Sans L"
       transform="translate(461.74746,233.68112)"><flowRegion
         id="flowRegion2267"><rect
           id="rect2269"
           width="237.85713"
           height="215.71428"
           x="335.71429"
           y="24.094482"
           style="font-size:175px;font-style:normal;font-variant:normal;font-weight:bold;font-stretch:normal;text-align:start;line-height:100%;writing-mode:lr-tb;text-anchor:start;fill:#800000;font-family:Nimbus Sans L" /></flowRegion><flowPara
         id="flowPara2296">:</flowPara></flowRoot>  </g>
  <g
     inkscape:groupmode="layer"
     id="layer5"
     inkscape:label="Text_-"
     style="display:none">
    <flowRoot
       xml:space="preserve"
       id="flowRoot2286"
       style="font-size:200px;font-style:normal;font-variant:normal;font-weight:bold;font-stretch:normal;text-align:start;line-height:100%;writing-mode:lr-tb;text-anchor:start;fill:#800000;display:inline;font-family:Nimbus Sans L"
       transform="matrix(1.9124934,0,0,1.6620299,174.76811,133.8921)"><flowRegion
         id="flowRegion2288"><rect
           id="rect2290"
           width="237.85713"
           height="215.71428"
           x="335.71429"
           y="24.094482"
           style="font-size:200px;font-style:normal;font-variant:normal;font-weight:bold;font-stretch:normal;text-align:start;line-height:100%;writing-mode:lr-tb;text-anchor:start;fill:#800000;font-family:Nimbus Sans L" /></flowRegion><flowPara
         id="flowPara2294">-</flowPara></flowRoot>  </g>
  <g
     inkscape:groupmode="layer"
     id="layer7"
     inkscape:label="Text_: rechts"
     style="display:none">
    <flowRoot
       xml:space="preserve"
       id="flowRoot2300"
       style="font-size:300px;font-style:normal;font-variant:normal;font-weight:bold;font-stretch:normal;text-align:start;line-height:100%;writing-mode:lr-tb;text-anchor:start;fill:#800000;font-family:Nimbus Sans L"
       transform="translate(577.44237,163.82178)"><flowRegion
         id="flowRegion2302"><rect
           id="rect2304"
           width="284.28571"
           height="310.66861"
           x="335.71429"
           y="24.094482"
           style="font-size:300px;font-style:normal;font-variant:normal;font-weight:bold;font-stretch:normal;text-align:start;line-height:100%;writing-mode:lr-tb;text-anchor:start;fill:#800000;font-family:Nimbus Sans L" /></flowRegion><flowPara
         id="flowPara2306">:</flowPara></flowRoot>  </g>
  <g
     inkscape:groupmode="layer"
     id="layer14"
     inkscape:label="Text_."
     style="display:none">
    <path
       style="font-size:300px;font-style:normal;font-variant:normal;font-weight:bold;font-stretch:normal;text-align:center;line-height:100%;writing-mode:lr-tb;text-anchor:middle;fill:#800000;display:inline;font-family:Sans"
       d="M 940.66706,401.48451 L 1000.0033,401.48451 L 1000.0033,453.87382 L 940.66706,453.87382 L 940.66706,401.48451"
       id="flowRoot2313"
       sodipodi:nodetypes="ccccc" />
  </g>
  <g
     inkscape:groupmode="layer"
     id="layer16"
     inkscape:label="Text_^"
     style="display:inline">
    <path
       transform="matrix(14.493492,0,0,0.9885949,-4799.5493,354.48081)"
       style="font-size:200px;font-style:normal;font-variant:normal;font-weight:bold;font-stretch:normal;text-align:start;line-height:100%;writing-mode:lr-tb;text-anchor:start;fill:#800000;display:inline;font-family:Nimbus Sans L"
       d="M 395.31875,107.9488 L 340.91875,107.9488 L 340.91875,134.9488 L 395.31875,134.9488 L 395.31875,107.9488"
       id="flowRoot2323" />
  </g>
</svg>
