<?xml version="1.0"?><svg width="663" height="311" xmlns="http://www.w3.org/2000/svg" xmlns:xlink="http://www.w3.org/1999/xlink">
 <title>Black Car</title>
 <defs>
  <linearGradient id="linearGradient3258">
   <stop offset="0" stop-color="#3f3a4a" id="stop3259"/>
   <stop offset="1" stop-color="#afaa9d" id="stop3260"/>
  </linearGradient>
  <linearGradient id="linearGradient3225">
   <stop offset="0" stop-opacity="0.3804" stop-color="#000000" id="stop3226"/>
   <stop offset="1" stop-opacity="0" stop-color="#000000" id="stop3227"/>
  </linearGradient>
  <linearGradient id="linearGradient3178">
   <stop offset="0" stop-color="#ffff97" id="stop3179"/>
   <stop offset="1" stop-color="#ffffe7" id="stop3180"/>
  </linearGradient>
  <linearGradient id="linearGradient3109">
   <stop offset="0" stop-opacity="0.8196" stop-color="#dddaff" id="stop3110"/>
   <stop offset="1" stop-opacity="0.5843" stop-color="#6a72ff" id="stop3111"/>
  </linearGradient>
  <linearGradient id="linearGradient3061">
   <stop offset="0" stop-opacity="0.5804" stop-color="#ffff00" id="stop3062"/>
   <stop offset="1" stop-opacity="0" stop-color="#ffffff" id="stop3063"/>
  </linearGradient>
  <linearGradient id="linearGradient3042">
   <stop offset="0" stop-opacity="0.902" stop-color="#000000" id="stop3043"/>
   <stop offset="1" stop-opacity="0" stop-color="#000000" id="stop3044"/>
  </linearGradient>
  <linearGradient id="linearGradient3034">
   <stop offset="0" stop-opacity="0.5804" stop-color="#ff0000" id="stop3035"/>
   <stop offset="1" stop-opacity="0" stop-color="#ffffff" id="stop3036"/>
  </linearGradient>
  <linearGradient id="linearGradient3012">
   <stop offset="0" stop-opacity="0.902" stop-color="#ffffff" id="stop3013"/>
   <stop offset="1" stop-opacity="0" stop-color="#ffffff" id="stop3014"/>
  </linearGradient>
  <linearGradient id="linearGradient650">
   <stop offset="0" stop-color="#000" id="stop651"/>
   <stop offset="1" stop-color="#fff" id="stop652"/>
  </linearGradient>
  <linearGradient xlink:href="#linearGradient650" y2="0.53125" x2="1.89655" y1="0.125" x1="-1.62069" id="linearGradient3032"/>
  <linearGradient xlink:href="#linearGradient3061" y2="0.632815" x2="0.265734" y1="0.531289" x1="0.405593" id="linearGradient3033"/>
  <radialGradient xlink:href="#linearGradient3061" fy="0.491816" fx="0.488374" r="2.10304" cy="0.491816" cx="0.488374" gradientTransform="translate(-9.39605e-008 -1.78976e-006)" id="radialGradient3037"/>
  <linearGradient xlink:href="#linearGradient3012" y2="0" x2="1" y1="0" x1="0" id="linearGradient3038"/>
  <linearGradient xlink:href="#linearGradient3012" y2="-1.07004" x2="1" y1="-1.07004" x1="0" id="linearGradient3039"/>
  <linearGradient xlink:href="#linearGradient650" y2="0.421876" x2="-0.13986" y1="0.406266" x1="1.16084" id="linearGradient3040"/>
  <linearGradient xlink:href="#linearGradient3042" y2="1.38636" x2="0.449813" y1="-0.727277" x1="0.449803" id="linearGradient3047"/>
  <linearGradient xlink:href="#linearGradient650" y2="-2.79929" x2="2.11682" y1="-2.62917" x1="-2.93098" id="linearGradient3053"/>
  <linearGradient xlink:href="#linearGradient650" y2="0.41553" x2="1.52725" y1="0.233738" x1="-1.18013" gradientTransform="matrix(1.10808 0 0 0.902465 1.02481e-006 1.86041e-007)" id="linearGradient3054"/>
  <linearGradient xlink:href="#linearGradient3225" y2="0" x2="1" y1="0" x1="0" id="linearGradient3055"/>
  <linearGradient xlink:href="#linearGradient3225" y2="0.873978" x2="0.008444" y1="0.873978" x1="-0.688096" gradientTransform="scale(1.50828 0.663008)" id="linearGradient3056"/>
  <radialGradient xlink:href="#linearGradient3034" fy="0.498003" fx="0.507198" r="1.13937" cy="0.498003" cx="0.507198" gradientTransform="translate(2.83577e-006 -4.22671e-008)" id="radialGradient3058"/>
  <linearGradient xlink:href="#linearGradient3012" y2="0" x2="1" y1="0" x1="0" id="linearGradient3064"/>
  <linearGradient xlink:href="#linearGradient650" y2="0.414063" x2="1.25581" y1="0.328125" x1="-1.88372" id="linearGradient3065"/>
  <linearGradient xlink:href="#linearGradient650" y2="0.445312" x2="18.1076" y1="0.367188" x1="-7.6854" id="linearGradient3066"/>
  <linearGradient xlink:href="#linearGradient650" y2="0.164013" x2="23.2484" y1="0.073805" x1="-6.53385" gradientTransform="scale(0.364412 2.74415)" id="linearGradient3067"/>
  <linearGradient xlink:href="#linearGradient3012" y2="0" x2="1" y1="0" x1="0" id="linearGradient3068"/>
  <linearGradient xlink:href="#linearGradient3042" y2="0" x2="0.672862" y1="1.15517" x1="0.684015" id="linearGradient3069"/>
  <linearGradient xlink:href="#linearGradient3012" y2="0" x2="1" y1="0" x1="0" id="linearGradient3070"/>
  <linearGradient xlink:href="#linearGradient3042" y2="0" x2="1" y1="0" x1="0" id="linearGradient3071"/>
  <linearGradient xlink:href="#linearGradient3012" y2="0" x2="1" y1="0" x1="0" id="linearGradient3072"/>
  <linearGradient xlink:href="#linearGradient3042" y2="0" x2="1" y1="0" x1="0" id="linearGradient3073"/>
  <linearGradient xlink:href="#linearGradient3042" y2="0" x2="1" y1="0" x1="0" id="linearGradient3074"/>
  <linearGradient xlink:href="#linearGradient3042" y2="1.32202" x2="0.976191" y1="1.32202" x1="-0.023808" gradientTransform="scale(0.999999)" id="linearGradient3075"/>
  <linearGradient xlink:href="#linearGradient3042" y2="0" x2="1" y1="0" x1="0" id="linearGradient3076"/>
  <linearGradient xlink:href="#linearGradient3042" y2="1.32202" x2="0.976191" y1="1.32202" x1="-0.023808" gradientTransform="scale(0.999999)" id="linearGradient3077"/>
  <linearGradient xlink:href="#linearGradient3012" y2="0" x2="1" y1="0" x1="0" id="linearGradient3078"/>
  <linearGradient xlink:href="#linearGradient3042" y2="0" x2="1" y1="0" x1="0" id="linearGradient3079"/>
  <linearGradient xlink:href="#linearGradient650" y2="0.453125" x2="2.71429" y1="0.445313" x1="-2.38095" id="linearGradient3080"/>
  <linearGradient xlink:href="#linearGradient3042" y2="0" x2="1" y1="0" x1="0" id="linearGradient3081"/>
  <linearGradient xlink:href="#linearGradient3042" y2="0.242188" x2="0.895523" y1="0.179688" x1="-0.850748" id="linearGradient3082"/>
  <linearGradient xlink:href="#linearGradient3042" y2="0" x2="1" y1="0" x1="0" id="linearGradient3083"/>
  <linearGradient xlink:href="#linearGradient650" y2="0.867188" x2="-0.112359" y1="0.039067" x1="-0.168541" id="linearGradient3084"/>
  <linearGradient xlink:href="#linearGradient650" y2="1.18876" x2="0.667049" y1="0.068581" x1="-1.63379" gradientTransform="scale(1.46309 0.683483)" id="linearGradient3085"/>
  <linearGradient xlink:href="#linearGradient650" y2="0.780668" x2="1.0824" y1="0.027844" x1="-0.463887" gradientTransform="scale(0.962888 1.03854)" id="linearGradient3086"/>
  <linearGradient xlink:href="#linearGradient3042" y2="0" x2="1" y1="0" x1="0" id="linearGradient3087"/>
  <linearGradient xlink:href="#linearGradient3042" y2="-0.012471" x2="1.59982" y1="-0.012471" x1="0.927761" gradientTransform="scale(0.658118 1.51948)" id="linearGradient3088"/>
  <linearGradient xlink:href="#linearGradient3042" y2="0" x2="1" y1="0" x1="0" id="linearGradient3089"/>
  <linearGradient xlink:href="#linearGradient3042" y2="0" x2="1" y1="0" x1="0" id="linearGradient3091"/>
  <linearGradient xlink:href="#linearGradient650" y2="1.00781" x2="2.38462" y1="0.343749" x1="-0.179479" id="linearGradient3092"/>
  <linearGradient xlink:href="#linearGradient3012" y2="0" x2="1" y1="0" x1="0" id="linearGradient3093"/>
  <linearGradient xlink:href="#linearGradient650" y2="0.906248" x2="0.794872" y1="0.054683" x1="-1.76924" id="linearGradient3094"/>
  <linearGradient xlink:href="#linearGradient3012" y2="0" x2="1" y1="0" x1="0" id="linearGradient3095"/>
  <linearGradient xlink:href="#linearGradient650" y2="1.57812" x2="-0.126214" y1="0.070311" x1="-0.310686" id="linearGradient3096"/>
  <linearGradient xlink:href="#linearGradient3042" y2="0" x2="1" y1="0" x1="0" id="linearGradient3097"/>
  <linearGradient xlink:href="#linearGradient3012" y2="0" x2="1" y1="0" x1="0" id="linearGradient3098"/>
  <linearGradient xlink:href="#linearGradient3012" y2="0" x2="1" y1="0" x1="0" id="linearGradient3099"/>
  <linearGradient xlink:href="#linearGradient3012" y2="0" x2="1" y1="0" x1="0" id="linearGradient3101"/>
  <linearGradient xlink:href="#linearGradient650" y2="0.351563" x2="1.0979" y1="0.437501" x1="-0.174825" id="linearGradient3102"/>
  <linearGradient xlink:href="#linearGradient3042" y2="0" x2="1" y1="0" x1="0" id="linearGradient3103"/>
  <linearGradient xlink:href="#linearGradient3012" y2="0.977271" x2="0.520445" y1="0" x1="0.513005" id="linearGradient3104"/>
  <linearGradient xlink:href="#linearGradient3042" y2="0" x2="1" y1="0" x1="0" id="linearGradient3105"/>
  <linearGradient xlink:href="#linearGradient3042" y2="0" x2="0.999999" y1="0" x1="0" id="linearGradient3106"/>
  <linearGradient xlink:href="#linearGradient3109" y2="0.955414" x2="1.0274" y1="0.012739" x1="0.150685" id="linearGradient3108"/>
  <linearGradient xlink:href="#linearGradient3042" y2="-3.33333" x2="0.513011" y1="1.58334" x1="0.516719" id="linearGradient3112"/>
  <linearGradient xlink:href="#linearGradient3042" y2="1.08333" x2="0.54275" y1="0.25" x1="0.539029" id="linearGradient3113"/>
  <linearGradient xlink:href="#linearGradient3012" y2="0" x2="1" y1="0" x1="0" id="linearGradient3125"/>
  <linearGradient xlink:href="#linearGradient3012" y2="0" x2="1" y1="0" x1="0" id="linearGradient3127"/>
  <linearGradient xlink:href="#linearGradient3042" y2="0" x2="1" y1="0" x1="0" id="linearGradient3131"/>
  <linearGradient xlink:href="#linearGradient3012" y2="0" x2="1" y1="0" x1="0" id="linearGradient3132"/>
  <linearGradient xlink:href="#linearGradient650" y2="0.6875" x2="-0.104895" y1="0.710938" x1="1.34965" id="linearGradient3133"/>
  <linearGradient xlink:href="#linearGradient3061" y2="1.33594" x2="-0.426573" y1="0.070312" x1="0.937063" id="linearGradient3134"/>
  <linearGradient xlink:href="#linearGradient3109" y2="0.935065" x2="0.929412" y1="0.038961" x1="0.105882" id="linearGradient3136"/>
  <linearGradient xlink:href="#linearGradient3109" y2="0.414062" x2="0.690141" y1="0.171875" x1="0.43662" spreadMethod="reflect" id="linearGradient3137"/>
  <linearGradient xlink:href="#linearGradient3012" y2="-12.7366" x2="2.81852" y1="-12.7368" x1="0.272743" gradientTransform="translate(-5.55894e-007 -2.58904e-006)" id="linearGradient3138"/>
  <linearGradient xlink:href="#linearGradient3012" y2="6.80158" x2="2.81839" y1="6.80139" x1="0.272625" gradientTransform="matrix(1 0 0 0.999998 7.20433e-008 1.23579e-006)" id="linearGradient3139"/>
  <linearGradient xlink:href="#linearGradient650" y2="-4.35326" x2="2.95946" y1="-4.27679" x1="0.24662" id="linearGradient3140"/>
  <linearGradient xlink:href="#linearGradient650" y2="4.43555" x2="2.95054" y1="4.51202" x1="0.237715" gradientTransform="scale(1)" id="linearGradient3142"/>
  <linearGradient xlink:href="#linearGradient3042" y2="0" x2="1" y1="0" x1="0" id="linearGradient3143"/>
  <linearGradient xlink:href="#linearGradient3042" y2="-8.78881" x2="1.00891" y1="-8.78881" x1="0.008904" gradientTransform="scale(0.999999)" id="linearGradient3144"/>
  <linearGradient xlink:href="#linearGradient650" y2="0.398437" x2="4.09091" y1="0.398437" x1="-7.09091" id="linearGradient3145"/>
  <linearGradient xlink:href="#linearGradient3012" y2="0" x2="1" y1="0" x1="0" id="linearGradient3146"/>
  <linearGradient xlink:href="#linearGradient650" y2="0.320313" x2="12.8889" y1="0.3125" x1="-0.666667" id="linearGradient3147"/>
  <linearGradient xlink:href="#linearGradient3012" y2="0" x2="1" y1="0" x1="0" id="linearGradient3148"/>
  <linearGradient xlink:href="#linearGradient3012" y2="-1.93333" x2="0.542751" y1="1.10001" x1="0.527881" id="linearGradient3172"/>
  <linearGradient xlink:href="#linearGradient650" y2="-1.4" x2="0.524164" y1="0.833336" x1="0.513011" id="linearGradient3173"/>
  <linearGradient xlink:href="#linearGradient650" y2="-0.593749" x2="0.568773" y1="1.84376" x1="0.486989" id="linearGradient3174"/>
  <linearGradient xlink:href="#linearGradient3012" y2="0" x2="1" y1="0" x1="0" id="linearGradient3175"/>
  <linearGradient xlink:href="#linearGradient3012" y2="0" x2="1" y1="0" x1="0" id="linearGradient3176"/>
  <linearGradient xlink:href="#linearGradient3178" y2="0.171875" x2="0.72381" y1="0.953125" x1="0.076191" id="linearGradient3177"/>
  <linearGradient xlink:href="#linearGradient3042" y2="0.375813" x2="0.921533" y1="2.13172" x1="-1.2128" id="linearGradient3206"/>
  <linearGradient xlink:href="#linearGradient3042" y2="-0.485001" x2="1.76544" y1="0.867933" x1="0.120928" gradientTransform="scale(0.941732 1.06187)" id="linearGradient3207"/>
  <linearGradient xlink:href="#linearGradient3042" y2="0.467377" x2="1.76544" y1="1.82031" x1="0.120928" gradientTransform="scale(0.941732 1.06187)" id="linearGradient3208"/>
  <linearGradient xlink:href="#linearGradient3042" y2="-0.62091" x2="0.921533" y1="1.13499" x1="-1.2128" id="linearGradient3209"/>
  <linearGradient xlink:href="#linearGradient3042" y2="0" x2="0.999999" y1="0" x1="0" id="linearGradient3210"/>
  <linearGradient xlink:href="#linearGradient650" y2="0.34375" x2="-4.26666" y1="0.414062" x1="1.66666" id="linearGradient3211"/>
  <linearGradient xlink:href="#linearGradient3042" y2="0" x2="1" y1="0" x1="0" id="linearGradient3212"/>
  <linearGradient xlink:href="#linearGradient3178" id="linearGradient3213"/>
  <linearGradient xlink:href="#linearGradient3178" y2="0.921875" x2="0.867052" y1="0.078125" x1="0.080925" id="linearGradient3214"/>
  <linearGradient xlink:href="#linearGradient3042" y2="-0.201766" x2="0.675142" y1="1.47299" x1="-2.35686" id="linearGradient3215"/>
  <linearGradient xlink:href="#linearGradient3042" y2="-0.053216" x2="3.15556" y1="1.73776" x1="-0.086846" gradientTransform="scale(0.456186 -2.19209)" id="linearGradient3216"/>
  <linearGradient xlink:href="#linearGradient3042" y2="-1.43927" x2="3.14185" y1="0.351711" x1="-0.100556" gradientTransform="scale(0.456186 2.19209)" id="linearGradient3217"/>
  <linearGradient xlink:href="#linearGradient3042" y2="-0.679446" x2="2.378" y1="-2.38597" x1="-0.856079" id="linearGradient3218"/>
  <linearGradient xlink:href="#linearGradient3042" y2="0.787799" x2="2.37396" y1="-0.918725" x1="-0.860124" gradientTransform="scale(0.999999 -1)" id="linearGradient3219"/>
  <linearGradient xlink:href="#linearGradient3042" y2="0.671875" x2="2.34328" y1="0.578124" x1="-0.596998" id="linearGradient3220"/>
  <linearGradient xlink:href="#linearGradient3012" y2="0" x2="1" y1="0" x1="0" id="linearGradient3221"/>
  <linearGradient xlink:href="#linearGradient3178" y2="0.007812" x2="0.929581" y1="0.96875" x1="0.084509" id="linearGradient3222"/>
  <linearGradient xlink:href="#linearGradient3225" y2="0.425373" x2="-0.319998" y1="0.962685" x1="-0.373311" spreadMethod="reflect" id="linearGradient3224"/>
  <linearGradient xlink:href="#linearGradient650" y2="-0.039062" x2="2.10448" y1="0.984397" x1="-0.880541" id="linearGradient3228"/>
  <linearGradient xlink:href="#linearGradient3012" y2="0" x2="1" y1="0" x1="0" id="linearGradient3229"/>
  <linearGradient xlink:href="#linearGradient3012" y2="0" x2="1" y1="0" x1="0" id="linearGradient3230"/>
  <linearGradient xlink:href="#linearGradient650" y2="0.570311" x2="2.40679" y1="0.773397" x1="-0.124289" id="linearGradient3231"/>
  <linearGradient xlink:href="#linearGradient650" y2="0.742188" x2="0.866665" y1="0.28125" x1="-0.333335" id="linearGradient3232"/>
  <linearGradient xlink:href="#linearGradient3012" y2="0" x2="1" y1="0" x1="0" id="linearGradient3233"/>
  <linearGradient xlink:href="#linearGradient3012" y2="0" x2="1" y1="0" x1="0" id="linearGradient3234"/>
  <linearGradient xlink:href="#linearGradient650" y2="0.453125" x2="1.77157" y1="0.40625" x1="0.370558" id="linearGradient3235"/>
  <linearGradient xlink:href="#linearGradient3012" y2="0" x2="1" y1="0" x1="0" id="linearGradient3236"/>
  <linearGradient xlink:href="#linearGradient3012" y2="0.234375" x2="1.52381" y1="0.96875" x1="-0.380952" id="linearGradient3237"/>
  <linearGradient xlink:href="#linearGradient650" y2="0.188523" x2="2.13011" y1="0.860654" x1="0.029739" id="linearGradient3238"/>
  <linearGradient xlink:href="#linearGradient3012" y2="0.515624" x2="-0.093462" y1="0.546871" x1="1.43923" id="linearGradient3239"/>
  <linearGradient xlink:href="#linearGradient650" y2="0.476561" x2="-0.064522" y1="0.453111" x1="2.16101" gradientTransform="translate(-3.76605e-006 -1.91212e-007)" id="linearGradient3240"/>
  <linearGradient xlink:href="#linearGradient650" y2="0.554688" x2="0.140349" y1="0.523448" x1="1.78939" gradientTransform="translate(-1.73822e-006 2.54332e-007)" id="linearGradient3241"/>
  <linearGradient xlink:href="#linearGradient3012" y2="0" x2="0.999999" y1="0" x1="0" id="linearGradient3242"/>
  <linearGradient xlink:href="#linearGradient3012" y2="0" x2="1" y1="0" x1="0" id="linearGradient3243"/>
  <linearGradient xlink:href="#linearGradient3012" y2="0" x2="1" y1="0" x1="0" id="linearGradient3244"/>
  <linearGradient xlink:href="#linearGradient650" y2="0.039474" x2="1.76208" y1="-0.013154" x1="0.029748" id="linearGradient3245"/>
  <linearGradient xlink:href="#linearGradient3012" y2="0.603056" x2="0.644805" y1="0.366431" x1="0.480875" spreadMethod="reflect" gradientTransform="scale(1)" id="linearGradient3246"/>
  <linearGradient xlink:href="#linearGradient3225" id="linearGradient3247"/>
  <linearGradient xlink:href="#linearGradient650" y2="1.17858" x2="1.01116" y1="0.071597" x1="0.375709" gradientTransform="translate(9.47384e-007 1.87123e-006)" id="linearGradient3248"/>
  <linearGradient xlink:href="#linearGradient650" y2="2.11111" x2="0.706319" y1="-1.72211" x1="0.286241" gradientTransform="translate(-1.03672e-007 2.77896e-006)" id="linearGradient3249"/>
  <linearGradient xlink:href="#linearGradient650" y2="0.42969" x2="1.48299" y1="0.054712" x1="-0.326483" gradientTransform="scale(1.00001)" id="linearGradient3250"/>
  <linearGradient xlink:href="#linearGradient3012" y2="0" x2="1" y1="0" x1="0" id="linearGradient3251"/>
  <linearGradient xlink:href="#linearGradient3042" y2="0" x2="1" y1="0" x1="0" id="linearGradient3252"/>
  <linearGradient xlink:href="#linearGradient650" y2="0.515625" x2="3.04425" y1="0.398437" x1="-0.247788" id="linearGradient3253"/>
  <linearGradient xlink:href="#linearGradient3225" id="linearGradient3254"/>
  <linearGradient xlink:href="#linearGradient650" y2="0.492187" x2="12.1429" y1="0.523437" x1="-8.57143" gradientTransform="translate(-1.29641e-006 -2.1731e-008)" id="linearGradient3255"/>
  <linearGradient xlink:href="#linearGradient3258" y2="0.488" x2="0.531599" y1="0.008001" x1="0.527883" spreadMethod="reflect" id="linearGradient3257"/>
  <linearGradient xlink:href="#linearGradient3258" y2="0.414063" x2="-0.085714" y1="0.4375" x1="0.171434" id="linearGradient3261"/>
  <linearGradient xlink:href="#linearGradient3042" y2="0" x2="1" y1="0" x1="0" id="linearGradient3262"/>
  <linearGradient xlink:href="#linearGradient650" y2="0.265625" x2="3.6" y1="0.390625" x1="-0.4" id="linearGradient3263"/>
  <linearGradient xlink:href="#linearGradient3042" y2="0" x2="1" y1="0" x1="0" id="linearGradient3264"/>
  <linearGradient xlink:href="#linearGradient3258" y2="0.459459" x2="0.249071" y1="0.581093" x1="0.501863" id="linearGradient3265"/>
  <linearGradient xlink:href="#linearGradient3042" y2="0" x2="1" y1="0" x1="0" id="linearGradient3266"/>
  <linearGradient xlink:href="#linearGradient3258" y2="0.078125" x2="0.506276" y1="0.921874" x1="1.02092" id="linearGradient3267"/>
  <linearGradient xlink:href="#linearGradient3042" y2="0" x2="1" y1="0" x1="0" id="linearGradient3268"/>
  <linearGradient xlink:href="#linearGradient3258" y2="0.229727" x2="0.944823" y1="-0.989871" x1="0.040338" id="linearGradient3269"/>
  <linearGradient xlink:href="#linearGradient3258" y2="1.19195" x2="0.89421" y1="0.0596" x1="0.054432" gradientTransform="scale(1.02884 0.971966)" id="linearGradient3270"/>
  <linearGradient xlink:href="#linearGradient3012" y2="0.18638" x2="0.375164" y1="-0.947351" x1="1.14801" id="linearGradient3271"/>
  <linearGradient xlink:href="#linearGradient3012" y2="1.1517" x2="0.365304" y1="0.099078" x1="1.08286" gradientTransform="scale(1.02884 0.971966)" id="linearGradient3272"/>
  <linearGradient xlink:href="#linearGradient3012" y2="0" x2="1" y1="0" x1="0" gradientTransform="translate(1.02481e-006 1.86041e-007)" id="linearGradient3316"/>
  <linearGradient xlink:href="#linearGradient3012" y2="-0.629216" x2="1.34481" y1="-0.629216" x1="0.633361" gradientTransform="scale(0.902464 1.10808)" id="linearGradient3317"/>
  <linearGradient xlink:href="#linearGradient3012" y2="0" x2="0.999999" y1="0" x1="0" id="linearGradient3318"/>
  <linearGradient xlink:href="#linearGradient3012" y2="0.402597" x2="-0.025316" y1="0.422078" x1="0.974684" id="linearGradient3319"/>
  <linearGradient xlink:href="#linearGradient3034" y2="0.953125" x2="1.96202" y1="0.132815" x1="-0.405092" gradientTransform="translate(-1.50528e-006 3.09506e-007)" id="linearGradient3322"/>
  <linearGradient xlink:href="#linearGradient3012" y2="0.474026" x2="-0.342857" y1="0.474026" x1="1.22857" id="linearGradient3323"/>
  <linearGradient xlink:href="#linearGradient3225" y2="0" x2="-0.035146" y1="2.44303" x1="-0.015053" gradientTransform="scale(1.50828 0.663008)" id="linearGradient3459"/>
  <linearGradient xlink:href="#linearGradient3225" y2="0.574627" x2="-0.319998" y1="0.037315" x1="-0.373311" spreadMethod="reflect" id="svg_49"/>
  <linearGradient xlink:href="#linearGradient650" y2="0.65625" x2="-4.26666" y1="0.585938" x1="1.66666" id="svg_50"/>
  <linearGradient xlink:href="#linearGradient3042" y2="1" x2="0.999999" y1="1" x1="0" id="svg_51"/>
  <linearGradient xlink:href="#linearGradient3178" y2="0.992188" x2="0.929581" y1="0.03125" x1="0.084509" id="svg_52"/>
  <linearGradient xlink:href="#linearGradient3012" y2="1" x2="1" y1="1" x1="0" id="svg_53"/>
  <linearGradient xlink:href="#linearGradient3042" y2="1.67945" x2="2.378" y1="3.38597" x1="-0.856079" id="svg_54"/>
  <linearGradient xlink:href="#linearGradient3042" y2="1.05322" x2="3.15556" y1="-0.737763" x1="-0.086846" gradientTransform="scale(0.456186 -2.19209)" id="svg_55"/>
  <linearGradient xlink:href="#linearGradient3042" y2="0.212201" x2="2.37396" y1="1.91873" x1="-0.860124" gradientTransform="scale(0.999999 -1)" id="svg_56"/>
  <linearGradient xlink:href="#linearGradient650" y2="0.429689" x2="2.40679" y1="0.226603" x1="-0.124289" id="svg_57"/>
  <linearGradient xlink:href="#linearGradient3012" y2="1" x2="1" y1="1" x1="0" id="svg_58"/>
  <linearGradient xlink:href="#linearGradient3042" y2="2.43927" x2="3.14185" y1="0.648289" x1="-0.100556" gradientTransform="scale(0.456186 2.19209)" id="svg_59"/>
  <linearGradient xlink:href="#linearGradient3042" y2="1.62091" x2="0.921533" y1="-0.134992" x1="-1.2128" id="svg_60"/>
  <linearGradient xlink:href="#linearGradient3042" y2="1.485" x2="1.76544" y1="0.132067" x1="0.120928" gradientTransform="scale(0.941732 1.06187)" id="svg_61"/>
  <linearGradient xlink:href="#linearGradient3042" y2="0.624187" x2="0.921533" y1="-1.13172" x1="-1.2128" id="svg_62"/>
  <linearGradient xlink:href="#linearGradient3042" y2="0.532623" x2="1.76544" y1="-0.820311" x1="0.120928" gradientTransform="scale(0.941732 1.06187)" id="svg_63"/>
  <linearGradient xlink:href="#linearGradient3042" y2="0.328125" x2="2.34328" y1="0.421876" x1="-0.596998" id="svg_64"/>
  <linearGradient xlink:href="#linearGradient3042" y2="1.20177" x2="0.675142" y1="-0.47299" x1="-2.35686" id="svg_65"/>
  <linearGradient xlink:href="#linearGradient3178" y2="0.828125" x2="0.72381" y1="0.046875" x1="0.076191" id="svg_66"/>
  <linearGradient xlink:href="#linearGradient3042" y2="1" x2="1" y1="1" x1="0" id="svg_67"/>
  <linearGradient xlink:href="#linearGradient3178" y2="0.078125" x2="0.867052" y1="0.921875" x1="0.080925" id="svg_68"/>
  <linearGradient xlink:href="#linearGradient3178" y2="1" y1="1" id="svg_69"/>
  <linearGradient xlink:href="#linearGradient650" y2="0.546875" x2="1.77157" y1="0.59375" x1="0.370558" id="svg_70"/>
  <linearGradient xlink:href="#linearGradient3012" y2="1" x2="1" y1="1" x1="0" id="svg_71"/>
  <radialGradient xlink:href="#linearGradient3061" fy="0.484433" fx="0.50385" r="0.89979" cy="0.484433" cx="0.50385" id="svg_72"/>
  <pattern height="100" width="100" y="0" x="0" patternUnits="userSpaceOnUse" id="gridpattern">
   <image height="100" width="100" y="0" x="0"/>
  </pattern>
  <linearGradient y2="1" x2="0.40625" y1="0" x1="0.570313" id="svg_95">
   <stop offset="0" stop-opacity="0.992188" stop-color="#303030"/>
   <stop offset="1" stop-opacity="0.996094" stop-color="#7a7a7a"/>
  </linearGradient>
  <linearGradient y2="1" x2="0.492188" y1="0" x1="0.53125" id="svg_2">
   <stop offset="0.019531" stop-color="#420c7c"/>
   <stop offset="0.972656" stop-color="#ba8cea"/>
  </linearGradient>
 </defs>
 <g>
  <title>Layer 1</title>
  <path d="m324.387482,281.999664l0,0l0,0l0,0l0,0l0,0l0,0zm-0.298004,-253.220945l0,0l0,0l0,0l0,0l0,0l0,0zm251.960022,-14.919011c66.942017,0.02197 86.049011,62.497996 86.049011,141.448001l0,0l0,0l0,0c0,78.94696 -16.474976,132.834961 -80.440979,140.528015c-25.492004,2.886963 -41.395996,0.672974 -63.460999,1.373962c-32.203033,-0.395996 -45.919037,0.692017 -63.24704,-3.430969c-18.763,-3.856018 -70.317017,2.453003 -176.583008,3.421997c0,-2.952026 0,0 -0.424988,-0.203003c-13.072021,0.516968 -158.224976,-3.367004 -188.073006,-4.630005c0,0 0,0 -2.198006,-1.023987c-67.363701,-2.638 -72.502891,-63.776001 -74.48639,-67.069031c-12.937301,-39.729004 -12.793311,-51.739014 -12.793311,-68.401978c0,-16.664001 -0.14399,-29.488037 12.69541,-69.093018c1.8855,-3.166992 6.922399,-64.706976 75.283303,-67.448006c30.843987,-1.367979 176.201973,-6.07299 189.946999,-5.60797c106.936981,0.91895 158.798981,6.509952 177.169006,2.523992c16.937012,-4.251041 30.652954,-3.157042 62.855988,-3.556031c22.065002,0.69702 32.960022,-1.615971 57.708008,1.16803l0,0z" stroke-width="0.781433" fill-rule="evenodd" fill="#000000" id="path4177"/>
  <path d="m235.407501,153.701691c0.42099,18.304993 1.171997,96.830017 47.648987,116.229004c-23.473999,8.85498 -162.486992,1.687988 -243.730984,-28.677979c-14.665798,-26.142029 -19.396999,-67.983032 -19.6078,-86.57605c-0.210899,-18.59198 4.520401,-60.430969 19.185802,-86.574959c81.244999,-30.361992 220.257992,-37.530998 243.730984,-28.674011c-46.477982,19.396 -47.22699,97.922005 -47.22699,114.273994l0,0l0,0z" stroke-width="0.781433" stroke="url(#linearGradient3125)" fill-rule="evenodd" fill="url(#svg_2)" id="path4178"/>
  <path d="m509.874481,65.253693l-56.268005,-19.885986l0.859009,-9.007019l14.733032,1.776001l45.422028,16.947998l-4.52005,0.226009l-0.226013,9.942997l0,0l0,0l0,0z" stroke-width="0.781433" stroke="url(#linearGradient3268)" fill-rule="evenodd" fill="url(#linearGradient3267)" id="path4179"/>
  <path d="m299.359497,36.511688c-3.037018,0 -15.307007,-13.252989 -17.007996,-15.513979c-2.423004,-3.571041 -4.21701,-4.218021 -4.21701,-7.169012c106.264984,0.96802 161.294983,6.661022 179.427979,2.950991c8.222046,3.163031 5.059998,6.958012 3.373047,22.56098c-2.530029,2.19305 -17.83606,-0.211002 -20.873016,-0.211002c-49.759003,0 -86.024017,-2.31897 -135.78302,-2.31897l-4.919983,-0.299007l0,0z" stroke-width="0.781433" stroke="url(#linearGradient3071)" fill-rule="evenodd" fill="url(#svg_2)" id="path4180"/>
  <path d="m299.507477,36.511688c-3.03598,0 -15.260986,-13.411989 -17.155975,-15.513979c-2.870026,-2.97504 152.439972,1.601009 179.850006,1.263979c1.474976,4.00598 0.420959,1.476011 -1.265991,17.078979c-2.530029,2.19305 -17.83606,-0.211002 -20.873016,-0.211002c-49.759003,0 -86.024017,-2.31897 -135.78302,-2.31897l0,0l-4.772003,-0.299007l0,0z" stroke-width="0.781433" stroke="url(#linearGradient3055)" fill-rule="evenodd" fill="url(#svg_2)" id="path4181"/>
  <path d="m433.287476,25.158718c-1.320984,0 -8.348999,-0.76605 -8.348999,-2.08703l0,-0.89502c0,-1.32099 1.362,-2.086979 2.684021,-2.086979l26.835968,0.29797c1.321045,0 2.683044,0.468019 2.683044,1.789009l0,0.89502c0,1.32098 -3.151001,2.08703 -4.473022,2.08703l-19.381012,0l0,0z" stroke-width="0.781433" stroke="url(#linearGradient3104)" fill-rule="evenodd" fill="url(#linearGradient3047)" id="path4182"/>
  <path d="m335.649475,43.554718c-1.817993,0 -31.177979,-4.729012 -29.360992,-4.729012c37.372009,0 108.063019,-1.23101 144.317017,0.64801c2.708984,0.117981 3.390015,3.297981 2.981018,5.068001c-1.788025,8.050961 -5.048035,7.32 -6.857056,7.156979c-36.477966,-3.577999 -69.369965,10.815002 -101.803986,-3.926998l-9.276001,-4.21698l0,0z" stroke-width="0.781433" stroke="url(#linearGradient3172)" fill-rule="evenodd" fill="url(#linearGradient3173)" id="path4183"/>
  <path d="m460.714508,35.887657c24.747986,0.696049 51.584015,-1.888969 76.035004,13.41803c20.622986,-8.846001 64.802002,8.547981 95.862,16.398994c-1.987,-7.752014 -10.387024,-14.461006 -7.304993,-22.362984c0.994019,-0.64502 1.541016,-2.632992 4.770996,-0.596001c-5.765015,-10.734989 -29.122009,-18.486998 -45.919006,-26.83503c-24.747986,-2.782949 -44.130005,-1.39196 -66.19397,-2.08795c-32.203033,0.39795 -45.919037,-0.695 -62.617035,3.27997c5.367004,1.491032 8.646973,4.771 5.367004,18.784969l0,0l0,0l0,0z" stroke-width="0.781433" stroke="url(#linearGradient3073)" fill-rule="evenodd" fill="url(#svg_2)" id="path4184"/>
  <path d="m460.714508,35.887657c24.747986,0.696049 51.584015,-1.888969 76.035004,13.41803c20.622986,-8.846001 64.802002,8.547981 95.862,16.398994c-1.987,-7.752014 -5.914001,-12.672005 -10.585022,-18.188965c-21.368958,-8.098999 -78.418945,-22.262999 -100.483948,-22.959047c-22.513031,-0.198 -52.255035,-2.23596 -60.269073,-2.758001c1.325012,2.65003 1.080994,7.082041 -0.55896,14.088989l0,0l0,0l0,0l0,0l0,0l0,0l0,0l0,0z" stroke-width="0.781433" stroke="url(#linearGradient3056)" fill-rule="evenodd" fill="url(#linearGradient3459)" id="path4185"/>
  <path d="m345.347473,46.927696c-1.815979,0 -11.358978,-8.94598 -9.541992,-8.94598c37.372009,0 78.546021,-0.38702 114.800018,1.492001c2.708984,0.117981 3.390015,3.297981 2.981018,5.068001c-1.788025,8.050961 -5.048035,7.32 -6.857056,7.156979c-36.477966,-3.577999 -64.008972,-4.771 -101.381989,-4.771l0,0z" stroke-width="0.781433" stroke="url(#linearGradient3175)" fill-rule="evenodd" fill="url(#linearGradient3174)" id="path4186"/>
  <path d="m458.351471,54.858665l0,-3.841l12.655029,0l-0.226013,-5.42395l-16.044983,0c0,0 -1.807007,9.039001 3.615967,9.26495z" stroke-width="0.781433" stroke="url(#linearGradient3272)" fill-rule="evenodd" fill="url(#linearGradient3270)" id="path4187"/>
  <path d="m454.961517,45.819668l4.292969,0.226009l0.226013,-2.033989l9.94397,0l1.130005,-4.518982l-2.26001,-1.807991l-5.875977,0l-0.452026,3.162971l-7.230957,0.452019l0.226013,4.519962z" stroke-width="0.781433" stroke="url(#linearGradient3271)" fill-rule="evenodd" fill="url(#linearGradient3269)" id="path4188"/>
  <path d="m465.330475,36.515717l49.855072,18.855949l27.484985,2.236031l-12.14502,-9.268009l-33.557037,-10.226009l-31.638,-1.597961z" stroke-width="0.781433" stroke="url(#linearGradient3266)" fill-rule="evenodd" fill="url(#linearGradient3265)" id="path4189"/>
  <path d="m286.145477,43.977688l-3.372986,-3.585022l16.023987,-4.005978l66.837006,17.078979l-2.740997,7.379028c-25.161011,-9.41803 -50.743011,-12.721008 -76.747009,-16.867008l0,0z" stroke-width="0.781433" stroke="url(#linearGradient3144)" fill-rule="evenodd" fill="url(#linearGradient3140)" id="path4190"/>
  <path d="m304.27948,36.810696c-3.037994,0 18.972992,-3.16901 30.994019,-3.163029c4.132996,0.074039 93.824982,0.335999 125.662018,2.10804c0.632996,0.84301 0.421997,2.742001 0,3.584961c-2.530029,2.19305 -17.83606,-0.211002 -20.873016,-0.211002c-49.759003,0 -86.024017,-2.31897 -135.78302,-2.31897l0,0l0,0l0,0z" stroke-width="0.781433" stroke="url(#linearGradient3113)" fill-rule="evenodd" fill="url(#linearGradient3112)" id="path4191"/>
  <path d="m299.2565,36.340668c15.007996,-1.540962 23.040985,-1.315002 24.89798,-7.304998c7.757019,-25.988951 7.85202,-28.923951 26.835999,-28.625971l-11.628998,32.502007c-2.881989,-0.100037 -6.062988,0.099003 -6.858002,3.279972l11.628998,11.03204l-44.875977,-10.883049l0,0z" stroke-width="0.781433" stroke="url(#linearGradient3103)" fill-rule="evenodd" fill="url(#linearGradient3102)" id="path4192"/>
  <path d="m324.15448,29.035669c7.757019,-25.988951 7.85202,-28.923951 26.835999,-28.625971l-11.628998,32.502007c-2.881989,-0.100029 -6.062988,0.099003 -6.858002,3.279972c0,0 -10.205994,-1.166019 -8.348999,-7.156008l0,0z" stroke-width="0.781433" stroke="url(#linearGradient3101)" fill-rule="evenodd" fill="url(#svg_2)" id="path4193"/>
  <path d="m510.162506,246.006683l-56.268005,19.887024l0.859009,9.011963l14.732971,-1.779968l45.422028,-16.945007l-4.52005,-0.231018l-0.225952,-9.942993l0,0l0,0l0,0z" stroke-width="0.781433" stroke="url(#linearGradient3268)" fill-rule="evenodd" fill="url(#linearGradient3267)" id="path4194"/>
  <rect height="72.9209" width="157.332" y="270.707786" x="337.429667" transform="matrix(0.922418,0,0,0.922418,55.0552,-125.452) " fill-rule="evenodd" fill="url(#linearGradient3257)" id="rect4195"/>
  <path d="m371.930481,140.307709l35.70401,2.485962c3.84201,-0.678955 -2.710999,-2.711975 17.174988,-2.485962c2.710999,0 29.828979,-1.130005 35.479004,-1.356018c16.872009,-2.26001 29.450989,-8.135986 45.872009,-9.492004c1.054993,-23.274963 1.432007,-42.257996 3.84198,-65.75898l-38.641968,-14.237l-105.30603,-0.226009l8.136017,9.71698l-2.26001,81.353031l0,0z" stroke-width="0.781433" stroke="url(#linearGradient3234)" fill-rule="evenodd" fill="url(#linearGradient3235)" id="path4196"/>
  <path d="m371.92749,137.817719c0,0 46.552002,1.807983 56.494995,1.355957c9.942017,-0.451965 52.878021,-4.971985 54.686005,-26.664978c1.807983,-21.694031 1.356018,-30.73304 1.356018,-30.73304c0.902954,-17.17395 -29.377014,-26.66497 -46.552032,-26.212952c-17.173981,0.450993 -9.037994,9.941963 -9.037994,9.941963l-56.946991,72.313049l0,0z" stroke-width="0.781433" stroke="url(#linearGradient3213)" fill-rule="evenodd" fill="url(#linearGradient3214)" id="path4197"/>
  <path d="m19.717705,155.712677c-0.210899,18.593994 4.520401,60.434998 19.18679,86.575989c-5.22699,0.240051 -22.15799,-12.267944 -25.818199,-18.133972c-12.784,-39.377991 -12.63999,-52.310974 -12.63999,-68.658997m19.271399,0.180969c-0.210899,-18.59198 4.520401,-60.430969 19.18679,-86.574959c-5.22699,-0.246994 -22.15799,12.264961 -25.818199,18.138c-12.784,39.375984 -12.63999,52.30201 -12.63999,68.654976l0,0" stroke-width="0.781433" stroke="url(#linearGradient3098)" fill-rule="evenodd" fill="url(#linearGradient3032)" id="path4198"/>
  <path d="m235.407501,154.701691c0.42099,18.304993 1.171997,96.830017 47.648987,116.229004c0.984009,0.838989 7.029999,-2.536987 2.95401,-4.216003c-42.919006,-19.822998 -42.589981,-94.132996 -42.80101,-112.723999c-0.211014,-18.593018 0.304001,-82.780998 41.535995,-110.190006c5.341003,-5.481998 -2.812988,-3.37299 -2.110992,-3.37299c-46.476974,19.396 -47.22699,97.922005 -47.22699,114.273994l0,0l0,0l0,0z" stroke-width="0.781433" stroke="url(#linearGradient3091)" fill-rule="evenodd" fill="#000000" id="path4199"/>
  <rect height="4.20228" width="5.81856" y="261.277786" x="155.304667" transform="matrix(0.922418,0,0,0.922418,55.0552,-125.452) " stroke-width="0.781433" stroke="url(#linearGradient3139)" fill-rule="evenodd" fill="none" id="rect4200"/>
  <rect height="4.20227" width="5.81855" y="343.377786" x="155.304667" transform="matrix(0.922418,0,0,0.922418,55.0552,-125.452) " stroke-width="0.781431" stroke="url(#linearGradient3138)" fill-rule="evenodd" fill="none" id="rect4201"/>
  <path d="m14.337397,96.464691c-0.577002,0 -2.33329,3.353996 -2.619301,4.659973c-2.722899,7.723022 -3.552299,13.298035 -4.93889,21.272034c-0.5971,5.799011 -4.48711,28.994019 -4.68411,30.598999c0.12171,0.974976 0.892,-0.325989 0.9989,-0.492981c2.5633,-4 2.39,-9.079041 3.33631,-13.664001c1.36989,-6.783997 2.6886,-17.153992 4.94189,-26.205017c2.408009,-9.822014 6.203899,-20.356018 2.36881,-19.744995" stroke-width="0.976792" stroke-linejoin="round" stroke-linecap="square" stroke="url(#linearGradient3038)" fill-rule="evenodd" fill="none" id="path4202"/>
  <path d="m14.337397,214.478668c-0.577002,0 -2.33329,-3.348999 -2.619301,-4.658997c-2.722899,-7.719971 -3.552299,-13.300964 -4.93889,-21.270996c-0.5971,-5.802002 -4.48711,-28.992981 -4.68411,-30.597961c0.12171,-0.975037 0.892,0.324951 0.9989,0.492004c2.5633,4.000977 2.39,9.080994 3.33631,13.669006c1.36989,6.779968 2.6886,17.147949 4.94189,26.205994c2.408009,9.813965 6.203899,20.347961 2.36881,19.738953" stroke-width="0.976792" stroke-linejoin="round" stroke-linecap="square" stroke="url(#linearGradient3039)" fill-rule="evenodd" fill="none" id="path4203"/>
  <path d="m38.903496,242.288666c3.946999,9.963013 10.077999,33.02301 48.823006,49.285034c-67.364105,-2.638 -72.810095,-64.486023 -74.640205,-67.419006" stroke-width="0.781433" stroke="url(#linearGradient3099)" fill-rule="evenodd" fill="url(#linearGradient3040)" id="path4204"/>
  <path d="m38.903496,242.288666c3.946999,9.963013 10.077999,33.02301 48.823006,49.285034c-57.822607,-16.658997 -62.374006,-54.643982 -64.204006,-57.585999" stroke-width="0.781433" stroke="#ffff00" fill-rule="evenodd" fill="url(#linearGradient3033)" id="path4205"/>
  <path d="m36.849495,258.901703c0.003002,-2.601013 -2.10099,-4.703979 -4.695999,-4.703979c-2.5956,0 -4.698891,2.102966 -4.696501,4.703979c-0.00239,2.59198 2.100901,4.695007 4.696501,4.695007c2.595009,0 4.699001,-2.103027 4.695999,-4.695007l0,0z" fill-rule="evenodd" fill="url(#radialGradient3037)" id="path4206"/>
  <path d="m299.081482,274.887665c-8.85498,-2.362 -14.429993,-3.541992 -16.024994,-3.95697c-23.473999,8.85498 -162.486992,1.687988 -243.730984,-28.677979c6.84,25.513977 27.125004,41.48999 50.599003,50.344971c29.847,1.264038 175.000969,5.147034 188.071983,4.630981c5.061035,-8.430969 13.072998,-16.022949 21.085022,-22.341003l0,0l-0.000031,0z" stroke-width="0.781433" stroke="url(#linearGradient3069)" fill-rule="evenodd" fill="url(#svg_2)" id="path4207"/>
  <path d="m299.081482,274.887665c-8.85498,-2.362 -14.429993,-3.541992 -16.024994,-3.95697c-23.473999,8.85498 -162.486992,1.687988 -243.730984,-28.677979c2.202,4.427002 4.354,13.651001 10.117001,20.402954c59.788002,21.502014 136.627014,24.970032 233.192993,27.830017c8.012024,-8.015991 8.43399,-9.279968 16.446014,-15.598022l0,0l0,0l-0.000031,0z" stroke-width="0.781433" stroke="url(#linearGradient3068)" fill-rule="evenodd" fill="url(#svg_2)" id="path4208"/>
  <path d="m299.647491,274.748688c-3.037018,0 -15.306,13.255005 -17.007996,15.515015c-2.423004,3.570007 -4.216003,4.216003 -4.216003,7.167969c106.264984,-0.968994 161.294983,-6.659973 179.427002,-2.951965c8.223022,-3.164001 5.060974,-6.955017 3.373962,-22.562012c-2.529968,-2.187012 -17.836975,0.211975 -20.873962,0.211975c-49.759003,0 -86.024017,2.324036 -135.78302,2.324036l-4.919983,0.294983l0,0z" stroke-width="0.781433" stroke="url(#linearGradient3071)" fill-rule="evenodd" fill="url(#svg_2)" id="path4209"/>
  <path d="m38.605495,68.947723c3.94701,-9.962036 10.077999,-33.020027 48.823002,-49.282045c-67.364403,2.63904 -72.810301,64.484011 -74.640402,67.421022" stroke-width="0.781433" stroke="url(#linearGradient3132)" fill-rule="evenodd" fill="url(#linearGradient3133)" id="path4210"/>
  <path d="m38.605495,68.947723c3.94701,-9.962036 10.077999,-33.020027 48.823002,-49.282045c-57.822792,16.653009 -62.374191,54.645021 -64.204292,57.582033" stroke-width="0.781433" stroke="#ffff00" fill-rule="evenodd" fill="url(#linearGradient3134)" id="path4211"/>
  <path d="m36.551506,52.338707c0.001999,2.593998 -2.101009,4.699959 -4.696011,4.699959c-2.59589,0 -4.6992,-2.105961 -4.69659,-4.699959c-0.002609,-2.596001 2.1007,-4.702019 4.69659,-4.702019c2.595001,0 4.698009,2.106018 4.696011,4.702019l0,0z" fill-rule="evenodd" fill="url(#svg_72)" id="path4212"/>
  <path d="m296.783478,37.353668c-8.855988,2.360039 -14.429993,3.53302 -16.024994,3.955009c-23.473999,-8.85498 -162.487984,-1.687012 -243.730988,28.674995c6.840008,-25.513008 27.124992,-41.487005 50.598991,-50.341984c29.847,-1.265011 175.000008,-5.151981 188.073006,-4.637022c5.059998,8.434021 13.071991,16.024052 21.083984,22.349001l0,0z" stroke-width="0.781433" stroke="url(#linearGradient3131)" fill-rule="evenodd" fill="url(#svg_2)" id="path4213"/>
  <path d="m298.783478,36.353668c-8.855988,2.360039 -14.429993,3.53302 -16.024994,3.955009c-23.473999,-8.854979 -162.487984,-1.687012 -243.730988,28.674995c2.202007,-4.428955 4.354008,-13.656006 10.117008,-20.401978c59.787006,-21.505987 136.626965,-24.971006 233.192989,-27.830997c8.011993,8.013 8.43399,9.278021 16.445984,15.60297l0,0l0,0z" stroke-width="0.781433" stroke="url(#linearGradient3127)" fill-rule="evenodd" fill="url(#svg_2)" id="path4214"/>
  <path d="m298.239502,50.962677c-9.162018,0 -16.445007,3.911011 -24.457001,20.24102c-18.133026,29.237007 -21.085022,133.534004 0,167.404976c9.276978,21.815002 19.089996,21.511047 28.673981,20.662048l17.931,-3.33905c1.244995,-10.284973 2.25,-20.873962 3.045013,-31.573975c0.794983,-10.700012 -0.825012,-18.403015 -5.175018,-29.877991c9.681,-9.64801 7.583008,-23.622986 7.654022,-33.916016c0.069977,-10.291992 -0.012024,-20.278015 -0.218018,-29.752014c-0.820984,-37.898003 -3.609985,-67.60096 -6.506989,-75.959969l-20.946991,-3.88903l0,0l0,0l0,0l0,0l0,0l0,0z" stroke-width="0.781433" stroke="url(#linearGradient3081)" fill-rule="evenodd" fill="url(#linearGradient3065)" id="path4215"/>
  <path d="m350.683502,212.753693c0,7.572998 -1.869019,13.716003 -4.174011,13.716003c-2.306,0 -18.188995,2.5 -18.487,-15.210999c1.192993,-17.710022 16.181,-12.221985 18.487,-12.221985c2.304993,0 4.174011,6.133972 4.174011,13.71698l0,0z" stroke-width="0.781433" stroke="url(#linearGradient3097)" fill-rule="evenodd" fill="url(#linearGradient3096)" id="path4216"/>
  <path d="m350.683502,212.753693c0,-7.583008 -1.869019,-13.71698 -4.174011,-13.71698c-2.306,0 -4.175018,6.133972 -4.175018,13.71698c0,7.572998 1.869019,13.716003 4.175018,13.716003c2.304993,0 4.174011,-6.143005 4.174011,-13.716003l0,0z" stroke="url(#linearGradient3095)" fill-rule="evenodd" fill="url(#linearGradient3094)" id="path4217"/>
  <path d="m350.683502,212.59671c0,-3.53302 -1.268005,-6.411011 -2.833008,-6.411011c-1.563995,0 -2.832001,2.877991 -2.832001,6.411011c0,3.541992 1.268005,6.411011 2.832001,6.411011c1.565002,0 2.833008,-2.869019 2.833008,-6.411011l0,0z" fill-rule="evenodd" fill="#000080" id="path4218"/>
  <path d="m318.175476,193.529694l17.443024,6.559021l-0.447021,20.72699l-15.505005,5.810974l-7.006989,-17.14801l5.515991,-15.948975z" stroke-width="0.781433" stroke="url(#linearGradient3089)" fill-rule="evenodd" fill="url(#linearGradient3084)" id="path4219"/>
  <path d="m319.076477,211.111725c0,12.267944 -3.460999,17.737976 -12.075989,21.915955c-8.31601,0 -18.93399,-9.352966 -18.93399,-21.620972c0,-12.268005 12.108978,-19.832031 20.424988,-19.832031c5.632996,2.093994 10.584991,7.269043 10.584991,19.537048l0,0z" stroke-width="0.781433" stroke="url(#linearGradient3088)" fill-rule="evenodd" fill="url(#linearGradient3086)" id="path4221"/>
  <path d="m284.488495,211.406708c-0.212006,10.562012 13.126007,26.924988 21.86499,25.651978c4.589996,-0.654968 2.63501,-4.437012 0.647003,-4.031006c-8.31601,0 -18.93399,-9.352966 -18.93399,-21.620972c0,-12.268005 12.108978,-19.832031 20.424988,-19.832031c2.18399,-1.27301 2.759003,-4.334961 0.653015,-4.445984c-13.133026,-0.674011 -24.235016,15.192017 -24.656006,24.278015l0,0l0,0l0,0z" stroke-width="0.781433" stroke="url(#linearGradient3083)" fill-rule="evenodd" fill="url(#linearGradient3082)" id="path4222"/>
  <path d="m319.076477,211.111725c0,12.267944 -3.460999,17.737976 -12.075989,21.915955c11.661011,0.591003 13.566986,-1.153015 13.714996,-21.768982c-0.14801,-21.067993 -3.992004,-21.768982 -12.223999,-19.684021c5.632996,2.093994 10.584991,7.269043 10.584991,19.537048l0,0l0,0l0,0z" stroke-width="0.781433" stroke="url(#linearGradient3087)" fill-rule="evenodd" fill="url(#linearGradient3085)" id="path4223"/>
  <path d="m337.706482,212.088715c0.520996,4.123962 2.282013,48.657959 12.242004,9.399963c0.006012,1.697021 0.231995,8.679993 -0.157013,11.263c-0.779999,5.174011 -2.829987,8.255005 -6.866974,8.18103c-8.076019,-0.147034 -10.139008,-12.054993 -10.139008,-28.401001c0,-16.335999 4.149994,-29.738037 14.462006,-30.033997l0.083984,2.703003c-8.123993,3.126953 -9.625,18.716003 -9.625,26.888l0,0l0,0l0,0l0,0l0,0z" stroke-width="0.781433" stroke="url(#linearGradient3093)" fill-rule="evenodd" fill="url(#linearGradient3092)" id="path4224"/>
  <path d="m342.965485,135.345673l0.381989,39.487c7.275024,0.028015 0.83902,24.093018 8.024017,60.824036l-1.686005,-149.27301c-2.539001,23.47802 0.588989,48.742981 -6.720001,48.961975l0,0z" stroke-width="0.781433" stroke="url(#linearGradient3106)" fill-rule="evenodd" fill="url(#linearGradient3066)" id="path4225"/>
  <path d="m325.928497,131.654694l0,47.107971l19.979004,-5.359985l0,-36.97699l-19.979004,-4.770996l0,0z" stroke-width="0.781433" stroke="url(#linearGradient3105)" fill-rule="evenodd" fill="url(#linearGradient3067)" id="path4226"/>
  <path d="m326.226501,146.26767c-2.478027,0 -4.473022,1.994019 -4.473022,4.472046c0,2.981995 0,5.962952 0,8.945007c0,2.477966 1.994995,4.472961 4.473022,4.472961c4.969971,0 11.926971,-2.591003 15.504974,-4.770996c2.483002,-1.649963 2.262024,-7.002014 0,-8.945007c-3.578003,-2.776001 -10.535004,-4.174011 -15.504974,-4.174011l0,0l0,0z" stroke-width="0.781433" stroke="url(#linearGradient3078)" fill-rule="evenodd" id="path4227"/>
  <path d="m338.153473,170.866669c0.522003,1.642029 3.280029,4.621033 4.473022,4.621033c1.320984,0 1.341003,-0.913025 1.341003,-2.231995c0,-11.53302 0,-23.062988 0,-34.592041c0,-1.32196 0.076996,-3.118958 -1.341003,-2.534973c-1.606995,0.786987 -3.389008,1.710999 -4.25,3.280029c-1.07901,2.042969 -0.675018,30.214966 -0.223022,31.457947l0,0z" stroke-width="0.781433" stroke="url(#linearGradient3079)" fill-rule="evenodd" fill="url(#linearGradient3080)" id="path4228"/>
  <path d="m269.564484,154.444672c1.972992,-91.870975 27.161011,-89.966003 49.337006,-97.409004c-5.968994,7.413033 -4.709991,65.50605 -4.639008,98.252022c0.069,31.914978 -3.557983,99.343018 5.061005,95.718018c-27.312988,0.276978 -51.321014,-23.419983 -49.759003,-96.561035l0,0z" stroke-width="0.781433" stroke="url(#linearGradient3064)" fill-rule="evenodd" fill="none" id="path4229"/>
  <path d="m266.548492,140.348724c0,2.692993 3.079987,7.883972 3.651001,-1.380005c0.324982,-5.032043 0.681,-9.727051 1.141998,-14.105042c0.92099,-8.755005 1.992004,-16.284981 3.645996,-22.674011c3.196014,-12.751953 10.691986,-23.409973 9.033997,-24.691956c-4.378998,-3.665039 -17.473999,37.18396 -17.472992,62.851013l0,0z" stroke-width="0.781433" stroke="url(#linearGradient3075)" fill-rule="evenodd" fill="url(#linearGradient3077)" id="path4230"/>
  <path d="m266.126495,169.719696c0,-2.692993 3.080994,-7.883972 3.651978,1.377014c0.324005,5.036987 0.680023,9.731995 1.141022,14.112976c0.92099,8.754028 1.992004,16.281006 3.645996,22.673035c3.195984,12.747986 10.692993,23.41095 9.033997,24.69397c-4.378998,3.661011 -17.472992,-37.192993 -17.472992,-62.856995l0,0z" stroke-width="0.781433" stroke="url(#linearGradient3074)" fill-rule="evenodd" fill="url(#linearGradient3076)" id="path4231"/>
  <path d="m630.666504,41.602688c0,0 -3.578003,-2.088013 -5.067993,0.893978c-1.492004,2.982002 -1.789978,2.982002 8.348999,25.644058c5.067993,11.329948 8.273987,18.112968 11.73999,25.865959c2.869995,15.80304 4.808044,48.677002 4.957031,61.499023c-0.148987,12.820984 -2.087036,45.698975 -4.957031,61.5c-3.466003,7.747986 -6.671997,14.536987 -11.73999,25.86499c-10.138977,22.664001 -9.841003,22.664001 -8.349976,25.643005c1.490967,2.979004 5.06897,0.89502 5.06897,0.89502" stroke-width="0.781433" stroke="url(#linearGradient3318)" fill-rule="evenodd" fill="#7f00ff" id="path4232"/>
  <path d="m662.154541,155.539703c0,78.945984 -16.186035,132.537964 -84.32605,140.424988c14.307007,-1.742981 50.923035,-21.289001 53.236023,-26.703979c10.562988,-23.411011 20.351013,-73.332031 20.351013,-112.804993c0,-39.475037 -7.455017,-92.960022 -20.567993,-114.382023c-7.626038,-11.697018 -25.554016,-17.575008 -46.512024,-27.117977c61.314026,4.362 77.819031,61.633972 77.819031,140.583984l0,0l0,0l0,0l0,0z" stroke-width="0.781433" stroke="url(#linearGradient3176)" fill-rule="evenodd" fill="url(#svg_2)" id="path4233"/>
  <path d="m536.492493,47.166718c17.14801,-6.466011 62.971008,7.72998 94.457031,16.023979c26.424988,61.846016 20.380981,124.536995 0.843994,183.00898c-31.486023,8.856018 -73.093018,26.142029 -94.458008,15.184021c27.410034,-17.434021 22.911987,-72.013977 22.770996,-107.953003c-0.138977,-35.463013 4.497986,-83.494011 -23.614014,-106.263977c0,0 0,0 0,0l0,0z" stroke-width="0.781433" stroke="url(#linearGradient3319)" fill-rule="evenodd" fill="url(#svg_2)" id="path4234"/>
  <path d="m461.002472,275.376678c24.749023,-0.700989 51.584076,1.890991 76.034027,-13.421997c20.624023,8.846008 64.804016,-8.549988 95.864014,-16.399963c-1.987976,7.756958 -10.387024,14.462952 -7.305969,22.367981c0.993958,0.645996 1.539978,2.628967 4.770996,0.591003c-5.764038,10.737 -29.122009,18.484985 -45.919006,26.833008c-24.747986,2.786011 -44.130005,1.393005 -66.195007,2.093994c-32.202057,-0.397034 -45.91806,0.692017 -62.616058,-3.283997c5.367004,-1.484985 8.64801,-4.769043 5.367004,-18.780029l0,0l0,0l0,0z" stroke-width="0.781433" stroke="url(#linearGradient3073)" fill-rule="evenodd" fill="url(#svg_2)" id="path4235"/>
  <path d="m461.002472,275.376678c24.749023,-0.700989 51.584076,1.890991 76.034027,-13.421997c20.624023,8.846008 64.804016,-8.549988 95.864014,-16.399963c-1.987976,7.756958 -5.914001,12.67395 -10.585022,18.190002c-21.369995,8.098999 -78.419983,22.266968 -100.485962,22.958984c-22.511017,0.203003 -52.255035,2.240967 -60.268036,2.757996c1.325012,-2.647034 1.080994,-7.083984 -0.559021,-14.085022l0,0l0,0l0,0l0,0l0,0l0,0l0,0l0,0z" stroke-width="0.781433" stroke="url(#linearGradient3072)" fill-rule="evenodd" fill="url(#svg_2)" id="path4236"/>
  <path d="m536.492493,47.166718c11.334045,-3.336002 14.965027,-2.40802 23.490051,-0.675053c18.078003,63.040043 11.437988,156.143009 0.247986,216.404057c-7.036011,3.191956 -12.562012,4.233948 -22.89502,-1.512024c27.410034,-17.434021 22.911987,-72.013977 22.770996,-107.953003c-0.138977,-35.463013 4.497986,-83.494011 -23.614014,-106.263977c0,0 0,0 0,0l0,0l0,0z" stroke-width="0.781433" stroke="url(#linearGradient3236)" fill-rule="evenodd" fill="url(#linearGradient3237)" id="path4237"/>
  <path d="m458.639496,256.401703l0,3.846985l12.654968,0l-0.225952,5.424011l-16.045044,0c0,0 -1.807007,-9.039978 3.616028,-9.270996z" stroke-width="0.781433" stroke="url(#linearGradient3272)" fill-rule="evenodd" fill="url(#linearGradient3270)" id="path4238"/>
  <path d="m455.249481,265.441681l4.294006,-0.22998l0.226013,2.037964l9.942993,0l1.130005,4.52002l-2.26001,1.807983l-5.875,0l-0.452026,-3.164001l-7.231995,-0.451965l0.226013,-4.52002z" stroke-width="0.781433" stroke="url(#linearGradient3271)" fill-rule="evenodd" fill="url(#linearGradient3269)" id="path4239"/>
  <path d="m436.293488,96.853668l0.42099,-23.613945l-9.276978,-10.543037c0,0 -29.096008,-5.903999 -37.108002,-5.903999c-8.013,0 -16.025024,2.109009 -16.025024,2.109009c0,0 0,0 -2.529999,78.437019c0,0 3.69101,-1.79303 5.219025,-3.795044c2.612,1.684021 9.328979,1.264038 13.335999,1.264038c8.011993,0 37.108002,-5.903015 37.108002,-5.903015l9.276978,-10.541992l-0.42099,-23.614014" stroke-width="0.781428" stroke="url(#linearGradient3212)" fill-rule="evenodd" fill="url(#linearGradient3177)" id="path4240"/>
  <path d="m471.47049,113.186684c-3.004028,0 -4.179993,-5.695992 -4.179993,-8.699966c0,-8.437004 0,-8.625 0,-17.061028c0,-3.005981 1.062012,-8.700989 4.067017,-8.700989c2.710999,0 5.422974,0 8.134949,0c3.005005,0 5.424011,1.853996 5.424011,4.859009c-3.84198,1.430969 -5.649963,20.601013 0,25.30896c0.025024,3.157043 -2.305969,4.294014 -5.310974,4.294014l-8.13501,0l0,0l0,0z" stroke-width="0.781433" stroke="url(#linearGradient3215)" fill-rule="evenodd" fill="url(#linearGradient3220)" id="path4241"/>
  <path d="m377.046478,126.372711l0,-30.151001l34.578003,0l0,24.669014c-11.735992,1.19397 -23.684998,2.177979 -34.578003,5.481987l0,0z" stroke-width="0.781433" stroke="url(#linearGradient3208)" fill-rule="evenodd" fill="none" id="path4242"/>
  <path d="m411.41449,120.679718l0,-24.669006l24.880005,0l0.209991,23.825989l-25.089996,0.843018l0,0z" stroke-width="0.781433" stroke="url(#linearGradient3206)" fill-rule="evenodd" fill="none" id="path4243"/>
  <path d="m377.046478,65.729713l0,30.150993l34.578003,0l0,-24.669006c-11.735992,-1.194031 -23.684998,-2.177979 -34.578003,-5.482002l0,0l0,0.000015z" stroke-width="0.781433" stroke="url(#linearGradient3207)" fill-rule="evenodd" fill="none" id="path4244"/>
  <path d="m411.41449,71.423683l0,24.668015l24.880005,0l0.209991,-23.825005l-25.089996,-0.843025l0,0l0,0.000015z" stroke-width="0.781433" stroke="url(#linearGradient3209)" fill-rule="evenodd" fill="none" id="path4245"/>
  <path d="m436.05249,73.11972c5.325989,0.212952 10.652008,0.425957 15.977997,0.638977c4.474976,-1.491028 7.98999,-3.940979 11.505005,-7.349976c-11.39801,-5.327034 -23.115997,-7.137024 -36.112,-7.350044c-0.319,5.965034 3.514984,10.013 8.628998,14.061043l0,0z" stroke-width="0.781433" stroke="url(#linearGradient3217)" fill-rule="evenodd" fill="none" id="path4246"/>
  <path d="m500.96347,80.649689l2.26001,-12.202995l-21.69397,-0.677986l6.553955,15.817993l12.880005,-2.937012z" stroke-width="0.781433" stroke="url(#linearGradient3230)" fill-rule="evenodd" fill="url(#linearGradient3231)" id="path4247"/>
  <path d="m469.60849,79.191681c4.473022,0.213013 8.947021,0.426033 13.421997,0.639038c2.289978,-14.700012 -39.521973,-24.767033 -55.127991,-21.571053l-0.639008,2.07703c31.63797,-2.184021 42.983002,7.93597 42.345001,18.854984l0,0z" fill-rule="evenodd" fill="url(#linearGradient3219)" id="path4248"/>
  <rect ry="2.44975" height="18.4963" width="9.43181" y="-135.224786" x="482.254667" transform="matrix(0.922418,0,0,-0.922418,52.0552,-39.452) " stroke-width="0.726845" stroke="url(#linearGradient3229)" fill-rule="evenodd" fill="url(#linearGradient3228)" id="rect4249"/>
  <path d="m435.826477,119.064667c5.326019,-0.212959 10.652008,-0.42701 15.977997,-0.639954c4.475037,1.490967 7.98999,3.941956 11.505005,7.349976c-11.39801,5.327026 -23.115997,7.138 -36.112,7.351013c-0.319,-5.965034 3.515015,-10.013985 8.628998,-14.061035l0,0z" stroke-width="0.781433" stroke="url(#linearGradient3216)" fill-rule="evenodd" fill="none" id="path4250"/>
  <path d="m469.382477,112.991669c4.473022,-0.212952 8.947021,-0.425972 13.421997,-0.638977c2.290039,14.700989 -39.521973,24.767029 -55.127991,21.572021l-0.639008,-2.078003c31.638031,2.18396 42.984039,-7.936043 42.345001,-18.855042l0,0z" fill-rule="evenodd" fill="url(#linearGradient3218)" id="path4251"/>
  <path d="m494.972504,88.894684c10.734009,-1.919983 13.776978,-11.294006 3.954956,-12.088997c-8.166992,-0.653984 -12.654968,3.276016 -17.174988,11.862984c0,0 -0.226013,7.343987 -0.112,7.966003c-0.114014,0.621033 0.112,7.965027 0.112,7.965027c4.52002,8.588013 7.630005,15.054993 15.819031,14.800957c10.951965,-0.342949 4.971985,-9.942986 -2.712036,-15.816948l0.113037,-14.689026z" stroke-width="0.781433" stroke="url(#linearGradient3221)" fill-rule="evenodd" fill="url(#linearGradient3222)" id="path4252"/>
  <path d="m440.626495,50.141685c10.357971,7.720032 24.411011,9.328979 34.800964,15.366035c5.525024,3.270996 9.115051,10.583977 8.587036,18.078979c1.205994,-0.903992 2.409973,-1.807983 3.615967,-2.712036c-1.130005,-8.700981 -6.187988,-17.158997 -13.55896,-20.338997c-18.385986,-7.99395 -20.677002,-6.250969 -19.660034,-21.692989c-3.313965,-0.151001 -5.950989,0.150028 -9.264954,0c-1.506042,3.765987 -3.013031,7.531979 -4.52002,11.299007l0,0z" stroke-width="0.781433" stroke="url(#linearGradient3233)" fill-rule="evenodd" fill="url(#linearGradient3232)" id="path4253"/>
  <path d="m492.866486,18.733669c-0.497009,-3.206972 -6.27301,-4.974972 -12.901978,-3.946961c-6.630005,1.026979 -11.601013,4.458011 -11.104004,7.664981c0.497009,3.207029 6.27301,4.973999 12.901978,3.94702c6.630005,-1.025999 11.601013,-4.45904 11.104004,-7.665039z" stroke="#00007f" fill-rule="evenodd" fill="url(#svg_2)" id="path4254"/>
  <path d="m371.341492,256.853668l3.035004,-6.234985c-0.85202,-32.442017 -2.502014,-64.873962 -2.556,-97.312988c-0.052002,-31.424988 1.492004,-62.851997 2.237,-94.278019l-3.994995,-6.07098l-3.995026,-0.320007l-7.496979,102.187012l7.177979,102.187012l5.593018,-0.157043l0,0l0,0l0,0z" stroke-width="0.781433" stroke="url(#linearGradient3254)" fill-rule="evenodd" fill="url(#linearGradient3255)" id="path4255"/>
  <path d="m374.376495,250.618683c-0.85202,-32.442017 -2.502014,-64.873962 -2.556,-97.312988c-0.052002,-31.424988 1.492004,-62.851997 2.237,-94.278019l-3.994995,-6.07098c2.610992,33.554993 -0.903015,67.111023 -0.799011,100.667969c-0.053009,34.353027 2.131012,68.713013 1.757996,103.063049l3.355011,-6.069031l0,0z" stroke-width="0.781433" fill-rule="evenodd" id="path4256"/>
  <path d="m465.6185,274.748688l49.855011,-18.862976l27.484009,-2.231995l-12.143005,9.269958l-33.557037,10.220032l-31.638977,1.60498z" stroke-width="0.781433" stroke="url(#linearGradient3266)" fill-rule="evenodd" fill="url(#linearGradient3265)" id="path4257"/>
  <path d="m459.227509,33.140717l0.31897,5.112968c0,0 67.752045,-0.890007 82.133026,19.245003c16.960022,26.414001 15.890991,95.39801 15.484009,95.971985c-7.494019,25.531006 -1.10498,83.044006 -16.794983,100.238037c-23.390991,22.654968 -80.183014,20.717957 -80.183014,20.717957l0.319946,1.595032c0,0 64.876068,4.473999 85.009064,-22.690979c20.133972,-27.165039 15.339966,-77.658997 16.299011,-99.707031c0.958984,-22.050964 0.958984,-93.318001 -25.886047,-106.421021c-26.845001,-13.10297 -76.699982,-13.10297 -76.699982,-14.061951l0,0l0,0l0,0z" stroke-width="0.781433" stroke="url(#linearGradient3264)" fill-rule="evenodd" fill="url(#linearGradient3263)" id="path4258"/>
  <path d="m505.566498,147.551666c0,0 -41.226013,-5.432983 -49.215027,-5.432983c-7.98999,0 -9.268982,1.278015 -9.588013,11.505005c-0.319946,10.22699 -0.319946,15.660034 9.907043,15.341003c10.22699,-0.320007 49.534973,-7.031982 49.534973,-7.031982l-0.638977,-14.381042z" stroke-width="0.781433" stroke="url(#linearGradient3243)" fill-rule="evenodd" fill="url(#linearGradient3238)" id="path4259"/>
  <path d="m468.814484,143.396698c0,0 -4.473999,-1.278015 -12.463013,-1.278015c-7.98999,0 -9.268982,1.278015 -9.588013,11.505005c-0.319946,10.22699 -0.319946,15.660034 9.907043,15.341003c5.752991,-0.320007 7.351013,-0.960022 11.823975,-1.278992l0.320007,-24.289001l0,0z" stroke-width="0.781433" stroke="url(#linearGradient3242)" fill-rule="evenodd" fill="url(#linearGradient3239)" id="path4260"/>
  <rect ry="3.11814" height="18.709" width="8.31513" y="294.927786" x="466.921667" transform="matrix(0.922418,0,0,0.922418,55.0552,-125.452) " fill-rule="evenodd" fill="url(#linearGradient3241)" id="rect4261"/>
  <rect ry="3.46458" height="17.3231" width="4.15756" y="295.967786" x="446.826667" transform="matrix(0.922418,0,0,0.922418,55.0552,-125.452) " fill-rule="evenodd" fill="url(#linearGradient3240)" id="rect4262"/>
  <path d="m378.73349,84.623688c2.528992,-23.401981 -4.21701,-18.132019 -4.21701,-18.132019c0,0 -0.212006,-7.589973 -2.742004,70.847046c0,0 3.69101,-1.79303 5.219025,-3.795044l1.73999,-48.919983z" stroke-width="0.781428" stroke="url(#linearGradient3210)" fill-rule="evenodd" fill="url(#linearGradient3211)" id="path4263"/>
  <path d="m385.72348,149.787689c0,0 28.294006,-0.237 32.916016,-3.195007c3.367004,-2.154968 23.649994,-2.557007 25.567017,0.319031c1.917969,2.875977 3.195984,14.381958 0,16.299988c-3.195038,1.916992 -20.134033,2.555969 -25.886017,0c-5.753021,-2.557007 -4.794006,-3.515991 -13.423004,-3.515991c-8.627991,0 -29.721008,0 -29.721008,0l0.320007,-9.90802l10.22699,0l0,0z" stroke-width="0.781433" stroke="url(#linearGradient3244)" fill-rule="evenodd" fill="url(#linearGradient3245)" id="path4264"/>
  <path d="m298.239502,50.962677c-9.162018,0 -16.445007,3.911011 -24.457001,20.24102c-18.133026,29.237007 -21.085022,133.534004 0,167.404976c9.276978,21.815002 19.089996,21.511047 28.673981,20.662048l33.735016,-6.318054c23.078003,-2.951965 18.132996,-6.023987 15.179993,-17.295959l-1.686005,-149.27301c2.529999,-21.812004 9.584015,-26.143982 -8.43399,-28.252991l-43.011993,-7.16803l0,0l0,0z" stroke-width="0.781433" stroke="url(#linearGradient3108)" fill-rule="evenodd" fill="none" id="path4265"/>
  <path d="m356.851501,161.026703c-1.265015,18.721985 2.436981,71.945984 6.324982,90.505005c0.984009,0.839966 -73.089996,16.862 -77.165985,15.182983c-42.919006,-19.822998 -42.589981,-94.132996 -42.80101,-112.723999c-0.211014,-18.593018 0.304001,-82.780998 41.535995,-110.190006c5.341003,-4.005978 67.608002,12.440002 79.485992,14.548031c-9.580994,38.161995 -7.379974,86.325996 -7.379974,102.677986l0,0l0,0l0,0l0,0l0,0z" stroke-width="0.781433" stroke="url(#linearGradient3136)" fill-rule="evenodd" fill="url(#linearGradient3137)" id="path4266"/>
  <path d="m494.972504,88.894684c10.734009,-1.919983 13.776978,-11.294006 3.954956,-12.088997c-8.166992,-0.653984 -12.654968,3.276016 -17.174988,11.862984c0,0 -0.226013,7.343987 -0.112,7.966003c-0.114014,0.621033 0.112,7.965027 0.112,7.965027c4.52002,8.588013 7.630005,15.054993 15.819031,14.800957c10.951965,-0.342949 4.971985,-9.942986 -2.712036,-15.816948l0.113037,-14.689026z" fill-rule="evenodd" fill="url(#linearGradient3224)" id="path4267"/>
  <path d="m370.702484,143.396698c14.700989,0 20.77301,-0.638977 20.77301,11.823975c0.319,11.825012 -4.794006,12.46405 -20.77301,11.825012l0,-17.895996l0,-5.752991l0,0z" stroke-width="0.781433" stroke="url(#linearGradient3252)" fill-rule="evenodd" fill="url(#linearGradient3253)" id="path4268"/>
  <path d="m370.702484,149.149689c13.421997,-0.320007 14.062012,0 14.062012,5.432007c0,5.432983 0.319977,7.031982 -14.062012,6.711975l0,-12.143982l0,0z" stroke-width="0.781433" stroke="url(#linearGradient3251)" fill-rule="evenodd" fill="url(#linearGradient3250)" id="path4269"/>
  <rect height="2.77167" width="41.5755" y="303.237786" x="358.825667" transform="matrix(0.922418,0,0,0.922418,55.0552,-125.452) " fill-rule="evenodd" fill="url(#linearGradient3249)" id="rect4270"/>
  <rect ry="1.03936" height="5.19696" width="16.9767" y="301.857786" x="368.872667" transform="matrix(0.922418,0,0,0.922418,55.0552,-125.452) " fill-rule="evenodd" fill="url(#linearGradient3248)" id="rect4271"/>
  <rect ry="2.77163" height="14.205" width="19.7484" y="297.007786" x="400.054667" transform="matrix(0.922418,0,0,0.922418,55.0552,-125.452) " stroke-width="0.781433" stroke="url(#linearGradient3247)" fill-rule="evenodd" fill="url(#linearGradient3246)" id="rect4272"/>
  <path d="m286.434479,267.286713l-3.372986,3.578979l16.598999,4.013l67.126007,-17.369995l-2.740997,-8.246033c-25.161011,9.41803 -51.607025,13.873047 -77.611023,18.024048l0,0l0,0l0,0z" stroke-width="0.781433" stroke="url(#linearGradient3144)" fill-rule="evenodd" fill="url(#linearGradient3140)" id="path4273"/>
  <path d="m287.172485,43.052696l-3.373993,-3.585018l16.023987,-4.005981l66.837006,17.078979l-2.740997,7.379032c-25.160004,-9.41803 -50.742004,-12.721012 -76.746002,-16.867012l0,0z" stroke-width="0.781433" stroke="url(#linearGradient3143)" fill-rule="evenodd" fill="url(#linearGradient3142)" id="path4274"/>
  <path d="m510.360504,54.232697l30.680023,3.197021c0,0 18.856018,17.895996 16.619019,101.94696c-2.238037,84.046997 -17.259033,94.913025 -17.259033,94.913025l-29.401031,1.919006c0,0 -7.119995,-65.584045 -5.697021,-102.673035c1.483032,-38.229004 4.738037,-98.982979 5.058044,-99.302979l0,0z" stroke-width="0.781433" stroke="url(#linearGradient3262)" fill-rule="evenodd" fill="url(#linearGradient3261)" id="path4275"/>
  <g id="g4276">
   <path d="m372.219086,169.847015l35.70401,-2.484985c3.841888,0.677917 -2.711884,2.710999 17.17453,2.484985c2.711914,0 29.829163,1.129944 35.478027,1.360535c16.872864,2.259949 29.45282,8.126526 45.873718,9.482483c1.054321,23.28186 1.43158,42.265198 3.841858,65.768433l-38.641907,14.23291l-105.306061,0.221375l8.134827,-9.713074l-2.259003,-81.352661l0,0z" stroke-width="0.781433" stroke="url(#svg_71)" fill-rule="evenodd" fill="url(#svg_70)" id="path4277"/>
   <path d="m372.216309,172.332977c0,0 46.550751,-1.807983 56.4935,-1.356018c9.943665,0.451965 52.87854,4.971863 54.686462,26.667175c1.807983,21.69519 1.355957,30.734863 1.355957,30.734863c0.903992,17.175476 -29.377136,26.667175 -46.550751,26.21521c-17.174469,-0.452026 -9.039673,-9.943726 -9.039673,-9.943726l-56.945496,-72.317505l0,0z" stroke-width="0.781433" stroke="url(#svg_69)" fill-rule="evenodd" fill="url(#svg_68)" id="path4278"/>
   <path d="m436.580811,213.297516l0.422455,23.613892l-9.277679,10.543274c0,0 -29.095825,5.903442 -37.107941,5.903442c-8.012146,0 -16.024261,-2.103088 -16.024261,-2.103088c0,0 0,0 -2.530182,-78.442444c0,0 3.689667,1.798706 5.218109,3.800354c2.612274,-1.687988 9.330261,-1.263733 13.336334,-1.263733c8.012115,0 37.107941,5.903503 37.107941,5.903503l9.277679,10.543213l-0.422455,23.613892" stroke-width="0.781428" stroke="url(#svg_67)" fill-rule="evenodd" fill="url(#svg_66)" id="path4279"/>
   <path d="m471.759003,196.970734c-3.005188,0 -4.181274,5.691284 -4.181274,8.698364c0,8.440125 0,8.624634 0,17.064758c0,2.997864 1.063599,8.698364 4.067871,8.698364c2.711914,0 5.423828,0 8.134827,0c3.005249,0 5.423828,-1.854004 5.423828,-4.861084c-3.841919,-1.429749 -5.649841,-20.597595 0,-25.311157c0.025757,-3.154663 -2.30603,-4.289246 -5.310364,-4.289246l-8.134888,0l0,0l0,0z" stroke-width="0.781433" stroke="url(#svg_65)" fill-rule="evenodd" fill="url(#svg_64)" id="path4280"/>
   <path d="m377.334808,183.780121l0,30.15387l34.577759,0l0,-24.665466c-11.736847,-1.199097 -23.68399,-2.186096 -34.577759,-5.488403l0,0z" stroke-width="0.781433" stroke="url(#svg_63)" fill-rule="evenodd" fill="none" id="path4281"/>
   <path d="m411.702271,189.471466l0,24.674683l24.879456,0l0.211212,-23.82605l-25.090668,-0.848633l0,0z" stroke-width="0.781433" stroke="url(#svg_62)" fill-rule="evenodd" fill="none" id="path4282"/>
   <path d="m377.334808,244.429108l0,-30.153809l34.577759,0l0,24.665405c-11.736847,1.199158 -23.68399,2.176941 -34.577759,5.488403l0,0z" stroke-width="0.781433" stroke="url(#svg_61)" fill-rule="evenodd" fill="none" id="path4283"/>
   <path d="m411.702271,238.728607l0,-24.665466l24.879456,0l0.211212,23.825989l-25.090668,0.839478l0,0z" stroke-width="0.781433" stroke="url(#svg_60)" fill-rule="evenodd" fill="none" id="path4284"/>
   <path d="m436.340057,237.031342c5.32605,-0.212158 10.653015,-0.424316 15.979004,-0.636475c4.473755,1.494263 7.989075,3.938721 11.504456,7.351685c-11.398315,5.322388 -23.115814,7.139526 -36.111786,7.351624c-0.320068,-5.968018 3.51535,-10.017456 8.628326,-14.066833l0,0z" stroke-width="0.781433" stroke="url(#svg_59)" fill-rule="evenodd" fill="none" id="path4285"/>
   <path d="m501.251495,229.504425l2.259949,12.203552l-21.69342,0.682556l6.552856,-15.819397l12.880615,2.933289z" stroke-width="0.781433" stroke="url(#svg_58)" fill-rule="evenodd" fill="url(#svg_57)" id="path4286"/>
   <path d="m469.895782,230.961823c4.47467,-0.212158 8.948364,-0.424316 13.422058,-0.636475c2.290405,14.703369 -39.520935,24.766907 -55.12735,21.566162l-0.639221,-2.075439c31.638947,2.186096 42.983734,-7.932861 42.344513,-18.854248l0,0z" fill-rule="evenodd" fill="url(#svg_56)" id="path4287"/>
   <rect ry="2.44975" height="18.4963" width="9.43181" y="379.787786" x="479.314667" stroke-width="0.726845" stroke="url(#linearGradient3229)" fill-rule="evenodd" fill="url(#linearGradient3228)" id="rect4288" transform="matrix(0.922418,0,0,0.922418,55.0552,-125.452) "/>
   <path d="m436.114044,191.094879c5.32608,0.212158 10.653015,0.424377 15.979065,0.636475c4.473755,-1.494263 7.989014,-3.938721 11.504395,-7.351624c-11.398315,-5.322388 -23.115784,-7.139587 -36.111755,-7.351685c-0.320068,5.968079 3.51535,10.017456 8.628296,14.066833l0,0z" stroke-width="0.781433" stroke="url(#svg_55)" fill-rule="evenodd" fill="none" id="path4289"/>
   <path d="m469.669769,197.164459c4.474609,0.212097 8.948425,0.424255 13.422119,0.636475c2.290344,-14.703369 -39.520996,-24.766968 -55.12738,-21.566162l-0.639221,2.075439c31.638916,-2.186157 42.983765,7.932739 42.344482,18.854248l0,0z" fill-rule="evenodd" fill="url(#svg_54)" id="path4290"/>
   <path d="m495.260406,221.257965c10.734192,1.91864 13.776306,11.299622 3.955383,12.092896c-8.167114,0.654968 -12.654724,-3.274536 -17.174561,-11.862244c0,0 -0.225952,-7.342468 -0.113403,-7.969727c-0.112549,-0.617981 0.113403,-7.960449 0.113403,-7.960449c4.519836,-8.587708 7.629333,-15.053894 15.818542,-14.80481c10.950989,0.341248 4.970886,9.943665 -2.711914,15.819458l0.112549,14.684875z" stroke-width="0.781433" stroke="url(#svg_53)" fill-rule="evenodd" fill="url(#svg_52)" id="path4291"/>
   <path d="m379.020996,225.528778c2.530182,23.401733 -4.217316,18.134705 -4.217316,18.134705c0,0 -0.210297,7.591553 -2.740479,-70.850891c0,0 3.689667,1.798706 5.218109,3.800354l1.739685,48.915833z" stroke-width="0.781428" stroke="url(#svg_51)" fill-rule="evenodd" fill="url(#svg_50)" id="path4292"/>
   <path d="m495.260406,221.257965c10.734192,1.91864 13.776306,11.299622 3.955383,12.092896c-8.167114,0.654968 -12.654724,-3.274536 -17.174561,-11.862244c0,0 -0.225952,-7.342468 -0.113403,-7.969727c-0.112549,-0.617981 0.113403,-7.960449 0.113403,-7.960449c4.519836,-8.587708 7.629333,-15.053894 15.818542,-14.80481c10.950989,0.341248 4.970886,9.943665 -2.711914,15.819458l0.112549,14.684875z" fill-rule="evenodd" fill="url(#svg_49)" id="path4293"/>
  </g>
  <path d="m609.336548,67.265724c7.740967,4.812973 14.712952,11.778984 20.567993,20.384933c11.708984,17.21302 18.950989,40.992012 18.950989,67.259041c0,26.268982 -7.242004,50.039978 -18.950989,67.260986c-5.855042,8.606995 -12.827026,15.570984 -20.567993,20.377014" stroke-width="1.38917" stroke="url(#linearGradient3323)" fill-rule="evenodd" fill="none" id="path4294"/>
  <g id="g4295">
   <path d="m625.148865,266.050629l6.410828,1.346741c7.380249,-4.427673 15.504944,-16.07782 11.628906,-29.89563c-2.385376,-2.684204 -5.367493,0.599609 -7.156067,1.78949c-7.278809,17.092468 -8.964111,16.557434 -10.883667,26.759399l0,0l0,0l0,0z" stroke="url(#linearGradient3317)" fill-rule="evenodd" fill="url(#linearGradient3053)" id="path4296"/>
   <path d="m635.547302,254.797089c1.477722,-3.514404 1.42334,-7.157959 -0.119934,-8.144958c-1.544128,-0.977783 -3.993103,1.070007 -5.46991,4.575195c-1.476807,3.505188 -1.42334,7.148743 0.12085,8.135742c1.543213,0.987 3.992188,-1.060791 5.468994,-4.565979l0,0z" fill-rule="evenodd" fill="none" id="path4297"/>
   <path d="m625.148865,266.050629c1.888184,0.599548 4.522644,0.747131 6.410828,1.346741c7.380249,-4.427673 15.504944,-16.07782 11.628906,-29.89563c-2.385376,-2.684204 -5.367493,0.599609 -7.156067,1.78949c1.688904,9.344116 -0.19928,21.446228 -10.883667,26.759399l0,0l0,0z" stroke="url(#linearGradient3317)" fill-rule="evenodd" fill="url(#linearGradient3053)" id="path4298"/>
   <path d="m648.257324,214.92099c-0.372681,5.709778 -2.981262,15.229126 -5.068726,22.58075c-2.385376,-2.684204 -5.367493,0.599609 -7.156067,1.78949c4.373169,-10.331055 7.653259,-20.496094 12.224792,-24.370239l0,0z" stroke="url(#linearGradient3316)" fill-rule="evenodd" fill="url(#linearGradient3054)" id="path4299"/>
   <path d="m636.270508,255.202972c1.477661,-3.505188 1.423279,-7.148743 -0.119934,-8.135742c-1.544128,-0.987 -3.993103,1.060791 -5.46991,4.565979c-1.477722,3.514404 -1.423279,7.157959 0.119873,8.144958c1.544128,0.977783 3.993164,-1.060791 5.469971,-4.575195l0,0z" fill-rule="evenodd" fill="url(#radialGradient3058)" id="path4300"/>
   <path d="m625.148865,266.050629l6.410828,1.346741c7.380249,-4.427673 15.504944,-16.07782 11.628906,-29.89563c-2.385376,-2.684204 -5.367493,0.599609 -7.156067,1.78949c-7.278809,17.092468 -8.964111,16.557434 -10.883667,26.759399l0,0l0,0l0,0z" fill-rule="evenodd" fill="url(#linearGradient3322)" id="path4301"/>
  </g>
  <g id="g4302">
   <path d="m625.437256,44.453278l6.410767,-1.342171c7.380249,4.423038 15.504883,16.076851 11.628967,29.891914c-2.385376,2.683289 -5.367615,-0.595894 -7.156128,-1.788574c-7.278809,-17.088749 -8.964111,-16.552799 -10.883606,-26.761169l0,0l0,0l0,0z" stroke="url(#linearGradient3317)" fill-rule="evenodd" fill="url(#linearGradient3053)" id="path4303"/>
   <path d="m635.835632,55.714077c1.477722,3.508911 1.423279,7.15247 -0.119873,8.136719c-1.544128,0.986027 -3.993225,-1.060791 -5.469971,-4.569698c-1.477722,-3.50885 -1.423279,-7.151489 0.12085,-8.136662c1.543152,-0.985107 3.992188,1.060852 5.468994,4.569641l0,0z" fill-rule="evenodd" fill="none" id="path4304"/>
   <path d="m625.437256,44.453278c1.888184,-0.59687 4.522583,-0.746281 6.410767,-1.342171c7.380249,4.423038 15.504883,16.076851 11.628967,29.891914c-2.385376,2.683289 -5.367615,-0.595894 -7.156128,-1.788574c1.688904,-9.34314 -0.19928,-21.444401 -10.883606,-26.761169l0,0l0,0z" stroke="url(#linearGradient3317)" fill-rule="evenodd" fill="url(#linearGradient3053)" id="path4305"/>
   <path d="m648.545654,95.59024c-0.372681,-5.715271 -2.981262,-15.231873 -5.068665,-22.587219c-2.385376,2.683289 -5.367615,-0.595894 -7.156128,-1.788574c4.373169,10.336617 7.653259,20.498901 12.224792,24.375793l0,0z" stroke="url(#linearGradient3316)" fill-rule="evenodd" fill="url(#linearGradient3054)" id="path4306"/>
   <path d="m636.558838,55.302696c1.477722,3.508911 1.423279,7.15247 -0.119934,8.137642c-1.544128,0.9851 -3.993164,-1.060852 -5.46991,-4.569702c-1.477722,-3.50885 -1.42334,-7.152409 0.119934,-8.137581c1.544067,-0.9851 3.993103,1.060791 5.46991,4.569641l0,0z" fill-rule="evenodd" fill="url(#radialGradient3058)" id="path4307"/>
   <path d="m625.437256,44.453278l6.410767,-1.342171c7.380249,4.423038 15.504883,16.076851 11.628967,29.891914c-2.385376,2.683289 -5.367615,-0.595894 -7.156128,-1.788574c-7.278809,-17.088749 -8.964111,-16.552799 -10.883606,-26.761169l0,0l0,0l0,0z" fill-rule="evenodd" fill="url(#linearGradient3322)" id="path4308"/>
  </g>
  <path d="m299.796478,274.748688c-3.036987,0 -15.260986,13.411987 -17.156982,15.515015c-2.871002,2.971008 152.440002,-1.60498 179.848999,-1.263c1.476013,-4.004028 0.422974,-1.476013 -1.264038,-17.083008c-2.529968,-2.187012 -17.836975,0.211975 -20.873962,0.211975c-49.759003,0 -86.024017,2.324036 -135.78302,2.324036l0,0l-4.770996,0.294983l0,0z" stroke-width="0.781433" stroke="url(#linearGradient3070)" fill-rule="evenodd" fill="url(#svg_2)" id="path4309"/>
  <path d="m433.5755,286.103668c-1.322021,0 -8.348999,0.766052 -8.348999,2.085022l0,0.89502c0,1.31897 1.362,2.083984 2.68399,2.083984l26.835999,-0.294983c1.320984,0 2.684021,-0.470032 2.684021,-1.789001l0,-0.89502c0,-1.31897 -3.151001,-2.085022 -4.473022,-2.085022l-19.381989,0l0,0z" stroke-width="0.781433" stroke="url(#linearGradient3104)" fill-rule="evenodd" fill="url(#linearGradient3047)" id="path4310"/>
  <path d="m335.9375,267.710724c-1.817017,0 -30.025024,6.161987 -28.208008,6.161987c37.372009,0 106.91098,-0.203003 143.163971,-2.085022c2.709045,-0.119995 3.390015,-3.302002 2.981995,-5.072998c-1.789978,-8.042969 -5.04895,-7.315002 -6.857971,-7.148987c-36.47699,3.578979 -69.369995,-10.820007 -101.803009,3.921021l-9.276978,4.223999l0,0l0,0z" stroke-width="0.781433" stroke="url(#linearGradient3172)" fill-rule="evenodd" fill="url(#linearGradient3173)" id="path4311"/>
  <path d="m345.636475,264.334686c-1.817993,0 -11.358978,8.947998 -9.541992,8.947998c37.372009,0 78.54599,0.387024 114.798981,-1.494995c2.709045,-0.119995 3.390015,-3.302002 2.981995,-5.072998c-1.789978,-8.042969 -5.04895,-7.315002 -6.857971,-7.148987c-36.47699,3.578979 -64.01001,4.768982 -101.381012,4.768982l0,0z" stroke-width="0.781433" stroke="url(#linearGradient3175)" fill-rule="evenodd" fill="url(#linearGradient3174)" id="path4312"/>
  <path d="m304.567474,274.453705c-3.036987,0 18.973999,3.164001 30.994019,3.164001c4.132996,-0.074036 93.825989,-0.341003 125.662964,-2.112c0.633057,-0.840027 0.421021,-2.73999 0,-3.588013c-2.529968,-2.187012 -17.836975,0.211975 -20.873962,0.211975c-49.759003,0 -86.024017,2.324036 -135.78302,2.324036l0,0l0,0l0,0z" stroke-width="0.781433" stroke="url(#linearGradient3113)" fill-rule="evenodd" fill="url(#linearGradient3112)" id="path4313"/>
  <path d="m299.544495,274.924713c15.009003,1.539978 23.040985,1.30896 24.89798,7.304993c7.757019,25.984985 7.853027,28.917969 26.835999,28.622986l-11.628998,-32.505981c-2.882996,0.101013 -6.062988,-0.093018 -6.858002,-3.275024l11.629028,-11.031982l-44.876007,10.88501l0,0z" stroke-width="0.781433" stroke="url(#linearGradient3103)" fill-rule="evenodd" fill="url(#linearGradient3102)" id="path4314"/>
  <path d="m324.442474,282.229706c7.757019,25.984985 7.853027,28.917969 26.835999,28.622986l-11.628998,-32.505981c-2.882996,0.101013 -6.062988,-0.093018 -6.858002,-3.275024c0,0 -10.205994,1.161987 -8.348999,7.15802l0,0z" stroke-width="0.781433" stroke="url(#linearGradient3101)" fill-rule="evenodd" fill="url(#svg_2)" id="path4315"/>
  <path d="m440.915497,260.01767c10.356995,-7.719971 24.409973,-9.333984 34.799988,-15.367004c5.525024,-3.274963 9.114014,-10.589966 8.588013,-18.079956c1.203979,0.903992 2.409973,1.807983 3.61499,2.711975c-1.130005,8.699036 -6.187988,17.156982 -13.559021,20.340027c-18.385986,7.987976 -20.675964,6.244995 -19.659973,21.685974c-3.314026,0.156982 -5.950012,-0.14801 -9.263977,0c-1.507019,-3.763977 -3.014038,-7.526978 -4.52002,-11.291016l0,0z" stroke-width="0.781433" stroke="url(#linearGradient3233)" fill-rule="evenodd" fill="url(#linearGradient3232)" id="path4316"/>
  <g id="g4317">
   <path d="m362.865784,156.875031c-0.097778,-22.155579 -1.165955,-65.66687 8.768494,-99.064034c-0.421539,-4.570492 -4.479279,-2.926811 -5.934845,-2.965511c-11.500702,34.207829 -8.961304,90.506718 -8.904083,107.70612c0.056274,17.197571 -2.596619,58.918518 8.904083,93.131042c1.455566,-0.036926 5.513306,1.60498 5.934845,-2.970215c-9.934448,-33.391479 -8.979736,-77.243286 -8.768494,-95.837402l0,0z" stroke-width="0.781433" stroke="url(#linearGradient3146)" fill-rule="evenodd" fill="url(#linearGradient3145)" id="path4318"/>
   <path d="m359.475891,155.068024c-0.097778,-22.156433 0.867981,-64.988953 9.672485,-99.742867c-1.099548,-1.406731 -1.993378,-0.440971 -3.448944,-0.479671c-11.500702,34.207829 -8.961304,90.506718 -8.904083,107.70612c0.056274,17.197571 -2.596619,58.918518 8.904083,93.131042c1.455566,-0.036926 2.349396,1.153015 2.996918,-1.383667c-8.126495,-34.304688 -9.657684,-78.156494 -9.446472,-96.745911l0.226013,0l0,-2.485046l0,0z" stroke-width="0.781433" stroke="url(#linearGradient3148)" fill-rule="evenodd" fill="url(#linearGradient3147)" id="path4319"/>
  </g>
  <path d="m334.130493,37.660667l135.699982,0.920048l40.400024,14.799992l-141.200012,-0.400028l-26.399994,-7.200012" stroke-width="0.781433" stroke-linejoin="null" stroke-linecap="null" stroke-dasharray="null" stroke="url(#linearGradient3136)" fill="url(#linearGradient3137)" id="svg_78"/>
  <path d="m334.930481,273.660675l130.899994,0.52002l45.600037,-18l-141.200012,0.400024l-23.200012,4.799988l-6.399994,6" stroke-width="0.781433" stroke-linejoin="null" stroke-linecap="null" stroke-dasharray="null" stroke="url(#linearGradient3136)" fill="url(#linearGradient3137)" id="svg_80"/>
  <path d="m511.730499,256.060699l28.100006,-1.47998l6.400024,-10.800049l2.800049,-11.599976l3.999939,-18.799988l3.200012,-26.400024l0.799988,-25.599976l0,-23.200012l-0.799988,-24.799988l-3.200012,-18.799988l-4.400024,-22l-7.199951,-15.200012l-31.600067,-4l-4,85.599976l-0.399963,39.200012l3.199951,51.200012l1.200012,20.399963" stroke-width="0.781433" stroke-linejoin="null" stroke-linecap="null" stroke-dasharray="null" stroke="url(#linearGradient3136)" fill="url(#linearGradient3137)" id="svg_82"/>
  <path d="m370.130493,53.260708l139.300018,0.119999l-3.200012,61.200012l-1.200012,57.199951l3.200012,58l2.399963,24.400024l-0.399963,2.400024l-140.400024,-0.400024l4.400024,-5.599976l-2.400024,-74.800049l-0.799988,-17.199951l0.399994,-22.800049l2.800018,-76.799992c-1.367004,-1.906982 -2.733002,-3.812992 -4.100006,-5.719971z" stroke-width="0.781433" stroke-linejoin="null" stroke-linecap="null" stroke-dasharray="null" stroke="url(#linearGradient3136)" fill="url(#svg_2)" id="svg_83"/>
  <rect height="4.8" width="141.6" y="250.860692" x="370.130499" stroke-width="0" stroke-linejoin="null" stroke-linecap="null" stroke-dasharray="null" stroke="url(#linearGradient3136)" fill="url(#svg_95)" id="svg_86"/>
  <rect height="4.8" width="141.6" y="53.260692" x="369.729499" stroke-width="0" stroke-linejoin="null" stroke-linecap="null" stroke-dasharray="null" stroke="url(#linearGradient3136)" fill="url(#svg_95)" id="svg_88"/>
  <path d="m512.530579,254.860687l-3.900055,-24.679993l-2.799988,-51.599976l0,-29.600037l1.200012,-34.399963l2.399963,-37.200012l0.800049,-19.20002l-6.400024,0l-2,57.19989l-0.799927,33.599922l-0.000061,30.000183l2.800049,52.000061l1.599915,24.000061" stroke-width="0" stroke-linejoin="null" stroke-linecap="null" stroke-dasharray="null" stroke="url(#linearGradient3136)" fill="url(#svg_95)" id="svg_91"/>
 </g>
</svg>