<?xml version="1.0"?><svg width="662" height="311" xmlns="http://www.w3.org/2000/svg" xmlns:xlink="http://www.w3.org/1999/xlink">
 <title>Black Car</title>
 <defs>
  <linearGradient id="linearGradient3258">
   <stop id="stop3259" stop-color="#3f3a4a" offset="0"/>
   <stop id="stop3260" stop-color="#afaa9d" offset="1"/>
  </linearGradient>
  <linearGradient id="linearGradient3225">
   <stop id="stop3226" stop-color="#000000" stop-opacity="0.3804" offset="0"/>
   <stop id="stop3227" stop-color="#000000" stop-opacity="0" offset="1"/>
  </linearGradient>
  <linearGradient id="linearGradient3178">
   <stop id="stop3179" stop-color="#ffff97" offset="0"/>
   <stop id="stop3180" stop-color="#ffffe7" offset="1"/>
  </linearGradient>
  <linearGradient id="linearGradient3109">
   <stop id="stop3110" stop-color="#dddaff" stop-opacity="0.8196" offset="0"/>
   <stop id="stop3111" stop-color="#6a72ff" stop-opacity="0.5843" offset="1"/>
  </linearGradient>
  <linearGradient id="linearGradient3061">
   <stop id="stop3062" stop-color="#ffff00" stop-opacity="0.5804" offset="0"/>
   <stop id="stop3063" stop-color="#ffffff" stop-opacity="0" offset="1"/>
  </linearGradient>
  <linearGradient id="linearGradient3042">
   <stop id="stop3043" stop-color="#000000" stop-opacity="0.902" offset="0"/>
   <stop id="stop3044" stop-color="#000000" stop-opacity="0" offset="1"/>
  </linearGradient>
  <linearGradient id="linearGradient3034">
   <stop id="stop3035" stop-color="#ff0000" stop-opacity="0.5804" offset="0"/>
   <stop id="stop3036" stop-color="#ffffff" stop-opacity="0" offset="1"/>
  </linearGradient>
  <linearGradient id="linearGradient3012">
   <stop id="stop3013" stop-color="#ffffff" stop-opacity="0.902" offset="0"/>
   <stop id="stop3014" stop-color="#ffffff" stop-opacity="0" offset="1"/>
  </linearGradient>
  <linearGradient id="linearGradient650">
   <stop id="stop651" stop-color="#000" offset="0"/>
   <stop id="stop652" stop-color="#fff" offset="1"/>
  </linearGradient>
  <linearGradient id="linearGradient653" x1="0.36802" y1="0.28572" x2="0.832714" y2="1.08571" xlink:href="#linearGradient3012"/>
  <linearGradient id="linearGradient3031" x1="0.799256" y1="0.139999" x2="0.327137" y2="1.08" xlink:href="#linearGradient3012"/>
  <linearGradient id="linearGradient3032" x1="-1.62069" y1="0.125" x2="1.89655" y2="0.53125" xlink:href="#linearGradient650"/>
  <linearGradient id="linearGradient3033" x1="0.405593" y1="0.531289" x2="0.265734" y2="0.632815" xlink:href="#linearGradient3061"/>
  <radialGradient id="radialGradient3037" gradientTransform="translate(-9.39605e-008 -1.78976e-006)" cx="0.488374" cy="0.491816" r="2.10304" fx="0.488374" fy="0.491816" xlink:href="#linearGradient3061"/>
  <linearGradient id="linearGradient3038" x1="0" y1="0" x2="1" y2="0" xlink:href="#linearGradient3012"/>
  <linearGradient id="linearGradient3039" x1="0" y1="-1.07004" x2="1" y2="-1.07004" xlink:href="#linearGradient3012"/>
  <linearGradient id="linearGradient3040" x1="1.16084" y1="0.406266" x2="-0.13986" y2="0.421876" xlink:href="#linearGradient650"/>
  <linearGradient id="linearGradient3047" x1="0.449803" y1="-0.727277" x2="0.449813" y2="1.38636" xlink:href="#linearGradient3042"/>
  <linearGradient id="linearGradient3053" x1="-2.93098" y1="-2.62917" x2="2.11682" y2="-2.79929" xlink:href="#linearGradient650"/>
  <linearGradient id="linearGradient3054" gradientTransform="matrix(1.10808 0 0 0.902465 1.02481e-006 1.86041e-007)" x1="-1.18013" y1="0.233738" x2="1.52725" y2="0.41553" xlink:href="#linearGradient650"/>
  <linearGradient id="linearGradient3055" x1="0" y1="0" x2="1" y2="0" xlink:href="#linearGradient3225"/>
  <linearGradient id="linearGradient3056" gradientTransform="scale(1.50828 0.663008)" x1="-0.688096" y1="0.873978" x2="0.008444" y2="0.873978" xlink:href="#linearGradient3225"/>
  <radialGradient id="radialGradient3058" gradientTransform="translate(2.83577e-006 -4.22671e-008)" cx="0.507198" cy="0.498003" r="1.13937" fx="0.507198" fy="0.498003" xlink:href="#linearGradient3034"/>
  <linearGradient id="linearGradient3064" x1="0" y1="0" x2="1" y2="0" xlink:href="#linearGradient3012"/>
  <linearGradient id="linearGradient3065" x1="-1.88372" y1="0.328125" x2="1.25581" y2="0.414063" xlink:href="#linearGradient650"/>
  <linearGradient id="linearGradient3066" x1="-7.6854" y1="0.367188" x2="18.1076" y2="0.445312" xlink:href="#linearGradient650"/>
  <linearGradient id="linearGradient3067" gradientTransform="scale(0.364412 2.74415)" x1="-6.53385" y1="0.073805" x2="23.2484" y2="0.164013" xlink:href="#linearGradient650"/>
  <linearGradient id="linearGradient3068" x1="0" y1="0" x2="1" y2="0" xlink:href="#linearGradient3012"/>
  <linearGradient id="linearGradient3069" x1="0.684015" y1="1.15517" x2="0.672862" y2="0" xlink:href="#linearGradient3042"/>
  <linearGradient id="linearGradient3070" x1="0" y1="0" x2="1" y2="0" xlink:href="#linearGradient3012"/>
  <linearGradient id="linearGradient3071" x1="0" y1="0" x2="1" y2="0" xlink:href="#linearGradient3042"/>
  <linearGradient id="linearGradient3072" x1="0" y1="0" x2="1" y2="0" xlink:href="#linearGradient3012"/>
  <linearGradient id="linearGradient3073" x1="0" y1="0" x2="1" y2="0" xlink:href="#linearGradient3042"/>
  <linearGradient id="linearGradient3074" x1="0" y1="0" x2="1" y2="0" xlink:href="#linearGradient3042"/>
  <linearGradient id="linearGradient3075" gradientTransform="scale(0.999999)" x1="-0.023808" y1="1.32202" x2="0.976191" y2="1.32202" xlink:href="#linearGradient3042"/>
  <linearGradient id="linearGradient3076" x1="0" y1="0" x2="1" y2="0" xlink:href="#linearGradient3042"/>
  <linearGradient id="linearGradient3077" gradientTransform="scale(0.999999)" x1="-0.023808" y1="1.32202" x2="0.976191" y2="1.32202" xlink:href="#linearGradient3042"/>
  <linearGradient id="linearGradient3078" x1="0" y1="0" x2="1" y2="0" xlink:href="#linearGradient3012"/>
  <linearGradient id="linearGradient3079" x1="0" y1="0" x2="1" y2="0" xlink:href="#linearGradient3042"/>
  <linearGradient id="linearGradient3080" x1="-2.38095" y1="0.445313" x2="2.71429" y2="0.453125" xlink:href="#linearGradient650"/>
  <linearGradient id="linearGradient3081" x1="0" y1="0" x2="1" y2="0" xlink:href="#linearGradient3042"/>
  <linearGradient id="linearGradient3082" x1="-0.850748" y1="0.179688" x2="0.895523" y2="0.242188" xlink:href="#linearGradient3042"/>
  <linearGradient id="linearGradient3083" x1="0" y1="0" x2="1" y2="0" xlink:href="#linearGradient3042"/>
  <linearGradient id="linearGradient3084" x1="-0.168541" y1="0.039067" x2="-0.112359" y2="0.867188" xlink:href="#linearGradient650"/>
  <linearGradient id="linearGradient3085" gradientTransform="scale(1.46309 0.683483)" x1="-1.63379" y1="0.068581" x2="0.667049" y2="1.18876" xlink:href="#linearGradient650"/>
  <linearGradient id="linearGradient3086" gradientTransform="scale(0.962888 1.03854)" x1="-0.463887" y1="0.027844" x2="1.0824" y2="0.780668" xlink:href="#linearGradient650"/>
  <linearGradient id="linearGradient3087" x1="0" y1="0" x2="1" y2="0" xlink:href="#linearGradient3042"/>
  <linearGradient id="linearGradient3088" gradientTransform="scale(0.658118 1.51948)" x1="0.927761" y1="-0.012471" x2="1.59982" y2="-0.012471" xlink:href="#linearGradient3042"/>
  <linearGradient id="linearGradient3089" x1="0" y1="0" x2="1" y2="0" xlink:href="#linearGradient3042"/>
  <linearGradient id="linearGradient3091" x1="0" y1="0" x2="1" y2="0" xlink:href="#linearGradient3042"/>
  <linearGradient id="linearGradient3092" x1="-0.179479" y1="0.343749" x2="2.38462" y2="1.00781" xlink:href="#linearGradient650"/>
  <linearGradient id="linearGradient3093" x1="0" y1="0" x2="1" y2="0" xlink:href="#linearGradient3012"/>
  <linearGradient id="linearGradient3094" x1="-1.76924" y1="0.054683" x2="0.794872" y2="0.906248" xlink:href="#linearGradient650"/>
  <linearGradient id="linearGradient3095" x1="0" y1="0" x2="1" y2="0" xlink:href="#linearGradient3012"/>
  <linearGradient id="linearGradient3096" x1="-0.310686" y1="0.070311" x2="-0.126214" y2="1.57812" xlink:href="#linearGradient650"/>
  <linearGradient id="linearGradient3097" x1="0" y1="0" x2="1" y2="0" xlink:href="#linearGradient3042"/>
  <linearGradient id="linearGradient3098" x1="0" y1="0" x2="1" y2="0" xlink:href="#linearGradient3012"/>
  <linearGradient id="linearGradient3099" x1="0" y1="0" x2="1" y2="0" xlink:href="#linearGradient3012"/>
  <linearGradient id="linearGradient3100" x1="0.298939" y1="0.632789" x2="1.3299" y2="-0.132815" xlink:href="#linearGradient650"/>
  <linearGradient id="linearGradient3101" x1="0" y1="0" x2="1" y2="0" xlink:href="#linearGradient3012"/>
  <linearGradient id="linearGradient3102" x1="-0.174825" y1="0.437501" x2="1.0979" y2="0.351563" xlink:href="#linearGradient650"/>
  <linearGradient id="linearGradient3103" x1="0" y1="0" x2="1" y2="0" xlink:href="#linearGradient3042"/>
  <linearGradient id="linearGradient3104" x1="0.513005" y1="0" x2="0.520445" y2="0.977271" xlink:href="#linearGradient3012"/>
  <linearGradient id="linearGradient3105" x1="0" y1="0" x2="1" y2="0" xlink:href="#linearGradient3042"/>
  <linearGradient id="linearGradient3106" x1="0" y1="0" x2="0.999999" y2="0" xlink:href="#linearGradient3042"/>
  <linearGradient id="linearGradient3108" x1="0.150685" y1="0.012739" x2="1.0274" y2="0.955414" xlink:href="#linearGradient3109"/>
  <linearGradient id="linearGradient3112" x1="0.516719" y1="1.58334" x2="0.513011" y2="-3.33333" xlink:href="#linearGradient3042"/>
  <linearGradient id="linearGradient3113" x1="0.539029" y1="0.25" x2="0.54275" y2="1.08333" xlink:href="#linearGradient3042"/>
  <linearGradient id="linearGradient3125" x1="0" y1="0" x2="1" y2="0" xlink:href="#linearGradient3012"/>
  <linearGradient id="linearGradient3127" x1="0" y1="0" x2="1" y2="0" xlink:href="#linearGradient3012"/>
  <linearGradient id="linearGradient3131" x1="0" y1="0" x2="1" y2="0" xlink:href="#linearGradient3042"/>
  <linearGradient id="linearGradient3132" x1="0" y1="0" x2="1" y2="0" xlink:href="#linearGradient3012"/>
  <linearGradient id="linearGradient3133" x1="1.34965" y1="0.710938" x2="-0.104895" y2="0.6875" xlink:href="#linearGradient650"/>
  <linearGradient id="linearGradient3134" x1="0.937063" y1="0.070312" x2="-0.426573" y2="1.33594" xlink:href="#linearGradient3061"/>
  <linearGradient id="linearGradient3136" x1="0.105882" y1="0.038961" x2="0.929412" y2="0.935065" xlink:href="#linearGradient3109"/>
  <linearGradient id="linearGradient3137" spreadMethod="reflect" x1="0.43662" y1="0.171875" x2="0.690141" y2="0.414062" xlink:href="#linearGradient3109"/>
  <linearGradient id="linearGradient3138" gradientTransform="translate(-5.55894e-007 -2.58904e-006)" x1="0.272743" y1="-12.7368" x2="2.81852" y2="-12.7366" xlink:href="#linearGradient3012"/>
  <linearGradient id="linearGradient3139" gradientTransform="matrix(1 0 0 0.999998 7.20433e-008 1.23579e-006)" x1="0.272625" y1="6.80139" x2="2.81839" y2="6.80158" xlink:href="#linearGradient3012"/>
  <linearGradient id="linearGradient3140" x1="0.24662" y1="-4.27679" x2="2.95946" y2="-4.35326" xlink:href="#linearGradient650"/>
  <linearGradient id="linearGradient3141" gradientTransform="matrix(1 3.19529e-006 -1.53798e-006 1 5.09329e-007 -6.72258e-007)" x1="0.50947" y1="0.453594" x2="1.3519" y2="1.5359" xlink:href="#linearGradient650"/>
  <linearGradient id="linearGradient3142" gradientTransform="scale(1)" x1="0.237715" y1="4.51202" x2="2.95054" y2="4.43555" xlink:href="#linearGradient650"/>
  <linearGradient id="linearGradient3143" x1="0" y1="0" x2="1" y2="0" xlink:href="#linearGradient3042"/>
  <linearGradient id="linearGradient3144" gradientTransform="scale(0.999999)" x1="0.008904" y1="-8.78881" x2="1.00891" y2="-8.78881" xlink:href="#linearGradient3042"/>
  <linearGradient id="linearGradient3145" x1="-7.09091" y1="0.398437" x2="4.09091" y2="0.398437" xlink:href="#linearGradient650"/>
  <linearGradient id="linearGradient3146" x1="0" y1="0" x2="1" y2="0" xlink:href="#linearGradient3012"/>
  <linearGradient id="linearGradient3147" x1="-0.666667" y1="0.3125" x2="12.8889" y2="0.320313" xlink:href="#linearGradient650"/>
  <linearGradient id="linearGradient3148" x1="0" y1="0" x2="1" y2="0" xlink:href="#linearGradient3012"/>
  <linearGradient id="linearGradient3172" x1="0.527881" y1="1.10001" x2="0.542751" y2="-1.93333" xlink:href="#linearGradient3012"/>
  <linearGradient id="linearGradient3173" x1="0.513011" y1="0.833336" x2="0.524164" y2="-1.4" xlink:href="#linearGradient650"/>
  <linearGradient id="linearGradient3174" x1="0.486989" y1="1.84376" x2="0.568773" y2="-0.593749" xlink:href="#linearGradient650"/>
  <linearGradient id="linearGradient3175" x1="0" y1="0" x2="1" y2="0" xlink:href="#linearGradient3012"/>
  <linearGradient id="linearGradient3176" x1="0" y1="0" x2="1" y2="0" xlink:href="#linearGradient3012"/>
  <linearGradient id="linearGradient3177" x1="0.076191" y1="0.953125" x2="0.72381" y2="0.171875" xlink:href="#linearGradient3178"/>
  <linearGradient id="linearGradient3206" x1="-1.2128" y1="2.13172" x2="0.921533" y2="0.375813" xlink:href="#linearGradient3042"/>
  <linearGradient id="linearGradient3207" gradientTransform="scale(0.941732 1.06187)" x1="0.120928" y1="0.867933" x2="1.76544" y2="-0.485001" xlink:href="#linearGradient3042"/>
  <linearGradient id="linearGradient3208" gradientTransform="scale(0.941732 1.06187)" x1="0.120928" y1="1.82031" x2="1.76544" y2="0.467377" xlink:href="#linearGradient3042"/>
  <linearGradient id="linearGradient3209" x1="-1.2128" y1="1.13499" x2="0.921533" y2="-0.62091" xlink:href="#linearGradient3042"/>
  <linearGradient id="linearGradient3210" x1="0" y1="0" x2="0.999999" y2="0" xlink:href="#linearGradient3042"/>
  <linearGradient id="linearGradient3211" x1="1.66666" y1="0.414062" x2="-4.26666" y2="0.34375" xlink:href="#linearGradient650"/>
  <linearGradient id="linearGradient3212" x1="0" y1="0" x2="1" y2="0" xlink:href="#linearGradient3042"/>
  <linearGradient id="linearGradient3213" xlink:href="#linearGradient3178"/>
  <linearGradient id="linearGradient3214" x1="0.080925" y1="0.078125" x2="0.867052" y2="0.921875" xlink:href="#linearGradient3178"/>
  <linearGradient id="linearGradient3215" x1="-2.35686" y1="1.47299" x2="0.675142" y2="-0.201766" xlink:href="#linearGradient3042"/>
  <linearGradient id="linearGradient3216" gradientTransform="scale(0.456186 -2.19209)" x1="-0.086846" y1="1.73776" x2="3.15556" y2="-0.053216" xlink:href="#linearGradient3042"/>
  <linearGradient id="linearGradient3217" gradientTransform="scale(0.456186 2.19209)" x1="-0.100556" y1="0.351711" x2="3.14185" y2="-1.43927" xlink:href="#linearGradient3042"/>
  <linearGradient id="linearGradient3218" x1="-0.856079" y1="-2.38597" x2="2.378" y2="-0.679446" xlink:href="#linearGradient3042"/>
  <linearGradient id="linearGradient3219" gradientTransform="scale(0.999999 -1)" x1="-0.860124" y1="-0.918725" x2="2.37396" y2="0.787799" xlink:href="#linearGradient3042"/>
  <linearGradient id="linearGradient3220" x1="-0.596998" y1="0.578124" x2="2.34328" y2="0.671875" xlink:href="#linearGradient3042"/>
  <linearGradient id="linearGradient3221" x1="0" y1="0" x2="1" y2="0" xlink:href="#linearGradient3012"/>
  <linearGradient id="linearGradient3222" x1="0.084509" y1="0.96875" x2="0.929581" y2="0.007812" xlink:href="#linearGradient3178"/>
  <linearGradient id="linearGradient3224" spreadMethod="reflect" x1="-0.373311" y1="0.962685" x2="-0.319998" y2="0.425373" xlink:href="#linearGradient3225"/>
  <linearGradient id="linearGradient3228" x1="-0.880541" y1="0.984397" x2="2.10448" y2="-0.039062" xlink:href="#linearGradient650"/>
  <linearGradient id="linearGradient3229" x1="0" y1="0" x2="1" y2="0" xlink:href="#linearGradient3012"/>
  <linearGradient id="linearGradient3230" x1="0" y1="0" x2="1" y2="0" xlink:href="#linearGradient3012"/>
  <linearGradient id="linearGradient3231" x1="-0.124289" y1="0.773397" x2="2.40679" y2="0.570311" xlink:href="#linearGradient650"/>
  <linearGradient id="linearGradient3232" x1="-0.333335" y1="0.28125" x2="0.866665" y2="0.742188" xlink:href="#linearGradient650"/>
  <linearGradient id="linearGradient3233" x1="0" y1="0" x2="1" y2="0" xlink:href="#linearGradient3012"/>
  <linearGradient id="linearGradient3234" x1="0" y1="0" x2="1" y2="0" xlink:href="#linearGradient3012"/>
  <linearGradient id="linearGradient3235" x1="0.370558" y1="0.40625" x2="1.77157" y2="0.453125" xlink:href="#linearGradient650"/>
  <linearGradient id="linearGradient3236" x1="0" y1="0" x2="1" y2="0" xlink:href="#linearGradient3012"/>
  <linearGradient id="linearGradient3237" x1="-0.380952" y1="0.96875" x2="1.52381" y2="0.234375" xlink:href="#linearGradient3012"/>
  <linearGradient id="linearGradient3238" x1="0.029739" y1="0.860654" x2="2.13011" y2="0.188523" xlink:href="#linearGradient650"/>
  <linearGradient id="linearGradient3239" x1="1.43923" y1="0.546871" x2="-0.093462" y2="0.515624" xlink:href="#linearGradient3012"/>
  <linearGradient id="linearGradient3240" gradientTransform="translate(-3.76605e-006 -1.91212e-007)" x1="2.16101" y1="0.453111" x2="-0.064522" y2="0.476561" xlink:href="#linearGradient650"/>
  <linearGradient id="linearGradient3241" gradientTransform="translate(-1.73822e-006 2.54332e-007)" x1="1.78939" y1="0.523448" x2="0.140349" y2="0.554688" xlink:href="#linearGradient650"/>
  <linearGradient id="linearGradient3242" x1="0" y1="0" x2="0.999999" y2="0" xlink:href="#linearGradient3012"/>
  <linearGradient id="linearGradient3243" x1="0" y1="0" x2="1" y2="0" xlink:href="#linearGradient3012"/>
  <linearGradient id="linearGradient3244" x1="0" y1="0" x2="1" y2="0" xlink:href="#linearGradient3012"/>
  <linearGradient id="linearGradient3245" x1="0.029748" y1="-0.013154" x2="1.76208" y2="0.039474" xlink:href="#linearGradient650"/>
  <linearGradient id="linearGradient3246" gradientTransform="scale(1)" spreadMethod="reflect" x1="0.480875" y1="0.366431" x2="0.644805" y2="0.603056" xlink:href="#linearGradient3012"/>
  <linearGradient id="linearGradient3247" xlink:href="#linearGradient3225"/>
  <linearGradient id="linearGradient3248" gradientTransform="translate(9.47384e-007 1.87123e-006)" x1="0.375709" y1="0.071597" x2="1.01116" y2="1.17858" xlink:href="#linearGradient650"/>
  <linearGradient id="linearGradient3249" gradientTransform="translate(-1.03672e-007 2.77896e-006)" x1="0.286241" y1="-1.72211" x2="0.706319" y2="2.11111" xlink:href="#linearGradient650"/>
  <linearGradient id="linearGradient3250" gradientTransform="scale(1.00001)" x1="-0.326483" y1="0.054712" x2="1.48299" y2="0.42969" xlink:href="#linearGradient650"/>
  <linearGradient id="linearGradient3251" x1="0" y1="0" x2="1" y2="0" xlink:href="#linearGradient3012"/>
  <linearGradient id="linearGradient3252" x1="0" y1="0" x2="1" y2="0" xlink:href="#linearGradient3042"/>
  <linearGradient id="linearGradient3253" x1="-0.247788" y1="0.398437" x2="3.04425" y2="0.515625" xlink:href="#linearGradient650"/>
  <linearGradient id="linearGradient3254" xlink:href="#linearGradient3225"/>
  <linearGradient id="linearGradient3255" gradientTransform="translate(-1.29641e-006 -2.1731e-008)" x1="-8.57143" y1="0.523437" x2="12.1429" y2="0.492187" xlink:href="#linearGradient650"/>
  <linearGradient id="linearGradient3257" spreadMethod="reflect" x1="0.527883" y1="0.008001" x2="0.531599" y2="0.488" xlink:href="#linearGradient3258"/>
  <linearGradient id="linearGradient3261" x1="0.171434" y1="0.4375" x2="-0.085714" y2="0.414063" xlink:href="#linearGradient3258"/>
  <linearGradient id="linearGradient3262" x1="0" y1="0" x2="1" y2="0" xlink:href="#linearGradient3042"/>
  <linearGradient id="linearGradient3263" x1="-0.4" y1="0.390625" x2="3.6" y2="0.265625" xlink:href="#linearGradient650"/>
  <linearGradient id="linearGradient3264" x1="0" y1="0" x2="1" y2="0" xlink:href="#linearGradient3042"/>
  <linearGradient id="linearGradient3265" x1="0.501863" y1="0.581093" x2="0.249071" y2="0.459459" xlink:href="#linearGradient3258"/>
  <linearGradient id="linearGradient3266" x1="0" y1="0" x2="1" y2="0" xlink:href="#linearGradient3042"/>
  <linearGradient id="linearGradient3267" x1="1.02092" y1="0.921874" x2="0.506276" y2="0.078125" xlink:href="#linearGradient3258"/>
  <linearGradient id="linearGradient3268" x1="0" y1="0" x2="1" y2="0" xlink:href="#linearGradient3042"/>
  <linearGradient id="linearGradient3269" x1="0.040338" y1="-0.989871" x2="0.944823" y2="0.229727" xlink:href="#linearGradient3258"/>
  <linearGradient id="linearGradient3270" gradientTransform="scale(1.02884 0.971966)" x1="0.054432" y1="0.0596" x2="0.89421" y2="1.19195" xlink:href="#linearGradient3258"/>
  <linearGradient id="linearGradient3271" x1="1.14801" y1="-0.947351" x2="0.375164" y2="0.18638" xlink:href="#linearGradient3012"/>
  <linearGradient id="linearGradient3272" gradientTransform="scale(1.02884 0.971966)" x1="1.08286" y1="0.099078" x2="0.365304" y2="1.1517" xlink:href="#linearGradient3012"/>
  <linearGradient id="linearGradient3316" gradientTransform="translate(1.02481e-006 1.86041e-007)" x1="0" y1="0" x2="1" y2="0" xlink:href="#linearGradient3012"/>
  <linearGradient id="linearGradient3317" gradientTransform="scale(0.902464 1.10808)" x1="0.633361" y1="-0.629216" x2="1.34481" y2="-0.629216" xlink:href="#linearGradient3012"/>
  <linearGradient id="linearGradient3318" x1="0" y1="0" x2="0.999999" y2="0" xlink:href="#linearGradient3012"/>
  <linearGradient id="linearGradient3319" x1="0.974684" y1="0.422078" x2="-0.025316" y2="0.402597" xlink:href="#linearGradient3012"/>
  <linearGradient id="linearGradient3322" gradientTransform="translate(-1.50528e-006 3.09506e-007)" x1="-0.405092" y1="0.132815" x2="1.96202" y2="0.953125" xlink:href="#linearGradient3034"/>
  <linearGradient id="linearGradient3323" x1="1.22857" y1="0.474026" x2="-0.342857" y2="0.474026" xlink:href="#linearGradient3012"/>
  <linearGradient id="linearGradient3459" gradientTransform="scale(1.50828 0.663008)" x1="-0.015053" y1="2.44303" x2="-0.035146" y2="0" xlink:href="#linearGradient3225"/>
  <linearGradient id="svg_49" spreadMethod="reflect" x1="-0.373311" y1="0.037315" x2="-0.319998" y2="0.574627" xlink:href="#linearGradient3225"/>
  <linearGradient id="svg_50" x1="1.66666" y1="0.585938" x2="-4.26666" y2="0.65625" xlink:href="#linearGradient650"/>
  <linearGradient id="svg_51" x1="0" y1="1" x2="0.999999" y2="1" xlink:href="#linearGradient3042"/>
  <linearGradient id="svg_52" x1="0.084509" y1="0.03125" x2="0.929581" y2="0.992188" xlink:href="#linearGradient3178"/>
  <linearGradient id="svg_53" x1="0" y1="1" x2="1" y2="1" xlink:href="#linearGradient3012"/>
  <linearGradient id="svg_54" x1="-0.856079" y1="3.38597" x2="2.378" y2="1.67945" xlink:href="#linearGradient3042"/>
  <linearGradient id="svg_55" gradientTransform="scale(0.456186 -2.19209)" x1="-0.086846" y1="-0.737763" x2="3.15556" y2="1.05322" xlink:href="#linearGradient3042"/>
  <linearGradient id="svg_56" gradientTransform="scale(0.999999 -1)" x1="-0.860124" y1="1.91873" x2="2.37396" y2="0.212201" xlink:href="#linearGradient3042"/>
  <linearGradient id="svg_57" x1="-0.124289" y1="0.226603" x2="2.40679" y2="0.429689" xlink:href="#linearGradient650"/>
  <linearGradient id="svg_58" x1="0" y1="1" x2="1" y2="1" xlink:href="#linearGradient3012"/>
  <linearGradient id="svg_59" gradientTransform="scale(0.456186 2.19209)" x1="-0.100556" y1="0.648289" x2="3.14185" y2="2.43927" xlink:href="#linearGradient3042"/>
  <linearGradient id="svg_60" x1="-1.2128" y1="-0.134992" x2="0.921533" y2="1.62091" xlink:href="#linearGradient3042"/>
  <linearGradient id="svg_61" gradientTransform="scale(0.941732 1.06187)" x1="0.120928" y1="0.132067" x2="1.76544" y2="1.485" xlink:href="#linearGradient3042"/>
  <linearGradient id="svg_62" x1="-1.2128" y1="-1.13172" x2="0.921533" y2="0.624187" xlink:href="#linearGradient3042"/>
  <linearGradient id="svg_63" gradientTransform="scale(0.941732 1.06187)" x1="0.120928" y1="-0.820311" x2="1.76544" y2="0.532623" xlink:href="#linearGradient3042"/>
  <linearGradient id="svg_64" x1="-0.596998" y1="0.421876" x2="2.34328" y2="0.328125" xlink:href="#linearGradient3042"/>
  <linearGradient id="svg_65" x1="-2.35686" y1="-0.47299" x2="0.675142" y2="1.20177" xlink:href="#linearGradient3042"/>
  <linearGradient id="svg_66" x1="0.076191" y1="0.046875" x2="0.72381" y2="0.828125" xlink:href="#linearGradient3178"/>
  <linearGradient id="svg_67" x1="0" y1="1" x2="1" y2="1" xlink:href="#linearGradient3042"/>
  <linearGradient id="svg_68" x1="0.080925" y1="0.921875" x2="0.867052" y2="0.078125" xlink:href="#linearGradient3178"/>
  <linearGradient id="svg_69" y1="1" y2="1" xlink:href="#linearGradient3178"/>
  <linearGradient id="svg_70" x1="0.370558" y1="0.59375" x2="1.77157" y2="0.546875" xlink:href="#linearGradient650"/>
  <linearGradient id="svg_71" x1="0" y1="1" x2="1" y2="1" xlink:href="#linearGradient3012"/>
  <radialGradient id="svg_72" cx="0.50385" cy="0.484433" r="0.89979" fx="0.50385" fy="0.484433" xlink:href="#linearGradient3061"/>
  <pattern id="gridpattern" patternUnits="userSpaceOnUse" x="0" y="0" width="100" height="100">
   <image x="0" y="0" width="100" height="100"/>
  </pattern>
  <linearGradient id="svg_95" x1="0.570313" y1="0" x2="0.40625" y2="1">
   <stop stop-color="#303030" stop-opacity="0.992188" offset="0"/>
   <stop stop-color="#7a7a7a" stop-opacity="0.996094" offset="1"/>
  </linearGradient>
  <linearGradient id="svg_1" x1="0.53125" y1="0" x2="0.492188" y2="1">
   <stop stop-color="#000000" stop-opacity="0.97" offset="0.019531"/>
   <stop stop-color="#b5b1ab" stop-opacity="0.96" offset="0.972656"/>
  </linearGradient>
 </defs>
 <g>
  <title>Layer 1</title>
  <path id="path4177" fill="#000000" fill-rule="evenodd" stroke-width="0.781433" d="m324.33197,281.999634l0,0l0,0l0,0l0,0l0,0l0,0zm-0.298004,-253.220947l0,0l0,0l0,0l0,0l0,0l0,0zm251.959991,-14.919006c66.942017,0.021973 86.049011,62.497986 86.049011,141.447998l0,0l0,0l0,0c0,78.94696 -16.474976,132.834961 -80.440979,140.528015c-25.492004,2.886963 -41.395996,0.672974 -63.460999,1.373962c-32.203003,-0.395996 -45.919006,0.692017 -63.247009,-3.430969c-18.763,-3.856018 -70.317017,2.453003 -176.583008,3.421997c0,-2.952026 0,0 -0.424988,-0.203003c-13.072021,0.516968 -158.224998,-3.367004 -188.073006,-4.630005c0,0 0,0 -2.197998,-1.023987c-67.363701,-2.638 -72.502899,-63.776001 -74.486397,-67.069031c-12.937302,-39.729004 -12.793304,-51.739014 -12.793304,-68.401978c0,-16.664001 -0.143997,-29.488037 12.695404,-69.093018c1.885498,-3.166992 6.922401,-64.70697 75.283302,-67.447998c30.843994,-1.367981 176.201973,-6.072998 189.946999,-5.607971c106.936981,0.918945 158.798981,6.509949 177.169006,2.523987c16.937012,-4.251038 30.652954,-3.157043 62.855957,-3.55603c22.065002,0.697021 32.960022,-1.615967 57.708008,1.16803l0,0z"/>
  <path id="path4178" fill="url(#svg_1)" fill-rule="evenodd" stroke="url(#linearGradient3125)" stroke-width="0.781433" d="m235.35199,153.70166c0.42099,18.304993 1.171997,96.830017 47.648987,116.229004c-23.473999,8.85498 -162.486992,1.687988 -243.730995,-28.677979c-14.665802,-26.142029 -19.396996,-67.983032 -19.607796,-86.57605c-0.210899,-18.59198 4.520401,-60.430969 19.185799,-86.574951c81.244995,-30.362 220.258003,-37.531006 243.730995,-28.674011c-46.477982,19.395996 -47.22699,97.921997 -47.22699,114.273987l0,0l0,0z"/>
  <path id="path4179" fill="url(#linearGradient3267)" fill-rule="evenodd" stroke="url(#linearGradient3268)" stroke-width="0.781433" d="m509.81897,65.253662l-56.268005,-19.885986l0.859009,-9.007019l14.733032,1.776001l45.421997,16.947998l-4.52002,0.226013l-0.226013,9.942993l0,0l0,0l0,0z"/>
  <path id="path4180" fill="#000000" fill-rule="evenodd" stroke="url(#linearGradient3071)" stroke-width="0.781433" d="m299.303986,36.511658c-3.037018,0 -15.307007,-13.252991 -17.007996,-15.513977c-2.423004,-3.571045 -4.21701,-4.218018 -4.21701,-7.169006c106.264984,0.968018 161.294983,6.661011 179.427979,2.950989c8.222046,3.163025 5.059998,6.958008 3.373047,22.560974c-2.530029,2.193054 -17.83606,-0.210999 -20.873016,-0.210999c-49.759003,0 -86.024017,-2.31897 -135.78302,-2.31897l-4.919983,-0.299011l0,0z"/>
  <path id="path4181" fill="#000000" fill-rule="evenodd" stroke="url(#linearGradient3055)" stroke-width="0.781433" d="m299.451965,36.511658c-3.03598,0 -15.260986,-13.411987 -17.155975,-15.513977c-2.870026,-2.975037 152.439972,1.601013 179.850006,1.263977c1.474976,4.005981 0.420959,1.476013 -1.265991,17.078979c-2.530029,2.193054 -17.83606,-0.210999 -20.873016,-0.210999c-49.759003,0 -86.024017,-2.31897 -135.78302,-2.31897l0,0l-4.772003,-0.299011l0,0z"/>
  <path id="path4182" fill="url(#linearGradient3047)" fill-rule="evenodd" stroke="url(#linearGradient3104)" stroke-width="0.781433" d="m433.231964,25.158691c-1.320984,0 -8.348999,-0.766052 -8.348999,-2.087036l0,-0.89502c0,-1.320984 1.362,-2.086975 2.684021,-2.086975l26.835968,0.297974c1.321045,0 2.683044,0.468018 2.683044,1.789001l0,0.89502c0,1.320984 -3.151001,2.087036 -4.473022,2.087036l-19.381012,0l0,0z"/>
  <path id="path4183" fill="url(#linearGradient3173)" fill-rule="evenodd" stroke="url(#linearGradient3172)" stroke-width="0.781433" d="m335.593964,43.554688c-1.817993,0 -31.177979,-4.729004 -29.360992,-4.729004c37.372009,0 108.063019,-1.231018 144.317017,0.64801c2.708984,0.117981 3.390015,3.297974 2.981018,5.067993c-1.788025,8.050964 -5.048035,7.320007 -6.857056,7.156982c-36.477966,-3.578003 -69.369965,10.815002 -101.803986,-3.927002l-9.276001,-4.21698l0,0z"/>
  <path id="path4184" fill="#000000" fill-rule="evenodd" stroke="url(#linearGradient3073)" stroke-width="0.781433" d="m460.658997,35.887634c24.747986,0.696045 51.583984,-1.888977 76.034973,13.41803c20.622986,-8.846008 64.802002,8.547974 95.862,16.398987c-1.987,-7.752014 -10.387024,-14.460999 -7.304993,-22.362976c0.994019,-0.64502 1.541016,-2.632996 4.770996,-0.596008c-5.765015,-10.734985 -29.122009,-18.487 -45.919006,-26.835022c-24.747986,-2.782959 -44.130005,-1.391968 -66.19397,-2.087952c-32.203003,0.397949 -45.919006,-0.695007 -62.617004,3.279968c5.367004,1.491028 8.646973,4.770996 5.367004,18.784973l0,0l0,0l0,0z"/>
  <path id="path4185" fill="url(#linearGradient3459)" fill-rule="evenodd" stroke="url(#linearGradient3056)" stroke-width="0.781433" d="m460.658997,35.887634c24.747986,0.696045 51.583984,-1.888977 76.034973,13.41803c20.622986,-8.846008 64.802002,8.547974 95.862,16.398987c-1.987,-7.752014 -5.914001,-12.671997 -10.585022,-18.188965c-21.368958,-8.098999 -78.418945,-22.263 -100.483948,-22.959045c-22.513,-0.197998 -52.255005,-2.235962 -60.269043,-2.757996c1.325012,2.650024 1.080994,7.082031 -0.55896,14.088989l0,0l0,0l0,0l0,0l0,0l0,0l0,0l0,0z"/>
  <path id="path4186" fill="url(#linearGradient3174)" fill-rule="evenodd" stroke="url(#linearGradient3175)" stroke-width="0.781433" d="m345.291962,46.927673c-1.815979,0 -11.358978,-8.945984 -9.541992,-8.945984c37.372009,0 78.546021,-0.387024 114.800018,1.492004c2.708984,0.117981 3.390015,3.297974 2.981018,5.067993c-1.788025,8.050964 -5.048035,7.320007 -6.857056,7.156982c-36.477966,-3.578003 -64.008972,-4.770996 -101.381989,-4.770996l0,0z"/>
  <path id="path4187" fill="url(#linearGradient3270)" fill-rule="evenodd" stroke="url(#linearGradient3272)" stroke-width="0.781433" d="m458.295959,54.858643l0,-3.841003l12.655029,0l-0.226013,-5.42395l-16.044983,0c0,0 -1.807007,9.039001 3.615967,9.264954z"/>
  <path id="path4188" fill="url(#linearGradient3269)" fill-rule="evenodd" stroke="url(#linearGradient3271)" stroke-width="0.781433" d="m454.906006,45.819641l4.292969,0.226013l0.226013,-2.033997l9.94397,0l1.130005,-4.518982l-2.26001,-1.807983l-5.875977,0l-0.452026,3.162964l-7.230957,0.452026l0.226013,4.519958z"/>
  <path id="path4189" fill="url(#linearGradient3265)" fill-rule="evenodd" stroke="url(#linearGradient3266)" stroke-width="0.781433" d="m465.274963,36.515686l49.855042,18.855957l27.484985,2.236023l-12.14502,-9.268005l-33.557007,-10.226013l-31.638,-1.597961z"/>
  <path id="path4190" fill="url(#linearGradient3140)" fill-rule="evenodd" stroke="url(#linearGradient3144)" stroke-width="0.781433" d="m286.089966,43.977661l-3.372986,-3.585022l16.023987,-4.005981l66.837006,17.078979l-2.740997,7.379028c-25.161011,-9.41803 -50.743011,-12.721008 -76.747009,-16.867004l0,0z"/>
  <path id="path4191" fill="url(#linearGradient3112)" fill-rule="evenodd" stroke="url(#linearGradient3113)" stroke-width="0.781433" d="m304.223969,36.810669c-3.037994,0 18.972992,-3.169006 30.994019,-3.163025c4.132996,0.074036 93.824982,0.335999 125.662018,2.108032c0.632996,0.843018 0.421997,2.742004 0,3.584961c-2.530029,2.193054 -17.83606,-0.210999 -20.873016,-0.210999c-49.759003,0 -86.024017,-2.31897 -135.78302,-2.31897l0,0l0,0l0,0z"/>
  <path id="path4192" fill="url(#linearGradient3102)" fill-rule="evenodd" stroke="url(#linearGradient3103)" stroke-width="0.781433" d="m299.200989,36.340637c15.007996,-1.540955 23.040985,-1.315002 24.89798,-7.304993c7.757019,-25.988953 7.85202,-28.92395 26.835999,-28.625977l-11.628998,32.502014c-2.881989,-0.100037 -6.062988,0.098999 -6.858002,3.279968l11.628998,11.032043l-44.875977,-10.883057l0,0z"/>
  <path id="path4193" fill="url(#linearGradient3100)" fill-rule="evenodd" stroke="url(#linearGradient3101)" stroke-width="0.781433" d="m324.098969,29.035645c7.757019,-25.988953 7.85202,-28.92395 26.835999,-28.625977l-11.628998,32.502014c-2.881989,-0.100037 -6.062988,0.098999 -6.858002,3.279968c0,0 -10.205994,-1.166016 -8.348999,-7.156006l0,0z"/>
  <path id="path4194" fill="url(#linearGradient3267)" fill-rule="evenodd" stroke="url(#linearGradient3268)" stroke-width="0.781433" d="m510.106995,246.006653l-56.268005,19.887024l0.859009,9.011963l14.732971,-1.779968l45.421997,-16.945007l-4.52002,-0.231018l-0.225952,-9.942993l0,0l0,0l0,0z"/>
  <rect id="rect4195" fill="url(#linearGradient3257)" fill-rule="evenodd" transform="matrix(0.922418,0,0,0.922418,55.0552,-125.452) " x="337.369482" y="270.707756" width="157.332" height="72.9209"/>
  <path id="path4196" fill="url(#linearGradient3235)" fill-rule="evenodd" stroke="url(#linearGradient3234)" stroke-width="0.781433" d="m371.874969,140.307678l35.70401,2.485962c3.84201,-0.678955 -2.710999,-2.711975 17.174988,-2.485962c2.710999,0 29.828979,-1.130005 35.479004,-1.356018c16.872009,-2.26001 29.450989,-8.135986 45.872009,-9.492004c1.054993,-23.274963 1.432007,-42.257996 3.84198,-65.758972l-38.641968,-14.237l-105.30603,-0.226013l8.136017,9.71698l-2.26001,81.353027l0,0z"/>
  <path id="path4197" fill="url(#linearGradient3214)" fill-rule="evenodd" stroke="url(#linearGradient3213)" stroke-width="0.781433" d="m371.871979,137.817688c0,0 46.552002,1.807983 56.494995,1.355957c9.942017,-0.451965 52.878021,-4.971985 54.686005,-26.664978c1.807983,-21.694031 1.356018,-30.733032 1.356018,-30.733032c0.902954,-17.17395 -29.377014,-26.664978 -46.552032,-26.212952c-17.173981,0.450989 -9.037994,9.941956 -9.037994,9.941956l-56.946991,72.313049l0,0z"/>
  <path id="path4198" fill="url(#linearGradient3032)" fill-rule="evenodd" stroke="url(#linearGradient3098)" stroke-width="0.781433" d="m19.662186,155.712646c-0.210899,18.593994 4.520401,60.434998 19.186798,86.575989c-5.226997,0.240051 -22.157997,-12.267944 -25.818199,-18.133972c-12.784004,-39.377991 -12.639999,-52.310974 -12.639999,-68.658997m19.2714,0.180969c-0.210899,-18.59198 4.520401,-60.430969 19.186798,-86.574951c-5.226997,-0.247009 -22.157997,12.264954 -25.818199,18.138c-12.784004,39.375977 -12.639999,52.302002 -12.639999,68.654968l0,0"/>
  <path id="path4199" fill="#000000" fill-rule="evenodd" stroke="url(#linearGradient3091)" stroke-width="0.781433" d="m235.35199,154.70166c0.42099,18.304993 1.171997,96.830017 47.648987,116.229004c0.984009,0.838989 7.029999,-2.536987 2.95401,-4.216003c-42.919006,-19.822998 -42.589981,-94.132996 -42.80101,-112.723999c-0.211014,-18.593018 0.304001,-82.781006 41.535995,-110.190002c5.341003,-5.481995 -2.812988,-3.372986 -2.110992,-3.372986c-46.476974,19.395996 -47.22699,97.921997 -47.22699,114.273987l0,0l0,0l0,0z"/>
  <rect id="rect4200" fill="none" fill-rule="evenodd" stroke="url(#linearGradient3139)" stroke-width="0.781433" transform="matrix(0.922418,0,0,0.922418,55.0552,-125.452) " x="155.244482" y="261.277756" width="5.81856" height="4.20228"/>
  <rect id="rect4201" fill="none" fill-rule="evenodd" stroke="url(#linearGradient3138)" stroke-width="0.781431" transform="matrix(0.922418,0,0,0.922418,55.0552,-125.452) " x="155.244482" y="343.377756" width="5.81855" height="4.20227"/>
  <path id="path4202" fill="none" fill-rule="evenodd" stroke="url(#linearGradient3038)" stroke-linecap="square" stroke-linejoin="round" stroke-width="0.976792" d="m14.281883,96.464661c-0.577003,0 -2.333298,3.354004 -2.619301,4.659973c-2.7229,7.723022 -3.552299,13.298035 -4.938896,21.272034c-0.597099,5.799011 -4.487106,28.994019 -4.684105,30.598999c0.121704,0.974976 0.891998,-0.325989 0.998901,-0.492981c2.563301,-4 2.389999,-9.079041 3.336304,-13.664001c1.369896,-6.783997 2.688599,-17.153992 4.941895,-26.205017c2.408005,-9.822021 6.203903,-20.356018 2.368805,-19.744995"/>
  <path id="path4203" fill="none" fill-rule="evenodd" stroke="url(#linearGradient3039)" stroke-linecap="square" stroke-linejoin="round" stroke-width="0.976792" d="m14.281883,214.478638c-0.577003,0 -2.333298,-3.348999 -2.619301,-4.658997c-2.7229,-7.719971 -3.552299,-13.300964 -4.938896,-21.270996c-0.597099,-5.802002 -4.487106,-28.992981 -4.684105,-30.597961c0.121704,-0.975037 0.891998,0.324951 0.998901,0.492004c2.563301,4.000977 2.389999,9.080994 3.336304,13.669006c1.369896,6.779968 2.688599,17.147949 4.941895,26.205994c2.408005,9.813965 6.203903,20.347961 2.368805,19.738953"/>
  <path id="path4204" fill="url(#linearGradient3040)" fill-rule="evenodd" stroke="url(#linearGradient3099)" stroke-width="0.781433" d="m38.847984,242.288635c3.946999,9.963013 10.077995,33.02301 48.822998,49.285034c-67.364098,-2.638 -72.810097,-64.486023 -74.640198,-67.419006"/>
  <path id="path4205" fill="url(#linearGradient3033)" fill-rule="evenodd" stroke="#ffff00" stroke-width="0.781433" d="m38.847984,242.288635c3.946999,9.963013 10.077995,33.02301 48.822998,49.285034c-57.822601,-16.658997 -62.374001,-54.643982 -64.204002,-57.585999"/>
  <path id="path4206" fill="url(#radialGradient3037)" fill-rule="evenodd" d="m36.793983,258.901672c0.002998,-2.601013 -2.100998,-4.703979 -4.695999,-4.703979c-2.595604,0 -4.698898,2.102966 -4.696503,4.703979c-0.002396,2.59198 2.100899,4.695007 4.696503,4.695007c2.595001,0 4.698997,-2.103027 4.695999,-4.695007l0,0z"/>
  <path id="path4207" fill="#000000" fill-rule="evenodd" stroke="url(#linearGradient3069)" stroke-width="0.781433" d="m299.02597,274.887634c-8.85498,-2.362 -14.429993,-3.541992 -16.024994,-3.95697c-23.473999,8.85498 -162.486992,1.687988 -243.730995,-28.677979c6.840004,25.513977 27.125,41.48999 50.598999,50.344971c29.847,1.264038 175.000984,5.147034 188.071999,4.630981c5.061005,-8.430969 13.072998,-16.022949 21.084991,-22.341003l0,0z"/>
  <path id="path4208" fill="url(#linearGradient3031)" fill-rule="evenodd" stroke="url(#linearGradient3068)" stroke-width="0.781433" d="m299.02597,274.887634c-8.85498,-2.362 -14.429993,-3.541992 -16.024994,-3.95697c-23.473999,8.85498 -162.486992,1.687988 -243.730995,-28.677979c2.202003,4.427002 4.354004,13.651001 10.117004,20.402954c59.787994,21.502014 136.627007,24.970032 233.193001,27.830017c8.011993,-8.015991 8.43399,-9.279968 16.445984,-15.598022l0,0l0,0z"/>
  <path id="path4209" fill="#000000" fill-rule="evenodd" stroke="url(#linearGradient3071)" stroke-width="0.781433" d="m299.59198,274.748657c-3.037018,0 -15.306,13.255005 -17.007996,15.515015c-2.423004,3.570007 -4.216003,4.216003 -4.216003,7.167969c106.264984,-0.968994 161.294983,-6.659973 179.427002,-2.951965c8.223022,-3.164001 5.060974,-6.955017 3.373962,-22.562012c-2.529968,-2.187012 -17.836975,0.211975 -20.873962,0.211975c-49.759003,0 -86.024017,2.324036 -135.78302,2.324036l-4.919983,0.294983l0,0z"/>
  <path id="path4210" fill="url(#linearGradient3133)" fill-rule="evenodd" stroke="url(#linearGradient3132)" stroke-width="0.781433" d="m38.54998,68.947693c3.947006,-9.962036 10.078003,-33.02002 48.822998,-49.282043c-67.364395,2.639038 -72.810295,64.484009 -74.640396,67.421021"/>
  <path id="path4211" fill="url(#linearGradient3134)" fill-rule="evenodd" stroke="#ffff00" stroke-width="0.781433" d="m38.54998,68.947693c3.947006,-9.962036 10.078003,-33.02002 48.822998,-49.282043c-57.822792,16.653015 -62.374191,54.64502 -64.204292,57.582031"/>
  <path id="path4212" fill="url(#svg_72)" fill-rule="evenodd" d="m36.495987,52.338684c0.001999,2.593994 -2.101006,4.699951 -4.696007,4.699951c-2.595894,0 -4.699196,-2.105957 -4.696594,-4.699951c-0.002602,-2.596008 2.1007,-4.702026 4.696594,-4.702026c2.595001,0 4.698006,2.106018 4.696007,4.702026l0,0z"/>
  <path id="path4213" fill="#000000" fill-rule="evenodd" stroke="url(#linearGradient3131)" stroke-width="0.781433" d="m296.727966,37.353638c-8.855988,2.360046 -14.429993,3.53302 -16.024994,3.955017c-23.473999,-8.85498 -162.487984,-1.687012 -243.73098,28.674988c6.840004,-25.513 27.124985,-41.487 50.598984,-50.34198c29.847,-1.265015 175.000008,-5.151978 188.073006,-4.637024c5.059998,8.434021 13.071991,16.024048 21.083984,22.348999l0,0z"/>
  <path id="path4214" fill="#000000" fill-rule="evenodd" stroke="url(#linearGradient3127)" stroke-width="0.781433" d="m298.727966,36.353638c-8.855988,2.360046 -14.429993,3.53302 -16.024994,3.955017c-23.473999,-8.85498 -162.487984,-1.687012 -243.73098,28.674988c2.202003,-4.428955 4.354004,-13.656006 10.117004,-20.401978c59.787003,-21.505981 136.626976,-24.971008 233.192986,-27.830994c8.011993,8.013 8.43399,9.278015 16.445984,15.602966l0,0l0,0z"/>
  <path id="path4215" fill="url(#linearGradient3065)" fill-rule="evenodd" stroke="url(#linearGradient3081)" stroke-width="0.781433" d="m298.18399,50.962646c-9.162018,0 -16.445007,3.911011 -24.457001,20.241028c-18.133026,29.237 -21.085022,133.533997 0,167.404968c9.276978,21.815002 19.089996,21.511047 28.673981,20.662048l17.931,-3.33905c1.244995,-10.284973 2.25,-20.873962 3.045013,-31.573975c0.794983,-10.700012 -0.825012,-18.403015 -5.175018,-29.877991c9.681,-9.64801 7.583008,-23.622986 7.654022,-33.916016c0.069977,-10.291992 -0.012024,-20.278015 -0.218018,-29.752014c-0.820984,-37.89801 -3.609985,-67.600952 -6.506989,-75.959961l-20.946991,-3.889038l0,0l0,0l0,0l0,0l0,0l0,0z"/>
  <path id="path4216" fill="url(#linearGradient3096)" fill-rule="evenodd" stroke="url(#linearGradient3097)" stroke-width="0.781433" d="m350.627991,212.753662c0,7.572998 -1.869019,13.716003 -4.174011,13.716003c-2.306,0 -18.188995,2.5 -18.487,-15.210999c1.192993,-17.710022 16.181,-12.221985 18.487,-12.221985c2.304993,0 4.174011,6.133972 4.174011,13.71698l0,0z"/>
  <path id="path4217" fill="url(#linearGradient3094)" fill-rule="evenodd" stroke="url(#linearGradient3095)" d="m350.627991,212.753662c0,-7.583008 -1.869019,-13.71698 -4.174011,-13.71698c-2.306,0 -4.175018,6.133972 -4.175018,13.71698c0,7.572998 1.869019,13.716003 4.175018,13.716003c2.304993,0 4.174011,-6.143005 4.174011,-13.716003l0,0z"/>
  <path id="path4218" fill="#000080" fill-rule="evenodd" d="m350.627991,212.59668c0,-3.53302 -1.268005,-6.411011 -2.833008,-6.411011c-1.563995,0 -2.832001,2.877991 -2.832001,6.411011c0,3.541992 1.268005,6.411011 2.832001,6.411011c1.565002,0 2.833008,-2.869019 2.833008,-6.411011l0,0z"/>
  <path id="path4219" fill="url(#linearGradient3084)" fill-rule="evenodd" stroke="url(#linearGradient3089)" stroke-width="0.781433" d="m318.119965,193.529663l17.443024,6.559021l-0.447021,20.72699l-15.505005,5.810974l-7.006989,-17.14801l5.515991,-15.948975z"/>
  <path id="path4221" fill="url(#linearGradient3086)" fill-rule="evenodd" stroke="url(#linearGradient3088)" stroke-width="0.781433" d="m319.020966,211.111694c0,12.267944 -3.460999,17.737976 -12.075989,21.915955c-8.31601,0 -18.93399,-9.352966 -18.93399,-21.620972c0,-12.268005 12.108978,-19.832031 20.424988,-19.832031c5.632996,2.093994 10.584991,7.269043 10.584991,19.537048l0,0z"/>
  <path id="path4222" fill="url(#linearGradient3082)" fill-rule="evenodd" stroke="url(#linearGradient3083)" stroke-width="0.781433" d="m284.432983,211.406677c-0.212006,10.562012 13.126007,26.924988 21.86499,25.651978c4.589996,-0.654968 2.63501,-4.437012 0.647003,-4.031006c-8.31601,0 -18.93399,-9.352966 -18.93399,-21.620972c0,-12.268005 12.108978,-19.832031 20.424988,-19.832031c2.18399,-1.27301 2.759003,-4.334961 0.653015,-4.445984c-13.133026,-0.674011 -24.235016,15.192017 -24.656006,24.278015l0,0l0,0l0,0z"/>
  <path id="path4223" fill="url(#linearGradient3085)" fill-rule="evenodd" stroke="url(#linearGradient3087)" stroke-width="0.781433" d="m319.020966,211.111694c0,12.267944 -3.460999,17.737976 -12.075989,21.915955c11.661011,0.591003 13.566986,-1.153015 13.714996,-21.768982c-0.14801,-21.067993 -3.992004,-21.768982 -12.223999,-19.684021c5.632996,2.093994 10.584991,7.269043 10.584991,19.537048l0,0l0,0l0,0z"/>
  <path id="path4224" fill="url(#linearGradient3092)" fill-rule="evenodd" stroke="url(#linearGradient3093)" stroke-width="0.781433" d="m337.65097,212.088684c0.520996,4.123962 2.282013,48.657959 12.242004,9.399963c0.006012,1.697021 0.231995,8.679993 -0.157013,11.263c-0.779999,5.174011 -2.829987,8.255005 -6.866974,8.18103c-8.076019,-0.147034 -10.139008,-12.054993 -10.139008,-28.401001c0,-16.335999 4.149994,-29.738037 14.462006,-30.033997l0.083984,2.703003c-8.123993,3.126953 -9.625,18.716003 -9.625,26.888l0,0l0,0l0,0l0,0l0,0z"/>
  <path id="path4225" fill="url(#linearGradient3066)" fill-rule="evenodd" stroke="url(#linearGradient3106)" stroke-width="0.781433" d="m342.909973,135.345642l0.381989,39.487c7.275024,0.028015 0.83902,24.093018 8.024017,60.824036l-1.686005,-149.27301c-2.539001,23.478027 0.588989,48.742981 -6.720001,48.961975l0,0z"/>
  <path id="path4226" fill="url(#linearGradient3067)" fill-rule="evenodd" stroke="url(#linearGradient3105)" stroke-width="0.781433" d="m325.872986,131.654663l0,47.107971l19.979004,-5.359985l0,-36.97699l-19.979004,-4.770996l0,0z"/>
  <path id="path4227" fill-rule="evenodd" stroke="url(#linearGradient3078)" stroke-width="0.781433" d="m326.17099,146.267639c-2.478027,0 -4.473022,1.994019 -4.473022,4.472046c0,2.981995 0,5.962952 0,8.945007c0,2.477966 1.994995,4.472961 4.473022,4.472961c4.969971,0 11.926971,-2.591003 15.504974,-4.770996c2.483002,-1.649963 2.262024,-7.002014 0,-8.945007c-3.578003,-2.776001 -10.535004,-4.174011 -15.504974,-4.174011l0,0l0,0z"/>
  <path id="path4228" fill="url(#linearGradient3080)" fill-rule="evenodd" stroke="url(#linearGradient3079)" stroke-width="0.781433" d="m338.097961,170.866638c0.522003,1.642029 3.280029,4.621033 4.473022,4.621033c1.320984,0 1.341003,-0.913025 1.341003,-2.231995c0,-11.53302 0,-23.062988 0,-34.592041c0,-1.32196 0.076996,-3.118958 -1.341003,-2.534973c-1.606995,0.786987 -3.389008,1.710999 -4.25,3.280029c-1.07901,2.042969 -0.675018,30.214966 -0.223022,31.457947l0,0z"/>
  <path id="path4229" fill="none" fill-rule="evenodd" stroke="url(#linearGradient3064)" stroke-width="0.781433" d="m269.508972,154.444641c1.972992,-91.870972 27.161011,-89.966003 49.337006,-97.408997c-5.968994,7.413025 -4.709991,65.506042 -4.639008,98.252014c0.069,31.914978 -3.557983,99.343018 5.061005,95.718018c-27.312988,0.276978 -51.321014,-23.419983 -49.759003,-96.561035l0,0z"/>
  <path id="path4230" fill="url(#linearGradient3077)" fill-rule="evenodd" stroke="url(#linearGradient3075)" stroke-width="0.781433" d="m266.492981,140.348694c0,2.692993 3.079987,7.883972 3.651001,-1.380005c0.324982,-5.032043 0.681,-9.727051 1.141998,-14.105042c0.92099,-8.755005 1.992004,-16.284973 3.645996,-22.674011c3.196014,-12.751953 10.691986,-23.409973 9.033997,-24.691956c-4.378998,-3.665039 -17.473999,37.18396 -17.472992,62.851013l0,0z"/>
  <path id="path4231" fill="url(#linearGradient3076)" fill-rule="evenodd" stroke="url(#linearGradient3074)" stroke-width="0.781433" d="m266.070984,169.719666c0,-2.692993 3.080994,-7.883972 3.651978,1.377014c0.324005,5.036987 0.680023,9.731995 1.141022,14.112976c0.92099,8.754028 1.992004,16.281006 3.645996,22.673035c3.195984,12.747986 10.692993,23.41095 9.033997,24.69397c-4.378998,3.661011 -17.472992,-37.192993 -17.472992,-62.856995l0,0z"/>
  <path id="path4232" fill="none" fill-rule="evenodd" stroke="url(#linearGradient3318)" stroke-width="0.781433" d="m630.610962,41.602661c0,0 -3.578003,-2.088013 -5.067993,0.893982c-1.492004,2.981995 -1.789978,2.981995 8.348999,25.644043c5.067993,11.329956 8.273987,18.112976 11.73999,25.865967c2.869995,15.80304 4.808044,48.677002 4.957031,61.499023c-0.148987,12.820984 -2.087036,45.698975 -4.957031,61.5c-3.466003,7.747986 -6.671997,14.536987 -11.73999,25.86499c-10.138977,22.664001 -9.841003,22.664001 -8.349976,25.643005c1.490967,2.979004 5.06897,0.89502 5.06897,0.89502"/>
  <path id="path4233" fill="#000000" fill-rule="evenodd" stroke="url(#linearGradient3176)" stroke-width="0.781433" d="m662.098999,155.539673c0,78.945984 -16.186035,132.537964 -84.32605,140.424988c14.307007,-1.742981 50.923035,-21.289001 53.236023,-26.703979c10.562988,-23.411011 20.351013,-73.332031 20.351013,-112.804993c0,-39.475037 -7.455017,-92.960022 -20.567993,-114.382019c-7.626038,-11.697021 -25.554016,-17.575012 -46.512024,-27.117981c61.314026,4.362 77.819031,61.633972 77.819031,140.583984l0,0l0,0l0,0l0,0z"/>
  <path id="path4234" fill="#000000" fill-rule="evenodd" stroke="url(#linearGradient3319)" stroke-width="0.781433" d="m536.436951,47.166687c17.14801,-6.466003 62.971008,7.72998 94.457031,16.023987c26.424988,61.846008 20.380981,124.536987 0.843994,183.008972c-31.486023,8.856018 -73.093018,26.142029 -94.458008,15.184021c27.410034,-17.434021 22.911987,-72.013977 22.770996,-107.953003c-0.138977,-35.463013 4.497986,-83.494019 -23.614014,-106.263977c0,0 0,0 0,0l0,0z"/>
  <path id="path4235" fill="#000000" fill-rule="evenodd" stroke="url(#linearGradient3073)" stroke-width="0.781433" d="m460.94696,275.376648c24.749023,-0.700989 51.584045,1.890991 76.033997,-13.421997c20.624023,8.846008 64.804016,-8.549988 95.864014,-16.399963c-1.987976,7.756958 -10.387024,14.462952 -7.305969,22.367981c0.993958,0.645996 1.539978,2.628967 4.770996,0.591003c-5.764038,10.737 -29.122009,18.484985 -45.919006,26.833008c-24.747986,2.786011 -44.130005,1.393005 -66.195007,2.093994c-32.202026,-0.397034 -45.91803,0.692017 -62.616028,-3.283997c5.367004,-1.484985 8.64801,-4.769043 5.367004,-18.780029l0,0l0,0l0,0z"/>
  <path id="path4236" fill="url(#linearGradient653)" fill-rule="evenodd" stroke="url(#linearGradient3072)" stroke-width="0.781433" d="m460.94696,275.376648c24.749023,-0.700989 51.584045,1.890991 76.033997,-13.421997c20.624023,8.846008 64.804016,-8.549988 95.864014,-16.399963c-1.987976,7.756958 -5.914001,12.67395 -10.585022,18.190002c-21.369995,8.098999 -78.419983,22.266968 -100.485962,22.958984c-22.510986,0.203003 -52.255005,2.240967 -60.268005,2.757996c1.325012,-2.647034 1.080994,-7.083984 -0.559021,-14.085022l0,0l0,0l0,0l0,0l0,0l0,0l0,0l0,0z"/>
  <path id="path4237" fill="url(#linearGradient3237)" fill-rule="evenodd" stroke="url(#linearGradient3236)" stroke-width="0.781433" d="m536.436951,47.166687c11.334045,-3.335999 14.965027,-2.40802 23.490051,-0.675049c18.078003,63.040039 11.437988,156.143005 0.247986,216.404053c-7.036011,3.191956 -12.562012,4.233948 -22.89502,-1.512024c27.410034,-17.434021 22.911987,-72.013977 22.770996,-107.953003c-0.138977,-35.463013 4.497986,-83.494019 -23.614014,-106.263977c0,0 0,0 0,0l0,0l0,0z"/>
  <path id="path4238" fill="url(#linearGradient3270)" fill-rule="evenodd" stroke="url(#linearGradient3272)" stroke-width="0.781433" d="m458.583984,256.401672l0,3.846985l12.654968,0l-0.225952,5.424011l-16.045044,0c0,0 -1.807007,-9.039978 3.616028,-9.270996z"/>
  <path id="path4239" fill="url(#linearGradient3269)" fill-rule="evenodd" stroke="url(#linearGradient3271)" stroke-width="0.781433" d="m455.19397,265.44165l4.294006,-0.22998l0.226013,2.037964l9.942993,0l1.130005,4.52002l-2.26001,1.807983l-5.875,0l-0.452026,-3.164001l-7.231995,-0.451965l0.226013,-4.52002z"/>
  <path id="path4240" fill="url(#linearGradient3177)" fill-rule="evenodd" stroke="url(#linearGradient3212)" stroke-width="0.781428" d="m436.237976,96.853638l0.42099,-23.613953l-9.276978,-10.54303c0,0 -29.096008,-5.903992 -37.108002,-5.903992c-8.013,0 -16.025024,2.109009 -16.025024,2.109009c0,0 0,0 -2.529999,78.437012c0,0 3.69101,-1.79303 5.219025,-3.795044c2.612,1.684021 9.328979,1.264038 13.335999,1.264038c8.011993,0 37.108002,-5.903015 37.108002,-5.903015l9.276978,-10.541992l-0.42099,-23.614014"/>
  <path id="path4241" fill="url(#linearGradient3220)" fill-rule="evenodd" stroke="url(#linearGradient3215)" stroke-width="0.781433" d="m471.414978,113.186646c-3.004028,0 -4.179993,-5.695984 -4.179993,-8.699951c0,-8.437012 0,-8.625 0,-17.061035c0,-3.005981 1.062012,-8.700989 4.067017,-8.700989c2.710999,0 5.422974,0 8.134949,0c3.005005,0 5.424011,1.854004 5.424011,4.859009c-3.84198,1.430969 -5.649963,20.601013 0,25.30896c0.025024,3.157043 -2.305969,4.294006 -5.310974,4.294006l-8.13501,0l0,0l0,0z"/>
  <path id="path4242" fill="none" fill-rule="evenodd" stroke="url(#linearGradient3208)" stroke-width="0.781433" d="m376.990967,126.372681l0,-30.151001l34.578003,0l0,24.669006c-11.735992,1.19397 -23.684998,2.177979 -34.578003,5.481995l0,0z"/>
  <path id="path4243" fill="none" fill-rule="evenodd" stroke="url(#linearGradient3206)" stroke-width="0.781433" d="m411.358978,120.679688l0,-24.669006l24.880005,0l0.209991,23.825989l-25.089996,0.843018l0,0z"/>
  <path id="path4244" fill="none" fill-rule="evenodd" stroke="url(#linearGradient3207)" stroke-width="0.781433" d="m376.990967,65.729675l0,30.151001l34.578003,0l0,-24.669006c-11.735992,-1.194031 -23.684998,-2.177979 -34.578003,-5.481995l0,0z"/>
  <path id="path4245" fill="none" fill-rule="evenodd" stroke="url(#linearGradient3209)" stroke-width="0.781433" d="m411.358978,71.423645l0,24.66803l24.880005,0l0.209991,-23.825012l-25.089996,-0.843018l0,0z"/>
  <path id="path4246" fill="none" fill-rule="evenodd" stroke="url(#linearGradient3217)" stroke-width="0.781433" d="m435.996979,73.11969c5.325989,0.212952 10.652008,0.425964 15.977997,0.638977c4.474976,-1.491028 7.98999,-3.940979 11.505005,-7.349976c-11.39801,-5.327026 -23.115997,-7.137024 -36.112,-7.350037c-0.319,5.965027 3.514984,10.013 8.628998,14.061035l0,0z"/>
  <path id="path4247" fill="url(#linearGradient3231)" fill-rule="evenodd" stroke="url(#linearGradient3230)" stroke-width="0.781433" d="m500.907959,80.649658l2.26001,-12.203003l-21.69397,-0.677979l6.553955,15.817993l12.880005,-2.937012z"/>
  <path id="path4248" fill="url(#linearGradient3219)" fill-rule="evenodd" d="m469.552979,79.19165c4.473022,0.213013 8.947021,0.426025 13.421997,0.639038c2.289978,-14.700012 -39.521973,-24.767029 -55.127991,-21.571045l-0.639008,2.077026c31.63797,-2.184021 42.983002,7.935974 42.345001,18.85498l0,0z"/>
  <rect id="rect4249" fill="url(#linearGradient3228)" fill-rule="evenodd" stroke="url(#linearGradient3229)" stroke-width="0.726845" transform="matrix(0.922418,0,0,-0.922418,52.0552,-39.452) " x="482.194482" y="-135.224756" width="9.43181" height="18.4963" ry="2.44975"/>
  <path id="path4250" fill="none" fill-rule="evenodd" stroke="url(#linearGradient3216)" stroke-width="0.781433" d="m435.770966,119.064636c5.326019,-0.212952 10.652008,-0.427002 15.977997,-0.639954c4.475037,1.490967 7.98999,3.941956 11.505005,7.349976c-11.39801,5.327026 -23.115997,7.138 -36.112,7.351013c-0.319,-5.965027 3.515015,-10.013977 8.628998,-14.061035l0,0z"/>
  <path id="path4251" fill="url(#linearGradient3218)" fill-rule="evenodd" d="m469.326965,112.991638c4.473022,-0.212952 8.947021,-0.425964 13.421997,-0.638977c2.290039,14.700989 -39.521973,24.767029 -55.127991,21.572021l-0.639008,-2.078003c31.638031,2.18396 42.984039,-7.936035 42.345001,-18.855042l0,0z"/>
  <path id="path4252" fill="url(#linearGradient3222)" fill-rule="evenodd" stroke="url(#linearGradient3221)" stroke-width="0.781433" d="m494.916992,88.894653c10.734009,-1.919983 13.776978,-11.294006 3.954956,-12.088989c-8.166992,-0.653992 -12.654968,3.276001 -17.174988,11.862976c0,0 -0.226013,7.343994 -0.112,7.966003c-0.114014,0.621033 0.112,7.965027 0.112,7.965027c4.52002,8.588013 7.630005,15.054993 15.819031,14.800964c10.951965,-0.342957 4.971985,-9.942993 -2.712036,-15.816956l0.113037,-14.689026z"/>
  <path id="path4253" fill="url(#linearGradient3232)" fill-rule="evenodd" stroke="url(#linearGradient3233)" stroke-width="0.781433" d="m440.570984,50.141663c10.357971,7.720032 24.411011,9.328979 34.800964,15.366028c5.525024,3.270996 9.115051,10.583984 8.587036,18.078979c1.205994,-0.903992 2.409973,-1.807983 3.615967,-2.712036c-1.130005,-8.700989 -6.187988,-17.158997 -13.55896,-20.338989c-18.385986,-7.993958 -20.677002,-6.250977 -19.660034,-21.692993c-3.313965,-0.151001 -5.950989,0.150024 -9.264954,0c-1.506042,3.765991 -3.013031,7.531982 -4.52002,11.299011l0,0z"/>
  <path id="path4254" fill="url(#linearGradient3141)" fill-rule="evenodd" stroke="#00007f" d="m492.810974,18.733643c-0.497009,-3.20697 -6.27301,-4.974976 -12.901978,-3.94696c-6.630005,1.026978 -11.601013,4.458008 -11.104004,7.664978c0.497009,3.207031 6.27301,4.973999 12.901978,3.947021c6.630005,-1.026001 11.601013,-4.459045 11.104004,-7.665039z"/>
  <path id="path4255" fill="url(#linearGradient3255)" fill-rule="evenodd" stroke="url(#linearGradient3254)" stroke-width="0.781433" d="m371.28598,256.853638l3.035004,-6.234985c-0.85202,-32.442017 -2.502014,-64.873962 -2.556,-97.312988c-0.052002,-31.424988 1.492004,-62.85199 2.237,-94.278015l-3.994995,-6.070984l-3.995026,-0.320007l-7.496979,102.187012l7.177979,102.187012l5.593018,-0.157043l0,0l0,0l0,0z"/>
  <path id="path4256" fill-rule="evenodd" stroke-width="0.781433" d="m374.320984,250.618652c-0.85202,-32.442017 -2.502014,-64.873962 -2.556,-97.312988c-0.052002,-31.424988 1.492004,-62.85199 2.237,-94.278015l-3.994995,-6.070984c2.610992,33.554993 -0.903015,67.111023 -0.799011,100.667969c-0.053009,34.353027 2.131012,68.713013 1.757996,103.063049l3.355011,-6.069031l0,0z"/>
  <path id="path4257" fill="url(#linearGradient3265)" fill-rule="evenodd" stroke="url(#linearGradient3266)" stroke-width="0.781433" d="m465.562988,274.748657l49.85498,-18.862976l27.484009,-2.231995l-12.143005,9.269958l-33.557007,10.220032l-31.638977,1.60498z"/>
  <path id="path4258" fill="url(#linearGradient3263)" fill-rule="evenodd" stroke="url(#linearGradient3264)" stroke-width="0.781433" d="m459.171997,33.140686l0.31897,5.112976c0,0 67.752014,-0.890015 82.132996,19.244995c16.960022,26.414001 15.890991,95.39801 15.484009,95.971985c-7.494019,25.531006 -1.10498,83.044006 -16.794983,100.238037c-23.390991,22.654968 -80.182983,20.717957 -80.182983,20.717957l0.319946,1.595032c0,0 64.876038,4.473999 85.009033,-22.690979c20.133972,-27.165039 15.339966,-77.658997 16.299011,-99.707031c0.958984,-22.050964 0.958984,-93.317993 -25.886047,-106.421021c-26.844971,-13.102966 -76.699951,-13.102966 -76.699951,-14.061951l0,0l0,0l0,0z"/>
  <path id="path4259" fill="url(#linearGradient3238)" fill-rule="evenodd" stroke="url(#linearGradient3243)" stroke-width="0.781433" d="m505.510986,147.551636c0,0 -41.226013,-5.432983 -49.215027,-5.432983c-7.98999,0 -9.268982,1.278015 -9.588013,11.505005c-0.319946,10.22699 -0.319946,15.660034 9.907043,15.341003c10.22699,-0.320007 49.534973,-7.031982 49.534973,-7.031982l-0.638977,-14.381042z"/>
  <path id="path4260" fill="url(#linearGradient3239)" fill-rule="evenodd" stroke="url(#linearGradient3242)" stroke-width="0.781433" d="m468.758972,143.396667c0,0 -4.473999,-1.278015 -12.463013,-1.278015c-7.98999,0 -9.268982,1.278015 -9.588013,11.505005c-0.319946,10.22699 -0.319946,15.660034 9.907043,15.341003c5.752991,-0.320007 7.351013,-0.960022 11.823975,-1.278992l0.320007,-24.289001l0,0z"/>
  <rect id="rect4261" fill="url(#linearGradient3241)" fill-rule="evenodd" transform="matrix(0.922418,0,0,0.922418,55.0552,-125.452) " x="466.861482" y="294.927756" width="8.31513" height="18.709" ry="3.11814"/>
  <rect id="rect4262" fill="url(#linearGradient3240)" fill-rule="evenodd" transform="matrix(0.922418,0,0,0.922418,55.0552,-125.452) " x="446.766482" y="295.967756" width="4.15756" height="17.3231" ry="3.46458"/>
  <path id="path4263" fill="url(#linearGradient3211)" fill-rule="evenodd" stroke="url(#linearGradient3210)" stroke-width="0.781428" d="m378.677979,84.623657c2.528992,-23.401978 -4.21701,-18.132019 -4.21701,-18.132019c0,0 -0.212006,-7.589966 -2.742004,70.847046c0,0 3.69101,-1.79303 5.219025,-3.795044l1.73999,-48.919983z"/>
  <path id="path4264" fill="url(#linearGradient3245)" fill-rule="evenodd" stroke="url(#linearGradient3244)" stroke-width="0.781433" d="m385.667969,149.787659c0,0 28.294006,-0.237 32.916016,-3.195007c3.367004,-2.154968 23.649994,-2.557007 25.567017,0.319031c1.917969,2.875977 3.195984,14.381958 0,16.299988c-3.195038,1.916992 -20.134033,2.555969 -25.886017,0c-5.753021,-2.557007 -4.794006,-3.515991 -13.423004,-3.515991c-8.627991,0 -29.721008,0 -29.721008,0l0.320007,-9.90802l10.22699,0l0,0z"/>
  <path id="path4265" fill="none" fill-rule="evenodd" stroke="url(#linearGradient3108)" stroke-width="0.781433" d="m298.18399,50.962646c-9.162018,0 -16.445007,3.911011 -24.457001,20.241028c-18.133026,29.237 -21.085022,133.533997 0,167.404968c9.276978,21.815002 19.089996,21.511047 28.673981,20.662048l33.735016,-6.318054c23.078003,-2.951965 18.132996,-6.023987 15.179993,-17.295959l-1.686005,-149.27301c2.529999,-21.812012 9.584015,-26.143982 -8.43399,-28.252991l-43.011993,-7.16803l0,0l0,0z"/>
  <path id="path4266" fill="url(#linearGradient3137)" fill-rule="evenodd" stroke="url(#linearGradient3136)" stroke-width="0.781433" d="m356.79599,161.026672c-1.265015,18.721985 2.436981,71.945984 6.324982,90.505005c0.984009,0.839966 -73.089996,16.862 -77.165985,15.182983c-42.919006,-19.822998 -42.589981,-94.132996 -42.80101,-112.723999c-0.211014,-18.593018 0.304001,-82.781006 41.535995,-110.190002c5.341003,-4.005981 67.608002,12.440002 79.485992,14.548035c-9.580994,38.161987 -7.379974,86.325989 -7.379974,102.677979l0,0l0,0l0,0l0,0l0,0z"/>
  <path id="path4267" fill="url(#linearGradient3224)" fill-rule="evenodd" d="m494.916992,88.894653c10.734009,-1.919983 13.776978,-11.294006 3.954956,-12.088989c-8.166992,-0.653992 -12.654968,3.276001 -17.174988,11.862976c0,0 -0.226013,7.343994 -0.112,7.966003c-0.114014,0.621033 0.112,7.965027 0.112,7.965027c4.52002,8.588013 7.630005,15.054993 15.819031,14.800964c10.951965,-0.342957 4.971985,-9.942993 -2.712036,-15.816956l0.113037,-14.689026z"/>
  <path id="path4268" fill="url(#linearGradient3253)" fill-rule="evenodd" stroke="url(#linearGradient3252)" stroke-width="0.781433" d="m370.646973,143.396667c14.700989,0 20.77301,-0.638977 20.77301,11.823975c0.319,11.825012 -4.794006,12.46405 -20.77301,11.825012l0,-17.895996l0,-5.752991l0,0z"/>
  <path id="path4269" fill="url(#linearGradient3250)" fill-rule="evenodd" stroke="url(#linearGradient3251)" stroke-width="0.781433" d="m370.646973,149.149658c13.421997,-0.320007 14.062012,0 14.062012,5.432007c0,5.432983 0.319977,7.031982 -14.062012,6.711975l0,-12.143982l0,0z"/>
  <rect id="rect4270" fill="url(#linearGradient3249)" fill-rule="evenodd" transform="matrix(0.922418,0,0,0.922418,55.0552,-125.452) " x="358.765482" y="303.237756" width="41.5755" height="2.77167"/>
  <rect id="rect4271" fill="url(#linearGradient3248)" fill-rule="evenodd" transform="matrix(0.922418,0,0,0.922418,55.0552,-125.452) " x="368.812482" y="301.857756" width="16.9767" height="5.19696" ry="1.03936"/>
  <rect id="rect4272" fill="url(#linearGradient3246)" fill-rule="evenodd" stroke="url(#linearGradient3247)" stroke-width="0.781433" transform="matrix(0.922418,0,0,0.922418,55.0552,-125.452) " x="399.994482" y="297.007756" width="19.7484" height="14.205" ry="2.77163"/>
  <path id="path4273" fill="url(#linearGradient3140)" fill-rule="evenodd" stroke="url(#linearGradient3144)" stroke-width="0.781433" d="m286.378967,267.286682l-3.372986,3.578979l16.598999,4.013l67.126007,-17.369995l-2.740997,-8.246033c-25.161011,9.41803 -51.607025,13.873047 -77.611023,18.024048l0,0l0,0l0,0z"/>
  <path id="path4274" fill="url(#linearGradient3142)" fill-rule="evenodd" stroke="url(#linearGradient3143)" stroke-width="0.781433" d="m287.116974,43.052673l-3.373993,-3.585022l16.023987,-4.005981l66.837006,17.078979l-2.740997,7.379028c-25.160004,-9.41803 -50.742004,-12.721008 -76.746002,-16.867004l0,0z"/>
  <path id="path4275" fill="url(#linearGradient3261)" fill-rule="evenodd" stroke="url(#linearGradient3262)" stroke-width="0.781433" d="m510.304993,54.232666l30.679993,3.197021c0,0 18.856018,17.895996 16.619019,101.94696c-2.238037,84.046997 -17.259033,94.913025 -17.259033,94.913025l-29.401001,1.919006c0,0 -7.119995,-65.584045 -5.697021,-102.673035c1.483032,-38.229004 4.738037,-98.982971 5.058044,-99.302979l0,0z"/>
  <g id="g4276">
   <path id="path4277" fill="url(#svg_70)" fill-rule="evenodd" stroke="url(#svg_71)" stroke-width="0.781433" d="m372.163574,169.846985l35.70401,-2.484985c3.841888,0.677917 -2.711884,2.710999 17.17453,2.484985c2.711914,0 29.829163,1.129944 35.478027,1.360535c16.872864,2.259949 29.45282,8.126526 45.873718,9.482483c1.054321,23.28186 1.43158,42.265198 3.841858,65.768433l-38.641907,14.23291l-105.306061,0.221375l8.134827,-9.713074l-2.259003,-81.352661l0,0z"/>
   <path id="path4278" fill="url(#svg_68)" fill-rule="evenodd" stroke="url(#svg_69)" stroke-width="0.781433" d="m372.160797,172.332947c0,0 46.550751,-1.807983 56.4935,-1.356018c9.943665,0.451965 52.87854,4.971863 54.686462,26.667175c1.807983,21.69519 1.355957,30.734863 1.355957,30.734863c0.903992,17.175476 -29.377136,26.667175 -46.550751,26.21521c-17.174469,-0.452026 -9.039673,-9.943726 -9.039673,-9.943726l-56.945496,-72.317505l0,0z"/>
   <path id="path4279" fill="url(#svg_66)" fill-rule="evenodd" stroke="url(#svg_67)" stroke-width="0.781428" d="m436.525299,213.297485l0.422455,23.613892l-9.277679,10.543274c0,0 -29.095825,5.903442 -37.107941,5.903442c-8.012146,0 -16.024261,-2.103088 -16.024261,-2.103088c0,0 0,0 -2.530182,-78.442444c0,0 3.689667,1.798706 5.218109,3.800354c2.612274,-1.687988 9.330261,-1.263733 13.336334,-1.263733c8.012115,0 37.107941,5.903503 37.107941,5.903503l9.277679,10.543213l-0.422455,23.613892"/>
   <path id="path4280" fill="url(#svg_64)" fill-rule="evenodd" stroke="url(#svg_65)" stroke-width="0.781433" d="m471.703491,196.970703c-3.005188,0 -4.181274,5.691284 -4.181274,8.698364c0,8.440125 0,8.624634 0,17.064758c0,2.997864 1.063599,8.698364 4.067871,8.698364c2.711914,0 5.423828,0 8.134827,0c3.005249,0 5.423828,-1.854004 5.423828,-4.861084c-3.841919,-1.429749 -5.649841,-20.597595 0,-25.311157c0.025757,-3.154663 -2.30603,-4.289246 -5.310364,-4.289246l-8.134888,0l0,0l0,0z"/>
   <path id="path4281" fill="none" fill-rule="evenodd" stroke="url(#svg_63)" stroke-width="0.781433" d="m377.279297,183.78009l0,30.15387l34.577759,0l0,-24.665466c-11.736847,-1.199097 -23.68399,-2.186096 -34.577759,-5.488403l0,0z"/>
   <path id="path4282" fill="none" fill-rule="evenodd" stroke="url(#svg_62)" stroke-width="0.781433" d="m411.646759,189.471436l0,24.674683l24.879456,0l0.211212,-23.82605l-25.090668,-0.848633l0,0z"/>
   <path id="path4283" fill="none" fill-rule="evenodd" stroke="url(#svg_61)" stroke-width="0.781433" d="m377.279297,244.429077l0,-30.153809l34.577759,0l0,24.665405c-11.736847,1.199158 -23.68399,2.176941 -34.577759,5.488403l0,0z"/>
   <path id="path4284" fill="none" fill-rule="evenodd" stroke="url(#svg_60)" stroke-width="0.781433" d="m411.646759,238.728577l0,-24.665466l24.879456,0l0.211212,23.825989l-25.090668,0.839478l0,0z"/>
   <path id="path4285" fill="none" fill-rule="evenodd" stroke="url(#svg_59)" stroke-width="0.781433" d="m436.284546,237.031311c5.32605,-0.212158 10.653015,-0.424316 15.979004,-0.636475c4.473755,1.494263 7.989075,3.938721 11.504456,7.351685c-11.398315,5.322388 -23.115814,7.139526 -36.111786,7.351624c-0.320068,-5.968018 3.51535,-10.017456 8.628326,-14.066833l0,0z"/>
   <path id="path4286" fill="url(#svg_57)" fill-rule="evenodd" stroke="url(#svg_58)" stroke-width="0.781433" d="m501.195984,229.504395l2.259949,12.203552l-21.69342,0.682556l6.552856,-15.819397l12.880615,2.933289z"/>
   <path id="path4287" fill="url(#svg_56)" fill-rule="evenodd" d="m469.840271,230.961792c4.47467,-0.212158 8.948364,-0.424316 13.422058,-0.636475c2.290405,14.703369 -39.520935,24.766907 -55.12735,21.566162l-0.639221,-2.075439c31.638947,2.186096 42.983734,-7.932861 42.344513,-18.854248l0,0z"/>
   <rect transform="matrix(0.922418,0,0,0.922418,55.0552,-125.452) " id="rect4288" fill="url(#linearGradient3228)" fill-rule="evenodd" stroke="url(#linearGradient3229)" stroke-width="0.726845" x="479.254482" y="379.787756" width="9.43181" height="18.4963" ry="2.44975"/>
   <path id="path4289" fill="none" fill-rule="evenodd" stroke="url(#svg_55)" stroke-width="0.781433" d="m436.058533,191.094849c5.32608,0.212158 10.653015,0.424377 15.979065,0.636475c4.473755,-1.494263 7.989014,-3.938721 11.504395,-7.351624c-11.398315,-5.322388 -23.115784,-7.139587 -36.111755,-7.351685c-0.320068,5.968079 3.51535,10.017456 8.628296,14.066833l0,0z"/>
   <path id="path4290" fill="url(#svg_54)" fill-rule="evenodd" d="m469.614258,197.164429c4.474609,0.212097 8.948425,0.424255 13.422119,0.636475c2.290344,-14.703369 -39.520996,-24.766968 -55.12738,-21.566162l-0.639221,2.075439c31.638916,-2.186157 42.983765,7.932739 42.344482,18.854248l0,0z"/>
   <path id="path4291" fill="url(#svg_52)" fill-rule="evenodd" stroke="url(#svg_53)" stroke-width="0.781433" d="m495.204895,221.257935c10.734192,1.91864 13.776306,11.299622 3.955383,12.092896c-8.167114,0.654968 -12.654724,-3.274536 -17.174561,-11.862244c0,0 -0.225952,-7.342468 -0.113403,-7.969727c-0.112549,-0.617981 0.113403,-7.960449 0.113403,-7.960449c4.519836,-8.587708 7.629333,-15.053894 15.818542,-14.80481c10.950989,0.341248 4.970886,9.943665 -2.711914,15.819458l0.112549,14.684875z"/>
   <path id="path4292" fill="url(#svg_50)" fill-rule="evenodd" stroke="url(#svg_51)" stroke-width="0.781428" d="m378.965485,225.528748c2.530182,23.401733 -4.217316,18.134705 -4.217316,18.134705c0,0 -0.210297,7.591553 -2.740479,-70.850891c0,0 3.689667,1.798706 5.218109,3.800354l1.739685,48.915833z"/>
   <path id="path4293" fill="url(#svg_49)" fill-rule="evenodd" d="m495.204895,221.257935c10.734192,1.91864 13.776306,11.299622 3.955383,12.092896c-8.167114,0.654968 -12.654724,-3.274536 -17.174561,-11.862244c0,0 -0.225952,-7.342468 -0.113403,-7.969727c-0.112549,-0.617981 0.113403,-7.960449 0.113403,-7.960449c4.519836,-8.587708 7.629333,-15.053894 15.818542,-14.80481c10.950989,0.341248 4.970886,9.943665 -2.711914,15.819458l0.112549,14.684875z"/>
  </g>
  <path id="path4294" fill="none" fill-rule="evenodd" stroke="url(#linearGradient3323)" stroke-width="1.38917" d="m609.281006,67.265686c7.740967,4.812988 14.712952,11.778992 20.567993,20.384949c11.708984,17.213013 18.950989,40.992004 18.950989,67.259033c0,26.268982 -7.242004,50.039978 -18.950989,67.260986c-5.855042,8.606995 -12.827026,15.570984 -20.567993,20.377014"/>
  <g id="g4295">
   <path id="path4296" fill="url(#linearGradient3053)" fill-rule="evenodd" stroke="url(#linearGradient3317)" d="m625.093323,266.050598l6.410828,1.346741c7.380249,-4.427673 15.504944,-16.07782 11.628906,-29.89563c-2.385376,-2.684204 -5.367493,0.599609 -7.156067,1.78949c-7.278809,17.092468 -8.964111,16.557434 -10.883667,26.759399l0,0l0,0l0,0z"/>
   <path id="path4297" fill="none" fill-rule="evenodd" d="m635.49176,254.797058c1.477722,-3.514404 1.42334,-7.157959 -0.119934,-8.144958c-1.544128,-0.977783 -3.993103,1.070007 -5.46991,4.575195c-1.476807,3.505188 -1.42334,7.148743 0.12085,8.135742c1.543213,0.987 3.992188,-1.060791 5.468994,-4.565979l0,0z"/>
   <path id="path4298" fill="url(#linearGradient3053)" fill-rule="evenodd" stroke="url(#linearGradient3317)" d="m625.093323,266.050598c1.888184,0.599548 4.522644,0.747131 6.410828,1.346741c7.380249,-4.427673 15.504944,-16.07782 11.628906,-29.89563c-2.385376,-2.684204 -5.367493,0.599609 -7.156067,1.78949c1.688904,9.344116 -0.19928,21.446228 -10.883667,26.759399l0,0l0,0z"/>
   <path id="path4299" fill="url(#linearGradient3054)" fill-rule="evenodd" stroke="url(#linearGradient3316)" d="m648.201782,214.920959c-0.372681,5.709778 -2.981262,15.229126 -5.068726,22.58075c-2.385376,-2.684204 -5.367493,0.599609 -7.156067,1.78949c4.373169,-10.331055 7.653259,-20.496094 12.224792,-24.370239l0,0z"/>
   <path id="path4300" fill="url(#radialGradient3058)" fill-rule="evenodd" d="m636.214966,255.202942c1.477661,-3.505188 1.423279,-7.148743 -0.119934,-8.135742c-1.544128,-0.987 -3.993103,1.060791 -5.46991,4.565979c-1.477722,3.514404 -1.423279,7.157959 0.119873,8.144958c1.544128,0.977783 3.993164,-1.060791 5.469971,-4.575195l0,0z"/>
   <path id="path4301" fill="url(#linearGradient3322)" fill-rule="evenodd" d="m625.093323,266.050598l6.410828,1.346741c7.380249,-4.427673 15.504944,-16.07782 11.628906,-29.89563c-2.385376,-2.684204 -5.367493,0.599609 -7.156067,1.78949c-7.278809,17.092468 -8.964111,16.557434 -10.883667,26.759399l0,0l0,0l0,0z"/>
  </g>
  <g id="g4302">
   <path id="path4303" fill="url(#linearGradient3053)" fill-rule="evenodd" stroke="url(#linearGradient3317)" d="m625.381714,44.453247l6.410767,-1.342163c7.380249,4.423035 15.504883,16.076843 11.628967,29.891907c-2.385376,2.683289 -5.367615,-0.595886 -7.156128,-1.788574c-7.278809,-17.088745 -8.964111,-16.552795 -10.883606,-26.761169l0,0l0,0l0,0z"/>
   <path id="path4304" fill="none" fill-rule="evenodd" d="m635.78009,55.71405c1.477722,3.508911 1.423279,7.152466 -0.119873,8.136719c-1.544128,0.986023 -3.993225,-1.060791 -5.469971,-4.569702c-1.477722,-3.50885 -1.423279,-7.151489 0.12085,-8.136658c1.543152,-0.985107 3.992188,1.060852 5.468994,4.569641l0,0z"/>
   <path id="path4305" fill="url(#linearGradient3053)" fill-rule="evenodd" stroke="url(#linearGradient3317)" d="m625.381714,44.453247c1.888184,-0.596863 4.522583,-0.746277 6.410767,-1.342163c7.380249,4.423035 15.504883,16.076843 11.628967,29.891907c-2.385376,2.683289 -5.367615,-0.595886 -7.156128,-1.788574c1.688904,-9.34314 -0.19928,-21.444397 -10.883606,-26.761169l0,0l0,0z"/>
   <path id="path4306" fill="url(#linearGradient3054)" fill-rule="evenodd" stroke="url(#linearGradient3316)" d="m648.490112,95.59021c-0.372681,-5.715271 -2.981262,-15.231873 -5.068665,-22.587219c-2.385376,2.683289 -5.367615,-0.595886 -7.156128,-1.788574c4.373169,10.336609 7.653259,20.498901 12.224792,24.375793l0,0z"/>
   <path id="path4307" fill="url(#radialGradient3058)" fill-rule="evenodd" d="m636.503296,55.302673c1.477722,3.508911 1.423279,7.152466 -0.119934,8.137634c-1.544128,0.985107 -3.993164,-1.060852 -5.46991,-4.569702c-1.477722,-3.50885 -1.42334,-7.152405 0.119934,-8.137573c1.544067,-0.985107 3.993103,1.060791 5.46991,4.569641l0,0z"/>
   <path id="path4308" fill="url(#linearGradient3322)" fill-rule="evenodd" d="m625.381714,44.453247l6.410767,-1.342163c7.380249,4.423035 15.504883,16.076843 11.628967,29.891907c-2.385376,2.683289 -5.367615,-0.595886 -7.156128,-1.788574c-7.278809,-17.088745 -8.964111,-16.552795 -10.883606,-26.761169l0,0l0,0l0,0z"/>
  </g>
  <path id="path4309" fill="#000000" fill-rule="evenodd" stroke="url(#linearGradient3070)" stroke-width="0.781433" d="m299.740967,274.748657c-3.036987,0 -15.260986,13.411987 -17.156982,15.515015c-2.871002,2.971008 152.440002,-1.60498 179.848999,-1.263c1.476013,-4.004028 0.422974,-1.476013 -1.264038,-17.083008c-2.529968,-2.187012 -17.836975,0.211975 -20.873962,0.211975c-49.759003,0 -86.024017,2.324036 -135.78302,2.324036l0,0l-4.770996,0.294983l0,0z"/>
  <path id="path4310" fill="url(#linearGradient3047)" fill-rule="evenodd" stroke="url(#linearGradient3104)" stroke-width="0.781433" d="m433.519989,286.103638c-1.322021,0 -8.348999,0.766052 -8.348999,2.085022l0,0.89502c0,1.31897 1.362,2.083984 2.68399,2.083984l26.835999,-0.294983c1.320984,0 2.684021,-0.470032 2.684021,-1.789001l0,-0.89502c0,-1.31897 -3.151001,-2.085022 -4.473022,-2.085022l-19.381989,0l0,0z"/>
  <path id="path4311" fill="url(#linearGradient3173)" fill-rule="evenodd" stroke="url(#linearGradient3172)" stroke-width="0.781433" d="m335.881989,267.710693c-1.817017,0 -30.025024,6.161987 -28.208008,6.161987c37.372009,0 106.91098,-0.203003 143.163971,-2.085022c2.709045,-0.119995 3.390015,-3.302002 2.981995,-5.072998c-1.789978,-8.042969 -5.04895,-7.315002 -6.857971,-7.148987c-36.47699,3.578979 -69.369995,-10.820007 -101.803009,3.921021l-9.276978,4.223999l0,0l0,0z"/>
  <path id="path4312" fill="url(#linearGradient3174)" fill-rule="evenodd" stroke="url(#linearGradient3175)" stroke-width="0.781433" d="m345.580963,264.334656c-1.817993,0 -11.358978,8.947998 -9.541992,8.947998c37.372009,0 78.54599,0.387024 114.798981,-1.494995c2.709045,-0.119995 3.390015,-3.302002 2.981995,-5.072998c-1.789978,-8.042969 -5.04895,-7.315002 -6.857971,-7.148987c-36.47699,3.578979 -64.01001,4.768982 -101.381012,4.768982l0,0z"/>
  <path id="path4313" fill="url(#linearGradient3112)" fill-rule="evenodd" stroke="url(#linearGradient3113)" stroke-width="0.781433" d="m304.511963,274.453674c-3.036987,0 18.973999,3.164001 30.994019,3.164001c4.132996,-0.074036 93.825989,-0.341003 125.662964,-2.112c0.633057,-0.840027 0.421021,-2.73999 0,-3.588013c-2.529968,-2.187012 -17.836975,0.211975 -20.873962,0.211975c-49.759003,0 -86.024017,2.324036 -135.78302,2.324036l0,0l0,0l0,0z"/>
  <path id="path4314" fill="url(#linearGradient3102)" fill-rule="evenodd" stroke="url(#linearGradient3103)" stroke-width="0.781433" d="m299.488983,274.924683c15.009003,1.539978 23.040985,1.30896 24.89798,7.304993c7.757019,25.984985 7.853027,28.917969 26.835999,28.622986l-11.628998,-32.505981c-2.882996,0.101013 -6.062988,-0.093018 -6.858002,-3.275024l11.629028,-11.031982l-44.876007,10.88501l0,0z"/>
  <path id="path4315" fill="url(#linearGradient3100)" fill-rule="evenodd" stroke="url(#linearGradient3101)" stroke-width="0.781433" d="m324.386963,282.229675c7.757019,25.984985 7.853027,28.917969 26.835999,28.622986l-11.628998,-32.505981c-2.882996,0.101013 -6.062988,-0.093018 -6.858002,-3.275024c0,0 -10.205994,1.161987 -8.348999,7.15802l0,0z"/>
  <path id="path4316" fill="url(#linearGradient3232)" fill-rule="evenodd" stroke="url(#linearGradient3233)" stroke-width="0.781433" d="m440.859985,260.017639c10.356995,-7.719971 24.409973,-9.333984 34.799988,-15.367004c5.525024,-3.274963 9.114014,-10.589966 8.588013,-18.079956c1.203979,0.903992 2.409973,1.807983 3.61499,2.711975c-1.130005,8.699036 -6.187988,17.156982 -13.559021,20.340027c-18.385986,7.987976 -20.675964,6.244995 -19.659973,21.685974c-3.314026,0.156982 -5.950012,-0.14801 -9.263977,0c-1.507019,-3.763977 -3.014038,-7.526978 -4.52002,-11.291016l0,0z"/>
  <g id="g4317">
   <path id="path4318" fill="url(#linearGradient3145)" fill-rule="evenodd" stroke="url(#linearGradient3146)" stroke-width="0.781433" d="m362.810272,156.875c-0.097778,-22.155579 -1.165955,-65.66687 8.768494,-99.064026c-0.421539,-4.570496 -4.479279,-2.926819 -5.934845,-2.965515c-11.500702,34.207825 -8.961304,90.506714 -8.904083,107.706116c0.056274,17.197571 -2.596619,58.918518 8.904083,93.131042c1.455566,-0.036926 5.513306,1.60498 5.934845,-2.970215c-9.934448,-33.391479 -8.979736,-77.243286 -8.768494,-95.837402l0,0z"/>
   <path id="path4319" fill="url(#linearGradient3147)" fill-rule="evenodd" stroke="url(#linearGradient3148)" stroke-width="0.781433" d="m359.42038,155.067993c-0.097778,-22.156433 0.867981,-64.988953 9.672485,-99.742859c-1.099548,-1.406738 -1.993378,-0.440979 -3.448944,-0.479675c-11.500702,34.207825 -8.961304,90.506714 -8.904083,107.706116c0.056274,17.197571 -2.596619,58.918518 8.904083,93.131042c1.455566,-0.036926 2.349396,1.153015 2.996918,-1.383667c-8.126495,-34.304688 -9.657684,-78.156494 -9.446472,-96.745911l0.226013,0l0,-2.485046l0,0z"/>
  </g>
  <path id="svg_78" fill="url(#linearGradient3137)" stroke="url(#linearGradient3136)" stroke-dasharray="null" stroke-linecap="null" stroke-linejoin="null" stroke-width="0.781433" d="m334.074982,37.660645l135.699982,0.920044l40.400024,14.799988l-141.200012,-0.400024l-26.399994,-7.200012"/>
  <path id="svg_80" fill="url(#linearGradient3137)" stroke="url(#linearGradient3136)" stroke-dasharray="null" stroke-linecap="null" stroke-linejoin="null" stroke-width="0.781433" d="m334.874969,273.660645l130.899994,0.52002l45.600037,-18l-141.200012,0.400024l-23.200012,4.799988l-6.399994,6"/>
  <path id="svg_82" fill="url(#linearGradient3137)" stroke="url(#linearGradient3136)" stroke-dasharray="null" stroke-linecap="null" stroke-linejoin="null" stroke-width="0.781433" d="m511.674988,256.060669l28.099976,-1.47998l6.400024,-10.800049l2.800049,-11.599976l3.999939,-18.799988l3.200012,-26.400024l0.799988,-25.599976l0,-23.200012l-0.799988,-24.799988l-3.200012,-18.799988l-4.400024,-22l-7.199951,-15.200012l-31.600037,-4l-4,85.599976l-0.399963,39.200012l3.199951,51.200012l1.200012,20.399963"/>
  <path id="svg_83" fill="url(#svg_1)" stroke="url(#linearGradient3136)" stroke-dasharray="null" stroke-linecap="null" stroke-linejoin="null" stroke-width="0.781433" d="m370.074982,53.260681l139.300018,0.119995l-3.200012,61.200012l-1.200012,57.199951l3.200012,58l2.399963,24.400024l-0.399963,2.400024l-140.400024,-0.400024l4.400024,-5.599976l-2.400024,-74.800049l-0.799988,-17.199951l0.399994,-22.800049l2.800018,-76.799988c-1.367004,-1.906982 -2.733002,-3.812988 -4.100006,-5.719971z"/>
  <rect id="svg_86" fill="url(#svg_95)" stroke="url(#linearGradient3136)" stroke-dasharray="null" stroke-linecap="null" stroke-linejoin="null" stroke-width="0" x="370.074983" y="250.860664" width="141.6" height="4.8"/>
  <rect id="svg_88" fill="url(#svg_95)" stroke="url(#linearGradient3136)" stroke-dasharray="null" stroke-linecap="null" stroke-linejoin="null" stroke-width="0" x="369.673983" y="53.260664" width="141.6" height="4.8"/>
  <path id="svg_91" fill="url(#svg_95)" stroke="url(#linearGradient3136)" stroke-dasharray="null" stroke-linecap="null" stroke-linejoin="null" stroke-width="0" d="m512.475037,254.860657l-3.900024,-24.679993l-2.799988,-51.599976l0,-29.600037l1.200012,-34.399963l2.399963,-37.200012l0.800049,-19.200012l-6.400024,0l-2,57.19989l-0.799927,33.599915l-0.000061,30.000183l2.800049,52.000061l1.599915,24.000061"/>
 </g>
</svg>