<?xml version="1.0"?><svg width="793.7031484257872" height="1122.5187406296852" xmlns="http://www.w3.org/2000/svg" xmlns:xlink="http://www.w3.org/1999/xlink">
 <title>Orange Car</title>
 <defs>
  <linearGradient id="linearGradient3258">
   <stop offset="0" stop-color="#3f3a4a" id="stop3259"/>
   <stop offset="1" stop-color="#afaa9d" id="stop3260"/>
  </linearGradient>
  <linearGradient id="linearGradient3225">
   <stop offset="0" stop-opacity="0.3804" stop-color="#000000" id="stop3226"/>
   <stop offset="1" stop-opacity="0" stop-color="#000000" id="stop3227"/>
  </linearGradient>
  <linearGradient id="linearGradient3178">
   <stop offset="0" stop-color="#ffff97" id="stop3179"/>
   <stop offset="1" stop-color="#ffffe7" id="stop3180"/>
  </linearGradient>
  <linearGradient id="linearGradient3109">
   <stop offset="0" stop-opacity="0.8196" stop-color="#dddaff" id="stop3110"/>
   <stop offset="1" stop-opacity="0.5843" stop-color="#6a72ff" id="stop3111"/>
  </linearGradient>
  <linearGradient id="linearGradient3061">
   <stop offset="0" stop-opacity="0.5804" stop-color="#ffff00" id="stop3062"/>
   <stop offset="1" stop-opacity="0" stop-color="#ffffff" id="stop3063"/>
  </linearGradient>
  <linearGradient id="linearGradient3042">
   <stop offset="0" stop-opacity="0.902" stop-color="#000000" id="stop3043"/>
   <stop offset="1" stop-opacity="0" stop-color="#000000" id="stop3044"/>
  </linearGradient>
  <linearGradient id="linearGradient3034">
   <stop offset="0" stop-opacity="0.5804" stop-color="#ff0000" id="stop3035"/>
   <stop offset="1" stop-opacity="0" stop-color="#ffffff" id="stop3036"/>
  </linearGradient>
  <linearGradient id="linearGradient3012">
   <stop offset="0" stop-opacity="0.902" stop-color="#ffffff" id="stop3013"/>
   <stop offset="1" stop-opacity="0" stop-color="#ffffff" id="stop3014"/>
  </linearGradient>
  <linearGradient id="linearGradient650">
   <stop offset="0" stop-color="#000" id="stop651"/>
   <stop offset="1" stop-color="#fff" id="stop652"/>
  </linearGradient>
  <linearGradient xlink:href="#linearGradient3012" y2="1.08571" x2="0.832714" y1="0.28572" x1="0.36802" id="linearGradient653"/>
  <linearGradient xlink:href="#linearGradient3012" y2="1.125" x2="0.539033" y1="0.156177" x1="0.501854" id="linearGradient3011"/>
  <linearGradient xlink:href="#linearGradient3012" y2="1.08" x2="0.327137" y1="0.139999" x1="0.799256" id="linearGradient3031"/>
  <linearGradient xlink:href="#linearGradient650" y2="0.53125" x2="1.89655" y1="0.125" x1="-1.62069" id="linearGradient3032"/>
  <linearGradient xlink:href="#linearGradient3061" y2="0.632815" x2="0.265734" y1="0.531289" x1="0.405593" id="linearGradient3033"/>
  <radialGradient xlink:href="#linearGradient3061" fy="0.491816" fx="0.488374" r="2.10304" cy="0.491816" cx="0.488374" gradientTransform="translate(-9.39605e-008 -1.78976e-006)" id="radialGradient3037"/>
  <linearGradient xlink:href="#linearGradient3012" y2="0" x2="1" y1="0" x1="0" id="linearGradient3038"/>
  <linearGradient xlink:href="#linearGradient3012" y2="-1.07004" x2="1" y1="-1.07004" x1="0" id="linearGradient3039"/>
  <linearGradient xlink:href="#linearGradient650" y2="0.421876" x2="-0.13986" y1="0.406266" x1="1.16084" id="linearGradient3040"/>
  <linearGradient xlink:href="#linearGradient3042" y2="0.706897" x2="0.509294" y1="1.2069" x1="0.513011" id="linearGradient3041"/>
  <linearGradient xlink:href="#linearGradient3042" y2="0.499999" x2="0.494424" y1="1.45" x1="0.501859" id="linearGradient3045"/>
  <linearGradient xlink:href="#linearGradient3042" y2="0.799999" x2="0.494424" y1="1.1" x1="0.513012" id="linearGradient3046"/>
  <linearGradient xlink:href="#linearGradient3042" y2="1.38636" x2="0.449813" y1="-0.727277" x1="0.449803" id="linearGradient3047"/>
  <linearGradient xlink:href="#linearGradient650" y2="-2.79929" x2="2.11682" y1="-2.62917" x1="-2.93098" id="linearGradient3053"/>
  <linearGradient xlink:href="#linearGradient650" y2="0.41553" x2="1.52725" y1="0.233738" x1="-1.18013" gradientTransform="matrix(1.10808 0 0 0.902465 1.02481e-006 1.86041e-007)" id="linearGradient3054"/>
  <linearGradient xlink:href="#linearGradient3225" y2="0" x2="1" y1="0" x1="0" id="linearGradient3055"/>
  <linearGradient xlink:href="#linearGradient3225" y2="0.873978" x2="0.008444" y1="0.873978" x1="-0.688096" gradientTransform="scale(1.50828 0.663008)" id="linearGradient3056"/>
  <radialGradient xlink:href="#linearGradient3034" fy="0.498003" fx="0.507198" r="1.13937" cy="0.498003" cx="0.507198" gradientTransform="translate(2.83577e-006 -4.22671e-008)" id="radialGradient3058"/>
  <linearGradient xlink:href="#linearGradient650" y2="0.75" x2="1.15556" y1="0.039062" x1="-0.266667" id="linearGradient3060"/>
  <linearGradient xlink:href="#linearGradient3012" y2="0" x2="1" y1="0" x1="0" id="linearGradient3064"/>
  <linearGradient xlink:href="#linearGradient650" y2="0.414063" x2="1.25581" y1="0.328125" x1="-1.88372" id="linearGradient3065"/>
  <linearGradient xlink:href="#linearGradient650" y2="0.445312" x2="18.1076" y1="0.367188" x1="-7.6854" id="linearGradient3066"/>
  <linearGradient xlink:href="#linearGradient650" y2="0.164013" x2="23.2484" y1="0.073805" x1="-6.53385" gradientTransform="scale(0.364412 2.74415)" id="linearGradient3067"/>
  <linearGradient xlink:href="#linearGradient3012" y2="0" x2="1" y1="0" x1="0" id="linearGradient3068"/>
  <linearGradient xlink:href="#linearGradient3042" y2="0" x2="0.672862" y1="1.15517" x1="0.684015" id="linearGradient3069"/>
  <linearGradient xlink:href="#linearGradient3012" y2="0" x2="1" y1="0" x1="0" id="linearGradient3070"/>
  <linearGradient xlink:href="#linearGradient3042" y2="0" x2="1" y1="0" x1="0" id="linearGradient3071"/>
  <linearGradient xlink:href="#linearGradient3012" y2="0" x2="1" y1="0" x1="0" id="linearGradient3072"/>
  <linearGradient xlink:href="#linearGradient3042" y2="0" x2="1" y1="0" x1="0" id="linearGradient3073"/>
  <linearGradient xlink:href="#linearGradient3042" y2="0" x2="1" y1="0" x1="0" id="linearGradient3074"/>
  <linearGradient xlink:href="#linearGradient3042" y2="1.32202" x2="0.976191" y1="1.32202" x1="-0.023808" gradientTransform="scale(0.999999)" id="linearGradient3075"/>
  <linearGradient xlink:href="#linearGradient3042" y2="0" x2="1" y1="0" x1="0" id="linearGradient3076"/>
  <linearGradient xlink:href="#linearGradient3042" y2="1.32202" x2="0.976191" y1="1.32202" x1="-0.023808" gradientTransform="scale(0.999999)" id="linearGradient3077"/>
  <linearGradient xlink:href="#linearGradient3012" y2="0" x2="1" y1="0" x1="0" id="linearGradient3078"/>
  <linearGradient xlink:href="#linearGradient3042" y2="0" x2="1" y1="0" x1="0" id="linearGradient3079"/>
  <linearGradient xlink:href="#linearGradient650" y2="0.453125" x2="2.71429" y1="0.445313" x1="-2.38095" id="linearGradient3080"/>
  <linearGradient xlink:href="#linearGradient3042" y2="0" x2="1" y1="0" x1="0" id="linearGradient3081"/>
  <linearGradient xlink:href="#linearGradient3042" y2="0.242188" x2="0.895523" y1="0.179688" x1="-0.850748" id="linearGradient3082"/>
  <linearGradient xlink:href="#linearGradient3042" y2="0" x2="1" y1="0" x1="0" id="linearGradient3083"/>
  <linearGradient xlink:href="#linearGradient650" y2="0.867188" x2="-0.112359" y1="0.039067" x1="-0.168541" id="linearGradient3084"/>
  <linearGradient xlink:href="#linearGradient650" y2="1.18876" x2="0.667049" y1="0.068581" x1="-1.63379" gradientTransform="scale(1.46309 0.683483)" id="linearGradient3085"/>
  <linearGradient xlink:href="#linearGradient650" y2="0.780668" x2="1.0824" y1="0.027844" x1="-0.463887" gradientTransform="scale(0.962888 1.03854)" id="linearGradient3086"/>
  <linearGradient xlink:href="#linearGradient3042" y2="0" x2="1" y1="0" x1="0" id="linearGradient3087"/>
  <linearGradient xlink:href="#linearGradient3042" y2="-0.012471" x2="1.59982" y1="-0.012471" x1="0.927761" gradientTransform="scale(0.658118 1.51948)" id="linearGradient3088"/>
  <linearGradient xlink:href="#linearGradient3042" y2="0" x2="1" y1="0" x1="0" id="linearGradient3089"/>
  <linearGradient xlink:href="#linearGradient3042" y2="0.4375" x2="0.689655" y1="0.4375" x1="-1.10345" id="linearGradient3090"/>
  <linearGradient xlink:href="#linearGradient3042" y2="0" x2="1" y1="0" x1="0" id="linearGradient3091"/>
  <linearGradient xlink:href="#linearGradient650" y2="1.00781" x2="2.38462" y1="0.343749" x1="-0.179479" id="linearGradient3092"/>
  <linearGradient xlink:href="#linearGradient3012" y2="0" x2="1" y1="0" x1="0" id="linearGradient3093"/>
  <linearGradient xlink:href="#linearGradient650" y2="0.906248" x2="0.794872" y1="0.054683" x1="-1.76924" id="linearGradient3094"/>
  <linearGradient xlink:href="#linearGradient3012" y2="0" x2="1" y1="0" x1="0" id="linearGradient3095"/>
  <linearGradient xlink:href="#linearGradient650" y2="1.57812" x2="-0.126214" y1="0.070311" x1="-0.310686" id="linearGradient3096"/>
  <linearGradient xlink:href="#linearGradient3042" y2="0" x2="1" y1="0" x1="0" id="linearGradient3097"/>
  <linearGradient xlink:href="#linearGradient3012" y2="0" x2="1" y1="0" x1="0" id="linearGradient3098"/>
  <linearGradient xlink:href="#linearGradient3012" y2="0" x2="1" y1="0" x1="0" id="linearGradient3099"/>
  <linearGradient xlink:href="#linearGradient650" y2="-0.132815" x2="1.3299" y1="0.632789" x1="0.298939" id="linearGradient3100"/>
  <linearGradient xlink:href="#linearGradient3012" y2="0" x2="1" y1="0" x1="0" id="linearGradient3101"/>
  <linearGradient xlink:href="#linearGradient650" y2="0.351563" x2="1.0979" y1="0.437501" x1="-0.174825" id="linearGradient3102"/>
  <linearGradient xlink:href="#linearGradient3042" y2="0" x2="1" y1="0" x1="0" id="linearGradient3103"/>
  <linearGradient xlink:href="#linearGradient3012" y2="0.977271" x2="0.520445" y1="0" x1="0.513005" id="linearGradient3104"/>
  <linearGradient xlink:href="#linearGradient3042" y2="0" x2="1" y1="0" x1="0" id="linearGradient3105"/>
  <linearGradient xlink:href="#linearGradient3042" y2="0" x2="0.999999" y1="0" x1="0" id="linearGradient3106"/>
  <linearGradient xlink:href="#linearGradient3109" y2="0.955414" x2="1.0274" y1="0.012739" x1="0.150685" id="linearGradient3108"/>
  <linearGradient xlink:href="#linearGradient3042" y2="-3.33333" x2="0.513011" y1="1.58334" x1="0.516719" id="linearGradient3112"/>
  <linearGradient xlink:href="#linearGradient3042" y2="1.08333" x2="0.54275" y1="0.25" x1="0.539029" id="linearGradient3113"/>
  <linearGradient xlink:href="#linearGradient3012" y2="0" x2="1" y1="0" x1="0" id="linearGradient3125"/>
  <linearGradient xlink:href="#linearGradient3012" y2="0.484375" x2="1.16783" y1="0.914063" x1="1.29371" id="linearGradient3126"/>
  <linearGradient xlink:href="#linearGradient3012" y2="0" x2="1" y1="0" x1="0" id="linearGradient3127"/>
  <linearGradient xlink:href="#linearGradient3042" y2="0.44" x2="0.64684" y1="1.76" x1="0.442379" id="linearGradient3128"/>
  <linearGradient xlink:href="#linearGradient3042" y2="0.586207" x2="0.635688" y1="1.5" x1="0.531599" id="linearGradient3130"/>
  <linearGradient xlink:href="#linearGradient3042" y2="0" x2="1" y1="0" x1="0" id="linearGradient3131"/>
  <linearGradient xlink:href="#linearGradient3012" y2="0" x2="1" y1="0" x1="0" id="linearGradient3132"/>
  <linearGradient xlink:href="#linearGradient650" y2="0.6875" x2="-0.104895" y1="0.710938" x1="1.34965" id="linearGradient3133"/>
  <linearGradient xlink:href="#linearGradient3061" y2="1.33594" x2="-0.426573" y1="0.070312" x1="0.937063" id="linearGradient3134"/>
  <linearGradient xlink:href="#linearGradient3109" y2="0.935065" x2="0.929412" y1="0.038961" x1="0.105882" id="linearGradient3136"/>
  <linearGradient xlink:href="#linearGradient3109" y2="0.414062" x2="0.690141" y1="0.171875" x1="0.43662" spreadMethod="reflect" id="linearGradient3137"/>
  <linearGradient xlink:href="#linearGradient3012" y2="-12.7366" x2="2.81852" y1="-12.7368" x1="0.272743" gradientTransform="translate(-5.55894e-007 -2.58904e-006)" id="linearGradient3138"/>
  <linearGradient xlink:href="#linearGradient3012" y2="6.80158" x2="2.81839" y1="6.80139" x1="0.272625" gradientTransform="matrix(1 0 0 0.999998 7.20433e-008 1.23579e-006)" id="linearGradient3139"/>
  <linearGradient xlink:href="#linearGradient650" y2="-4.35326" x2="2.95946" y1="-4.27679" x1="0.24662" id="linearGradient3140"/>
  <linearGradient xlink:href="#linearGradient650" y2="1.5359" x2="1.3519" y1="0.453594" x1="0.50947" gradientTransform="matrix(1 3.19529e-006 -1.53798e-006 1 5.09329e-007 -6.72258e-007)" id="linearGradient3141"/>
  <linearGradient xlink:href="#linearGradient650" y2="4.43555" x2="2.95054" y1="4.51202" x1="0.237715" gradientTransform="scale(1)" id="linearGradient3142"/>
  <linearGradient xlink:href="#linearGradient3042" y2="0" x2="1" y1="0" x1="0" id="linearGradient3143"/>
  <linearGradient xlink:href="#linearGradient3042" y2="-8.78881" x2="1.00891" y1="-8.78881" x1="0.008904" gradientTransform="scale(0.999999)" id="linearGradient3144"/>
  <linearGradient xlink:href="#linearGradient650" y2="0.398437" x2="4.09091" y1="0.398437" x1="-7.09091" id="linearGradient3145"/>
  <linearGradient xlink:href="#linearGradient3012" y2="0" x2="1" y1="0" x1="0" id="linearGradient3146"/>
  <linearGradient xlink:href="#linearGradient650" y2="0.320313" x2="12.8889" y1="0.3125" x1="-0.666667" id="linearGradient3147"/>
  <linearGradient xlink:href="#linearGradient3012" y2="0" x2="1" y1="0" x1="0" id="linearGradient3148"/>
  <linearGradient xlink:href="#linearGradient3012" y2="-1.93333" x2="0.542751" y1="1.10001" x1="0.527881" id="linearGradient3172"/>
  <linearGradient xlink:href="#linearGradient650" y2="-1.4" x2="0.524164" y1="0.833336" x1="0.513011" id="linearGradient3173"/>
  <linearGradient xlink:href="#linearGradient650" y2="-0.593749" x2="0.568773" y1="1.84376" x1="0.486989" id="linearGradient3174"/>
  <linearGradient xlink:href="#linearGradient3012" y2="0" x2="1" y1="0" x1="0" id="linearGradient3175"/>
  <linearGradient xlink:href="#linearGradient3012" y2="0" x2="1" y1="0" x1="0" id="linearGradient3176"/>
  <linearGradient xlink:href="#linearGradient3178" y2="0.171875" x2="0.72381" y1="0.953125" x1="0.076191" id="linearGradient3177"/>
  <linearGradient xlink:href="#linearGradient3042" y2="0.375813" x2="0.921533" y1="2.13172" x1="-1.2128" id="linearGradient3206"/>
  <linearGradient xlink:href="#linearGradient3042" y2="-0.485001" x2="1.76544" y1="0.867933" x1="0.120928" gradientTransform="scale(0.941732 1.06187)" id="linearGradient3207"/>
  <linearGradient xlink:href="#linearGradient3042" y2="0.467377" x2="1.76544" y1="1.82031" x1="0.120928" gradientTransform="scale(0.941732 1.06187)" id="linearGradient3208"/>
  <linearGradient xlink:href="#linearGradient3042" y2="-0.62091" x2="0.921533" y1="1.13499" x1="-1.2128" id="linearGradient3209"/>
  <linearGradient xlink:href="#linearGradient3042" y2="0" x2="0.999999" y1="0" x1="0" id="linearGradient3210"/>
  <linearGradient xlink:href="#linearGradient650" y2="0.34375" x2="-4.26666" y1="0.414062" x1="1.66666" id="linearGradient3211"/>
  <linearGradient xlink:href="#linearGradient3042" y2="0" x2="1" y1="0" x1="0" id="linearGradient3212"/>
  <linearGradient xlink:href="#linearGradient3178" id="linearGradient3213"/>
  <linearGradient xlink:href="#linearGradient3178" y2="0.921875" x2="0.867052" y1="0.078125" x1="0.080925" id="linearGradient3214"/>
  <linearGradient xlink:href="#linearGradient3042" y2="-0.201766" x2="0.675142" y1="1.47299" x1="-2.35686" id="linearGradient3215"/>
  <linearGradient xlink:href="#linearGradient3042" y2="-0.053216" x2="3.15556" y1="1.73776" x1="-0.086846" gradientTransform="scale(0.456186 -2.19209)" id="linearGradient3216"/>
  <linearGradient xlink:href="#linearGradient3042" y2="-1.43927" x2="3.14185" y1="0.351711" x1="-0.100556" gradientTransform="scale(0.456186 2.19209)" id="linearGradient3217"/>
  <linearGradient xlink:href="#linearGradient3042" y2="-0.679446" x2="2.378" y1="-2.38597" x1="-0.856079" id="linearGradient3218"/>
  <linearGradient xlink:href="#linearGradient3042" y2="0.787799" x2="2.37396" y1="-0.918725" x1="-0.860124" gradientTransform="scale(0.999999 -1)" id="linearGradient3219"/>
  <linearGradient xlink:href="#linearGradient3042" y2="0.671875" x2="2.34328" y1="0.578124" x1="-0.596998" id="linearGradient3220"/>
  <linearGradient xlink:href="#linearGradient3012" y2="0" x2="1" y1="0" x1="0" id="linearGradient3221"/>
  <linearGradient xlink:href="#linearGradient3178" y2="0.007812" x2="0.929581" y1="0.96875" x1="0.084509" id="linearGradient3222"/>
  <linearGradient xlink:href="#linearGradient3225" y2="0.425373" x2="-0.319998" y1="0.962685" x1="-0.373311" spreadMethod="reflect" id="linearGradient3224"/>
  <linearGradient xlink:href="#linearGradient650" y2="-0.039062" x2="2.10448" y1="0.984397" x1="-0.880541" id="linearGradient3228"/>
  <linearGradient xlink:href="#linearGradient3012" y2="0" x2="1" y1="0" x1="0" id="linearGradient3229"/>
  <linearGradient xlink:href="#linearGradient3012" y2="0" x2="1" y1="0" x1="0" id="linearGradient3230"/>
  <linearGradient xlink:href="#linearGradient650" y2="0.570311" x2="2.40679" y1="0.773397" x1="-0.124289" id="linearGradient3231"/>
  <linearGradient xlink:href="#linearGradient650" y2="0.742188" x2="0.866665" y1="0.28125" x1="-0.333335" id="linearGradient3232"/>
  <linearGradient xlink:href="#linearGradient3012" y2="0" x2="1" y1="0" x1="0" id="linearGradient3233"/>
  <linearGradient xlink:href="#linearGradient3012" y2="0" x2="1" y1="0" x1="0" id="linearGradient3234"/>
  <linearGradient xlink:href="#linearGradient650" y2="0.453125" x2="1.77157" y1="0.40625" x1="0.370558" id="linearGradient3235"/>
  <linearGradient xlink:href="#linearGradient3012" y2="0" x2="1" y1="0" x1="0" id="linearGradient3236"/>
  <linearGradient xlink:href="#linearGradient3012" y2="0.234375" x2="1.52381" y1="0.96875" x1="-0.380952" id="linearGradient3237"/>
  <linearGradient xlink:href="#linearGradient650" y2="0.188523" x2="2.13011" y1="0.860654" x1="0.029739" id="linearGradient3238"/>
  <linearGradient xlink:href="#linearGradient3012" y2="0.515624" x2="-0.093462" y1="0.546871" x1="1.43923" id="linearGradient3239"/>
  <linearGradient xlink:href="#linearGradient650" y2="0.476561" x2="-0.064522" y1="0.453111" x1="2.16101" gradientTransform="translate(-3.76605e-006 -1.91212e-007)" id="linearGradient3240"/>
  <linearGradient xlink:href="#linearGradient650" y2="0.554688" x2="0.140349" y1="0.523448" x1="1.78939" gradientTransform="translate(-1.73822e-006 2.54332e-007)" id="linearGradient3241"/>
  <linearGradient xlink:href="#linearGradient3012" y2="0" x2="0.999999" y1="0" x1="0" id="linearGradient3242"/>
  <linearGradient xlink:href="#linearGradient3012" y2="0" x2="1" y1="0" x1="0" id="linearGradient3243"/>
  <linearGradient xlink:href="#linearGradient3012" y2="0" x2="1" y1="0" x1="0" id="linearGradient3244"/>
  <linearGradient xlink:href="#linearGradient650" y2="0.039474" x2="1.76208" y1="-0.013154" x1="0.029748" id="linearGradient3245"/>
  <linearGradient xlink:href="#linearGradient3012" y2="0.603056" x2="0.644805" y1="0.366431" x1="0.480875" spreadMethod="reflect" gradientTransform="scale(1)" id="linearGradient3246"/>
  <linearGradient xlink:href="#linearGradient3225" id="linearGradient3247"/>
  <linearGradient xlink:href="#linearGradient650" y2="1.17858" x2="1.01116" y1="0.071597" x1="0.375709" gradientTransform="translate(9.47384e-007 1.87123e-006)" id="linearGradient3248"/>
  <linearGradient xlink:href="#linearGradient650" y2="2.11111" x2="0.706319" y1="-1.72211" x1="0.286241" gradientTransform="translate(-1.03672e-007 2.77896e-006)" id="linearGradient3249"/>
  <linearGradient xlink:href="#linearGradient650" y2="0.42969" x2="1.48299" y1="0.054712" x1="-0.326483" gradientTransform="scale(1.00001)" id="linearGradient3250"/>
  <linearGradient xlink:href="#linearGradient3012" y2="0" x2="1" y1="0" x1="0" id="linearGradient3251"/>
  <linearGradient xlink:href="#linearGradient3042" y2="0" x2="1" y1="0" x1="0" id="linearGradient3252"/>
  <linearGradient xlink:href="#linearGradient650" y2="0.515625" x2="3.04425" y1="0.398437" x1="-0.247788" id="linearGradient3253"/>
  <linearGradient xlink:href="#linearGradient3225" id="linearGradient3254"/>
  <linearGradient xlink:href="#linearGradient650" y2="0.492187" x2="12.1429" y1="0.523437" x1="-8.57143" gradientTransform="translate(-1.29641e-006 -2.1731e-008)" id="linearGradient3255"/>
  <linearGradient xlink:href="#linearGradient3258" y2="0.488" x2="0.531599" y1="0.008001" x1="0.527883" spreadMethod="reflect" id="linearGradient3257"/>
  <linearGradient xlink:href="#linearGradient3258" y2="0.414063" x2="-0.085714" y1="0.4375" x1="0.171434" id="linearGradient3261"/>
  <linearGradient xlink:href="#linearGradient3042" y2="0" x2="1" y1="0" x1="0" id="linearGradient3262"/>
  <linearGradient xlink:href="#linearGradient650" y2="0.265625" x2="3.6" y1="0.390625" x1="-0.4" id="linearGradient3263"/>
  <linearGradient xlink:href="#linearGradient3042" y2="0" x2="1" y1="0" x1="0" id="linearGradient3264"/>
  <linearGradient xlink:href="#linearGradient3258" y2="0.459459" x2="0.249071" y1="0.581093" x1="0.501863" id="linearGradient3265"/>
  <linearGradient xlink:href="#linearGradient3042" y2="0" x2="1" y1="0" x1="0" id="linearGradient3266"/>
  <linearGradient xlink:href="#linearGradient3258" y2="0.078125" x2="0.506276" y1="0.921874" x1="1.02092" id="linearGradient3267"/>
  <linearGradient xlink:href="#linearGradient3042" y2="0" x2="1" y1="0" x1="0" id="linearGradient3268"/>
  <linearGradient xlink:href="#linearGradient3258" y2="0.229727" x2="0.944823" y1="-0.989871" x1="0.040338" id="linearGradient3269"/>
  <linearGradient xlink:href="#linearGradient3258" y2="1.19195" x2="0.89421" y1="0.0596" x1="0.054432" gradientTransform="scale(1.02884 0.971966)" id="linearGradient3270"/>
  <linearGradient xlink:href="#linearGradient3012" y2="0.18638" x2="0.375164" y1="-0.947351" x1="1.14801" id="linearGradient3271"/>
  <linearGradient xlink:href="#linearGradient3012" y2="1.1517" x2="0.365304" y1="0.099078" x1="1.08286" gradientTransform="scale(1.02884 0.971966)" id="linearGradient3272"/>
  <linearGradient xlink:href="#linearGradient3012" y2="0" x2="1" y1="0" x1="0" gradientTransform="translate(1.02481e-006 1.86041e-007)" id="linearGradient3316"/>
  <linearGradient xlink:href="#linearGradient3012" y2="-0.629216" x2="1.34481" y1="-0.629216" x1="0.633361" gradientTransform="scale(0.902464 1.10808)" id="linearGradient3317"/>
  <linearGradient xlink:href="#linearGradient3012" y2="0" x2="0.999999" y1="0" x1="0" id="linearGradient3318"/>
  <linearGradient xlink:href="#linearGradient3012" y2="0.402597" x2="-0.025316" y1="0.422078" x1="0.974684" id="linearGradient3319"/>
  <linearGradient xlink:href="#linearGradient3034" y2="0.953125" x2="1.96202" y1="0.132815" x1="-0.405092" gradientTransform="translate(-1.50528e-006 3.09506e-007)" id="linearGradient3322"/>
  <linearGradient xlink:href="#linearGradient3012" y2="0.474026" x2="-0.342857" y1="0.474026" x1="1.22857" id="linearGradient3323"/>
  <linearGradient xlink:href="#linearGradient3225" y2="-1.25474" x2="0.937419" y1="2.25264" x1="0.966265" id="linearGradient3458"/>
  <linearGradient xlink:href="#linearGradient3225" y2="0" x2="-0.035146" y1="2.44303" x1="-0.015053" gradientTransform="scale(1.50828 0.663008)" id="linearGradient3459"/>
  <linearGradient xlink:href="#linearGradient3225" y2="0.574627" x2="-0.319998" y1="0.037315" x1="-0.373311" spreadMethod="reflect" id="svg_49"/>
  <linearGradient xlink:href="#linearGradient650" y2="0.65625" x2="-4.26666" y1="0.585938" x1="1.66666" id="svg_50"/>
  <linearGradient xlink:href="#linearGradient3042" y2="1" x2="0.999999" y1="1" x1="0" id="svg_51"/>
  <linearGradient xlink:href="#linearGradient3178" y2="0.992188" x2="0.929581" y1="0.03125" x1="0.084509" id="svg_52"/>
  <linearGradient xlink:href="#linearGradient3012" y2="1" x2="1" y1="1" x1="0" id="svg_53"/>
  <linearGradient xlink:href="#linearGradient3042" y2="1.67945" x2="2.378" y1="3.38597" x1="-0.856079" id="svg_54"/>
  <linearGradient xlink:href="#linearGradient3042" y2="1.05322" x2="3.15556" y1="-0.737763" x1="-0.086846" gradientTransform="scale(0.456186 -2.19209)" id="svg_55"/>
  <linearGradient xlink:href="#linearGradient3042" y2="0.212201" x2="2.37396" y1="1.91873" x1="-0.860124" gradientTransform="scale(0.999999 -1)" id="svg_56"/>
  <linearGradient xlink:href="#linearGradient650" y2="0.429689" x2="2.40679" y1="0.226603" x1="-0.124289" id="svg_57"/>
  <linearGradient xlink:href="#linearGradient3012" y2="1" x2="1" y1="1" x1="0" id="svg_58"/>
  <linearGradient xlink:href="#linearGradient3042" y2="2.43927" x2="3.14185" y1="0.648289" x1="-0.100556" gradientTransform="scale(0.456186 2.19209)" id="svg_59"/>
  <linearGradient xlink:href="#linearGradient3042" y2="1.62091" x2="0.921533" y1="-0.134992" x1="-1.2128" id="svg_60"/>
  <linearGradient xlink:href="#linearGradient3042" y2="1.485" x2="1.76544" y1="0.132067" x1="0.120928" gradientTransform="scale(0.941732 1.06187)" id="svg_61"/>
  <linearGradient xlink:href="#linearGradient3042" y2="0.624187" x2="0.921533" y1="-1.13172" x1="-1.2128" id="svg_62"/>
  <linearGradient xlink:href="#linearGradient3042" y2="0.532623" x2="1.76544" y1="-0.820311" x1="0.120928" gradientTransform="scale(0.941732 1.06187)" id="svg_63"/>
  <linearGradient xlink:href="#linearGradient3042" y2="0.328125" x2="2.34328" y1="0.421876" x1="-0.596998" id="svg_64"/>
  <linearGradient xlink:href="#linearGradient3042" y2="1.20177" x2="0.675142" y1="-0.47299" x1="-2.35686" id="svg_65"/>
  <linearGradient xlink:href="#linearGradient3178" y2="0.828125" x2="0.72381" y1="0.046875" x1="0.076191" id="svg_66"/>
  <linearGradient xlink:href="#linearGradient3042" y2="1" x2="1" y1="1" x1="0" id="svg_67"/>
  <linearGradient xlink:href="#linearGradient3178" y2="0.078125" x2="0.867052" y1="0.921875" x1="0.080925" id="svg_68"/>
  <linearGradient xlink:href="#linearGradient3178" y2="1" y1="1" id="svg_69"/>
  <linearGradient xlink:href="#linearGradient650" y2="0.546875" x2="1.77157" y1="0.59375" x1="0.370558" id="svg_70"/>
  <linearGradient xlink:href="#linearGradient3012" y2="1" x2="1" y1="1" x1="0" id="svg_71"/>
  <radialGradient xlink:href="#linearGradient3061" fy="0.484433" fx="0.50385" r="0.89979" cy="0.484433" cx="0.50385" id="svg_72"/>
  <pattern height="100" width="100" y="0" x="0" patternUnits="userSpaceOnUse" id="gridpattern">
   <image height="100" width="100" y="0" x="0"/>
  </pattern>
  <linearGradient y2="1" x2="0.492188" y1="0" x1="0.53125" id="svg_93">
   <stop offset="0.019531" stop-opacity="0.996094" stop-color="#ff5d00"/>
   <stop offset="0.972656" stop-opacity="0.988281" stop-color="#ffd98e"/>
  </linearGradient>
  <linearGradient y2="1" x2="0.40625" y1="0" x1="0.570313" id="svg_95">
   <stop offset="0" stop-opacity="0.992188" stop-color="#303030"/>
   <stop offset="1" stop-opacity="0.996094" stop-color="#7a7a7a"/>
  </linearGradient>
 </defs>
 <g>
  <title>Layer 1</title>
  <path d="m393.356995,795.81897l0,0l0,0l0,0l0,0l0,0l0,0zm-0.298004,-253.220947l0,0l0,0l0,0l0,0l0,0l0,0zm251.959991,-14.919006c66.942017,0.021973 86.049011,62.497986 86.049011,141.447998l0,0l0,0l0,0c0,78.94696 -16.474976,132.834961 -80.440979,140.528015c-25.492004,2.886963 -41.395996,0.672974 -63.460999,1.373962c-32.203003,-0.395996 -45.919006,0.692017 -63.247009,-3.430969c-18.763,-3.856018 -70.317017,2.453003 -176.583008,3.421997c0,-2.952026 0,0 -0.424988,-0.203003c-13.072021,0.516968 -158.225006,-3.367004 -188.073013,-4.630005c0,0 0,0 -2.197998,-1.023987c-67.363701,-2.638 -72.502899,-63.776001 -74.486397,-67.069031c-12.937302,-39.729004 -12.793304,-51.739014 -12.793304,-68.401978c0,-16.664001 -0.143997,-29.488037 12.695404,-69.093018c1.885498,-3.166992 6.922401,-64.70697 75.283302,-67.447998c30.843994,-1.367981 176.201981,-6.072998 189.947006,-5.607971c106.936981,0.918945 158.798981,6.509949 177.169006,2.523987c16.937012,-4.251038 30.652954,-3.157043 62.855957,-3.55603c22.065002,0.697021 32.960022,-1.615967 57.708008,1.16803l0,0z" stroke-width="0.781433" fill-rule="evenodd" fill="#ff7f00" id="path4177"/>
  <path d="m304.377014,668.520996c0.42099,18.304993 1.171997,96.830017 47.648987,116.229004c-23.473999,8.85498 -162.487,1.687988 -243.731003,-28.677979c-14.665794,-26.142029 -19.396996,-67.983032 -19.607796,-86.57605c-0.210899,-18.59198 4.520401,-60.430969 19.185799,-86.574951c81.244995,-30.362 220.258011,-37.531006 243.731003,-28.674011c-46.477997,19.395996 -47.22699,97.921997 -47.22699,114.273987l0,0l0,0z" stroke-width="0.781433" stroke="url(#linearGradient3125)" fill-rule="evenodd" fill="url(#linearGradient3126)" id="path4178"/>
  <path d="m578.843994,579.072998l-56.268005,-19.885986l0.859009,-9.007019l14.733032,1.776001l45.421997,16.947998l-4.52002,0.226013l-0.226013,9.942993l0,0l0,0l0,0z" stroke-width="0.781433" stroke="url(#linearGradient3268)" fill-rule="evenodd" fill="url(#linearGradient3267)" id="path4179"/>
  <path d="m368.32901,550.330994c-3.037018,0 -15.307007,-13.252991 -17.007996,-15.513977c-2.423004,-3.571045 -4.21701,-4.218018 -4.21701,-7.169006c106.264984,0.968018 161.294983,6.661011 179.427979,2.950989c8.222046,3.163025 5.059998,6.958008 3.373047,22.560974c-2.530029,2.193054 -17.83606,-0.210999 -20.873016,-0.210999c-49.759003,0 -86.024017,-2.31897 -135.78302,-2.31897l-4.919983,-0.299011l0,0z" stroke-width="0.781433" stroke="url(#linearGradient3071)" fill-rule="evenodd" fill="url(#linearGradient3045)" id="path4180"/>
  <path d="m368.47699,550.330994c-3.03598,0 -15.260986,-13.411987 -17.155975,-15.513977c-2.870026,-2.975037 152.439972,1.601013 179.850006,1.263977c1.474976,4.005981 0.420959,1.476013 -1.265991,17.078979c-2.530029,2.193054 -17.83606,-0.210999 -20.873016,-0.210999c-49.759003,0 -86.024017,-2.31897 -135.78302,-2.31897l0,0l-4.772003,-0.299011l0,0z" stroke-width="0.781433" stroke="url(#linearGradient3055)" fill-rule="evenodd" fill="url(#linearGradient3458)" id="path4181"/>
  <path d="m502.256989,538.978027c-1.320984,0 -8.348999,-0.766052 -8.348999,-2.087036l0,-0.89502c0,-1.320984 1.362,-2.086975 2.684021,-2.086975l26.835968,0.297974c1.321045,0 2.683044,0.468018 2.683044,1.789001l0,0.89502c0,1.320984 -3.151001,2.087036 -4.473022,2.087036l-19.381012,0l0,0z" stroke-width="0.781433" stroke="url(#linearGradient3104)" fill-rule="evenodd" fill="url(#linearGradient3047)" id="path4182"/>
  <path d="m404.618988,557.374023c-1.817993,0 -31.177979,-4.729004 -29.360992,-4.729004c37.372009,0 108.063019,-1.231018 144.317017,0.64801c2.708984,0.117981 3.390015,3.297974 2.981018,5.067993c-1.788025,8.050964 -5.048035,7.320007 -6.857056,7.156982c-36.477966,-3.578003 -69.369965,10.815002 -101.803986,-3.927002l-9.276001,-4.21698l0,0z" stroke-width="0.781433" stroke="url(#linearGradient3172)" fill-rule="evenodd" fill="url(#linearGradient3173)" id="path4183"/>
  <path d="m529.684021,549.70697c24.747986,0.696045 51.583984,-1.888977 76.034973,13.41803c20.622986,-8.846008 64.802002,8.547974 95.862,16.398987c-1.987,-7.752014 -10.387024,-14.460999 -7.304993,-22.362976c0.994019,-0.64502 1.541016,-2.632996 4.770996,-0.596008c-5.765015,-10.734985 -29.122009,-18.487 -45.919006,-26.835022c-24.747986,-2.782959 -44.130005,-1.391968 -66.19397,-2.087952c-32.203003,0.397949 -45.919006,-0.695007 -62.617004,3.279968c5.367004,1.491028 8.646973,4.770996 5.367004,18.784973l0,0l0,0l0,0z" stroke-width="0.781433" stroke="url(#linearGradient3073)" fill-rule="evenodd" fill="url(#linearGradient3046)" id="path4184"/>
  <path d="m529.684021,549.70697c24.747986,0.696045 51.583984,-1.888977 76.034973,13.41803c20.622986,-8.846008 64.802002,8.547974 95.862,16.398987c-1.987,-7.752014 -5.914001,-12.671997 -10.585022,-18.188965c-21.368958,-8.098999 -78.418945,-22.263 -100.483948,-22.959045c-22.513,-0.197998 -52.255005,-2.235962 -60.269043,-2.757996c1.325012,2.650024 1.080994,7.082031 -0.55896,14.088989l0,0l0,0l0,0l0,0l0,0l0,0l0,0l0,0z" stroke-width="0.781433" stroke="url(#linearGradient3056)" fill-rule="evenodd" fill="url(#linearGradient3459)" id="path4185"/>
  <path d="m414.316986,560.747009c-1.815979,0 -11.358978,-8.945984 -9.541992,-8.945984c37.372009,0 78.546021,-0.387024 114.800018,1.492004c2.708984,0.117981 3.390015,3.297974 2.981018,5.067993c-1.788025,8.050964 -5.048035,7.320007 -6.857056,7.156982c-36.477966,-3.578003 -64.008972,-4.770996 -101.381989,-4.770996l0,0z" stroke-width="0.781433" stroke="url(#linearGradient3175)" fill-rule="evenodd" fill="url(#linearGradient3174)" id="path4186"/>
  <path d="m527.320984,568.677979l0,-3.841003l12.655029,0l-0.226013,-5.42395l-16.044983,0c0,0 -1.807007,9.039001 3.615967,9.264954z" stroke-width="0.781433" stroke="url(#linearGradient3272)" fill-rule="evenodd" fill="url(#linearGradient3270)" id="path4187"/>
  <path d="m523.93103,559.638977l4.292969,0.226013l0.226013,-2.033997l9.94397,0l1.130005,-4.518982l-2.26001,-1.807983l-5.875977,0l-0.452026,3.162964l-7.230957,0.452026l0.226013,4.519958z" stroke-width="0.781433" stroke="url(#linearGradient3271)" fill-rule="evenodd" fill="url(#linearGradient3269)" id="path4188"/>
  <path d="m534.299988,550.335022l49.855042,18.855957l27.484985,2.236023l-12.14502,-9.268005l-33.557007,-10.226013l-31.638,-1.597961z" stroke-width="0.781433" stroke="url(#linearGradient3266)" fill-rule="evenodd" fill="url(#linearGradient3265)" id="path4189"/>
  <path d="m355.11499,557.796997l-3.372986,-3.585022l16.023987,-4.005981l66.837006,17.078979l-2.740997,7.379028c-25.161011,-9.41803 -50.743011,-12.721008 -76.747009,-16.867004l0,0z" stroke-width="0.781433" stroke="url(#linearGradient3144)" fill-rule="evenodd" fill="url(#linearGradient3140)" id="path4190"/>
  <path d="m373.248993,550.630005c-3.037994,0 18.972992,-3.169006 30.994019,-3.163025c4.132996,0.074036 93.824982,0.335999 125.662018,2.108032c0.632996,0.843018 0.421997,2.742004 0,3.584961c-2.530029,2.193054 -17.83606,-0.210999 -20.873016,-0.210999c-49.759003,0 -86.024017,-2.31897 -135.78302,-2.31897l0,0l0,0l0,0z" stroke-width="0.781433" stroke="url(#linearGradient3113)" fill-rule="evenodd" fill="url(#linearGradient3112)" id="path4191"/>
  <path d="m368.226013,550.159973c15.007996,-1.540955 23.040985,-1.315002 24.89798,-7.304993c7.757019,-25.988953 7.85202,-28.92395 26.835999,-28.625977l-11.628998,32.502014c-2.881989,-0.100037 -6.062988,0.098999 -6.858002,3.279968l11.628998,11.032043l-44.875977,-10.883057l0,0z" stroke-width="0.781433" stroke="url(#linearGradient3103)" fill-rule="evenodd" fill="url(#linearGradient3102)" id="path4192"/>
  <path d="m393.123993,542.85498c7.757019,-25.988953 7.85202,-28.92395 26.835999,-28.625977l-11.628998,32.502014c-2.881989,-0.100037 -6.062988,0.098999 -6.858002,3.279968c0,0 -10.205994,-1.166016 -8.348999,-7.156006l0,0z" stroke-width="0.781433" stroke="url(#linearGradient3101)" fill-rule="evenodd" fill="url(#linearGradient3100)" id="path4193"/>
  <path d="m579.132019,759.825989l-56.268005,19.887024l0.859009,9.011963l14.732971,-1.779968l45.421997,-16.945007l-4.52002,-0.231018l-0.225952,-9.942993l0,0l0,0l0,0z" stroke-width="0.781433" stroke="url(#linearGradient3268)" fill-rule="evenodd" fill="url(#linearGradient3267)" id="path4194"/>
  <rect height="72.9209" width="157.332" y="827.743" x="412.2" transform="matrix(0.922418 0 0 0.922418 55.0552 -125.452)" fill-rule="evenodd" fill="url(#linearGradient3257)" id="rect4195"/>
  <path d="m440.899994,654.127014l35.70401,2.485962c3.84201,-0.678955 -2.710999,-2.711975 17.174988,-2.485962c2.710999,0 29.828979,-1.130005 35.479004,-1.356018c16.872009,-2.26001 29.450989,-8.135986 45.872009,-9.492004c1.054993,-23.274963 1.432007,-42.257996 3.84198,-65.758972l-38.641968,-14.237l-105.30603,-0.226013l8.136017,9.71698l-2.26001,81.353027l0,0z" stroke-width="0.781433" stroke="url(#linearGradient3234)" fill-rule="evenodd" fill="url(#linearGradient3235)" id="path4196"/>
  <path d="m440.897003,651.637024c0,0 46.552002,1.807983 56.494995,1.355957c9.942017,-0.451965 52.878021,-4.971985 54.686005,-26.664978c1.807983,-21.694031 1.356018,-30.733032 1.356018,-30.733032c0.902954,-17.17395 -29.377014,-26.664978 -46.552032,-26.212952c-17.173981,0.450989 -9.037994,9.941956 -9.037994,9.941956l-56.946991,72.313049l0,0z" stroke-width="0.781433" stroke="url(#linearGradient3213)" fill-rule="evenodd" fill="url(#linearGradient3214)" id="path4197"/>
  <path d="m88.687202,669.531982c-0.210899,18.593994 4.520401,60.434998 19.186798,86.575989c-5.226997,0.240051 -22.157997,-12.267944 -25.818199,-18.133972c-12.784004,-39.377991 -12.639999,-52.310974 -12.639999,-68.658997m19.2714,0.180969c-0.210899,-18.59198 4.520401,-60.430969 19.186798,-86.574951c-5.226997,-0.247009 -22.157997,12.264954 -25.818199,18.138c-12.784004,39.375977 -12.639999,52.302002 -12.639999,68.654968l0,0" stroke-width="0.781433" stroke="url(#linearGradient3098)" fill-rule="evenodd" fill="url(#linearGradient3032)" id="path4198"/>
  <path d="m304.377014,668.520996c0.42099,18.304993 1.171997,96.830017 47.648987,116.229004c0.984009,0.838989 7.029999,-2.536987 2.95401,-4.216003c-42.919006,-19.822998 -42.589996,-94.132996 -42.801025,-112.723999c-0.210999,-18.593018 0.304016,-82.781006 41.536011,-110.190002c5.341003,-5.481995 -2.812988,-3.372986 -2.110992,-3.372986c-46.47699,19.395996 -47.22699,97.921997 -47.22699,114.273987l0,0l0,0l0,0z" stroke-width="0.781433" stroke="url(#linearGradient3091)" fill-rule="evenodd" fill="url(#linearGradient3090)" id="path4199"/>
  <rect height="4.20228" width="5.81856" y="818.313" x="230.075" transform="matrix(0.922418 0 0 0.922418 55.0552 -125.452)" stroke-width="0.781433" stroke="url(#linearGradient3139)" fill-rule="evenodd" fill="none" id="rect4200"/>
  <rect height="4.20227" width="5.81855" y="900.413" x="230.075" transform="matrix(0.922418 0 0 0.922418 55.0552 -125.452)" stroke-width="0.781431" stroke="url(#linearGradient3138)" fill-rule="evenodd" fill="none" id="rect4201"/>
  <path d="m83.3069,610.283997c-0.577003,0 -2.333298,3.354004 -2.619301,4.659973c-2.7229,7.723022 -3.552299,13.298035 -4.938896,21.272034c-0.597099,5.799011 -4.487106,28.994019 -4.684105,30.598999c0.121704,0.974976 0.891998,-0.325989 0.998901,-0.492981c2.563301,-4 2.389999,-9.079041 3.336304,-13.664001c1.369896,-6.783997 2.688599,-17.153992 4.941895,-26.205017c2.408005,-9.822021 6.203903,-20.356018 2.368805,-19.744995" stroke-width="0.976792" stroke-linejoin="round" stroke-linecap="square" stroke="url(#linearGradient3038)" fill-rule="evenodd" fill="none" id="path4202"/>
  <path d="m83.3069,728.297974c-0.577003,0 -2.333298,-3.348999 -2.619301,-4.658997c-2.7229,-7.719971 -3.552299,-13.300964 -4.938896,-21.270996c-0.597099,-5.802002 -4.487106,-28.992981 -4.684105,-30.597961c0.121704,-0.975037 0.891998,0.324951 0.998901,0.492004c2.563301,4.000977 2.389999,9.080994 3.336304,13.669006c1.369896,6.779968 2.688599,17.147949 4.941895,26.205994c2.408005,9.813965 6.203903,20.347961 2.368805,19.738953" stroke-width="0.976792" stroke-linejoin="round" stroke-linecap="square" stroke="url(#linearGradient3039)" fill-rule="evenodd" fill="none" id="path4203"/>
  <path d="m107.873001,756.107971c3.946999,9.963013 10.077995,33.02301 48.822998,49.285034c-67.364098,-2.638 -72.810097,-64.486023 -74.640198,-67.419006" stroke-width="0.781433" stroke="url(#linearGradient3099)" fill-rule="evenodd" fill="url(#linearGradient3040)" id="path4204"/>
  <path d="m107.873001,756.107971c3.946999,9.963013 10.077995,33.02301 48.822998,49.285034c-57.822601,-16.658997 -62.374001,-54.643982 -64.204002,-57.585999" stroke-width="0.781433" stroke="#ffff00" fill-rule="evenodd" fill="url(#linearGradient3033)" id="path4205"/>
  <path d="m105.819,772.721008c0.002998,-2.601013 -2.100998,-4.703979 -4.695999,-4.703979c-2.595604,0 -4.698898,2.102966 -4.696503,4.703979c-0.002396,2.59198 2.100899,4.695007 4.696503,4.695007c2.595001,0 4.698997,-2.103027 4.695999,-4.695007l0,0z" fill-rule="evenodd" fill="url(#radialGradient3037)" id="path4206"/>
  <path d="m368.050995,788.70697c-8.85498,-2.362 -14.429993,-3.541992 -16.024994,-3.95697c-23.473999,8.85498 -162.487,1.687988 -243.731003,-28.677979c6.840004,25.513977 27.125,41.48999 50.598999,50.344971c29.847,1.264038 175.000992,5.147034 188.072006,4.630981c5.061005,-8.430969 13.072998,-16.022949 21.084991,-22.341003l0,0z" stroke-width="0.781433" stroke="url(#linearGradient3069)" fill-rule="evenodd" fill="url(#linearGradient3041)" id="path4207"/>
  <path d="m368.050995,788.70697c-8.85498,-2.362 -14.429993,-3.541992 -16.024994,-3.95697c-23.473999,8.85498 -162.487,1.687988 -243.731003,-28.677979c2.202003,4.427002 4.354004,13.651001 10.117004,20.402954c59.787994,21.502014 136.626999,24.970032 233.193008,27.830017c8.011993,-8.015991 8.43399,-9.279968 16.445984,-15.598022l0,0l0,0z" stroke-width="0.781433" stroke="url(#linearGradient3068)" fill-rule="evenodd" fill="url(#linearGradient3031)" id="path4208"/>
  <path d="m368.617004,788.567993c-3.037018,0 -15.306,13.255005 -17.007996,15.515015c-2.423004,3.570007 -4.216003,4.216003 -4.216003,7.167969c106.264984,-0.968994 161.294983,-6.659973 179.427002,-2.951965c8.223022,-3.164001 5.060974,-6.955017 3.373962,-22.562012c-2.529968,-2.187012 -17.836975,0.211975 -20.873962,0.211975c-49.759003,0 -86.024017,2.324036 -135.78302,2.324036l-4.919983,0.294983l0,0z" stroke-width="0.781433" stroke="url(#linearGradient3071)" fill-rule="evenodd" fill="url(#linearGradient3045)" id="path4209"/>
  <path d="m107.574997,582.767029c3.947006,-9.962036 10.078003,-33.02002 48.822998,-49.282043c-67.364395,2.639038 -72.810295,64.484009 -74.640396,67.421021" stroke-width="0.781433" stroke="url(#linearGradient3132)" fill-rule="evenodd" fill="url(#linearGradient3133)" id="path4210"/>
  <path d="m107.574997,582.767029c3.947006,-9.962036 10.078003,-33.02002 48.822998,-49.282043c-57.822792,16.653015 -62.374191,54.64502 -64.204292,57.582031" stroke-width="0.781433" stroke="#ffff00" fill-rule="evenodd" fill="url(#linearGradient3134)" id="path4211"/>
  <path d="m105.521004,566.15802c0.001999,2.593994 -2.101006,4.699951 -4.696007,4.699951c-2.595894,0 -4.699196,-2.105957 -4.696594,-4.699951c-0.002602,-2.596008 2.1007,-4.702026 4.696594,-4.702026c2.595001,0 4.698006,2.106018 4.696007,4.702026l0,0z" fill-rule="evenodd" fill="url(#svg_72)" id="path4212"/>
  <path d="m365.752991,551.172974c-8.855988,2.360046 -14.429993,3.53302 -16.024994,3.955017c-23.473999,-8.85498 -162.487991,-1.687012 -243.730995,28.674988c6.839996,-25.513 27.124992,-41.487 50.598991,-50.34198c29.847,-1.265015 175.000015,-5.151978 188.073013,-4.637024c5.059998,8.434021 13.071991,16.024048 21.083984,22.348999l0,0z" stroke-width="0.781433" stroke="url(#linearGradient3131)" fill-rule="evenodd" fill="url(#linearGradient3130)" id="path4213"/>
  <path d="m367.752991,550.172974c-8.855988,2.360046 -14.429993,3.53302 -16.024994,3.955017c-23.473999,-8.85498 -162.487991,-1.687012 -243.730995,28.674988c2.201996,-4.428955 4.353996,-13.656006 10.116997,-20.401978c59.787003,-21.505981 136.626999,-24.971008 233.193008,-27.830994c8.011993,8.013 8.43399,9.278015 16.445984,15.602966l0,0l0,0z" stroke-width="0.781433" stroke="url(#linearGradient3127)" fill-rule="evenodd" fill="url(#linearGradient3128)" id="path4214"/>
  <path d="m367.209015,564.781982c-9.162018,0 -16.445007,3.911011 -24.457001,20.241028c-18.133026,29.237 -21.085022,133.533997 0,167.404968c9.276978,21.815002 19.089996,21.511047 28.673981,20.662048l17.931,-3.33905c1.244995,-10.284973 2.25,-20.873962 3.045013,-31.573975c0.794983,-10.700012 -0.825012,-18.403015 -5.175018,-29.877991c9.681,-9.64801 7.583008,-23.622986 7.654022,-33.916016c0.069977,-10.291992 -0.012024,-20.278015 -0.218018,-29.752014c-0.820984,-37.89801 -3.609985,-67.600952 -6.506989,-75.959961l-20.946991,-3.889038l0,0l0,0l0,0l0,0l0,0l0,0z" stroke-width="0.781433" stroke="url(#linearGradient3081)" fill-rule="evenodd" fill="url(#linearGradient3065)" id="path4215"/>
  <path d="m419.653015,726.572998c0,7.572998 -1.869019,13.716003 -4.174011,13.716003c-2.306,0 -18.188995,2.5 -18.487,-15.210999c1.192993,-17.710022 16.181,-12.221985 18.487,-12.221985c2.304993,0 4.174011,6.133972 4.174011,13.71698l0,0z" stroke-width="0.781433" stroke="url(#linearGradient3097)" fill-rule="evenodd" fill="url(#linearGradient3096)" id="path4216"/>
  <path d="m419.653015,726.572998c0,-7.583008 -1.869019,-13.71698 -4.174011,-13.71698c-2.306,0 -4.175018,6.133972 -4.175018,13.71698c0,7.572998 1.869019,13.716003 4.175018,13.716003c2.304993,0 4.174011,-6.143005 4.174011,-13.716003l0,0z" stroke="url(#linearGradient3095)" fill-rule="evenodd" fill="url(#linearGradient3094)" id="path4217"/>
  <path d="m419.653015,726.416016c0,-3.53302 -1.268005,-6.411011 -2.833008,-6.411011c-1.563995,0 -2.832001,2.877991 -2.832001,6.411011c0,3.541992 1.268005,6.411011 2.832001,6.411011c1.565002,0 2.833008,-2.869019 2.833008,-6.411011l0,0z" fill-rule="evenodd" fill="#000080" id="path4218"/>
  <path d="m387.144989,707.348999l17.443024,6.559021l-0.447021,20.72699l-15.505005,5.810974l-7.006989,-17.14801l5.515991,-15.948975z" stroke-width="0.781433" stroke="url(#linearGradient3089)" fill-rule="evenodd" fill="url(#linearGradient3084)" id="path4219"/>
  <path d="m388.04599,724.93103c0,12.267944 -3.460999,17.737976 -12.075989,21.915955c-8.31601,0 -18.93399,-9.352966 -18.93399,-21.620972c0,-12.268005 12.108978,-19.832031 20.424988,-19.832031c5.632996,2.093994 10.584991,7.269043 10.584991,19.537048l0,0z" stroke-width="0.781433" stroke="url(#linearGradient3088)" fill-rule="evenodd" fill="url(#linearGradient3086)" id="path4221"/>
  <path d="m353.458008,725.226013c-0.212006,10.562012 13.126007,26.924988 21.86499,25.651978c4.589996,-0.654968 2.63501,-4.437012 0.647003,-4.031006c-8.31601,0 -18.93399,-9.352966 -18.93399,-21.620972c0,-12.268005 12.108978,-19.832031 20.424988,-19.832031c2.18399,-1.27301 2.759003,-4.334961 0.653015,-4.445984c-13.133026,-0.674011 -24.235016,15.192017 -24.656006,24.278015l0,0l0,0l0,0z" stroke-width="0.781433" stroke="url(#linearGradient3083)" fill-rule="evenodd" fill="url(#linearGradient3082)" id="path4222"/>
  <path d="m388.04599,724.93103c0,12.267944 -3.460999,17.737976 -12.075989,21.915955c11.661011,0.591003 13.566986,-1.153015 13.714996,-21.768982c-0.14801,-21.067993 -3.992004,-21.768982 -12.223999,-19.684021c5.632996,2.093994 10.584991,7.269043 10.584991,19.537048l0,0l0,0l0,0z" stroke-width="0.781433" stroke="url(#linearGradient3087)" fill-rule="evenodd" fill="url(#linearGradient3085)" id="path4223"/>
  <path d="m406.675995,725.90802c0.520996,4.123962 2.282013,48.657959 12.242004,9.399963c0.006012,1.697021 0.231995,8.679993 -0.157013,11.263c-0.779999,5.174011 -2.829987,8.255005 -6.866974,8.18103c-8.076019,-0.147034 -10.139008,-12.054993 -10.139008,-28.401001c0,-16.335999 4.149994,-29.738037 14.462006,-30.033997l0.083984,2.703003c-8.123993,3.126953 -9.625,18.716003 -9.625,26.888l0,0l0,0l0,0l0,0l0,0z" stroke-width="0.781433" stroke="url(#linearGradient3093)" fill-rule="evenodd" fill="url(#linearGradient3092)" id="path4224"/>
  <path d="m411.934998,649.164978l0.381989,39.487c7.275024,0.028015 0.83902,24.093018 8.024017,60.824036l-1.686005,-149.27301c-2.539001,23.478027 0.588989,48.742981 -6.720001,48.961975l0,0z" stroke-width="0.781433" stroke="url(#linearGradient3106)" fill-rule="evenodd" fill="url(#linearGradient3066)" id="path4225"/>
  <path d="m394.89801,645.473999l0,47.107971l19.979004,-5.359985l0,-36.97699l-19.979004,-4.770996l0,0z" stroke-width="0.781433" stroke="url(#linearGradient3105)" fill-rule="evenodd" fill="url(#linearGradient3067)" id="path4226"/>
  <path d="m395.196014,660.086975c-2.478027,0 -4.473022,1.994019 -4.473022,4.472046c0,2.981995 0,5.962952 0,8.945007c0,2.477966 1.994995,4.472961 4.473022,4.472961c4.969971,0 11.926971,-2.591003 15.504974,-4.770996c2.483002,-1.649963 2.262024,-7.002014 0,-8.945007c-3.578003,-2.776001 -10.535004,-4.174011 -15.504974,-4.174011l0,0l0,0z" stroke-width="0.781433" stroke="url(#linearGradient3078)" fill-rule="evenodd" id="path4227"/>
  <path d="m407.122986,684.685974c0.522003,1.642029 3.280029,4.621033 4.473022,4.621033c1.320984,0 1.341003,-0.913025 1.341003,-2.231995c0,-11.53302 0,-23.062988 0,-34.592041c0,-1.32196 0.076996,-3.118958 -1.341003,-2.534973c-1.606995,0.786987 -3.389008,1.710999 -4.25,3.280029c-1.07901,2.042969 -0.675018,30.214966 -0.223022,31.457947l0,0z" stroke-width="0.781433" stroke="url(#linearGradient3079)" fill-rule="evenodd" fill="url(#linearGradient3080)" id="path4228"/>
  <path d="m338.533997,668.263977c1.972992,-91.870972 27.161011,-89.966003 49.337006,-97.408997c-5.968994,7.413025 -4.709991,65.506042 -4.639008,98.252014c0.069,31.914978 -3.557983,99.343018 5.061005,95.718018c-27.312988,0.276978 -51.321014,-23.419983 -49.759003,-96.561035l0,0z" stroke-width="0.781433" stroke="url(#linearGradient3064)" fill-rule="evenodd" fill="none" id="path4229"/>
  <path d="m335.518005,654.16803c0,2.692993 3.079987,7.883972 3.651001,-1.380005c0.324982,-5.032043 0.681,-9.727051 1.141998,-14.105042c0.92099,-8.755005 1.992004,-16.284973 3.645996,-22.674011c3.196014,-12.751953 10.691986,-23.409973 9.033997,-24.691956c-4.378998,-3.665039 -17.473999,37.18396 -17.472992,62.851013l0,0z" stroke-width="0.781433" stroke="url(#linearGradient3075)" fill-rule="evenodd" fill="url(#linearGradient3077)" id="path4230"/>
  <path d="m335.096008,683.539001c0,-2.692993 3.080994,-7.883972 3.651978,1.377014c0.324005,5.036987 0.680023,9.731995 1.141022,14.112976c0.92099,8.754028 1.992004,16.281006 3.645996,22.673035c3.195984,12.747986 10.692993,23.41095 9.033997,24.69397c-4.378998,3.661011 -17.472992,-37.192993 -17.472992,-62.856995l0,0z" stroke-width="0.781433" stroke="url(#linearGradient3074)" fill-rule="evenodd" fill="url(#linearGradient3076)" id="path4231"/>
  <path d="m699.635986,555.421997c0,0 -3.578003,-2.088013 -5.067993,0.893982c-1.492004,2.981995 -1.789978,2.981995 8.348999,25.644043c5.067993,11.329956 8.273987,18.112976 11.73999,25.865967c2.869995,15.80304 4.808044,48.677002 4.957031,61.499023c-0.148987,12.820984 -2.087036,45.698975 -4.957031,61.5c-3.466003,7.747986 -6.671997,14.536987 -11.73999,25.86499c-10.138977,22.664001 -9.841003,22.664001 -8.349976,25.643005c1.490967,2.979004 5.06897,0.89502 5.06897,0.89502" stroke-width="0.781433" stroke="url(#linearGradient3318)" fill-rule="evenodd" fill="none" id="path4232"/>
  <path d="m731.124023,669.359009c0,78.945984 -16.186035,132.537964 -84.32605,140.424988c14.307007,-1.742981 50.923035,-21.289001 53.236023,-26.703979c10.562988,-23.411011 20.351013,-73.332031 20.351013,-112.804993c0,-39.475037 -7.455017,-92.960022 -20.567993,-114.382019c-7.626038,-11.697021 -25.554016,-17.575012 -46.512024,-27.117981c61.314026,4.362 77.819031,61.633972 77.819031,140.583984l0,0l0,0l0,0l0,0z" stroke-width="0.781433" stroke="url(#linearGradient3176)" fill-rule="evenodd" fill="url(#linearGradient3060)" id="path4233"/>
  <path d="m605.461975,560.986023c17.14801,-6.466003 62.971008,7.72998 94.457031,16.023987c26.424988,61.846008 20.380981,124.536987 0.843994,183.008972c-31.486023,8.856018 -73.093018,26.142029 -94.458008,15.184021c27.410034,-17.434021 22.911987,-72.013977 22.770996,-107.953003c-0.138977,-35.463013 4.497986,-83.494019 -23.614014,-106.263977c0,0 0,0 0,0l0,0z" stroke-width="0.781433" stroke="url(#linearGradient3319)" fill-rule="evenodd" fill="none" id="path4234"/>
  <path d="m529.971985,789.195984c24.749023,-0.700989 51.584045,1.890991 76.033997,-13.421997c20.624023,8.846008 64.804016,-8.549988 95.864014,-16.399963c-1.987976,7.756958 -10.387024,14.462952 -7.305969,22.367981c0.993958,0.645996 1.539978,2.628967 4.770996,0.591003c-5.764038,10.737 -29.122009,18.484985 -45.919006,26.833008c-24.747986,2.786011 -44.130005,1.393005 -66.195007,2.093994c-32.202026,-0.397034 -45.91803,0.692017 -62.616028,-3.283997c5.367004,-1.484985 8.64801,-4.769043 5.367004,-18.780029l0,0l0,0l0,0z" stroke-width="0.781433" stroke="url(#linearGradient3073)" fill-rule="evenodd" fill="url(#linearGradient3046)" id="path4235"/>
  <path d="m529.971985,789.195984c24.749023,-0.700989 51.584045,1.890991 76.033997,-13.421997c20.624023,8.846008 64.804016,-8.549988 95.864014,-16.399963c-1.987976,7.756958 -5.914001,12.67395 -10.585022,18.190002c-21.369995,8.098999 -78.419983,22.266968 -100.485962,22.958984c-22.510986,0.203003 -52.255005,2.240967 -60.268005,2.757996c1.325012,-2.647034 1.080994,-7.083984 -0.559021,-14.085022l0,0l0,0l0,0l0,0l0,0l0,0l0,0l0,0z" stroke-width="0.781433" stroke="url(#linearGradient3072)" fill-rule="evenodd" fill="url(#linearGradient653)" id="path4236"/>
  <path d="m605.461975,560.986023c11.334045,-3.335999 14.965027,-2.40802 23.490051,-0.675049c18.078003,63.040039 11.437988,156.143005 0.247986,216.404053c-7.036011,3.191956 -12.562012,4.233948 -22.89502,-1.512024c27.410034,-17.434021 22.911987,-72.013977 22.770996,-107.953003c-0.138977,-35.463013 4.497986,-83.494019 -23.614014,-106.263977c0,0 0,0 0,0l0,0l0,0z" stroke-width="0.781433" stroke="url(#linearGradient3236)" fill-rule="evenodd" fill="url(#linearGradient3237)" id="path4237"/>
  <path d="m527.609009,770.221008l0,3.846985l12.654968,0l-0.225952,5.424011l-16.045044,0c0,0 -1.807007,-9.039978 3.616028,-9.270996z" stroke-width="0.781433" stroke="url(#linearGradient3272)" fill-rule="evenodd" fill="url(#linearGradient3270)" id="path4238"/>
  <path d="m524.218994,779.260986l4.294006,-0.22998l0.226013,2.037964l9.942993,0l1.130005,4.52002l-2.26001,1.807983l-5.875,0l-0.452026,-3.164001l-7.231995,-0.451965l0.226013,-4.52002z" stroke-width="0.781433" stroke="url(#linearGradient3271)" fill-rule="evenodd" fill="url(#linearGradient3269)" id="path4239"/>
  <path d="m505.263,610.672974l0.42099,-23.613953l-9.276978,-10.54303c0,0 -29.096008,-5.903992 -37.108002,-5.903992c-8.013,0 -16.025024,2.109009 -16.025024,2.109009c0,0 0,0 -2.529999,78.437012c0,0 3.69101,-1.79303 5.219025,-3.795044c2.612,1.684021 9.328979,1.264038 13.335999,1.264038c8.011993,0 37.108002,-5.903015 37.108002,-5.903015l9.276978,-10.541992l-0.42099,-23.614014" stroke-width="0.781428" stroke="url(#linearGradient3212)" fill-rule="evenodd" fill="url(#linearGradient3177)" id="path4240"/>
  <path d="m540.440002,627.005981c-3.004028,0 -4.179993,-5.695984 -4.179993,-8.699951c0,-8.437012 0,-8.625 0,-17.061035c0,-3.005981 1.062012,-8.700989 4.067017,-8.700989c2.710999,0 5.422974,0 8.134949,0c3.005005,0 5.424011,1.854004 5.424011,4.859009c-3.84198,1.430969 -5.649963,20.601013 0,25.30896c0.025024,3.157043 -2.305969,4.294006 -5.310974,4.294006l-8.13501,0l0,0l0,0z" stroke-width="0.781433" stroke="url(#linearGradient3215)" fill-rule="evenodd" fill="url(#linearGradient3220)" id="path4241"/>
  <path d="m446.015991,640.192017l0,-30.151001l34.578003,0l0,24.669006c-11.735992,1.19397 -23.684998,2.177979 -34.578003,5.481995l0,0z" stroke-width="0.781433" stroke="url(#linearGradient3208)" fill-rule="evenodd" fill="none" id="path4242"/>
  <path d="m480.384003,634.499023l0,-24.669006l24.880005,0l0.209991,23.825989l-25.089996,0.843018l0,0z" stroke-width="0.781433" stroke="url(#linearGradient3206)" fill-rule="evenodd" fill="none" id="path4243"/>
  <path d="m446.015991,579.549011l0,30.151001l34.578003,0l0,-24.669006c-11.735992,-1.194031 -23.684998,-2.177979 -34.578003,-5.481995l0,0z" stroke-width="0.781433" stroke="url(#linearGradient3207)" fill-rule="evenodd" fill="none" id="path4244"/>
  <path d="m480.384003,585.242981l0,24.66803l24.880005,0l0.209991,-23.825012l-25.089996,-0.843018l0,0z" stroke-width="0.781433" stroke="url(#linearGradient3209)" fill-rule="evenodd" fill="none" id="path4245"/>
  <path d="m505.022003,586.939026c5.325989,0.212952 10.652008,0.425964 15.977997,0.638977c4.474976,-1.491028 7.98999,-3.940979 11.505005,-7.349976c-11.39801,-5.327026 -23.115997,-7.137024 -36.112,-7.350037c-0.319,5.965027 3.514984,10.013 8.628998,14.061035l0,0z" stroke-width="0.781433" stroke="url(#linearGradient3217)" fill-rule="evenodd" fill="none" id="path4246"/>
  <path d="m569.932983,594.468994l2.26001,-12.203003l-21.69397,-0.677979l6.553955,15.817993l12.880005,-2.937012z" stroke-width="0.781433" stroke="url(#linearGradient3230)" fill-rule="evenodd" fill="url(#linearGradient3231)" id="path4247"/>
  <path d="m538.578003,593.010986c4.473022,0.213013 8.947021,0.426025 13.421997,0.639038c2.289978,-14.700012 -39.521973,-24.767029 -55.127991,-21.571045l-0.639008,2.077026c31.63797,-2.184021 42.983002,7.935974 42.345001,18.85498l0,0z" fill-rule="evenodd" fill="url(#linearGradient3219)" id="path4248"/>
  <rect ry="2.44975" height="18.4963" width="9.43181" y="-692.26" x="557.025" transform="matrix(0.922418 0 0 -0.922418 52.0552 -39.452)" stroke-width="0.726845" stroke="url(#linearGradient3229)" fill-rule="evenodd" fill="url(#linearGradient3228)" id="rect4249"/>
  <path d="m504.79599,632.883972c5.326019,-0.212952 10.652008,-0.427002 15.977997,-0.639954c4.475037,1.490967 7.98999,3.941956 11.505005,7.349976c-11.39801,5.327026 -23.115997,7.138 -36.112,7.351013c-0.319,-5.965027 3.515015,-10.013977 8.628998,-14.061035l0,0z" stroke-width="0.781433" stroke="url(#linearGradient3216)" fill-rule="evenodd" fill="none" id="path4250"/>
  <path d="m538.35199,626.810974c4.473022,-0.212952 8.947021,-0.425964 13.421997,-0.638977c2.290039,14.700989 -39.521973,24.767029 -55.127991,21.572021l-0.639008,-2.078003c31.638031,2.18396 42.984039,-7.936035 42.345001,-18.855042l0,0z" fill-rule="evenodd" fill="url(#linearGradient3218)" id="path4251"/>
  <path d="m563.942017,602.713989c10.734009,-1.919983 13.776978,-11.294006 3.954956,-12.088989c-8.166992,-0.653992 -12.654968,3.276001 -17.174988,11.862976c0,0 -0.226013,7.343994 -0.112,7.966003c-0.114014,0.621033 0.112,7.965027 0.112,7.965027c4.52002,8.588013 7.630005,15.054993 15.819031,14.800964c10.951965,-0.342957 4.971985,-9.942993 -2.712036,-15.816956l0.113037,-14.689026z" stroke-width="0.781433" stroke="url(#linearGradient3221)" fill-rule="evenodd" fill="url(#linearGradient3222)" id="path4252"/>
  <path d="m509.596008,563.960999c10.357971,7.720032 24.411011,9.328979 34.800964,15.366028c5.525024,3.270996 9.115051,10.583984 8.587036,18.078979c1.205994,-0.903992 2.409973,-1.807983 3.615967,-2.712036c-1.130005,-8.700989 -6.187988,-17.158997 -13.55896,-20.338989c-18.385986,-7.993958 -20.677002,-6.250977 -19.660034,-21.692993c-3.313965,-0.151001 -5.950989,0.150024 -9.264954,0c-1.506042,3.765991 -3.013031,7.531982 -4.52002,11.299011l0,0z" stroke-width="0.781433" stroke="url(#linearGradient3233)" fill-rule="evenodd" fill="url(#linearGradient3232)" id="path4253"/>
  <path d="m561.835999,532.552979c-0.497009,-3.20697 -6.27301,-4.974976 -12.901978,-3.94696c-6.630005,1.026978 -11.601013,4.458008 -11.104004,7.664978c0.497009,3.207031 6.27301,4.973999 12.901978,3.947021c6.630005,-1.026001 11.601013,-4.459045 11.104004,-7.665039z" stroke="#00007f" fill-rule="evenodd" fill="url(#linearGradient3141)" id="path4254"/>
  <path d="m440.311005,770.672974l3.035004,-6.234985c-0.85202,-32.442017 -2.502014,-64.873962 -2.556,-97.312988c-0.052002,-31.424988 1.492004,-62.85199 2.237,-94.278015l-3.994995,-6.070984l-3.995026,-0.320007l-7.496979,102.187012l7.177979,102.187012l5.593018,-0.157043l0,0l0,0l0,0z" stroke-width="0.781433" stroke="url(#linearGradient3254)" fill-rule="evenodd" fill="url(#linearGradient3255)" id="path4255"/>
  <path d="m443.346008,764.437988c-0.85202,-32.442017 -2.502014,-64.873962 -2.556,-97.312988c-0.052002,-31.424988 1.492004,-62.85199 2.237,-94.278015l-3.994995,-6.070984c2.610992,33.554993 -0.903015,67.111023 -0.799011,100.667969c-0.053009,34.353027 2.131012,68.713013 1.757996,103.063049l3.355011,-6.069031l0,0z" stroke-width="0.781433" fill-rule="evenodd" id="path4256"/>
  <path d="m534.588013,788.567993l49.85498,-18.862976l27.484009,-2.231995l-12.143005,9.269958l-33.557007,10.220032l-31.638977,1.60498z" stroke-width="0.781433" stroke="url(#linearGradient3266)" fill-rule="evenodd" fill="url(#linearGradient3265)" id="path4257"/>
  <path d="m528.197021,546.960022l0.31897,5.112976c0,0 67.752014,-0.890015 82.132996,19.244995c16.960022,26.414001 15.890991,95.39801 15.484009,95.971985c-7.494019,25.531006 -1.10498,83.044006 -16.794983,100.238037c-23.390991,22.654968 -80.182983,20.717957 -80.182983,20.717957l0.319946,1.595032c0,0 64.876038,4.473999 85.009033,-22.690979c20.133972,-27.165039 15.339966,-77.658997 16.299011,-99.707031c0.958984,-22.050964 0.958984,-93.317993 -25.886047,-106.421021c-26.844971,-13.102966 -76.699951,-13.102966 -76.699951,-14.061951l0,0l0,0l0,0z" stroke-width="0.781433" stroke="url(#linearGradient3264)" fill-rule="evenodd" fill="url(#linearGradient3263)" id="path4258"/>
  <path d="m574.536011,661.370972c0,0 -41.226013,-5.432983 -49.215027,-5.432983c-7.98999,0 -9.268982,1.278015 -9.588013,11.505005c-0.319946,10.22699 -0.319946,15.660034 9.907043,15.341003c10.22699,-0.320007 49.534973,-7.031982 49.534973,-7.031982l-0.638977,-14.381042z" stroke-width="0.781433" stroke="url(#linearGradient3243)" fill-rule="evenodd" fill="url(#linearGradient3238)" id="path4259"/>
  <path d="m537.783997,657.216003c0,0 -4.473999,-1.278015 -12.463013,-1.278015c-7.98999,0 -9.268982,1.278015 -9.588013,11.505005c-0.319946,10.22699 -0.319946,15.660034 9.907043,15.341003c5.752991,-0.320007 7.351013,-0.960022 11.823975,-1.278992l0.320007,-24.289001l0,0z" stroke-width="0.781433" stroke="url(#linearGradient3242)" fill-rule="evenodd" fill="url(#linearGradient3239)" id="path4260"/>
  <rect ry="3.11814" height="18.709" width="8.31513" y="851.963" x="541.692" transform="matrix(0.922418 0 0 0.922418 55.0552 -125.452)" fill-rule="evenodd" fill="url(#linearGradient3241)" id="rect4261"/>
  <rect ry="3.46458" height="17.3231" width="4.15756" y="853.003" x="521.597" transform="matrix(0.922418 0 0 0.922418 55.0552 -125.452)" fill-rule="evenodd" fill="url(#linearGradient3240)" id="rect4262"/>
  <path d="m447.703003,598.442993c2.528992,-23.401978 -4.21701,-18.132019 -4.21701,-18.132019c0,0 -0.212006,-7.589966 -2.742004,70.847046c0,0 3.69101,-1.79303 5.219025,-3.795044l1.73999,-48.919983z" stroke-width="0.781428" stroke="url(#linearGradient3210)" fill-rule="evenodd" fill="url(#linearGradient3211)" id="path4263"/>
  <path d="m454.692993,663.606995c0,0 28.294006,-0.237 32.916016,-3.195007c3.367004,-2.154968 23.649994,-2.557007 25.567017,0.319031c1.917969,2.875977 3.195984,14.381958 0,16.299988c-3.195038,1.916992 -20.134033,2.555969 -25.886017,0c-5.753021,-2.557007 -4.794006,-3.515991 -13.423004,-3.515991c-8.627991,0 -29.721008,0 -29.721008,0l0.320007,-9.90802l10.22699,0l0,0z" stroke-width="0.781433" stroke="url(#linearGradient3244)" fill-rule="evenodd" fill="url(#linearGradient3245)" id="path4264"/>
  <path d="m367.209015,564.781982c-9.162018,0 -16.445007,3.911011 -24.457001,20.241028c-18.133026,29.237 -21.085022,133.533997 0,167.404968c9.276978,21.815002 19.089996,21.511047 28.673981,20.662048l33.735016,-6.318054c23.078003,-2.951965 18.132996,-6.023987 15.179993,-17.295959l-1.686005,-149.27301c2.529999,-21.812012 9.584015,-26.143982 -8.43399,-28.252991l-43.011993,-7.16803l0,0l0,0z" stroke-width="0.781433" stroke="url(#linearGradient3108)" fill-rule="evenodd" fill="none" id="path4265"/>
  <path d="m425.821014,674.846008c-1.265015,18.721985 2.436981,71.945984 6.324982,90.505005c0.984009,0.839966 -73.089996,16.862 -77.165985,15.182983c-42.919006,-19.822998 -42.589996,-94.132996 -42.801025,-112.723999c-0.210999,-18.593018 0.304016,-82.781006 41.536011,-110.190002c5.341003,-4.005981 67.608002,12.440002 79.485992,14.548035c-9.580994,38.161987 -7.379974,86.325989 -7.379974,102.677979l0,0l0,0l0,0l0,0l0,0z" stroke-width="0.781433" stroke="url(#linearGradient3136)" fill-rule="evenodd" fill="url(#linearGradient3137)" id="path4266"/>
  <path d="m563.942017,602.713989c10.734009,-1.919983 13.776978,-11.294006 3.954956,-12.088989c-8.166992,-0.653992 -12.654968,3.276001 -17.174988,11.862976c0,0 -0.226013,7.343994 -0.112,7.966003c-0.114014,0.621033 0.112,7.965027 0.112,7.965027c4.52002,8.588013 7.630005,15.054993 15.819031,14.800964c10.951965,-0.342957 4.971985,-9.942993 -2.712036,-15.816956l0.113037,-14.689026z" fill-rule="evenodd" fill="url(#linearGradient3224)" id="path4267"/>
  <path d="m439.671997,657.216003c14.700989,0 20.77301,-0.638977 20.77301,11.823975c0.319,11.825012 -4.794006,12.46405 -20.77301,11.825012l0,-17.895996l0,-5.752991l0,0z" stroke-width="0.781433" stroke="url(#linearGradient3252)" fill-rule="evenodd" fill="url(#linearGradient3253)" id="path4268"/>
  <path d="m439.671997,662.968994c13.421997,-0.320007 14.062012,0 14.062012,5.432007c0,5.432983 0.319977,7.031982 -14.062012,6.711975l0,-12.143982l0,0z" stroke-width="0.781433" stroke="url(#linearGradient3251)" fill-rule="evenodd" fill="url(#linearGradient3250)" id="path4269"/>
  <rect height="2.77167" width="41.5755" y="860.273" x="433.596" transform="matrix(0.922418 0 0 0.922418 55.0552 -125.452)" fill-rule="evenodd" fill="url(#linearGradient3249)" id="rect4270"/>
  <rect ry="1.03936" height="5.19696" width="16.9767" y="858.893" x="443.643" transform="matrix(0.922418 0 0 0.922418 55.0552 -125.452)" fill-rule="evenodd" fill="url(#linearGradient3248)" id="rect4271"/>
  <rect ry="2.77163" height="14.205" width="19.7484" y="854.043" x="474.825" transform="matrix(0.922418 0 0 0.922418 55.0552 -125.452)" stroke-width="0.781433" stroke="url(#linearGradient3247)" fill-rule="evenodd" fill="url(#linearGradient3246)" id="rect4272"/>
  <path d="m355.403992,781.106018l-3.372986,3.578979l16.598999,4.013l67.126007,-17.369995l-2.740997,-8.246033c-25.161011,9.41803 -51.607025,13.873047 -77.611023,18.024048l0,0l0,0l0,0z" stroke-width="0.781433" stroke="url(#linearGradient3144)" fill-rule="evenodd" fill="url(#linearGradient3140)" id="path4273"/>
  <path d="m356.141998,556.872009l-3.373993,-3.585022l16.023987,-4.005981l66.837006,17.078979l-2.740997,7.379028c-25.160004,-9.41803 -50.742004,-12.721008 -76.746002,-16.867004l0,0z" stroke-width="0.781433" stroke="url(#linearGradient3143)" fill-rule="evenodd" fill="url(#linearGradient3142)" id="path4274"/>
  <path d="m579.330017,568.052002l30.679993,3.197021c0,0 18.856018,17.895996 16.619019,101.94696c-2.238037,84.046997 -17.259033,94.913025 -17.259033,94.913025l-29.401001,1.919006c0,0 -7.119995,-65.584045 -5.697021,-102.673035c1.483032,-38.229004 4.738037,-98.982971 5.058044,-99.302979l0,0z" stroke-width="0.781433" stroke="url(#linearGradient3262)" fill-rule="evenodd" fill="url(#linearGradient3261)" id="path4275"/>
  <g transform="matrix(0.922418 0 0 0.922418 55.0552 -125.452)" font-size="12" id="g4276">
   <path d="m418.609985,877.171021l38.707001,-2.694031c4.165009,0.734985 -2.939972,2.939026 18.619019,2.694031c2.940002,0 32.337982,1.224976 38.462006,1.474976c18.291992,2.450012 31.929993,8.809998 49.731995,10.280029c1.143005,25.23999 1.552002,45.819946 4.164978,71.299988l-41.891968,15.429993l-114.163025,0.23999l8.819,-10.529968l-2.449005,-88.195007l0,0z" stroke-width="0.781433" stroke="url(#svg_71)" fill-rule="evenodd" fill="url(#svg_70)" id="path4277"/>
   <path d="m418.606995,879.866028c0,0 50.466003,-1.960022 61.244995,-1.470032c10.779999,0.48999 57.325989,5.390015 59.286011,28.910034c1.960022,23.519958 1.469971,33.319946 1.469971,33.319946c0.980042,18.619995 -31.847961,28.910034 -50.465973,28.420044c-18.618988,-0.48999 -9.799988,-10.780029 -9.799988,-10.780029l-61.735016,-78.399963l0,0z" stroke-width="0.781433" stroke="url(#svg_69)" fill-rule="evenodd" fill="url(#svg_68)" id="path4278"/>
   <path d="m488.38501,924.276001l0.457977,25.599976l-10.057983,11.430054c0,0 -31.542999,6.399963 -40.229004,6.399963c-8.686005,0 -17.372009,-2.279968 -17.372009,-2.279968c0,0 0,0 -2.742981,-85.040039c0,0 4,1.950012 5.656982,4.119995c2.832001,-1.829956 10.115021,-1.369995 14.458008,-1.369995c8.686005,0 40.229004,6.400024 40.229004,6.400024l10.057983,11.429993l-0.457977,25.599976" stroke-width="0.781428" stroke="url(#svg_67)" fill-rule="evenodd" fill="url(#svg_66)" id="path4279"/>
   <path d="m526.521973,906.575989c-3.257996,0 -4.532959,6.169983 -4.532959,9.429993c0,9.150024 0,9.350037 0,18.5c0,3.25 1.153015,9.429993 4.409973,9.429993c2.940002,0 5.880005,0 8.819031,0c3.257996,0 5.880005,-2.009949 5.880005,-5.269958c-4.165039,-1.549988 -6.125,-22.330017 0,-27.440002c0.027954,-3.419983 -2.5,-4.650024 -5.757019,-4.650024l-8.819031,0l0,0l0,0z" stroke-width="0.781433" stroke="url(#svg_65)" fill-rule="evenodd" fill="url(#svg_64)" id="path4280"/>
   <path d="m424.156006,892.276001l0,32.690002l37.485992,0l0,-26.73999c-12.723999,-1.299988 -25.675995,-2.369995 -37.485992,-5.950012l0,0z" stroke-width="0.781433" stroke="url(#svg_63)" fill-rule="evenodd" fill="none" id="path4281"/>
   <path d="m461.414001,898.445984l0,26.75l26.971985,0l0.229004,-25.829956l-27.200989,-0.920044l0,0z" stroke-width="0.781433" stroke="url(#svg_62)" fill-rule="evenodd" fill="none" id="path4282"/>
   <path d="m424.156006,958.026001l0,-32.690002l37.485992,0l0,26.73999c-12.723999,1.299988 -25.675995,2.359985 -37.485992,5.950012l0,0z" stroke-width="0.781433" stroke="url(#svg_61)" fill-rule="evenodd" fill="none" id="path4283"/>
   <path d="m461.414001,951.846008l0,-26.73999l26.971985,0l0.229004,25.829956l-27.200989,0.910034l0,0z" stroke-width="0.781433" stroke="url(#svg_60)" fill-rule="evenodd" fill="none" id="path4284"/>
   <path d="m488.123993,950.005981c5.774017,-0.22998 11.549011,-0.459961 17.322998,-0.690002c4.850006,1.619995 8.66098,4.27002 12.472015,7.970032c-12.356995,5.77002 -25.059998,7.73999 -39.149017,7.969971c-0.346985,-6.469971 3.811005,-10.859985 9.354004,-15.25l0,0z" stroke-width="0.781433" stroke="url(#svg_59)" fill-rule="evenodd" fill="none" id="path4285"/>
   <path d="m558.494995,941.846008l2.450012,13.22998l-23.518005,0.73999l7.104004,-17.149963l13.963989,3.179993z" stroke-width="0.781433" stroke="url(#svg_58)" fill-rule="evenodd" fill="url(#svg_57)" id="path4286"/>
   <path d="m524.502014,943.426025c4.851013,-0.230042 9.700989,-0.460022 14.550964,-0.690002c2.483032,15.940002 -42.844971,26.849976 -59.763977,23.380005l-0.692993,-2.25c34.299988,2.369995 46.598999,-8.600037 45.906006,-20.440002l0,0z" fill-rule="evenodd" fill="url(#svg_56)" id="path4287"/>
   <rect ry="2.44975" height="18.4963" width="9.43181" y="936.823" x="554.085" stroke-width="0.726845" stroke="url(#linearGradient3229)" fill-rule="evenodd" fill="url(#linearGradient3228)" id="rect4288"/>
   <path d="m487.878998,900.205994c5.774017,0.22998 11.549011,0.460022 17.322998,0.690002c4.850006,-1.619995 8.66098,-4.27002 12.472015,-7.969971c-12.357025,-5.77002 -25.059998,-7.740051 -39.149017,-7.970032c-0.346985,6.470032 3.811005,10.859985 9.354004,15.25l0,0z" stroke-width="0.781433" stroke="url(#svg_55)" fill-rule="evenodd" fill="none" id="path4289"/>
   <path d="m524.257019,906.786011c4.850952,0.22998 9.700989,0.459961 14.550964,0.690002c2.483032,-15.940002 -42.844971,-26.850037 -59.763977,-23.380005l-0.692993,2.25c34.299988,-2.369995 46.598999,8.599976 45.906006,20.440002l0,0z" fill-rule="evenodd" fill="url(#svg_54)" id="path4290"/>
   <path d="m552,932.906006c11.637024,2.080017 14.934998,12.25 4.288025,13.109985c-8.854004,0.710022 -13.719055,-3.549988 -18.619019,-12.859985c0,0 -0.244995,-7.960022 -0.122986,-8.640015c-0.122009,-0.669983 0.122986,-8.630005 0.122986,-8.630005c4.899963,-9.309998 8.270996,-16.320007 17.148987,-16.049988c11.872009,0.369995 5.388977,10.780029 -2.940002,17.150024l0.122009,15.919983z" stroke-width="0.781433" stroke="url(#svg_53)" fill-rule="evenodd" fill="url(#svg_52)" id="path4291"/>
   <path d="m425.984009,937.536011c2.742981,25.369995 -4.572021,19.659973 -4.572021,19.659973c0,0 -0.227997,8.230042 -2.970978,-76.809998c0,0 4,1.950012 5.656982,4.119995l1.886017,53.030029z" stroke-width="0.781428" stroke="url(#svg_51)" fill-rule="evenodd" fill="url(#svg_50)" id="path4292"/>
   <path d="m552,932.906006c11.637024,2.080017 14.934998,12.25 4.288025,13.109985c-8.854004,0.710022 -13.719055,-3.549988 -18.619019,-12.859985c0,0 -0.244995,-7.960022 -0.122986,-8.640015c-0.122009,-0.669983 0.122986,-8.630005 0.122986,-8.630005c4.899963,-9.309998 8.270996,-16.320007 17.148987,-16.049988c11.872009,0.369995 5.388977,10.780029 -2.940002,17.150024l0.122009,15.919983z" fill-rule="evenodd" fill="url(#svg_49)" id="path4293"/>
  </g>
  <path d="m678.30603,581.085022c7.740967,4.812988 14.712952,11.778992 20.567993,20.384949c11.708984,17.213013 18.950989,40.992004 18.950989,67.259033c0,26.268982 -7.242004,50.039978 -18.950989,67.260986c-5.855042,8.606995 -12.827026,15.570984 -20.567993,20.377014" stroke-width="1.38917" stroke="url(#linearGradient3323)" fill-rule="evenodd" fill="none" id="path4294"/>
  <g transform="matrix(0.922418 0 0 0.922418 55.0552 -125.452)" font-size="12" id="g4295">
   <path d="m692.812988,981.466003l6.950012,1.460022c8.000977,-4.800049 16.809021,-17.430054 12.606995,-32.410034c-2.585999,-2.909973 -5.81897,0.650024 -7.757996,1.940002c-7.890991,18.530029 -9.718018,17.950012 -11.799011,29.01001l0,0l0,0l0,0z" stroke="url(#linearGradient3317)" fill-rule="evenodd" fill="url(#linearGradient3053)" id="path4296"/>
   <path d="m704.085999,969.265991c1.60199,-3.809998 1.54303,-7.76001 -0.130005,-8.830017c-1.674011,-1.059998 -4.328979,1.160034 -5.929993,4.960022c-1.601013,3.799988 -1.54303,7.75 0.130981,8.820007c1.673035,1.070007 4.328003,-1.150024 5.929016,-4.950012l0,0z" fill-rule="evenodd" fill="none" id="path4297"/>
   <path d="m692.812988,981.466003c2.046997,0.650024 4.903015,0.809998 6.950012,1.460022c8.000977,-4.800049 16.809021,-17.430054 12.606995,-32.410034c-2.585999,-2.909973 -5.81897,0.650024 -7.757996,1.940002c1.830994,10.130005 -0.216003,23.25 -11.799011,29.01001l0,0l0,0z" stroke="url(#linearGradient3317)" fill-rule="evenodd" fill="url(#linearGradient3053)" id="path4298"/>
   <path d="m717.86499,926.036011c-0.403992,6.190002 -3.231995,16.51001 -5.494995,24.47998c-2.585999,-2.909973 -5.81897,0.650024 -7.757996,1.940002c4.741028,-11.200012 8.296997,-22.219971 13.252991,-26.419983l0,0z" stroke="url(#linearGradient3316)" fill-rule="evenodd" fill="url(#linearGradient3054)" id="path4299"/>
   <path d="m704.869995,969.705994c1.60199,-3.799988 1.54303,-7.75 -0.130005,-8.820007c-1.674011,-1.070007 -4.328979,1.150024 -5.929993,4.950012c-1.60199,3.809998 -1.542969,7.76001 0.130005,8.830017c1.674011,1.059998 4.328979,-1.150024 5.929993,-4.960022l0,0z" fill-rule="evenodd" fill="url(#radialGradient3058)" id="path4300"/>
   <path d="m692.812988,981.466003l6.950012,1.460022c8.000977,-4.800049 16.809021,-17.430054 12.606995,-32.410034c-2.585999,-2.909973 -5.81897,0.650024 -7.757996,1.940002c-7.890991,18.530029 -9.718018,17.950012 -11.799011,29.01001l0,0l0,0l0,0z" fill-rule="evenodd" fill="url(#linearGradient3322)" id="path4301"/>
  </g>
  <g transform="matrix(0.922418 0 0 -0.922418 39.4807 1056.12)" font-size="12" id="g4302">
   <path d="m710.01001,539.719971l6.950012,1.455017c8.000977,-4.794983 16.80896,-17.429016 12.606995,-32.405975c-2.585999,-2.909027 -5.819031,0.645996 -7.757996,1.938995c-7.890991,18.526001 -9.718018,17.945007 -11.799011,29.011963l0,0l0,0l0,0z" stroke="url(#linearGradient3317)" fill-rule="evenodd" fill="url(#linearGradient3053)" id="path4303"/>
   <path d="m721.28302,527.512024c1.60199,-3.804016 1.542969,-7.754028 -0.130005,-8.821045c-1.674011,-1.06897 -4.329041,1.150024 -5.929993,4.954041c-1.602051,3.803955 -1.54303,7.752991 0.130981,8.820984c1.672974,1.067993 4.328003,-1.150024 5.929016,-4.953979l0,0z" fill-rule="evenodd" fill="none" id="path4304"/>
   <path d="m710.01001,539.719971c2.046997,0.647034 4.903015,0.809021 6.950012,1.455017c8.000977,-4.794983 16.80896,-17.429016 12.606995,-32.405975c-2.585999,-2.909027 -5.819031,0.645996 -7.757996,1.938995c1.830994,10.128967 -0.216003,23.247986 -11.799011,29.011963l0,0l0,0z" stroke="url(#linearGradient3317)" fill-rule="evenodd" fill="url(#linearGradient3053)" id="path4305"/>
   <path d="m735.062012,484.282013c-0.403992,6.195984 -3.231995,16.513 -5.494995,24.487c-2.585999,-2.909027 -5.819031,0.645996 -7.757996,1.938995c4.740967,-11.205994 8.296997,-22.223022 13.252991,-26.425995l0,0z" stroke="url(#linearGradient3316)" fill-rule="evenodd" fill="url(#linearGradient3054)" id="path4306"/>
   <path d="m722.067017,527.958008c1.60199,-3.804016 1.542969,-7.754028 -0.130005,-8.822021c-1.674011,-1.067993 -4.329041,1.150024 -5.929993,4.954041c-1.60199,3.803955 -1.54303,7.753967 0.130005,8.82196c1.67395,1.067993 4.328979,-1.149963 5.929993,-4.953979l0,0z" fill-rule="evenodd" fill="url(#radialGradient3058)" id="path4307"/>
   <path d="m710.01001,539.719971l6.950012,1.455017c8.000977,-4.794983 16.80896,-17.429016 12.606995,-32.405975c-2.585999,-2.909027 -5.819031,0.645996 -7.757996,1.938995c-7.890991,18.526001 -9.718018,17.945007 -11.799011,29.011963l0,0l0,0l0,0z" fill-rule="evenodd" fill="url(#linearGradient3322)" id="path4308"/>
  </g>
  <path d="m368.765991,788.567993c-3.036987,0 -15.260986,13.411987 -17.156982,15.515015c-2.871002,2.971008 152.440002,-1.60498 179.848999,-1.263c1.476013,-4.004028 0.422974,-1.476013 -1.264038,-17.083008c-2.529968,-2.187012 -17.836975,0.211975 -20.873962,0.211975c-49.759003,0 -86.024017,2.324036 -135.78302,2.324036l0,0l-4.770996,0.294983l0,0z" stroke-width="0.781433" stroke="url(#linearGradient3070)" fill-rule="evenodd" fill="url(#linearGradient3011)" id="path4309"/>
  <path d="m502.545013,799.922974c-1.322021,0 -8.348999,0.766052 -8.348999,2.085022l0,0.89502c0,1.31897 1.362,2.083984 2.68399,2.083984l26.835999,-0.294983c1.320984,0 2.684021,-0.470032 2.684021,-1.789001l0,-0.89502c0,-1.31897 -3.151001,-2.085022 -4.473022,-2.085022l-19.381989,0l0,0z" stroke-width="0.781433" stroke="url(#linearGradient3104)" fill-rule="evenodd" fill="url(#linearGradient3047)" id="path4310"/>
  <path d="m404.907013,781.530029c-1.817017,0 -30.025024,6.161987 -28.208008,6.161987c37.372009,0 106.91098,-0.203003 143.163971,-2.085022c2.709045,-0.119995 3.390015,-3.302002 2.981995,-5.072998c-1.789978,-8.042969 -5.04895,-7.315002 -6.857971,-7.148987c-36.47699,3.578979 -69.369995,-10.820007 -101.803009,3.921021l-9.276978,4.223999l0,0l0,0z" stroke-width="0.781433" stroke="url(#linearGradient3172)" fill-rule="evenodd" fill="url(#linearGradient3173)" id="path4311"/>
  <path d="m414.605988,778.153992c-1.817993,0 -11.358978,8.947998 -9.541992,8.947998c37.372009,0 78.54599,0.387024 114.798981,-1.494995c2.709045,-0.119995 3.390015,-3.302002 2.981995,-5.072998c-1.789978,-8.042969 -5.04895,-7.315002 -6.857971,-7.148987c-36.47699,3.578979 -64.01001,4.768982 -101.381012,4.768982l0,0z" stroke-width="0.781433" stroke="url(#linearGradient3175)" fill-rule="evenodd" fill="url(#linearGradient3174)" id="path4312"/>
  <path d="m373.536987,788.27301c-3.036987,0 18.973999,3.164001 30.994019,3.164001c4.132996,-0.074036 93.825989,-0.341003 125.662964,-2.112c0.633057,-0.840027 0.421021,-2.73999 0,-3.588013c-2.529968,-2.187012 -17.836975,0.211975 -20.873962,0.211975c-49.759003,0 -86.024017,2.324036 -135.78302,2.324036l0,0l0,0l0,0z" stroke-width="0.781433" stroke="url(#linearGradient3113)" fill-rule="evenodd" fill="url(#linearGradient3112)" id="path4313"/>
  <path d="m368.514008,788.744019c15.009003,1.539978 23.040985,1.30896 24.89798,7.304993c7.757019,25.984985 7.853027,28.917969 26.835999,28.622986l-11.628998,-32.505981c-2.882996,0.101013 -6.062988,-0.093018 -6.858002,-3.275024l11.629028,-11.031982l-44.876007,10.88501l0,0z" stroke-width="0.781433" stroke="url(#linearGradient3103)" fill-rule="evenodd" fill="url(#linearGradient3102)" id="path4314"/>
  <path d="m393.411987,796.049011c7.757019,25.984985 7.853027,28.917969 26.835999,28.622986l-11.628998,-32.505981c-2.882996,0.101013 -6.062988,-0.093018 -6.858002,-3.275024c0,0 -10.205994,1.161987 -8.348999,7.15802l0,0z" stroke-width="0.781433" stroke="url(#linearGradient3101)" fill-rule="evenodd" fill="url(#linearGradient3100)" id="path4315"/>
  <path d="m509.88501,773.836975c10.356995,-7.719971 24.409973,-9.333984 34.799988,-15.367004c5.525024,-3.274963 9.114014,-10.589966 8.588013,-18.079956c1.203979,0.903992 2.409973,1.807983 3.61499,2.711975c-1.130005,8.699036 -6.187988,17.156982 -13.559021,20.340027c-18.385986,7.987976 -20.675964,6.244995 -19.659973,21.685974c-3.314026,0.156982 -5.950012,-0.14801 -9.263977,0c-1.507019,-3.763977 -3.014038,-7.526978 -4.52002,-11.291016l0,0z" stroke-width="0.781433" stroke="url(#linearGradient3233)" fill-rule="evenodd" fill="url(#linearGradient3232)" id="path4316"/>
  <g transform="matrix(0.922418 0 0 0.922418 55.0552 -125.452)" font-size="12" id="g4317">
   <path d="m408.470001,863.107971c-0.105988,-24.018982 -1.264008,-71.189941 9.506012,-107.395996c-0.457001,-4.954956 -4.856018,-3.172974 -6.434021,-3.214966c-12.467987,37.084961 -9.714996,98.119019 -9.652985,116.765015c0.061005,18.643982 -2.815002,63.873962 9.652985,100.963989c1.578003,-0.040039 5.97702,1.73999 6.434021,-3.220032c-10.77002,-36.199951 -9.735016,-83.73999 -9.506012,-103.89801l0,0z" stroke-width="0.781433" stroke="url(#linearGradient3146)" fill-rule="evenodd" fill="url(#linearGradient3145)" id="path4318"/>
   <path d="m404.795013,861.148987c-0.106018,-24.019958 0.940979,-70.455017 10.485992,-108.131958c-1.192017,-1.525024 -2.161011,-0.478027 -3.739014,-0.52002c-12.467987,37.084961 -9.714996,98.119019 -9.652985,116.765015c0.061005,18.643982 -2.815002,63.873962 9.652985,100.963989c1.578003,-0.040039 2.546997,1.25 3.248993,-1.5c-8.809998,-37.190002 -10.469971,-84.730042 -10.240997,-104.882996l0.245026,0l0,-2.694031l0,0z" stroke-width="0.781433" stroke="url(#linearGradient3148)" fill-rule="evenodd" fill="url(#linearGradient3147)" id="path4319"/>
  </g>
  <path d="m403.100006,551.47998l135.699982,0.920044l40.400024,14.799988l-141.200012,-0.400024l-26.399994,-7.200012" stroke-width="0.781433" stroke-linejoin="null" stroke-linecap="null" stroke-dasharray="null" stroke="url(#linearGradient3136)" fill="url(#linearGradient3137)" id="svg_78"/>
  <path d="m403.899994,787.47998l130.899994,0.52002l45.600037,-18l-141.200012,0.400024l-23.200012,4.799988l-6.399994,6" stroke-width="0.781433" stroke-linejoin="null" stroke-linecap="null" stroke-dasharray="null" stroke="url(#linearGradient3136)" fill="url(#linearGradient3137)" id="svg_80"/>
  <path d="m580.700012,769.880005l28.099976,-1.47998l6.400024,-10.800049l2.800049,-11.599976l3.999939,-18.799988l3.200012,-26.400024l0.799988,-25.599976l0,-23.200012l-0.799988,-24.799988l-3.200012,-18.799988l-4.400024,-22l-7.199951,-15.200012l-31.600037,-4l-4,85.599976l-0.399963,39.200012l3.199951,51.200012l1.200012,20.399963" stroke-width="0.781433" stroke-linejoin="null" stroke-linecap="null" stroke-dasharray="null" stroke="url(#linearGradient3136)" fill="url(#linearGradient3137)" id="svg_82"/>
  <path d="m439.100006,567.080017l139.300018,0.119995l-3.200012,61.200012l-1.200012,57.199951l3.200012,58l2.399963,24.400024l-0.399963,2.400024l-140.400024,-0.400024l4.400024,-5.599976l-2.400024,-74.800049l-0.799988,-17.199951l0.399994,-22.800049l2.800018,-76.799988c-1.367004,-1.906982 -2.733002,-3.812988 -4.100006,-5.719971z" stroke-width="0.781433" stroke-linejoin="null" stroke-linecap="null" stroke-dasharray="null" stroke="url(#linearGradient3136)" fill="url(#svg_93)" id="svg_83"/>
  <rect height="4.8" width="141.6" y="764.68" x="439.1" stroke-width="0" stroke-linejoin="null" stroke-linecap="null" stroke-dasharray="null" stroke="url(#linearGradient3136)" fill="url(#svg_95)" id="svg_86"/>
  <rect height="4.8" width="141.6" y="567.08" x="438.699" stroke-width="0" stroke-linejoin="null" stroke-linecap="null" stroke-dasharray="null" stroke="url(#linearGradient3136)" fill="url(#svg_95)" id="svg_88"/>
  <path d="m581.500061,768.679993l-3.900024,-24.679993l-2.799988,-51.599976l0,-29.600037l1.200012,-34.399963l2.399963,-37.200012l0.800049,-19.200012l-6.400024,0l-2,57.19989l-0.799927,33.599915l-0.000061,30.000183l2.800049,52.000061l1.599915,24.000061" stroke-width="0" stroke-linejoin="null" stroke-linecap="null" stroke-dasharray="null" stroke="url(#linearGradient3136)" fill="url(#svg_95)" id="svg_91"/>
 </g>
</svg>