<?xml version="1.0" encoding="UTF-8" standalone="no"?>
<!-- Created with Inkscape (http://www.inkscape.org/) -->

<svg
   xmlns:dc="http://purl.org/dc/elements/1.1/"
   xmlns:cc="http://creativecommons.org/ns#"
   xmlns:rdf="http://www.w3.org/1999/02/22-rdf-syntax-ns#"
   xmlns:svg="http://www.w3.org/2000/svg"
   xmlns="http://www.w3.org/2000/svg"
   xmlns:xlink="http://www.w3.org/1999/xlink"
   xmlns:sodipodi="http://sodipodi.sourceforge.net/DTD/sodipodi-0.dtd"
   xmlns:inkscape="http://www.inkscape.org/namespaces/inkscape"
   width="289.98999"
   height="190.34772"
   id="svg2"
   sodipodi:version="0.32"
   inkscape:version="0.48.3.1 r9886"
   sodipodi:docname="frog.svg"
   version="1.1">
  <defs
     id="defs4">
    <linearGradient
       inkscape:collect="always"
       id="linearGradient16469">
      <stop
         style="stop-color:#ffffff;stop-opacity:1;"
         offset="0"
         id="stop16471" />
      <stop
         style="stop-color:#ffffff;stop-opacity:0;"
         offset="1"
         id="stop16473" />
    </linearGradient>
    <linearGradient
       id="linearGradient12036">
      <stop
         style="stop-color:#007000;stop-opacity:1;"
         offset="0"
         id="stop12038" />
      <stop
         id="stop12044"
         offset="0.5"
         style="stop-color:#008100;stop-opacity:1;" />
      <stop
         style="stop-color:#004c00;stop-opacity:1;"
         offset="1"
         id="stop12040" />
    </linearGradient>
    <linearGradient
       inkscape:collect="always"
       id="linearGradient4055">
      <stop
         style="stop-color:#93e42a;stop-opacity:1;"
         offset="0"
         id="stop4057" />
      <stop
         style="stop-color:#93e42a;stop-opacity:0;"
         offset="1"
         id="stop4059" />
    </linearGradient>
    <linearGradient
       inkscape:collect="always"
       xlink:href="#linearGradient4055"
       id="linearGradient11142"
       gradientUnits="userSpaceOnUse"
       gradientTransform="translate(-573.0434,194.1562)"
       x1="689.58221"
       y1="140.56271"
       x2="1107.2654"
       y2="-24.000799" />
    <radialGradient
       inkscape:collect="always"
       xlink:href="#linearGradient12036"
       id="radialGradient12042"
       cx="294.68018"
       cy="-100.10563"
       fx="294.68018"
       fy="-100.10563"
       r="31.00503"
       gradientTransform="matrix(1,0,0,0.648083,-103.8442,-19.68332)"
       gradientUnits="userSpaceOnUse" />
    <radialGradient
       inkscape:collect="always"
       xlink:href="#linearGradient12036"
       id="radialGradient12955"
       gradientUnits="userSpaceOnUse"
       gradientTransform="matrix(1,0,0,0.648083,-103.8442,-19.68332)"
       cx="294.68018"
       cy="-100.10563"
       fx="294.68018"
       fy="-100.10563"
       r="31.00503" />
    <radialGradient
       inkscape:collect="always"
       xlink:href="#linearGradient12036"
       id="radialGradient12959"
       gradientUnits="userSpaceOnUse"
       gradientTransform="matrix(1,0,0,0.648083,-73.58868,250.7007)"
       cx="294.68018"
       cy="-100.10563"
       fx="294.68018"
       fy="-100.10563"
       r="31.00503" />
    <radialGradient
       inkscape:collect="always"
       xlink:href="#linearGradient12036"
       id="radialGradient13838"
       gradientUnits="userSpaceOnUse"
       gradientTransform="matrix(1,0,0,0.648083,-73.58868,250.7007)"
       cx="294.68018"
       cy="-100.10563"
       fx="294.68018"
       fy="-100.10563"
       r="31.00503" />
    <radialGradient
       inkscape:collect="always"
       xlink:href="#linearGradient16469"
       id="radialGradient16475"
       cx="344.48248"
       cy="323.98358"
       fx="344.48248"
       fy="323.98358"
       r="5.9929881"
       gradientTransform="matrix(1,0,0,0.937021,0,20.40421)"
       gradientUnits="userSpaceOnUse" />
    <radialGradient
       inkscape:collect="always"
       xlink:href="#linearGradient12036"
       id="radialGradient16495"
       gradientUnits="userSpaceOnUse"
       gradientTransform="matrix(1,0,0,0.648083,-73.58868,250.7007)"
       cx="294.68018"
       cy="-100.10563"
       fx="294.68018"
       fy="-100.10563"
       r="31.00503" />
    <linearGradient
       inkscape:collect="always"
       xlink:href="#linearGradient4055"
       id="linearGradient16497"
       gradientUnits="userSpaceOnUse"
       gradientTransform="translate(-573.0434,194.1562)"
       x1="689.58221"
       y1="140.56271"
       x2="1107.2654"
       y2="-24.000799" />
    <radialGradient
       inkscape:collect="always"
       xlink:href="#linearGradient16469"
       id="radialGradient16499"
       gradientUnits="userSpaceOnUse"
       gradientTransform="matrix(1,0,0,0.937021,0,20.40421)"
       cx="344.48248"
       cy="323.98358"
       fx="344.48248"
       fy="323.98358"
       r="5.9929881" />
  </defs>
  <sodipodi:namedview
     id="base"
     pagecolor="#ffffff"
     bordercolor="#666666"
     borderopacity="1.0"
     inkscape:pageopacity="0.0"
     inkscape:pageshadow="2"
     inkscape:zoom="0.49497475"
     inkscape:cx="1120.7454"
     inkscape:cy="147.84943"
     inkscape:document-units="px"
     inkscape:current-layer="layer1"
     inkscape:window-width="1440"
     inkscape:window-height="875"
     inkscape:window-x="0"
     inkscape:window-y="25"
     showgrid="false"
     fit-margin-top="0"
     fit-margin-left="0"
     fit-margin-right="0"
     fit-margin-bottom="0"
     inkscape:window-maximized="0" />
  <metadata
     id="metadata7">
    <rdf:RDF>
      <cc:Work
         rdf:about="">
        <dc:format>image/svg+xml</dc:format>
        <dc:type
           rdf:resource="http://purl.org/dc/dcmitype/StillImage" />
      </cc:Work>
    </rdf:RDF>
  </metadata>
  <g
     inkscape:label="Layer 1"
     inkscape:groupmode="layer"
     id="layer1"
     transform="translate(-83.772305,-92.071489)">
    <g
       id="g16477"
       transform="matrix(-0.580359,-0.04052693,-0.03650908,0.522822,521.56311,-15.70769)">
      <g
         transform="translate(116.364,147.7516)"
         id="g13834">
        <path
           style="fill:url(#radialGradient16495);fill-opacity:1;fill-rule:evenodd;stroke:#000000;stroke-width:1px;stroke-linecap:butt;stroke-linejoin:miter;stroke-opacity:1"
           d="m 205.66127,167.7108 c -7.99605,3.29936 -11.82534,4.54428 -14.57993,8.20959 -2.61412,6.52825 5.68104,20.54226 11.90468,24.90914 9.40174,5.83833 21.83532,6.03948 31.61922,0.97681 5.11412,-2.51123 9.05215,-6.75684 12.87606,-10.86238 2.33154,-2.7153 4.38462,-6.11078 4.08622,-9.82691 -1.64517,-3.77086 -12.19516,-8.77253 -15.5148,-10.76543 -3.31964,-1.9929 -21.21758,-6.42618 -30.39145,-2.64082 z"
           id="path11144"
           sodipodi:nodetypes="cccccczz"
           inkscape:connector-curvature="0" />
        <path
           style="fill:#001b00;fill-opacity:0.82122904;fill-rule:evenodd;stroke:#000000;stroke-width:1.44958067px;stroke-linecap:butt;stroke-linejoin:miter;stroke-opacity:1"
           d="m 215.55197,173.98198 c -3.55267,1.44894 -8.16227,0.41714 -10.93597,4.09526 4.94915,17.35988 25.92296,17.25158 31.30469,7.8629 2.43175,-4.24227 -1.22319,-6.13931 -3.98355,-7.9175 -5.17301,-2.85805 -10.77977,-4.36646 -16.38517,-4.04066 z"
           id="path12046"
           sodipodi:nodetypes="ccscc"
           inkscape:connector-curvature="0" />
      </g>
      <path
         sodipodi:nodetypes="cccccccccccccccccccccccccccccccccccccczcccccccccccccccccccc"
         id="path1374"
         d="m 282.37498,236.50894 c -23.72078,2.99869 -20.26935,30.39561 -19.45431,47.87771 5.77289,15.55299 -15.29592,18.63603 -17.29567,32.05978 -7.8421,10.92458 -12.73148,23.82116 -6.84375,35.1875 -4.55235,13.34352 40.54787,7.96995 29.61656,22.22652 -7.79979,5.37494 -33.35008,16.34979 -22.52009,24.54087 14.91103,-10.09602 37.39788,-20.79139 55.03164,-15.36037 1.2314,11.27512 12.31753,27.09282 13.96266,6.26854 41.34761,-22.02929 61.5756,10.34058 95.28423,28.48069 18.34143,11.51739 44.03818,12.0536 58,29.71875 -7.56949,19.57624 -12.32815,43.55071 -29.08493,57.2608 -10.2018,7.05787 -21.23256,4.04746 -30.1774,-3.48735 -25.96475,-2.91654 23.01416,21.22536 -3.78692,25.84297 -17.8988,8.98931 -40.80992,3.27936 -57.98801,11.62188 15.19524,15.41212 43.26085,-1.34097 59.44607,10.34103 -4.04619,8.22786 -31.47455,34.58495 -5.90531,23.17885 15.95081,-12.60222 33.17328,-22.77712 52.61574,-28.78841 23.30589,-7.96632 37.7762,-29.00455 50.78701,-48.31352 10.52199,-15.80873 16.70605,-31.56258 28.16423,-46.57537 -13.18012,-21.30309 -10.68785,-15.70858 9.49202,-16.23713 6.18106,18.4494 15.60829,41.85016 33.61484,50.69934 23.00273,12.60434 33.28183,-10.40796 45.32266,-24.69934 12.84562,-7.97003 17.38196,-21.67123 22.86236,-34.18638 6.05803,0.70614 16.26613,-31.32501 13.92369,-9.56031 -6.3488,21.89199 6.35306,42.49605 5.52645,63.24669 -8.54313,17.08125 -9.48956,18.1515 -25.54759,27.97385 -11.37758,2.62753 -19.55759,13.74322 -1.62198,13.3929 21.28256,16.28126 -17.20608,29.92154 -22.61168,42.69575 14.2761,-2.12869 49.07045,-17.52559 43.05763,12.50416 -3.47677,14.50599 -8.34782,28.90372 -14.40138,42.30834 22.97141,2.93778 22.82192,-29.22318 34.87676,-42.8722 13.55036,-18.7251 41.50825,39.55843 37.37468,7.31019 -5.65405,-21.71183 -25.44308,-40.96452 -16.25042,-64.64788 1.69938,-20.34674 8.76109,-41.19287 1.60668,-61.36191 -1.96017,-20.73928 -6.36851,-40.64263 -14.61281,-59.6691 -13.75918,-13.83618 -19.80627,-39.22012 -43.93576,-37.9901 -9.55727,2.67497 -17.49679,12.41331 -25.49663,18.606 -17.67662,26.96776 -13.0548,17.61795 -23.34632,-13.6274 5.19005,-16.49919 0.0329,-22.41041 -8.08069,-26.37316 -8.11359,-3.96275 -16.17405,-10.77604 -22.29174,-19.82507 14.21405,5.34723 32.79307,11.16918 45.0625,-2.48687 9.50092,0.76141 4.64446,-25.76451 -6.03125,-25.90625 -20.23708,1.72021 -36.93445,-7.80309 -56.4375,-8.15625 -13.58436,1.7192 -20.25407,-3.79243 -28.125,-13.96875 -15.10977,-17.66957 -37.0209,-9.69073 -56.23749,-15.93663 -28.48201,-4.84531 -57.57342,-12.05319 -86.66238,-9.50251 -21.61245,-4.57914 -45.52497,-3.3942 -65.13767,7.2513 -7.14288,-7.26734 -16.11675,-8.6984 -25.74373,-11.06215 z m 53.34375,77.4375 c 15.28844,-0.51727 29.7883,12.73759 32.54235,22.51666 -7.58581,14.28852 -29.94817,18.28769 -43.69858,12.63958 8.07907,-3.50057 -11.65945,-8.10982 -10.37696,-14.29326 -9.25575,-7.79804 -3.79054,-23.96911 8.59571,-19.61299 -7.68273,0.7475 0.75826,9.80162 4.28125,6.3125 -0.39378,-0.70444 -3.70848,-3.76716 -0.0656,-2.33571 8.56278,7.22375 12.54315,3.53151 6.69801,-4.19455 l 1.6488,-0.96974 0.375,-0.0625 -2e-5,10e-6 z"
         style="fill:#325905;fill-opacity:1;stroke:#000000;stroke-width:6.0999999;stroke-miterlimit:4;stroke-opacity:1;stroke-dasharray:none"
         inkscape:connector-curvature="0" />
      <path
         id="path3131"
         d="m 256.58916,362.71114 c 0,0 59.54601,18.40513 79.03379,18.40513 19.48779,0 59.54601,-15.15716 59.54601,-15.15716"
         style="fill:none;stroke:#000000;stroke-width:5.19999981;stroke-linecap:butt;stroke-linejoin:miter;stroke-miterlimit:4;stroke-opacity:1;stroke-dasharray:none"
         inkscape:connector-curvature="0" />
      <path
         sodipodi:nodetypes="ccccccscc"
         id="path3136"
         d="m 611.90625,379.25 c -2.52386,0.31565 -0.21427,-1.48257 -5.72768,4.72768 1.59358,7.63573 -4.83151,-4.36495 -7.62946,8.56697 -3.41934,12.88283 -9.93481,27.1879 -10.33036,36.83035 -1.4631,8.89513 -7.15779,17.50204 -7.96875,26.21875 5.5983,-1.28195 7.17046,-7.37308 7.70642,-12.1379 5.06599,-10.86106 5.85359,-23.52164 10.47215,-34.19246 4.55354,-10.52058 7.90513,-18.79043 15.3125,-29.6875 L 611.90625,379.25 z"
         style="fill:#000000;fill-opacity:1;fill-rule:nonzero;stroke:none"
         inkscape:connector-curvature="0" />
      <path
         id="path3151"
         d="m 441.1875,386 c 28.01383,13.51761 54.70291,30.48432 78.53125,50.40625 3.91616,3.87769 6.6662,8.84973 9.9375,13.09375 1.40312,-0.85612 5.89491,-0.99802 5.3125,-2.90625 C 521.51898,423.77311 494.3353,415.59913 474,400.4375 463.78496,394.59319 452.42491,387.69043 441.1875,386 z"
         style="fill:#000000;fill-opacity:1;fill-rule:nonzero;stroke:none"
         inkscape:connector-curvature="0" />
      <path
         sodipodi:nodetypes="csssssssss"
         id="path3180"
         d="m 252.59151,307.78272 c 9.32558,-6.20724 16.9651,-20.26387 39.58524,-28.27517 14.16624,-5.01721 9.82462,-5.65504 15.47966,-13.19508 5.65503,-7.54005 1.52571,-15.63516 11.95365,-20.40266 22.79705,-10.42247 162.9528,-2.21748 176.1479,7.20758 13.1951,9.42506 68.3317,34.40146 58.4354,39.58524 -9.8963,5.18378 -50.31331,-1.75915 -96.3796,-9.00413 -35.39432,-5.56657 -68.34846,-8.60456 -94.25059,1.55254 -25.30965,9.92477 -16.72109,5.56657 -41.22624,11.22161 -24.50515,5.65503 -72.41973,13.09013 -69.74542,11.31007 z"
         style="opacity:0.36516855;fill:url(#linearGradient16497);fill-opacity:1;fill-rule:evenodd;stroke:none"
         inkscape:connector-curvature="0" />
      <path
         sodipodi:nodetypes="csssssssssssss"
         id="path5809"
         d="m 406.41047,375.82233 c -7.31163,5.86551 2.53886,10.82351 4.54231,18.375 2.19406,8.26992 40.74397,22.91787 49.28843,30.3199 12.39856,10.74082 26.73968,20.1028 35.97374,33.74946 5.89408,8.71064 1.73431,20.81281 -5.70125,27.97715 -11.21364,10.80462 -24.16441,19.87253 -33.28628,32.84064 -8.31147,11.816 -22.04793,18.30156 -35.25751,23.77034 -10.39956,4.30543 -25.5536,25.13561 -21.94358,25.04651 6.39908,-0.15793 35.52705,-20.47412 53.5007,-28.97924 17.77118,-8.40931 33.74846,-17.63134 41.86114,-37.21703 6.44503,-15.55966 20.24603,-27.25268 27.03413,-44.01829 8.83889,-21.83077 -4.88296,-21.99831 -13.92981,-30.00395 -15.91128,-14.08006 -35.29598,-24.06064 -54.48318,-33.2146 -12.332,-5.88343 -46.7194,-19.35139 -47.59884,-18.64589 z"
         style="opacity:0.21910113;fill:#70e700;fill-opacity:1;fill-rule:nonzero;stroke:none"
         inkscape:connector-curvature="0" />
      <path
         sodipodi:nodetypes="cssssssssss"
         id="path6697"
         d="m 663.8922,395.85892 c -4.99611,2.21521 -4.02031,11.82931 -2.79845,18.76608 2.32016,13.17199 9.74424,25.01613 11.3125,38.6875 3.18075,27.72828 4.36045,47.81455 4.14108,75.39017 -0.11065,13.90829 10.97538,28.0413 20.33804,37.68197 4.31099,4.43898 2.98254,16.24398 8.6529,17.20005 4.97873,0.83945 9.38196,-2.41265 7.77423,-6.36594 -6.21555,-15.28357 -28.18627,-28.38224 -28.99297,-48.52971 -0.98159,-24.51547 6.04625,-48.39326 4.08672,-73.00154 -1.27171,-15.97042 -4.91315,-31.64071 -11.375,-46.1875 -0.58226,-1.31076 -10.86115,-14.65107 -13.13905,-13.64108 z"
         style="opacity:0.3258427;fill:#5ffd00;fill-opacity:0.57541899;fill-rule:nonzero;stroke:none"
         inkscape:connector-curvature="0" />
      <path
         id="path7586"
         d="m 586.19765,365.50905 c -1.63441,1.0195 -6.63953,1.21571 -4.125,4.125 3.03038,6.55361 1.72366,14.55438 -3.76433,19.41888 -3.60927,4.29338 -3.8083,4.66574 0.13933,0.48737 5.6774,-6.1341 14.03905,-15.75737 8,-24.15625 l -0.25,0.125 z m -4.75,2.09375 c 0.0429,-0.0577 -0.10364,-0.0325 0,0 z m -21.6875,41.09375 c -7.94935,8.66 -18.49192,18.03936 -18.5625,30.59375 -0.99279,4.24399 4.34991,1.30641 5.53125,-0.375 -3.49078,-12.91317 6.96439,-23.64462 15.0625,-32.15625 1.38735,-1.52871 -1.9227,1.8743 -2.03125,1.9375 z"
         style="fill:#000000;fill-opacity:1;fill-rule:nonzero;stroke:none"
         inkscape:connector-curvature="0" />
      <path
         sodipodi:nodetypes="ccccccc"
         id="path7601"
         d="m 525.73767,273.09375 c -5.34153,-0.182 -3.40123,0.14642 -5.26357,1.15214 18.77638,21.75397 22.18744,22.00288 29.10251,35.16412 5.71642,8.67561 18.35042,16.2765 25.60019,23.87124 6.47935,-1.14763 0.44277,-0.6439 1.50124,-1.38446 -7.96878,-5.585 -13.88784,-14.77845 -19.4893,-22.22821 -7.3866,-13.80165 -16.77004,-25.53888 -31.45107,-36.57483 z"
         style="fill:#000000;fill-opacity:1;fill-rule:nonzero;stroke:none"
         inkscape:connector-curvature="0" />
      <path
         sodipodi:nodetypes="czzzzzczzzz"
         id="path7617"
         d="m 400.69801,360.79561 c -5.97484,1.11028 -12.30798,10.95607 -21.98088,12.125 -9.67289,1.16894 -27.80649,4.49256 -30.82001,7.14076 -3.01351,2.64819 -15.04212,-0.80842 -16.80751,2.52007 -1.76538,3.3285 4.53521,2.56232 7.75822,2.7641 3.22302,0.20178 23.20652,2.51578 26.45157,4.1673 3.24506,1.65152 9.74308,6.7771 15.86189,13.30141 3.453,-2.13957 5.20226,-2.79062 5.82546,-8.17056 0.6232,-5.37995 4.78413,-14.25456 10.61158,-18.29011 5.82745,-4.03554 21.51278,-20.27753 22.81393,-21.76394 1.30116,-1.4864 -13.7394,5.09569 -19.71425,6.20597 z"
         style="opacity:0.37078654;fill:#000000;fill-opacity:1;fill-rule:nonzero;stroke:none"
         inkscape:connector-curvature="0" />
      <path
         sodipodi:nodetypes="cccccccccccccc"
         id="path10262"
         d="m 591.625,370.21875 c -2.97859,2.33062 -0.5209,6.84849 -0.74496,10.04466 0.12087,8.70442 0.67814,17.54178 -1.40959,26.08248 -1.22397,6.85552 -2.94617,16.96215 -3.49376,23.83112 -2.81557,7.96895 -2.2236,13.26097 -6.72669,20.51049 0.33715,3.88892 1.66194,2.51422 3.95972,1.26019 5.42837,-7.13808 11.87023,-19.81047 12.51266,-23.84862 1.47386,-5.15036 2.97206,-10.6627 5.72378,-15.09842 8.87722,-9.41716 16.32021,-20.37526 20.75043,-32.58793 2.71894,-9.54407 -4.60799,-7.94987 -7.1642,-3.82591 -3.99619,3.80887 -6.82327,8.63899 -10.71989,12.53819 -4.43027,0.12409 -3.45377,-6.62123 -6.79554,-8.6641 -3.43636,-2.68785 -2.10236,-7.16971 -3.89628,-10.34561 -0.52048,-0.62775 -1.54559,-0.61047 -1.99568,0.10346 z"
         style="opacity:0.53932585;fill:#000000;fill-opacity:0.39664803;fill-rule:evenodd;stroke:none"
         inkscape:connector-curvature="0" />
      <path
         id="path15590"
         d="m 342.96875,318.40625 c -6.73145,0.56229 -5.46585,11.50983 1.0625,11 4.75747,1.38584 9.09803,-5.04562 4.46875,-8.125 -1.31413,-1.72352 -3.27563,-3.1691 -5.53125,-2.875 z"
         style="fill:url(#radialGradient16499);fill-opacity:1;fill-rule:evenodd;stroke:none"
         inkscape:connector-curvature="0" />
      <path
         id="path13840"
         d="m 343.21875,322.40625 c -2.99896,2.31436 1.70887,3.71592 3.09375,2.75 -0.66583,-1.03169 -2.00568,-3.14095 -3.09375,-2.75 z"
         style="fill:#ffffff;fill-opacity:1;fill-rule:evenodd;stroke:none"
         inkscape:connector-curvature="0" />
    </g>
  </g>
</svg>
