<?xml version="1.0" encoding="UTF-8" standalone="no"?>
<!-- Created with Inkscape (http://www.inkscape.org/) -->
<svg
   xmlns:dc="http://purl.org/dc/elements/1.1/"
   xmlns:cc="http://web.resource.org/cc/"
   xmlns:rdf="http://www.w3.org/1999/02/22-rdf-syntax-ns#"
   xmlns:svg="http://www.w3.org/2000/svg"
   xmlns="http://www.w3.org/2000/svg"
   xmlns:sodipodi="http://sodipodi.sourceforge.net/DTD/sodipodi-0.dtd"
   xmlns:inkscape="http://www.inkscape.org/namespaces/inkscape"
   version="1.0"
   width="644.6665"
   height="567.29358"
   id="svg602"
   xml:space="preserve"
   sodipodi:version="0.32"
   inkscape:version="0.45.1"
   sodipodi:docname="achtung_frosch.svg"
   sodipodi:docbase="/home/wipp/bilder/svg"
   inkscape:output_extension="org.inkscape.output.svg.inkscape"><metadata
     id="metadata2215"><rdf:RDF><cc:Work
         rdf:about=""><dc:format>image/svg+xml</dc:format><dc:type
           rdf:resource="http://purl.org/dc/dcmitype/StillImage" /><cc:license
           rdf:resource="http://web.resource.org/cc/PublicDomain" /><dc:title>Caution Frog Sign</dc:title><dc:date>2007-11-27</dc:date><dc:creator><cc:Agent><dc:title>Gerhard Br  unlich</dc:title></cc:Agent></dc:creator><dc:publisher><cc:Agent><dc:title>openclipart.org</dc:title></cc:Agent></dc:publisher></cc:Work><cc:License
         rdf:about="http://web.resource.org/cc/PublicDomain"><cc:permits
           rdf:resource="http://web.resource.org/cc/Reproduction" /><cc:permits
           rdf:resource="http://web.resource.org/cc/Distribution" /><cc:permits
           rdf:resource="http://web.resource.org/cc/DerivativeWorks" /></cc:License></rdf:RDF></metadata><sodipodi:namedview
     inkscape:cy="313.13755"
     inkscape:cx="455.24294"
     inkscape:zoom="0.73117639"
     inkscape:window-height="956"
     inkscape:window-width="1280"
     inkscape:pageshadow="2"
     inkscape:pageopacity="0.0"
     guidetolerance="10.0"
     gridtolerance="10.0"
     objecttolerance="10.0"
     borderopacity="1.0"
     bordercolor="#666666"
     pagecolor="#ffffff"
     id="base"
     inkscape:window-x="0"
     inkscape:window-y="0"
     inkscape:current-layer="svg602" /><defs
     id="defs604" /><path
     d="M 338.77547,9.0505775 L 642.77082,524.37583 C 646.71433,531.0623 643.81925,541.33062 640.31626,547.53396 C 636.81327,553.736 629.51263,561.51802 621.75025,561.59199 L 23.466988,567.29307 C 15.705928,567.36703 8.2595011,559.72552 4.6409536,553.59135 C 1.0223938,547.45587 -2.0645294,537.24324 1.753035,530.48412 L 296.04095,9.4577973 C 299.85851,2.6986813 310.19868,0.069251485 317.32154,0.0013773362 C 324.44308,-0.066484273 334.83197,2.3654171 338.77547,9.0505775 z "
     style="font-size:12px;fill:#c00000;fill-opacity:1;fill-rule:evenodd;stroke:none;stroke-width:0.0665;stroke-dasharray:none"
     id="path634" /><path
     d="M 189.89415,406.19199 L 189.89415,406.19199 L 144.89415,432.17275 L 144.89415,432.17275 L 144.89415,380.21122 L 144.89415,380.21122 L 189.89415,406.19199 z "
     transform="matrix(-9.125045e-2,-9.741674,9.740768,-9.281967e-2,-3619.7597,1961.7546)"
     style="font-size:12px;opacity:1;fill:#ffffff;fill-opacity:1;fill-rule:evenodd;stroke-width:1"
     id="polygon618" /><path
     d="M 268.62568,364.70411 C 267.72428,360.21031 263.62958,355.12971 260.61228,351.59121 C 257.90308,348.25281 250.60008,343.45471 242.54558,335.12721 C 240.00378,332.72171 238.43978,331.08301 236.42628,327.69661 C 234.16598,323.89521 234.00198,316.87701 235.84348,312.83531 C 237.74158,308.66931 240.95738,305.89321 242.83698,304.53051 L 248.66498,300.30521 L 245.75098,295.64291 C 245.22108,294.79511 244.76618,287.65921 249.10208,284.13271 C 253.74168,280.51521 259.45408,281.25061 263.08918,281.51021 C 269.65288,281.97901 272.29748,283.02971 276.20198,284.42411 C 282.49638,286.67221 287.56648,289.37791 293.68588,292.29181 C 297.13408,290.34911 300.78448,289.03101 304.03048,289.52351 C 307.82658,290.09951 310.14668,292.09951 312.18958,294.18591 C 314.71178,296.76181 315.25908,299.10141 315.97778,301.76221 C 317.05618,305.75501 318.44128,309.88721 321.51428,313.27251 C 324.65768,316.73521 327.79878,318.96611 332.00458,320.99451 C 338.77478,324.25981 345.63978,326.48041 352.69378,328.27941 C 360.11248,330.17141 366.56788,332.62461 373.23728,335.56441 C 381.33198,339.13241 389.06998,344.30621 396.54918,349.11431 C 395.04358,346.05461 393.04208,343.15971 390.28408,340.80951 C 387.45698,338.40031 384.66968,337.11301 380.66798,335.27291 C 378.01608,334.05341 375.22858,333.13611 372.50888,332.06761 C 373.82018,328.61941 376.13388,325.16841 379.93948,323.03421 C 383.32168,321.13731 387.81788,319.61951 392.03248,320.84881 C 398.30818,322.67921 403.38418,327.47291 407.18508,330.90201 C 412.32028,335.53491 416.99428,340.32471 420.58938,345.47181 C 428.01888,356.10851 432.97788,365.65571 437.19908,374.32021 C 439.43718,378.91411 442.27798,383.37511 443.90118,387.43301 C 445.19198,390.66001 445.75668,394.18561 443.31838,397.04921 C 441.58008,399.09071 439.13578,400.50731 436.17918,400.40021 C 432.43368,400.26451 428.78308,397.92021 425.83458,393.69811 C 420.57538,386.16721 421.41498,384.85901 410.68188,369.07501 C 410.48758,370.96911 410.85668,373.01501 411.41038,374.75731 C 412.84788,379.28001 414.83908,382.89941 417.09258,386.55891 C 420.52138,392.12701 422.93148,397.79061 424.96038,403.75141 C 426.26938,407.16911 427.45948,410.74291 427.43718,413.80451 C 427.22978,417.58511 427.43728,420.06951 426.12598,423.85771 C 430.44838,423.80921 434.08878,424.72991 436.61628,427.06311 C 439.77098,429.97511 441.73908,432.84291 441.71568,436.53351 C 441.69048,440.51631 440.39638,443.07691 437.78198,445.56681 C 435.29698,447.93351 432.87918,449.80261 429.18558,450.66631 C 423.11738,452.08521 417.48748,452.90301 409.66198,452.70601 C 403.98608,452.56311 398.30088,452.44511 391.74108,452.26901 C 383.82808,452.05651 377.64838,452.29121 368.42928,453.28881 C 364.63258,453.69961 360.83068,454.10991 357.06478,454.74581 L 345.84598,456.63991 C 346.81738,458.92251 346.76148,460.81941 345.99168,462.90501 C 345.25588,464.89891 343.53578,465.84881 341.47498,466.40171 C 339.55338,466.91731 337.01998,466.58101 335.20998,465.09041 C 333.71748,463.86121 333.18618,461.08411 333.46158,458.82541 C 333.67188,457.10161 335.28198,454.88211 336.95838,453.87171 C 338.82738,452.74521 341.37768,451.10261 344.24328,450.37491 C 347.49708,449.54851 350.31408,448.43221 353.85938,447.31521 L 321.65998,449.64641 C 322.43708,453.19171 322.41008,455.56061 319.76588,457.65971 C 317.69928,459.30021 313.95768,459.58931 311.16968,457.07701 C 309.53828,455.60691 309.53008,452.74611 310.44118,450.66631 C 311.76408,447.64661 316.61498,445.95541 320.49438,445.27531 L 342.93208,441.34161 L 308.54708,439.15601 C 308.15858,442.07001 307.41148,443.94271 305.19608,444.83831 C 302.84638,445.78821 300.92208,446.33531 298.78528,444.25551 C 297.27968,442.79001 296.69398,440.05101 297.76538,437.69911 C 298.68518,435.68001 300.36048,434.52241 303.44768,433.76521 C 305.50858,433.25971 307.33308,433.13391 309.85838,433.18251 C 321.02858,432.98821 332.19888,433.08531 343.36908,432.89101 C 342.15488,430.46271 341.37788,427.59731 341.47498,424.73191 C 334.57858,425.07181 328.94108,425.59001 322.09708,423.56631 C 314.32268,421.26751 309.87108,418.60041 303.73908,412.20181 C 298.70088,406.94451 295.35238,402.95831 291.20898,395.59221 C 289.23308,392.07941 288.19788,390.58981 285.81808,384.81041 C 285.57528,387.57871 285.52068,389.80061 286.40088,392.24111 C 287.65768,395.72571 289.77088,398.11301 289.75198,400.40021 C 289.71038,406.07771 288.20198,409.56771 285.81808,413.95021 C 283.39398,418.40671 279.96018,420.90971 274.30798,422.98351 L 254.05578,430.41411 C 254.39578,433.76521 254.33488,435.84181 252.59888,437.55341 C 250.88678,439.24141 248.77838,440.51991 245.75098,439.59321 C 244.01878,439.06291 242.83658,437.73111 242.39988,435.51361 C 242.05958,434.47721 242.28558,432.24651 243.85688,430.70551 C 247.33658,427.29291 250.80188,425.16891 255.36708,422.83781 L 236.86338,427.20881 C 237.59188,429.05431 236.75328,431.26671 234.96928,433.03681 C 233.50858,434.48621 230.48888,434.97211 227.97578,433.03671 C 226.26358,431.71811 225.86788,428.33751 226.81018,426.62601 C 228.24758,424.01511 230.84108,423.37221 233.94938,424.00341 L 246.77088,412.34751 L 225.64458,417.88411 C 225.30458,419.53531 224.88888,420.69691 223.75048,421.52651 C 222.02348,422.78521 219.69198,423.29331 217.48548,422.10931 C 215.70958,421.15651 214.70878,419.11501 214.86288,416.57281 C 215.00018,414.30701 216.35328,412.81721 218.79678,411.91041 C 221.06418,411.06891 222.24488,411.57041 224.18758,412.93031 L 240.94298,406.95671 C 236.52338,405.49971 229.23848,404.33411 226.51878,404.47981 C 225.98448,405.64541 225.47968,407.27191 224.18758,407.39381 C 222.90568,407.51481 221.35538,407.55141 219.81658,405.49971 C 218.58708,403.86031 218.65088,402.47401 219.67088,400.40031 C 220.97188,397.94101 224.70248,395.37721 227.97578,396.17501 C 238.25248,398.67971 248.05378,401.09531 258.28108,403.75131 C 260.58378,404.34931 262.39258,405.39681 264.10898,404.47981 C 265.93788,403.50271 265.84618,401.58261 266.14878,398.94321 C 266.42898,394.10341 265.85738,390.15281 265.42028,385.53901 C 264.88608,378.49691 264.81338,374.43471 267.46008,368.63801 C 267.70318,368.10541 268.92888,366.94191 268.62568,364.70411 z "
     style="opacity:1;fill:#000000;fill-opacity:1;fill-rule:nonzero;stroke:none;stroke-width:0.125;stroke-linecap:butt;stroke-linejoin:miter;stroke-dasharray:none;stroke-opacity:1"
     id="path612" /><path
     d="M 252.30748,305.25891 C 247.69368,308.17291 244.32928,310.24471 242.39998,315.31221 C 240.68678,319.81221 241.17508,324.03981 244.43978,328.27931 C 248.16868,333.12161 251.67398,333.70531 256.38708,332.94171 C 262.16428,332.00561 264.26468,328.19561 264.54618,323.17981 C 264.79888,318.67671 258.71818,312.54381 252.30748,305.25891 z "
     style="fill:#ffffff;fill-opacity:1;fill-rule:evenodd;stroke:none;stroke-width:0.125;stroke-linecap:butt;stroke-linejoin:miter;stroke-dasharray:none;stroke-opacity:1"
     id="path613" /><path
     d="M 346.76285 517.93945 A 7.4306335 7.4306335 0 1 1  331.90158,517.93945 A 7.4306335 7.4306335 0 1 1  346.76285 517.93945 z"
     transform="matrix(1.176469,0,0,1.176469,-116.16427,-292.1339)"
     style="fill:#ffffff;fill-opacity:1;fill-rule:evenodd;stroke:#ffffff;stroke-width:0.125;stroke-linecap:butt;stroke-linejoin:miter;stroke-dasharray:none;stroke-opacity:1"
     id="path614" /><path
     d="M 346.76285 517.93945 A 7.4306335 7.4306335 0 1 1  331.90158,517.93945 A 7.4306335 7.4306335 0 1 1  346.76285 517.93945 z"
     transform="matrix(0.764707,0,0,0.764707,22.102922,-79.885894)"
     style="fill:#000000;fill-opacity:1;fill-rule:evenodd;stroke:none;stroke-width:0.125;stroke-linecap:butt;stroke-linejoin:miter;stroke-dasharray:none;stroke-opacity:1"
     id="path615" /><path
     d="M 347.44868,431.87111 C 350.41118,431.53111 353.37378,431.19121 356.33628,430.85121 C 351.72248,423.46921 353.06548,416.93451 356.04498,413.65881 C 360.88458,408.33821 367.94368,405.54821 378.04548,406.37381 C 362.64998,400.69151 351.17738,408.19701 347.44868,414.96991 C 344.45888,420.62141 346.04028,429.92841 347.44868,431.87111 z "
     style="fill:#ffffff;fill-opacity:1;fill-rule:evenodd;stroke:none;stroke-width:0.125;stroke-linecap:butt;stroke-linejoin:miter;stroke-dasharray:none;stroke-opacity:1"
     id="path616" /></svg>