<?xml version="1.0" encoding="UTF-8" standalone="no"?>
<!-- Created with Inkscape (http://www.inkscape.org/) -->

<svg
   xmlns:dc="http://purl.org/dc/elements/1.1/"
   xmlns:cc="http://creativecommons.org/ns#"
   xmlns:rdf="http://www.w3.org/1999/02/22-rdf-syntax-ns#"
   xmlns:svg="http://www.w3.org/2000/svg"
   xmlns="http://www.w3.org/2000/svg"
   xmlns:inkscape="http://www.inkscape.org/namespaces/inkscape"
   version="1.1"
   viewBox="0 0 306.25 83.75"
   id="svg2"
   xml:space="preserve"><metadata
     id="metadata8"><rdf:RDF><cc:Work
         rdf:about=""><dc:format>image/svg+xml</dc:format><dc:type
           rdf:resource="http://purl.org/dc/dcmitype/StillImage" /></cc:Work></rdf:RDF></metadata><defs
     id="defs6" /><g
     transform="matrix(1.25,0,0,-1.25,0,83.75)"
     id="g10"><g
       transform="scale(0.1,0.1)"
       id="g12"><path
         d="m 111.109,348.039 -102.96838,0 0,307.207 c 0,0.414 0,2.281 0,2.281 l 168.84738,0 c 45.797,0.008 85.282,-29.632 98.164,-68.933 11.934,-36.403 1.731,-75.969 -25.187,-104.121 3.578,-9.703 7.066,-17.285 10.387,-26.004 7.472,-17.231 14.32,-34.457 21.796,-51.477 l 24.493,-58.953 -104.411,0 c 0,-0.051 -0.828,2.492 -1.66,3.531 -4.152,9.133 -7.886,18.887 -12.039,28.024 l -25.113,59.57 c -9.965,24.078 -19.93,46.828 -29.891,70.906 12.434,0.344 21.731,-1.988 33.735,3.528 8.429,4.148 21.211,14.464 21.539,34.238 -0.328,9.805 -3.039,17.223 -9.516,24.941 -6.512,7.176 -15.918,12.496 -28.176,12.672 0,0 -40.023,0.02 -40,0 l 0,-237.41"
         inkscape:connector-curvature="0"
         id="path14"
         style="fill:#00549f;fill-opacity:1;fill-rule:evenodd;stroke:none" /><path
         d="m 1186.6,657.484 0,-309.488 -102.96,0 0,126.203 -72.09,0 0,-126.203 c -18.675,0 -38.812,0.207 -57.491,0 l -45.473,0 0,237.875 -72.012,0 c 0,-2.285 0,-4.566 0,-7.473 l 0,-230.402 -102.969,0 0,237.875 -72.636,0 0,-237.875 -106.071,0 c -18.472,44.625 -37.984,89.668 -56.043,134.09 -2.074,9.34 -4.152,18.68 -6.851,27.812 l 0,-161.902 -106.277,0 c -21.067,48.984 -41.305,96.988 -62.321,146.699 -7.281,17.223 -13.234,31.239 -20.758,49.141 l -1.039,2.336 -16.343,38.402 -23.422,54.852 c -2.074,6.222 -5.395,11.828 -7.473,18.058 l 106.035,0 c 21.793,-52.929 43.797,-105.238 66.629,-157.339 l 0.625,-1.247 c -0.832,6.02 -2.707,13.7 -3.746,19.512 l 0,92.371 c 0.207,14.735 0,31.551 0,46.703 l 106.277,0 c 1.34,-3.375 2.082,-5.191 3.121,-7.89 12.454,-29.266 24.286,-58.324 36.739,-87.387 l 27.816,-63.309 0,0 c -0.625,6.645 -2.078,13.079 -2.906,19.512 l 0,139.074 416.589,0 0,-111.675 c 0,0 3.33,0 4.99,0 l 67.1,0 0,111.675 c 0,0 35.85,0 53.7,0 l 49.26,0 0,0"
         inkscape:connector-curvature="0"
         id="path16"
         style="fill:#00549f;fill-opacity:1;fill-rule:nonzero;stroke:none" /><path
         d="m 1188.78,347.832 64.73,0 14.24,65.16 81.99,0 14.24,-65.16 64.73,0 -81.56,308.113 -76.81,0 -81.56,-308.113 z m 119.53,254.606 0.87,0 29.77,-138.524 -60.41,0 29.77,138.524"
         inkscape:connector-curvature="0"
         id="path18"
         style="fill:#98bae5;fill-opacity:1;fill-rule:evenodd;stroke:none" /><path
         d="m 1394.17,347.832 64.73,0 14.24,65.16 81.99,0 14.24,-65.16 64.73,0 -81.56,308.113 -76.81,0 -81.56,-308.113 z m 119.53,254.606 0.87,0 29.77,-138.524 -60.41,0 29.77,138.524"
         inkscape:connector-curvature="0"
         id="path20"
         style="fill:#98bae5;fill-opacity:1;fill-rule:evenodd;stroke:none" /><path
         d="m 1819.2,551.945 c 0,44.879 -6.47,110.043 -95.36,110.043 -93.22,0 -104.87,-66.457 -104.87,-160.097 0,-93.645 11.65,-160.098 104.87,-160.098 81.55,0 97.95,57.391 97.95,123.848 l -62.14,0 c 0,-66.457 -16.4,-78.106 -38.83,-78.106 -26.76,0 -39.7,16.828 -39.7,110.039 0,87.168 7.33,118.672 38.83,118.672 28.05,0 37.11,-19.422 37.11,-64.301 l 62.14,0"
         inkscape:connector-curvature="0"
         id="path22"
         style="fill:#98bae5;fill-opacity:1;fill-rule:nonzero;stroke:none" /><path
         d="m 1831.24,347.832 62.14,0 0,136.797 72.5,0 0,-136.797 62.14,0 0,308.113 -62.14,0 0,-117.808 -72.5,0 0,117.808 -62.14,0 0,-308.113"
         inkscape:connector-curvature="0"
         id="path24"
         style="fill:#98bae5;fill-opacity:1;fill-rule:nonzero;stroke:none" /><path
         d="m 2045.25,655.945 0,-308.113 176.5,0 0,50.922 -114.36,0 0,82.851 103.57,0 0,50.922 -103.57,0 0,72.496 110.04,0 0,50.922 -172.18,0"
         inkscape:connector-curvature="0"
         id="path26"
         style="fill:#98bae5;fill-opacity:1;fill-rule:nonzero;stroke:none" /><path
         d="m 2235.58,655.945 0,-308.113 56.96,0 0,215.766 0.87,0 75.95,-215.766 70.77,0 0,308.113 -56.97,0 0,-211.019 -0.86,0 -75.09,211.019 -71.63,0"
         inkscape:connector-curvature="0"
         id="path28"
         style="fill:#98bae5;fill-opacity:1;fill-rule:nonzero;stroke:none" /><path
         d="m 1635.28,274.27 29.34,0 c 28.05,0 43.15,-14.239 43.15,-42.719 0,-33.227 -16.82,-46.176 -46.6,-46.176 l -25.89,0 0,88.895 z m -62.14,-262.3716 62.14,0 0,130.3246 33.22,0 c 25.03,0 35.82,-14.672 36.68,-38.84 l 1.73,-59.1174 c 0.43,-12.082 1.73,-23.7344 7.77,-32.3672 l 67.32,0 0,2.5899 c -11.65,6.0429 -13.38,22.8711 -13.81,55.2383 -0.87,65.1604 -7.34,88.4614 -49.63,94.0704 l 0,0.867 c 34.96,7.336 51.35,34.953 51.35,75.949 0,52.645 -31.07,79.403 -81.99,79.403 l -114.78,0 0,-308.1176"
         inkscape:connector-curvature="0"
         id="path30"
         style="fill:#98bae5;fill-opacity:1;fill-rule:evenodd;stroke:none" /><path
         d="m 656.984,320.016 0,-214.907 c 0,-82.4215 47.903,-99.24962 98.391,-99.24962 50.488,0 98.387,20.71482 98.387,99.24962 l 0,214.907 -62.137,0 0,-214.907 c 0,-30.6363 -7.34,-53.5074 -36.25,-53.5074 -28.914,0 -36.25,22.8711 -36.25,53.5074 l 0,214.907 -62.141,0"
         inkscape:connector-curvature="0"
         id="path32"
         style="fill:#98bae5;fill-opacity:1;fill-rule:nonzero;stroke:none" /><path
         d="m 868.977,320.016 0,-308.1176 56.961,0 0,215.7656 0.863,0 75.949,-215.7656 70.77,0 0,308.1176 -56.96,0 0,-211.02 -0.86,0 -75.091,211.02 -71.632,0"
         inkscape:connector-curvature="0"
         id="path34"
         style="fill:#98bae5;fill-opacity:1;fill-rule:nonzero;stroke:none" /><path
         d="m 1089.5,11.8984 62.1406,0 0,308.117 -62.1406,0 0,-308.117 z"
         inkscape:connector-curvature="0"
         id="path36"
         style="fill:#98bae5;fill-opacity:1;fill-rule:nonzero;stroke:none" /><path
         d="m 1155.9,320.016 70.77,-308.1176 79.83,0 70.77,308.1176 -64.29,0 -45.75,-227.8519 -1.29,0 -43.58,227.8519 -66.46,0"
         inkscape:connector-curvature="0"
         id="path38"
         style="fill:#98bae5;fill-opacity:1;fill-rule:nonzero;stroke:none" /><path
         d="m 1382.81,320.016 0,-308.1176 176.49,0 0,50.9219 -114.35,0 0,82.8557 103.57,0 0,50.922 -103.57,0 0,72.496 110.04,0 0,50.922 -172.18,0"
         inkscape:connector-curvature="0"
         id="path40"
         style="fill:#98bae5;fill-opacity:1;fill-rule:nonzero;stroke:none" /><path
         d="m 1775.07,108.133 0,-12.5158 c 0,-56.961 27.62,-89.75782 97.96,-89.75782 67.31,0 107.01,29.34372 107.01,94.50362 0,37.543 -12.08,61.278 -58.68,81.559 l -47.9,20.715 c -26.33,11.218 -31.94,22.871 -31.94,41.859 0,18.125 7.34,35.816 35.39,35.816 23.73,0 33.66,-16.832 33.66,-45.742 l 59.55,0 0,8.629 c 0,59.121 -40.13,82.856 -95.37,82.856 -58.69,0 -95.37,-30.641 -95.37,-90.621 0,-51.352 25.46,-74.223 80.7,-93.211 40.99,-14.239 55.24,-24.598 55.24,-52.6488 0,-25.8906 -18.13,-37.9726 -37.12,-37.9726 -32.79,0 -40.99,18.5546 -40.99,47.4687 l 0,9.0627 -62.14,0"
         inkscape:connector-curvature="0"
         id="path42"
         style="fill:#98bae5;fill-opacity:1;fill-rule:nonzero;stroke:none" /><path
         d="m 1988.16,11.8984 62.1406,0 0,308.117 -62.1406,0 0,-308.117 z"
         inkscape:connector-curvature="0"
         id="path44"
         style="fill:#98bae5;fill-opacity:1;fill-rule:nonzero;stroke:none" /><path
         d="m 2058.45,320.016 0,-50.922 67.32,0 0,-257.1956 62.14,0 0,257.1956 67.32,0 0,50.922 -196.78,0"
         inkscape:connector-curvature="0"
         id="path46"
         style="fill:#98bae5;fill-opacity:1;fill-rule:nonzero;stroke:none" /><path
         d="m 2218.58,320.016 79.83,-186.856 0,-121.2616 62.14,0 0,121.2616 79.84,186.856 -67.32,0 -43.16,-119.106 -0.86,0 -40.56,119.106 -69.91,0"
         inkscape:connector-curvature="0"
         id="path48"
         style="fill:#98bae5;fill-opacity:1;fill-rule:nonzero;stroke:none" /></g></g></svg>
